<?xml version="1.0" encoding="utf-8"?>
<!-- Generator: Adobe Illustrator 22.0.1, SVG Export Plug-In . SVG Version: 6.00 Build 0)  -->
<svg version="1.1" id="Layer_1" xmlns="http://www.w3.org/2000/svg" xmlns:xlink="http://www.w3.org/1999/xlink" x="0px" y="0px"
	 viewBox="0 0 1189.3 1123.2" style="enable-background:new 0 0 1189.3 1123.2;" xml:space="preserve">
<style type="text/css">
	.st0{opacity:0.15;fill:#FFFFFF;}
</style>
<path class="st0" d="M1189.1,512.4c-1.3-0.5-22.5-56.1-24.2-57.1c-4.7-2.7,0.4-2.3-8.9-8.1c-6.7-4.2-5.5-2.9-8.4-10.8
	c-3.2-8.7-5.4-22.2-9-30.1c-1.8-3.9-2.4-2.6-5-5.4c-3.9-4.2-1.9-7.2-9.8-9.3c-3.6-1-1.4,0.3-3.5-1.8c-0.1-0.1-0.2-0.3-0.3-0.4
	l-5.9-7.4l-7-21.7c1.7-1.8,3.5-2.2,3.9-5.2c0.8-5.6-4.2-15.6-4.8-22.1c1.1-0.8,1-0.5,2-1.2c1.2-0.8,0.5-0.2,1.3-1
	c-1-3.4-3.2-4.5-2.8-7.8c0.8-5.5,0.7-3.5,0.5-9c6.2-0.4,37.5-1.6,40.3-3.2l-39.4-3l-1-6.6c11.3-3.8,24-10,35.5-14.1
	c-1.7-0.8-2.6-0.4-3.3-0.3l-9,2.1c-4.2,1-7.7,2-11.8,3c-22.4,5.5-11.2,2.5-21.3-2.2c1.2-3.2,3.2-4.9,5.1-7.3l5.5-6.3
	c3.9-4.5,7.5-7.4,10.5-12.6c-3.3,1.3-6.8,4.7-9.4,7.1l-17.4,14.3c-2,0.9-8.9-1-11.5-2.1c-1.7-1.2-1.9-5.5-2.3-7.5l-3.8-22.8
	c-0.4-1-0.6-1.1-0.8-1.4c-1.7,4.7-0.9,24.4-1.8,31.4l-13.5,3.5c-6.1-2.4-23.4-18.8-29.1-21.1c5.9,9,17.7,17.7,22.7,24.9
	c-3.2,3-3.6,2.8-6,7l-27.2,0.1c2.3-20-5.8-33.2-8.7-50.5c-2-2.3-3.5-15-4.1-19.3c-1.4-9.3,0-14.2-0.3-22.8
	c-0.9-25.7-16.5-27-5.1-35.9c-0.2-3.3-0.3-2.4-1.7-5c8.3,0.5,12.5-2.8,16.1-8.5c-0.8-4.2-2.9-4.7-4.2-8.9c1.8-3.3,3.6-2.2,3.6-6.1
	c-0.3-0.3-1.6-1.4-1.7-1.4c-2.4-2.4-0.8-1.8-2.4-4.7l-14.1-3.7c0.1-0.1,0.3-0.3,0.4-0.4l1.2-1.2c1-1,0.2-0.1,1.1-1.2
	c2.2-2.7,3-6,3.6-9.6c1-5.9,1.3-11.4,1-17.4c-2,1.5-1.9,2.8-3.9,4.8l-3.2-6.7l-1.5,3.5c-4.6-2.6-6,2.2-11.3,4.4l-3.9-2.1
	c2.6,7.9-1.3,6.5-3.6,12.3c-2.2,5.5,0.8,10.4,2.9,13.3c-7.4,1.9-16,2.6-17.9,9.6c2.7,1.6,4.9,0.6,3.3,5.7c-1.8,6-10.7,11.7,5.2,16.6
	c-1.2,5.8,2.5,10.4,5.2,14.7l-3,3.7c0.7,3,1.2,2,1.8,3.6c1.5,4.1,0.3-0.3-0.4,3.4c-0.4,2.7,1.9,4.6,2.9,6.3c-3.6,4.7-2,7.9,0.8,13.5
	c3.7,7.2,2.4,6.8,1.8,15.3c0.6,2.6,0.6,2.3,2.5,4.1c0.3,0.3,0.7,0.9,0.8,0.7c0.1-0.1,0.3,0.2,0.4,0.4c-3.3,7.4,0.6,4,0.8,11.7
	c0.3,9.9-0.5,19.1,0,30.2c0.2,4.4,1.4,9.4,1,13.7c1.7,2,1.9,6.3,2.9,8.9c3.3,8.7,7.2,13.4,6.9,27c-1.7,1.4-2.4,1.3-3.9,2.7
	c-1.7,1.6-0.6,1.5-3.1,2.9l-6,14.6c-8,23.9-9.3,35,10.5,42.8c3.3,22.7,9,17,6.8,29.1c-2.5,14.1,1.3,9.4,1.9,12.7
	c-3.9,18.6,0.9,18.2,6.7,32.2c1.1,4.3,3.7,7.2,3.4,11.4c-1.1,6.3-7,17.5-9.6,23.7c-1.6,3.8-3.2,7.8-4.5,11.7
	c-1.2,3.9-2.7,8.5-3.4,13.1v-7.2h-84.2v154.2h-16V530.3H851v-12.8h-7.4v-79.4h-40v-17.3h-13.4v16.6h-4.5v-7.4h-28.2v16h-12.2v-8.6
	h-36.8v26.6h-5.1V563h-7.8v49.6h-12.4V673h-9.9V547h-13.1v-57.6h-9V473h-20.2v88.3h-6.7v-18.9h-14.7v-17.3h-16v-71.4h-9.3v-6.4h-6.7
	v-10.9l-10.9-15.7v-16.6h-9v17.3l-10.2,16.3v10.2h-7.4v8h-6.7v71.7h-15.4V367.5h-63v92.8h-15.1v-58h-44.8v38.5v20h-48.6v-33.8h8.3
	v-15.7h-76.6l0.7,49.5h-58.8v-30h-16.8v-62H190v-66.8h-8.9v-15h-13.4v-7.2l-10-12.3v-10l-10.6-16.2v-84.1l-5.6-9.5V84.7l-5.6-2.8V0
	h-3.9H131h-3.9v81.9l-5.6,2.8v62.9l-5.6,9.5v84.1l-10.6,16.2v10l-10,12.3v7.2H82v15H73v66.8H59.7v126.4L0,511.7v611.5h319.8h869.5
	 M1024.2,308.4c-3.7-2.4-4,0.5-5.7-8.1l24,2.5l-0.5,5.3l-15.3,2.4C1024.8,309.2,1025.8,309.4,1024.2,308.4z M1044.1,330.9
	c-0.1,9.9,0.8,2.8-5.1,14c-4.7-1.9-6.9-8.4-7.1-14.8c-0.1-4,0.9-6-1-9.2c-1.5-2.6-2.5-2.6-3.8-6.1l16.3-0.2
	C1048.1,332.7,1044.2,322.5,1044.1,330.9z"/>
</svg>
