<?xml version="1.0" encoding="utf-8"?>
<!-- Generator: Adobe Illustrator 22.0.1, SVG Export Plug-In . SVG Version: 6.00 Build 0)  -->
<svg version="1.1" id="Layer_1" xmlns="http://www.w3.org/2000/svg" xmlns:xlink="http://www.w3.org/1999/xlink" x="0px" y="0px"
	 viewBox="0 0 1190.8 1127" style="enable-background:new 0 0 1190.8 1127;" xml:space="preserve">
<style type="text/css">
	.st0{fill:url(#SVGID_1_);}
	.st1{fill:none;}
	.st2{fill:url(#SVGID_2_);}
</style>
<g>
	
		<linearGradient id="SVGID_1_" gradientUnits="userSpaceOnUse" x1="0.45" y1="28.4745" x2="0.45" y2="1130.6761" gradientTransform="matrix(1 0 0 -1 0 1155.3276)">
		<stop  offset="0.1853" style="stop-color:#ACCBD7"/>
		<stop  offset="1" style="stop-color:#49595F"/>
	</linearGradient>
	<polygon class="st0" points="0,535.3 0,602.1 0,655.8 0,1126.9 0.9,1126.9 0.9,535.3 	"/>
	<path class="st1" d="M146.9,156.9v100h10.8v22.8h10.7v7h12.8v15.8h8.9v66.2h13.3v103.8h40.2v62.9h34.8V516v-5h76.7v24.4h-8.3v11.5
		h34v-39.8h63.7v-35h73.6v54.7h15.7v-10.7h13.7v-18.7h10.4v-33.3h11v33.3h11v18.7h15.5v10.7h42.5v-46h46v61.5h53.3v9.1h38.2v-7.9
		h36.5v-17.4h14v-36.7h18v-34.7h24.3v12.7h24.3v27.5h18v13.7h61.1h32.1c1.8-4.2,3.5-8.4,4-11.4c0.2-3.9-2.2-6.7-3.3-10.8
		c-5.6-13.4-10.1-12.9-6.4-30.7c-0.5-3.1-4.2,1.3-1.8-12.1c2.1-11.6-3.4-6.1-6.5-27.8c-18.9-7.4-17.6-18-10-40.9l5.7-14
		c2.4-1.4,1.3-1.3,2.9-2.8c1.4-1.4,2.1-1.2,3.7-2.6c0.3-13-3.5-17.4-6.6-25.7c-0.9-2.5-1.2-6.6-2.8-8.5c0.4-4.1-0.7-8.8-0.9-13
		c-0.5-10.6,0.3-19.4,0-28.9c-0.2-7.4-3.9-4.2-0.8-11.2c-0.1-0.1-0.3-0.5-0.4-0.4c-0.1,0.2-0.5-0.4-0.8-0.7
		c-1.8-1.7-1.8-1.4-2.4-3.9c0.5-8.1,1.8-7.8-1.7-14.6c-2.7-5.3-4.2-8.3-0.8-12.9c-0.9-1.6-3.2-3.5-2.7-6c0.6-3.6,1.8,0.7,0.4-3.3
		c-0.5-1.5-1-0.5-1.7-3.4l2.8-3.5c-2.6-4.1-6.2-8.6-5-14.1c-15.2-4.6-6.6-10.1-4.9-15.8c1.5-4.9-0.6-4-3.2-5.5
		c1.9-6.7,10.1-7.4,17.1-9.2c-2-2.7-4.8-7.5-2.7-12.7c2.2-5.5,6-4.2,3.5-11.7l3.7,2c5-2.1,6.4-6.6,10.8-4.2l1.4-3.3l3.1,6.4
		c1.9-2,1.8-3.1,3.7-4.6c0.2,5.8,0,11-1,16.6c-0.6,3.4-1.4,6.6-3.4,9.2c-0.8,1-0.1,0.1-1,1.1l-1.1,1.2c-0.1,0.1-0.3,0.3-0.4,0.4
		l13.5,3.6c1.5,2.8,0,2.2,2.3,4.5c0.1,0.1,1.3,1.1,1.6,1.4c0,3.7-1.7,2.7-3.4,5.9c1.3,4,3.3,4.4,4,8.5c-3.4,5.4-7.5,8.5-15.3,8.1
		c1.3,2.5,1.4,1.7,1.6,4.8c-10.9,8.5,4.1,9.7,4.9,34.3c0.3,8.2-1,12.9,0.3,21.8c0.6,4.1,2,16.2,3.9,18.4
		c2.8,16.5,10.5,29.1,8.3,48.2l26-0.1c2.3-4,2.7-3.9,5.8-6.7c-4.8-6.9-16.1-15.3-21.7-23.8c5.5,2.2,22,17.9,27.8,20.1l12.9-3.4
		c0.8-6.8,0.1-25.6,1.7-30c0.2,0.2,0.4,0.3,0.8,1.3l3.6,21.8c0.3,2,0.5,6.1,2.2,7.2c2.5,1.1,9.1,2.9,11,2l16.6-13.7
		c2.5-2.2,5.8-5.5,9-6.8c-2.9,5-6.3,7.8-10,12l-5.3,6c-1.9,2.3-3.8,3.9-4.9,7c9.6,4.5-1.1,7.4,20.3,2.1c3.9-1,7.3-1.9,11.3-2.9
		l8.6-2c0.7-0.1,1.5-0.5,3.1,0.3c-11,3.9-23.1,9.8-33.9,13.4l1,6.3l37.7,2.9c-2.7,1.5-32.6,2.6-38.5,3c0.1,5.2,0.2,3.3-0.5,8.6
		c-0.4,3.2,1.7,4.2,2.7,7.5c-0.7,0.7-0.1,0.2-1.2,1c-0.9,0.6-0.8,0.4-1.9,1.1c0.6,6.2,5.4,15.8,4.6,21.2c-0.4,2.8-2.1,3.3-3.7,4.9
		l6.7,20.8l5.6,7.1c0.1,0.1,0.2,0.3,0.3,0.4c2,1.9-0.1,0.8,3.3,1.7c7.6,2,5.7,4.8,9.4,8.9c2.5,2.7,3,1.4,4.7,5.2
		c3.5,7.6,5.5,20.4,8.6,28.7c2.8,7.5,1.6,6.3,8,10.3c8.8,5.6,4,5.1,8.5,7.7c1.6,0.9,0.7,0.4,1.9,0.9c1.8-2.1,15.8,11.5,16,11.6
		l16.8-3.8v-399h-1049v61.3H146.9z"/>
	<polygon class="st1" points="59.4,368.6 72.9,368.6 72.9,302.4 81.8,302.4 81.8,286.7 94.6,286.7 94.6,279.7 105.4,279.7 
		105.4,256.9 116.1,256.9 116.1,156.9 121.1,156.9 121.1,95.6 0.9,95.6 0.9,535.3 59.4,535.3 	"/>
	<path class="st1" d="M1039,340l-23-2.4c1.6,8.2,1.9,5.4,5.4,7.8c1.5,1,0.6,0.8,2.5,2l14.6-2.3L1039,340z"/>
	<path class="st1" d="M1024.2,351.5c1.2,3.3,2.2,3.4,3.6,5.9c1.8,3.1,0.8,5,0.9,8.8c0.2,6,2.3,12.3,6.8,14.1
		c5.7-10.7,4.8-3.9,4.9-13.4c0.1-8,3.9,1.7-0.7-15.6L1024.2,351.5z"/>
	<polygon class="st1" points="1113,1126.9 971.6,1126.9 907.2,1126.9 0.9,1126.9 0.9,1126.9 1190.6,1126.9 1190.6,1126.9 
		1190.6,1126.9 	"/>
	<linearGradient id="SVGID_2_" gradientUnits="userSpaceOnUse" x1="595.75" y1="1126.9531" x2="595.75" y2="-101.5324">
		<stop  offset="0.1853" style="stop-color:#ACCBD7"/>
		<stop  offset="1" style="stop-color:#49595F"/>
	</linearGradient>
	<path class="st2" d="M1190.6,1127V494.5l-16.8,3.8c-0.2-0.1-14.2-13.8-16-11.6c-1.3-0.5-0.3,0.1-1.9-0.9c-4.5-2.6,0.3-2.2-8.5-7.7
		c-6.4-4-5.2-2.7-8-10.3c-3.1-8.4-5.1-21.2-8.6-28.7c-1.7-3.7-2.3-2.5-4.7-5.2c-3.7-4.1-1.8-6.8-9.4-8.9c-3.4-0.9-1.3,0.2-3.3-1.7
		c-0.1-0.1-0.2-0.3-0.3-0.4l-5.6-7.1l-6.7-20.8c1.6-1.7,3.3-2.1,3.7-4.9c0.7-5.4-4-14.9-4.6-21.2c1.1-0.8,1-0.5,1.9-1.1
		c1.1-0.7,0.5-0.2,1.2-1c-1-3.3-3.1-4.3-2.7-7.5c0.7-5.3,0.6-3.4,0.5-8.6c6-0.4,35.8-1.5,38.5-3l-37.7-2.9l-1-6.3
		c10.8-3.6,23-9.6,33.9-13.4c-1.6-0.8-2.5-0.4-3.1-0.3l-8.6,2c-4,1-7.4,1.9-11.3,2.9c-21.4,5.2-10.7,2.4-20.3-2.1
		c1.1-3.1,3-4.7,4.9-7l5.3-6c3.7-4.3,7.1-7.1,10-12c-3.1,1.3-6.5,4.5-9,6.8l-16.6,13.7c-1.9,0.9-8.5-1-11-2
		c-1.6-1.2-1.9-5.3-2.2-7.2l-3.6-21.8c-0.4-1-0.6-1.1-0.8-1.3c-1.6,4.5-0.8,23.3-1.7,30l-12.9,3.4c-5.9-2.3-22.4-17.9-27.8-20.1
		c5.6,8.6,16.9,16.9,21.7,23.8c-3.1,2.9-3.4,2.7-5.8,6.7l-26,0.1c2.2-19.1-5.6-31.7-8.3-48.2c-1.9-2.2-3.3-14.3-3.9-18.4
		c-1.3-8.9,0-13.5-0.3-21.8c-0.8-24.6-15.8-25.8-4.9-34.3c-0.2-3.1-0.3-2.3-1.6-4.8c7.9,0.5,11.9-2.7,15.3-8.1c-0.7-4-2.8-4.5-4-8.5
		c1.7-3.2,3.5-2.1,3.4-5.9c-0.3-0.3-1.6-1.3-1.6-1.4c-2.3-2.3-0.7-1.7-2.3-4.5l-13.5-3.6c0.1-0.1,0.3-0.3,0.4-0.4l1.1-1.2
		c1-1,0.2-0.1,1-1.1c2.1-2.6,2.8-5.8,3.4-9.2c1-5.6,1.2-10.9,1-16.6c-1.9,1.5-1.8,2.7-3.7,4.6l-3.1-6.4l-1.4,3.3
		c-4.4-2.5-5.8,2.1-10.8,4.2l-3.7-2c2.5,7.5-1.3,6.2-3.5,11.7c-2.1,5.2,0.7,9.9,2.7,12.7c-7.1,1.8-15.2,2.5-17.1,9.2
		c2.6,1.5,4.6,0.5,3.2,5.5c-1.7,5.7-10.2,11.2,4.9,15.8c-1.2,5.5,2.4,9.9,5,14.1l-2.8,3.5c0.6,2.9,1.2,1.9,1.7,3.4
		c1.4,3.9,0.3-0.3-0.4,3.3c-0.4,2.5,1.8,4.4,2.7,6c-3.4,4.5-1.9,7.6,0.8,12.9c3.6,6.9,2.3,6.5,1.7,14.6c0.6,2.5,0.6,2.2,2.4,3.9
		c0.3,0.3,0.7,0.9,0.8,0.7c0.1-0.1,0.3,0.2,0.4,0.4c-3.1,7,0.6,3.8,0.8,11.2c0.2,9.4-0.5,18.3,0,28.9c0.2,4.2,1.3,9,0.9,13
		c1.6,1.9,1.9,6,2.8,8.5c3.1,8.3,6.9,12.8,6.6,25.7c-1.6,1.4-2.3,1.2-3.7,2.6c-1.6,1.5-0.5,1.4-2.9,2.8l-5.7,14
		c-7.6,22.9-8.9,33.4,10,40.9c3.1,21.7,8.6,16.2,6.5,27.8c-2.4,13.4,1.2,9,1.8,12.1c-3.7,17.8,0.8,17.4,6.4,30.7
		c1,4.1,3.5,6.9,3.3,10.8c-0.5,3-2.2,7.2-4,11.4h-32.1h-61.1v-13.6h-18v-27.6H868v-12.7h-24.3v34.7h-18V526h-14v17.4h-36.5v7.9H737
		v-9.1h-53.3v-61.5h-46v46h-42.5V516h-15.5v-18.7h-11V464h-11v33.3h-10.4V516h-13.7v10.7h-15.7V472h-73.6v35h-63.7v39.8h-34v-11.5
		h8.3v-24.4h-76.7v5v19.4h-34.8v-62.9h-40.2V368.6h-13.3v-66.2H181v-15.8h-12.8v-7h-10.7v-22.7h-10.6v-100h-5.1V95.6V84.7h-6.1V0
		h-8.5v84.7h-6.1v10.9v61.3h-5v100h-10.7v22.8H94.6v7H81.8v15.8h-8.9v66.2H59.4v166.7H0.9V1127H1190.6z M1021.4,345.4
		c-3.6-2.3-3.8,0.5-5.4-7.8l23,2.4l-0.5,5.1l-14.6,2.3C1022,346.2,1023,346.4,1021.4,345.4z M1040.5,366.9
		c-0.1,9.4,0.8,2.7-4.9,13.4c-4.5-1.8-6.6-8.1-6.8-14.1c-0.1-3.8,0.9-5.7-0.9-8.8c-1.5-2.5-2.4-2.5-3.6-5.9l15.6-0.2
		C1044.3,368.7,1040.5,358.9,1040.5,366.9z"/>
</g>
</svg>
