<svg version="1.1" id="Layer_1" xmlns="http://www.w3.org/2000/svg" xmlns:xlink="http://www.w3.org/1999/xlink" x="0px" y="0px"
	 viewBox="0 0 1024 1024" enable-background="new 0 0 1024 1024" xml:space="preserve">
<g>
	<path fill="#FFFFFF" d="M130,340.5c2.2,3.2,3.1,10,4,14c4.2,18.4-3.7,57.6,6,69c0.1,7.2-2.4,9.7-8,11c0,2.3,0,4.7,0,7
		c8.2-3.6,18.2-9.4,28-10c-0.4-2.1-1-4.6-2-6c-1.2-2.1-4-3-6-4c-2-7.5-4.8-28.7,0-36c0.6-6.1,2.8-5,6-8c5.1,0.3,5.7,1.4,9,3
		c4.6,16.6,11.4,51.8-9,57c0,2,0,4,0,6c12-2,24-4,36-6c-0.2-2.3-0.2-2.8-1-4c-2.7-4-7-1.5-9-7c-2.1-3.3,0.2-30.2,2-33
		c0-0.3,0-0.7,0-1c8,3.1,10.3,18.2,15,25c8.8,12.7,30.2,10.6,42,2c3-2.2,4.5-6.3,7-9c0-5.6-0.5-9.9-3-13c0-0.7,0-1.3,0-2
		c-7.7,1.7-15.3,3.3-23,5c2.2,4.2,4.8,6.7,6,12c-0.8,1-0.4,0.2-1,2c-7.1,1.3-11.3-1-18-2c-1.4-3.3-2.7-8.4-5-11c0.2-2.6,0.4-3.4,1-5
		c12.3-3.7,24.7-7.3,37-11c-0.2-24.3-7.5-41.1-17-56c-3.8-0.8-8.9-1.1-14-1c-13.3,12.5-23.8,23-25,48c-2.9-3.4-5.8-8.3-8-12
		c-16-3.7-16.9,0.6-29,3c-0.2-11.9-0.9-25.2,6-30c-4.1-6.7-22.1-3.9-29-8c-2.3,0.3-2.5,0.5-4,1c-0.6,1.7-0.2,1-1,2
		C124.3,337.3,127.8,337.1,130,340.5z M214,343.5c0.6-0.8,0-0.3,1,0c5,2.5,10,27.4,10,36c-5.7,0.7-11.3,1.3-17,2
		C208.7,371,208.3,350,214,343.5z"/>
	<path fill="#FFFFFF" d="M100,434.5c-1.7,0.3-3.3,0.7-5,1c0,2.3,0,4.7,0,7c8.1-1.9,32.4-8.8,38-13c0.7-1.4,0.3-1.3-1-3
		c-2.3-3.1-8.9-1-11-4c-2.3-3.3-1.5-8.2-3-12c-4.7-11.4-13.3-35.4-14-49c1,0,2,0,3,0c4.6,4.8,10.3,8.3,14,14c2.3-0.2,2.8-0.2,4-1
		c0.7,0,1.3,0,2,0c-2.3-8.3-4.7-16.7-7-25c0-0.7,0-1.3,0-2c-19.3,4.7-38.7,9.3-58,14c-0.3,0.3-0.7,0.7-1,1c-0.1,7.3-0.9,17.4,1,23
		c2,0,4,0,6,0c0.2-3.4,0.4-9.6,2-12c2-5.8,7.7-6.6,12-10c3.7,0.7,3.5,1.5,6,3c1.5,16.1,1.8,32.7,8,44c2.2,4.1,10.1,11,7,17
		C102.5,432,101.7,431.8,100,434.5z"/>
	<path fill="#FFFFFF" d="M952,571.5c0-0.7,0-1.3,0-2c-2.9,0-5.5,0-7-1c-0.3,0-0.7,0-1,0c0.3,26.4-4.1,46.1-21,55
		c-4.2,2.2-10.1,1.5-14,4c-3.9,0.1-9.7,0.5-12-1c-4.3-6.2-2.9-17-5-25c-4.4-16.7-10.1-36.9-11-55c5.2-0.4,6.8-0.4,12,0
		c4.2,4.4,8.8,8.6,11,15c1.4,3.9,0.1,8,2,11c-0.1,7.9-1.1,18.8,1,25c2.7,0,5.3,0,8,0c3.3-34.7,6.7-69.3,10-104
		c-11.2,0-23.4,23.7-28,32c-7-0.3-14-0.7-21-1c2.3-22,4.7-44,7-66c11.7,1,23.3,2,35,3c10.1,10.3,15.3,17.4,20,34
		c1,3.5,3.3,10.5,1,14c1,4.6,2.4,3.5,5,6c4.4-2.5,4.1-9.9,6-15c3.4-9.3,9.8-36.7,15-43c0-2.7,0-4.6-1-6c-7.4-5-35.7-4.3-47-7
		c-18.6-4.5-39-4.2-59-9c-8.8-2.1-20-4.8-30-5c2.9-14.4,11.2-18.9,22-25c0-2.3,0-4.7,0-7c-11.9,1.1-44.4,12.7-54,4
		c-0.3-0.3-0.7-0.7-1-1c6.4-3,22.3-5.3,24-13c-16.6-2.8-33.7-11.3-49-17c-8.6-3.2-19.2-3.8-26-9c-10.9,3.4,6.7,23.4,4,31
		c-2.4,6.7-7.9,14.7-11,21c-12.6,25.5-20.8,52.1-35,75c-1,0-2,0-3,0c-1.7-14.3-3.3-28.7-5-43c-0.7-3.2-3.6-9.1-2-14
		c2.6-7.9,7.2-10.7,6-22c-9,0.9-48.9,16.3-55,21c-1,0-2,0-3,0c3.3-9.5,3.8-25.3,4-36c-8.7,1.1-6.5,12.6-12,17c-0.3,0.3-0.7,0.7-1,1
		c-9.6-15.5-26-20.3-43-8c-16,11.6-23.6,34.8-33,53c-0.7,0.3-1.3,0.7-2,1c-0.7-1.2-1.1-2.1-2-3c-0.6-8.8-14.8-8.1-24-11
		c-28.7-9.1-72,0.8-87,16c-3.1,0-5.1-0.3-7-1c-2.7-16,1.5-27.7-11-37c-26.7-19.9-54-15.7-72,9c-8.7,11.9-15.8,21.6-15,41
		c6.4,6.9,15.2,19.1,30,14c5.9-2.1,10.2-7.7,15-11c0.9-3.4,3.4-8.4,1-12c-0.7-11-8.8-14.5-13-22c3.7-2.4,8.7-5.9,12-9
		c4.4-0.1,6.8,0,9,2c13.4,5.1,7,24.6,13,35c-0.6,10.2-16.2,12.1-23,17c-12.6,9.1-21.9,29.8-22,51c-3.1-4.2-3.1-10.7-6-15
		c-5.7-8.5-36.7-22.2-51-11c-6.1-3.7-2.5-22.9-2-30c1-15.1,5.1-27.9,9-40c1.6-4.8,1-12.2,4-16c3.8-5,13.4-6.6,18-11c0.3,0,0.7,0,1,0
		c-2.7-4.3-11.4-3.3-17-5c-10.7-3.2-40-7.7-48-13c-1.3,0-2.7,0-4,0c-0.6,1.7-0.2,1-1,2c1,13.7,14.2,18.8,18,30c1.1,1.8-3.9,26-5,31
		c-0.3,6-0.7,12-1,18c-3.4,15.3-3,33.4-3,51c0,10.3,0.9,23.4-1,32c-1.4,6.4-1.7,25.7,1,30c0,2.7,0,5.3,0,8c-1.1,2.9-22.1,25.7-25,27
		c0.2,4.6,1.1,5.5,2,9c22.6-2.3,39.6-18.4,61-23c-1.8-5.2-6.2-9.6-8-15c-3.9-11.5-4.1-52.8,0-64c3.8-1,12.5-4.1,17-1
		c7.6,1.4,5.9,5.6,10,10c12.5,13.4,9.3,30.1,9,53c-0.1,10.3,1.6,27.1-3,34c-1.9,4.9-21.7,20.4-27,23c0.3,3.3,0.7,6.7,1,10
		c21.7-5.3,43.3-10.7,65-16c-1.6-7.6-9.7-11.1-12-18c-2-6.1,1.7-11.3,2-16c-0.3-13-0.7-26-1-39c8.4,11,9,24.8,21,33
		c8.8,6,24.5,7.7,36,3c1.5-0.6,4.4-3.6,6-4c1.7,0.3,3.3,0.7,5,1c7.5,0.5,13.8-1,18-4c5.2-3.7,9.6-13.7,13-19c7.5,1.1,5.3,8.4,8,14
		c8.1,16.3,10.5,46.1-10,52c0.7,5.1,2.8,5.7,5,9c17.9-6.1,33.7-25.4,52-30c-0.3-3.3-0.7-6.7-1-10c-25.5,0.3-15.1-28.8-25-44
		c-0.4-7-1.2-13.2,4-15c1-0.8,0.2-0.4,2-1c7.4,7.7,18,11.8,24,21c5.5,8.4,4.8,17.6,9,28c4.5,11.1,23.7,26.6,41,19
		c8.9-3.9,13.5-12.7,20-19c5.1-1.3,12,9.4,24,6c17.5-4.9,20.4-23.4,32-33c-1-4.7-2-9.3-3-14c-0.3,0.3-0.7,0.7-1,1
		c-6,3.1-8,13.6-12,19c-2.8,3.8-8.4,4.9-12,8c-2.9-0.4-4.3-0.7-6-2c-12.7-4.5-13.3-23.1-17-37c-9.3-34.9-6.7-104.5,13-125
		c0-0.7,0-1.3,0-2c4.8,2.6,5.7,9.8,8,15c6,13.7,14.9,27,21,41c2.7,0,5.3,0,8,0c0-15,0-30,0-45c9,1.2,13.1,5.2,19,9
		c1.9,7.6,0.9,19,3,28c3.9,16.6,8.5,38.7,20,48c-2.6,10-9,17.4-14,25c-13,19.8-25.2,39.7-38,59c-6.7,10-12.4,25-22,32
		c-7,5.1-13.6,5.2-24,5c-0.3,2.8-0.7,5.3-2,7c2.7,5.1,12.4,5.7,18,8c10.6,4.5,38.5,12.6,46,19c4.3-0.5,4-0.3,5-4
		c0.2-0.7-9.6-16.6-12-19c1.2-9,8.7-13,13-19c8.9-12.5,17.7-25.5,26-38c24.7-37.2,44.1-76.8,66-117c7.6-13.9,14.3-29.2,22-44
		c3.9-7.5,9.9-16.2,12-25c0.7,0,1.3,0,2,0c6.1,9.3,13.1,22.2,10,38c-0.8,4.1,0.8,9.2-1,12c0,3.3,0,6.7,0,10c-1.5,3.1-8.8,4.3-12,6
		c-8.2,4.2-16.7,9.5-24,15c-17.4,13-24.5,32.7-30,58c-3.7,16.7,4.4,30.8,10,39c14.3,21.1,31.7,35.8,60,43c14.8,3.8,49.6,0.8,57-6
		c4.8,0.7,6.5,2.3,10,4c0,2.3,0,4.7,0,7c-6.7,6.4-12.6,13.1-21,18c0.3,3,0.7,6,1,9c11.9-1.1,22-6.7,32-10c19.8-6.6,38.2-10.3,58-17
		c7.6-2.6,15.8-7.4,25-8C957.5,618.4,949.3,579.1,952,571.5z M413,593.5c-0.3,1-0.7,2-1,3c-7.8-1.2-10.5-6.5-15-11
		c-27.1-27.2-7.6-61.7,8-86c1,0,2,0,3,0c1.7,22.7,3.3,45.3,5,68C413.3,574.4,416.7,587.8,413,593.5z M450,575.5
		c-1.4,0.7-1.3,0.3-3-1c-7.8-3.2-6.7-13.9-9-23c-5.7-22.6-2.5-54.3-2-80c3.5,0.3,4.2,0.3,6,2c11.3,4.2,3.5,15.6,6,26
		c3.3,13.4,4.6,30.4,8,44c1.6,6.3,0.1,13.3,3,18C458.8,568.3,455.3,573.8,450,575.5z M487,529.5c-10.3-5.2-1-23-4-34
		c-0.8-2.9-3.2-7.6-4-11c-1.3-5.2,0-13.5,2-16c1.1-3.4,2.6-4.9,6-6c0.9-0.7,3.1-1.4,4-2c4.7,0.3,9.3,0.7,14,1c2.8,2.6,8.1,4.6,10,8
		c10.9,19.1-10.9,35.1-17,44C494.2,519.1,493.2,529.5,487,529.5z M580,599.5c-6.3,0-12.7,0-19,0c-2.9-21.6-27.2-56.9-48-60
		c1.8-6.4,6.6-7.5,10-12c6.6-8.8,17.5-27.1,27-32c0.3-0.3,0.7-0.7,1-1c3.5,10.3-0.6,23.6,2,35c5.8,25,8.8,56.5,27,69
		C580,598.8,580,599.2,580,599.5z M803,613.5c-7.2-0.5-7-4-12-6c-10.4-4.1-19.3-6.6-25-15c-20.3-30,6-80.4,19-100c2.7,0,4.6,0,6,1
		c8,3.2,6.7,13.8,9,23c3.2,13.1,1.8,30.7,5,45c0,4.3,0,8.7,0,13C808,588.1,809,604.2,803,613.5z M858,616.5c-6.3,0.6-17.3,2.7-22-1
		c-0.7,0-1.3,0-2,0c-1.4-39.8-8.1-79-9-121c-0.2-11.8-5.1-37.3,1-47c0-0.7,0-1.3,0-2c2.1,0.5,3.6,0.9,5,2c12.4,8.2,11,31.5,11,52
		c0,5.3,0,10.7,0,16c4.6,20.3,5.1,40.8,11,60c2.2,7.2,7.1,13.7,8,22C860,603.8,859,610.2,858,616.5z"/>
	<path fill="#FFFFFF" d="M260,646.5c-10.5,0.2-20.4,2.2-30,4c-9.7-20-16.6-43.4-25-64c-4.4-10.8-5.4-24.1-12-33
		c0.4-15.2,12.2-17.4,21-24c16.5-12.3,32.2-29,44-46c4.4-6.4,17.1-20.8,8-31c-4-11-27.4-10.5-43-10c-5.1,3.3-30.9,3-39,5
		c-19,4.3-38,8.7-57,13c-7.9,2.4-16.6,6.5-26,7c-0.3,0.3-0.7,0.7-1,1c0.4,2.1,0.2,1.9,1,3c2.5,3.9,9,2.6,13,5c7.8,4.6,13.6,13,19,20
		c12.4,16,13.3,40.3,21,61c9,23.9,21.9,46.9,32,70c6.4,14.5,27.1,51.9,2,60c0.9,4.5,2.7,4.2,4,8c9.3-1.2,17.1-8.8,24-13
		c15.4-9.4,31.5-17.3,47-26c-0.3-2.8-0.7-5.3-2-7C260.7,648.5,260.3,647.5,260,646.5z M187,523.5c-3.9-2.4-3.4-9.2-5-14
		c-4.5-13.5-10.2-28.5-13-43c14.6-0.1,33.8-2,43,4c2.4,1.6,3.7,5.2,6,7C217.9,503.1,197.6,508.7,187,523.5z"/>
</g>
</svg>
