<?xml version="1.0" encoding="utf-8"?>
<!-- Generator: Adobe Illustrator 18.1.0, SVG Export Plug-In . SVG Version: 6.00 Build 0)  -->
<svg version="1.1" id="Layer_1" xmlns="http://www.w3.org/2000/svg" xmlns:xlink="http://www.w3.org/1999/xlink" x="0px" y="0px"
	 viewBox="0 0 309.9 876.1" enable-background="new 0 0 309.9 876.1" xml:space="preserve" height="90%" width="90%">
<g id="Layer_1_1_" transform="matrix(0.2159858,0,0,0.2154621,-250.44008,-1202.5924)">
	<path id="path9" fill="#FFFFFF" d="M1975.5,7824.5c-61,17-116,55-167,113c-51,59-76,124-76,194c0,44,15,94,44,147
		c29,54,73,93,130,118c19,4,28,14,28,28c0,5-7,10-24,14c-91-23-166-72-224-145c-58-74-88-158-90-254c3-103,34-199,93-287
		c60-89,137-152,231-189l-69-355c-154,128-279,261-376,401c-97,139-147,290-151,453c2,73,17,144,45,212c28,69,70,131,126,188
		c113,113,260,172,439,178c61-4,126-15,196-33L1975.5,7824.5z M2047.5,7814.5l156,769c154-62,231-197,231-403c-9-69-29-131-63-186
		c-33-56-77-100-133-132S2119.5,7814.5,2047.5,7814.5z M1842.5,6774.5c33-20,71-55,112-104c41-48,81-105,119-169
		c39-65,70-131,93-198c23-66,34-129,34-187c0-25-2-50-7-72c-4-36-15-64-34-83c-19-18-43-28-73-28c-60,0-114,37-162,111
		c-37,64-68,140-90,226c-23,87-36,173-38,260C1801.5,6629.5,1817.5,6710.5,1842.5,6774.5z M1779.5,6832.5c-45-162-70-327-75-495
		c1-108,12-209,33-303c20-94,49-175,87-245c37-70,80-123,128-159c43-32,74-49,91-49c13,0,24,5,34,14s23,24,39,44
		c119,169,179,373,179,611c0,113-15,223-45,333c-29,109-72,213-129,310c-58,98-126,183-205,256l81,394c44-5,74-9,91-9
		c76,0,144,16,207,48c63,32,117,75,161,130c44,54,78,116,102,186c23,70,36,143,36,219c0,118-31,226-93,323s-155,168-280,214
		c8,49,22,120,43,211c20,92,35,165,45,219c10,54,14,106,14,157c0,79-19,149-57,211c-39,62-91,110-157,144c-65,34-137,51-215,51
		c-110,0-206-31-288-92c-82-62-126-145-130-251c3-47,14-91,34-133s47-76,82-102c34-27,75-41,122-44c39,0,76,11,111,32
		c34,22,62,51,83,88c20,37,31,78,31,122c0,59-20,109-60,150c-40,41-91,62-152,62h-23c39,60,103,91,192,91c45,0,91-10,137-28
		c47-19,86-44,119-76s55-66,64-102c17-41,25-98,25-169c0-48-5-96-14-144c-9-47-23-110-42-188c-19-77-33-137-41-178
		c-60,15-122,23-187,23c-109,0-212-22-309-67s-182-107-256-187c-73-80-130-170-171-272c-40-101-61-207-62-317c4-102,23-200,59-292
		c36-93,82-181,139-263c57-82,116-157,177-224C1596.5,7020.5,1677.5,6935.5,1779.5,6832.5z"/>
</g>
</svg>
