<svg xmlns="http://www.w3.org/2000/svg" viewBox="0 0 500 397.43">
  <title>atcq-logo</title>
  <g>
    <path d="M118,174.9c-3.7,3.55-6.92,6.61-10.1,9.69-2.17,2.11-4.25,4.33-6.47,6.37A4.83,4.83,0,0,1,94,189.68a3.81,3.81,0,0,1,0-3.12,21.37,21.37,0,0,1,3.48-4.37q9.55-9.66,19.23-19.2c2.16-2.11,1.49-4.83,1.81-7.26A20.34,20.34,0,0,0,118,148a6.67,6.67,0,0,0-3.32-3.8c-8.78-4-10-17.93-6.09-23.74,3.27-4.85,8.09-8.44,14.87-7.32,5.56,0.92,9.55,3.71,11.76,8.92,0.62,1.45,1.1,3,1.65,4.46,4.83-2.39,5.51-2.15,9.93,2.33a12.07,12.07,0,0,0,4.1,2.65c3.35,1.31,4.23,4.72,1.75,7.35-7.69,8.17-15.31,16.41-23.07,24.5a8.82,8.82,0,0,0-2.31,6.58c0,5.88.79,11.82,0.1,17.6-0.61,5.07.89,8,4.78,11.08s6.87,7.66,10.28,11.53,6.65,7.68,12.34,8.13a3.55,3.55,0,0,1,3.36,4.33c-0.43,1.65-2.35,4-3.73,4.11-4.77.29-9.7,0.51-13.27-4.07a136.2,136.2,0,0,0-10.49-11.76,69.31,69.31,0,0,0-8-6.62,2.67,2.67,0,0,0-2.54,0,65.78,65.78,0,0,0-6.23,6.2,2.51,2.51,0,0,0,.16,2.45,50.07,50.07,0,0,0,5.81,5.09c2.52,1.87,3.43,4.55,1.95,6.65-1.37,2-5,2.49-7.18.92-4-2.85-7.88-5.74-11.74-8.71-2.24-1.72-2.08-5.28.4-7.87,3.14-3.27,6.16-6.74,9.7-9.52,4.1-3.21,5.46-7.29,5.55-12.13,0.06-3.11.13-6.23,0.1-9.34A19.82,19.82,0,0,0,118,174.9Zm9.46-45.39a30.53,30.53,0,0,0-1.65-5.25c-1.69-3.26-5.22-3.67-7.69-1.15a8.05,8.05,0,0,0-2.3,7.31c0.56,3.64,3.41,6.92,6,6.81S127.1,133.48,127.43,129.51Zm9.31,1.28c-1.27,4.78-2.88,9-6.35,11.65-3.08,2.34-2,5-1.94,7.85a163.72,163.72,0,0,0,12.14-12.54c0.47-.54.26-2.19-0.22-3A31.44,31.44,0,0,0,136.74,130.79Z" transform="translate(40.32 60.44)" fill="#b35089"/>
    <path d="M5.11,170c-0.81,1.77-1.33,3.76-2.49,5.26-5.13,6.66-12,11.39-18.81,16.1A3.44,3.44,0,0,0-17.73,193a3.71,3.71,0,0,0,.55,2.64c0.24,0.32,1.73.15,2.28-.28,3.43-2.7,6.77-5.53,10.11-8.34,1.23-1,2.29-2.27,3.57-3.22,2.75-2,5.3-4.19,6.46-7.58,0.7-2.07,2.56-2.33,4.17-1.91a5.15,5.15,0,0,1,3,2.47A5,5,0,0,1,11,183.49C5.47,188,.1,192.73-5.39,197.28c-3.53,2.93-7.24,5.65-10.75,8.6a3.85,3.85,0,0,0-1,2.62,58,58,0,0,0,.19,9.9,11.94,11.94,0,0,0,2.78,6.1c4.32,4.61,9,8.86,13.57,13.28,0.7,0.68,1.21,1.55,1.9,2.23s1.56,1.29,2.35,1.93a16.92,16.92,0,0,0,2-2.65c0.8-1.67,1.14-3.6,2.1-5.15,1.84-3,5-3.1,7.49-.7,1.57,1.52,1.11,3.14.47,4.69-1.64,3.94-3.34,7.87-5.23,11.69-2.11,4.28-8.16,4.91-11.41,1.42q-7.19-7.72-14.55-15.28c-2.35-2.41-3.57-2.22-5.44.69-2.83,4.41-5.63,8.85-8.24,13.39a3.12,3.12,0,0,0,.54,2.94,43.77,43.77,0,0,0,6.28,4.52c2.71,1.63,3.54,3,2.63,5-0.78,1.71-4,3-6.05,2.15-1.81-.74-3.51-1.72-5.25-2.62-1.9-1-3.73-2.09-5.68-3a6.44,6.44,0,0,1-1.46-10.59A13.51,13.51,0,0,0-35,244.88c3.09-5.62,6.17-11.25,8.89-17a15.63,15.63,0,0,0,1.43-7.2c-0.69-12.74-1.66-25.47-2.52-38.2a5.65,5.65,0,0,1,0-1.6c0.64-2.8-.63-4-3.19-5.13-4.65-2.1-8-5.55-8.45-11.12-0.38-4.88-1.28-9.75,1.14-14.41,1.38-2.65,2.74-5.06,6.15-5.74,1.49-.3,2.7-1.93,4.08-2.87,5-3.4,12.46-.11,15.69,4.38,6.13,8.5,3.75,20.57-2,26.66a34.24,34.24,0,0,1-4.71,3.5,3.93,3.93,0,0,0-.19,5.56c0.55,0.53,2.62.31,3.37-.32A127.12,127.12,0,0,0-5.18,172c1-1,1.13-2.92,1.56-4.44,0.89-3.15,2.37-4.75,4.49-4.39,2.73,0.47,3.38,2.56,3.46,5,0,0.53.11,1.07,0.17,1.6Zm-22-10.38a13.93,13.93,0,0,0-3.73-8.83c-2.54-2.73-5.62-2.54-7.95.35a11.9,11.9,0,0,0-.25,14.6c2.93,3.9,8.08,3.53,10.22-.85A37.86,37.86,0,0,0-16.89,159.64Z" transform="translate(40.32 60.44)" fill="#b35089"/>
    <path d="M435.22,114.43c2.8,0.3,5.6.68,8.41,0.87,3.73,0.25,7.46.34,11.19,0.51a4,4,0,0,1,4.08,4.79,4.43,4.43,0,0,1-5.23,4c-3.7-.45-7.43-0.64-11.16-0.84-4.09-.22-8.18-0.28-12.27-0.48-2.52-.12-3.81.64-3.55,3.53,0.33,3.6.26,7.24,0.36,10.86l1,0.38c0.86-1.11,1.82-2.16,2.57-3.34,1.94-3,3.85-3.93,7.72-3.25,3,0.52,4.08,2.69,4.65,5.47,0.75,3.64,1.82,7.22,2.93,11.52,1.48-1.54,2.57-2.71,3.71-3.85,2.27-2.28,4.41-2.57,6.66-.95,1.87,1.35,2.31,3.14.74,5.08a164.35,164.35,0,0,1-10.89,12.45c-1,1-3.46,1-5.15.76s-2.94-1.66-3.17-3.77c-0.39-3.61-1-7.21-1.62-10.79C436,146.48,435.41,145,435,145a4.15,4.15,0,0,0-2.71,1.24c-3.94,4.24-7.78,8.59-11.64,12.91-1.31,1.46-2.51,3-3.91,4.39-1.68,1.64-1.27,2.9.4,4.15,2,1.5,4,3,5.95,4.56,2.86,2.4,3.21,3.86,1.73,6.11-1.67,2.53-4,3.06-6.94,1.54q-6.37-3.26-12.72-6.54c-3.37-1.75-3.94-5-1.42-7.88,4.18-4.75,8.65-9.29,12.4-14.35,1.48-2,1.9-5.17,1.88-7.8-0.07-10.6-.42-21.21-0.85-31.8a31.57,31.57,0,0,0-1.51-7.3,4.79,4.79,0,0,0-1.92-2.71c-6.41-3.51-7.63-9.56-7.66-16a17.54,17.54,0,0,1,4.32-11.78c2-2.39,4.8-2.24,7.21-2.93,10.81-3.1,19.09,5,17.27,16.17-1,6-3.09,11-8.12,14.69-0.8.59-.77,2.31-1.13,3.5,1.06,0.23,2.2.85,3.17,0.65,8.5-1.76,17-3.64,25.45-5.52,2.2-.49,4.78.69,5.19,2.54,0.69,3-.21,5.69-2.92,6.11-5.34.83-10.65,1.86-15.94,2.95a53.2,53.2,0,0,0-5.61,1.78Zm-9-28.49-0.41-.08c0-.71,0-1.43,0-2.14-0.1-2.22-1-4.13-3.18-4.75s-4.54-.58-6.2,1.72-2.09,8.48-.46,10.93A5.25,5.25,0,0,0,421,94,4.13,4.13,0,0,0,425,91,41.66,41.66,0,0,0,426.2,85.94Z" transform="translate(40.32 60.44)" fill="#b35089"/>
    <path d="M223.12,113.06c-1.22,4.2-2,8-3.5,11.6-0.72,1.7-2.65,3-4.31,4.15-2.22,1.48-3.4,4.25-2.14,6.56a2.25,2.25,0,0,0,2.1.31c3.65-4.07,9.29-6.06,11.72-11.45a25.14,25.14,0,0,1,4-5.92c0.63-.73,2.76-1.33,3-1,0.94,1.21,2.34,3.19,1.92,4.16-2.91,6.71-5.2,13.89-12.38,17.77-2.37,1.28-5,3.15-6.12,5.42A28.23,28.23,0,0,0,214.77,155c-0.35,4.6.21,9.27,0.25,13.91,0,3.62,2.38,5.78,4.63,8.1q6.15,6.32,12.15,12.79c1.41,1.53,2.52,1.58,4.37.49a33.06,33.06,0,0,1,7.83-3.16c1-.27,3.09.43,3.27,1.09,0.38,1.35.38,3.72-.46,4.34a124.26,124.26,0,0,1-13.48,8.66c-0.74.41-2.92-.93-3.92-2-4.39-4.55-8.58-9.3-12.88-13.93-2.21-2.39-3.46-2.35-5.2.4-2.48,3.89-4.86,7.86-7,11.92a3.44,3.44,0,0,0,.66,3.15,53.39,53.39,0,0,0,5.88,4.61c2.25,1.65,2.95,3.64,1.78,5.42-1,1.55-3.85,2.17-5.74,1-3.6-2.14-7.17-4.33-10.64-6.66-2.46-1.66-2.56-6.56-.6-8.85a45.78,45.78,0,0,0,5.14-7c2.15-3.79,3.85-7.83,5.85-11.7,1.42-2.75,1.53-5.61,1.33-8.59-0.36-5.34-.63-10.69-0.93-16-0.22-4-1.36-5.34-5.14-6.48-2-.62-4-1.56-6-2.09-3.43-.89-6.93-1.48-10.36-2.36a46.19,46.19,0,0,1-7.32-2.41c-0.88-.39-2.06-2.11-1.82-2.63,0.55-1.19,2.05-3,2.89-2.82,5.5,0.91,11.31-.23,16.55,2.55a18.52,18.52,0,0,0,5.36,1.55c2,0.36,3.69-.4,4-2.53s0.88-4.52-1.66-6a30.69,30.69,0,0,1-4.09-2.49,12.52,12.52,0,0,1-5.12-9.26c-0.32-4.12-1.12-8.19.74-12.08,0.74-1.55,1.71-3.32,3.08-4.19a46.83,46.83,0,0,1,9.08-4.46c3.29-1.19,9.07,1.69,11.49,5.79C220.51,106.31,221.68,109.77,223.12,113.06Zm-8.94,2.39,0.49-.37c-1.27-2.67-2.46-5.38-3.86-8a2.79,2.79,0,0,0-2.06-.88c-3.6-.16-5.42,1.09-6.78,4.44-1.18,2.91.32,8.79,2.76,10.76,3.79,3.06,7.06,2.2,8.71-2.36A25.06,25.06,0,0,0,214.18,115.45Z" transform="translate(40.32 60.44)" fill="#b35089"/>
    <path d="M276,158.07l-9.88,6.83c-1.62,1.11-3.22,2.24-4.87,3.3-2.41,1.55-4.91,1.37-6.28-.36a4.71,4.71,0,0,1,1.12-6.65c4.29-3.19,8.75-6.16,13.15-9.2,1.83-1.26,3.75-2.4,5.53-3.73,2.39-1.79,1.63-5.7-1.49-7.51-2.56-1.49-5-2.88-6.36-5.82-1.47-3.25-1.41-6.46-1.08-9.89a19.74,19.74,0,0,1,4.94-11.82c1.81-2,3.66-3.06,6.57-1.86,2.49,1,5.52.86,7.87,2.07,8.67,4.48,11.47,14,6.07,22.31-1.31,2-3.2,3.67-5,5.72a4.59,4.59,0,0,0,1.62.49c9-.59,18-1.14,27-1.91,2.93-.25,6,1.12,6.34,3.44,0.46,2.83-1.75,5.31-5.13,5.56-5.7.42-11.4,0.77-17.11,1.11-2.94.18-5.89,0.24-8.83,0.45-4.23.3-5.38,2-4.79,6.15a51.68,51.68,0,0,1,0,7.43c0,0.41.1,0.83,0.28,2.17,2.79-2.68,5.13-4.86,7.4-7.13,1.38-1.39,2.58-3,4-4.34,3.11-3.11,6.41-3.12,9.51,0,2.19,2.21,4.22,4.58,6.39,6.81s2.85,2.18,4.9-.25c0.8-.95,1.48-2,2.19-3a5.11,5.11,0,0,1,6.09-2.12c2.68,0.78,3.35,3.69,1.46,6.33-1.56,2.17-3.25,4.25-4.82,6.42a18.77,18.77,0,0,0-1.71,3c-1.82,3.88-6.18,4.63-9.21,1.54-2.43-2.47-4.77-5-7.3-7.43s-3.46-2.45-6.12-.11q-5.51,4.85-10.77,10a9,9,0,0,1-8.38,2.4c-2.26-.39-3.36-2.87-3.25-5.42C276.11,168.32,276,163.64,276,158.07Zm-1.65-31.4c0.26,4.64,1.9,6.74,5.36,6.86,3.68,0.13,5.27-1.41,5.7-5.52,0.32-3.05-3-6.95-6-7C275.21,120.87,274.08,122.14,274.33,126.67Z" transform="translate(40.32 60.44)" fill="#b35089"/>
    <path d="M163.34,285.54c-1.11,8-2,14.88-3,21.69-0.54,3.73-3.2,5.92-6.26,7.5-2.82,1.45-4.3,3.14-4.16,6.62,0.11,2.71-.82,5.54-1.74,8.15-0.32.9-2.22,2-3,1.79a4.69,4.69,0,0,1-2.91-2.87,55.29,55.29,0,0,1-.57-9.05c0-1.87-.45-3-2.63-3.16-1.25-.1-2.43-1-3.68-1.42a18.13,18.13,0,0,0-4.45-1.33,7.59,7.59,0,0,1-6.38-4.32c-0.93-2-2.21-3.84-3.13-5.85a8.1,8.1,0,0,1-1.09-4c1.18-9.3,2.54-18.56,9.43-25.82a18.12,18.12,0,0,1,9.18-5.53,48.63,48.63,0,0,0,7.93-2.84c2.3-1,3.67.19,4.66,1.84a10.74,10.74,0,0,0,6.13,5.21,3.88,3.88,0,0,1,2.23,2.1C161.25,278.32,162.41,282.45,163.34,285.54ZM140.22,300.6l-0.51-.32c0.64-1,1.05-2.56,2-2.95,3.26-1.38,5.32,0,5.89,3.45a16.24,16.24,0,0,0,.3,2.38c0.28,0.88.63,2.14,1.28,2.39s1.76-.44,2.52-0.95a3.78,3.78,0,0,0,1.24-1.67c2.73-6.56,1.19-13.09-.26-19.59a4.56,4.56,0,0,0-1.38-1.56,18.34,18.34,0,0,1-2.19-2.3,5.44,5.44,0,0,0-5.48-2.52,7.26,7.26,0,0,0-6,3.9c-1.92,3.57-3,7.57-4.93,11.16-3,5.64-.88,8.77,3.24,12.3a4.94,4.94,0,0,0,3.72.54c0.43-.08.55-1.9,0.74-2.94A5.17,5.17,0,0,0,140.22,300.6Z" transform="translate(40.32 60.44)" fill="#b35089"/>
    <path d="M120.18,3.25c0,4.59-2.69,7.53-4.69,10.73A29.82,29.82,0,0,1,111,19.63c-3.46,3.35-7.42,6.12-12.33,6.73a5.37,5.37,0,0,1-4-1.71c-3.14-3.7-5.64-8-9-11.46C81.4,8.81,79,2.79,73.52-.44c-1.72-1-1.63-2.43-1-4.17,2.27-6.52,7.65-10.62,12.22-15.21,2.08-2.09,5.63-3.07,8.7-3.75,6.31-1.41,10.68,2.13,11.3,8.55,0.22,2.3-.2,5.2,1,6.72s4.08,1.55,6.26,1.72C116.94-6.21,120.56-.57,120.18,3.25ZM95.82-6.49c0.11-3.92,0-3.81-3.48-3.82-3.26,0-4.67,2.62-6.88,4.12C83.74-5,83.92-3.57,85-2.06c2,2.78,3.23,2.95,6.09.86a4.75,4.75,0,0,1,1.6-.92C95.3-2.71,96.12-4.4,95.82-6.49Zm4.68,22.81a25.88,25.88,0,0,0,3.11-2.85c1-1.32,1.52-3.1,2.71-4.17,1.37-1.24,1.4-2.43.26-3.32-0.94-.73-2.71-1.38-3.61-1a14.71,14.71,0,0,0-5,3.8A5.17,5.17,0,0,0,97,13C97.35,14.18,99,15,100.5,16.33Z" transform="translate(40.32 60.44)" fill="#b35089"/>
    <path d="M234.41,314.48c5.14,4,7.56,4,12.71,1.39,3-1.52,6.46-2.19,9.71-3.26,1.18-.39,2.35-0.77,3.5-1.23,1.91-.76,3.69-0.76,4.35,1.5a53.17,53.17,0,0,1,1.81,8.5c0.25,2.09-1.24,3.3-3.24,3.56-2.65.35-5.33,0.51-8,.74-3.11.26-6.23,0.5-9.34,0.76a5.59,5.59,0,0,0-1.58.29c-3.51,1.39-7,2.9-10.52,4.18a4,4,0,0,1-3-.22,18.63,18.63,0,0,1-4.42-3.42,3.25,3.25,0,0,1-.4-2.89,11.25,11.25,0,0,0,.59-8.57c-0.42-1.24.18-2.79,0.22-4.2,0.14-6-2.69-11.16-4.7-16.59-1.21-3.26-1.51-6.9-1.83-10.41a3.81,3.81,0,0,1,1.95-2.93c5-2.2,10.09-4.23,15.22-6.12,4.24-1.57,8.56-2.93,12.88-4.25,1-.3,2.7-0.49,3.08,0a6.21,6.21,0,0,1,1.27,4c-0.24,2.26-1.15,4.45-1.68,6.69-0.81,3.37-2.47,4-5.74,3.23a11.56,11.56,0,0,0-6.17.41c-4.63,1.57-8.73,4-10.93,8.75a4.39,4.39,0,0,0,4,6.53c3.55,0.09,6.28-1.66,9.17-3.25,1.16-.64,3.51-1.43,3.69-1.13,0.94,1.49,1.95,3.37,1.81,5-0.32,3.64-3.46,5.19-6.38,6.48C239.25,309.5,236.33,311.17,234.41,314.48Z" transform="translate(40.32 60.44)" fill="#b35089"/>
    <path d="M204.4,300.35c0.81-5.24,1.57-10.49,2.46-15.71a2.52,2.52,0,0,1,3.82-1.88,5.94,5.94,0,0,1,3.33,4.8,27.93,27.93,0,0,1-1.47,13.91,3.2,3.2,0,0,0-.2,1c-0.17,4.87.14,9.82-.61,14.6a85.47,85.47,0,0,1-4.24,16.73c-1.52,4.05-4.22,4.11-6.73.54-3-4.24-7.32-4.13-11.68-4.5a97.41,97.41,0,0,1-10.4-1.37,4.4,4.4,0,0,1-2.87-2.19c-1.87-4.67-4.92-8.92-4.9-14.28,0-2.72-.89-5.49-0.59-8.15,0.37-3.31,1.54-6.53,2.37-9.78a6.3,6.3,0,0,0,.54-2c-0.6-4.74,1-9.15,1.89-13.67,0.4-2.09,1.08-3.91,3.51-3.92s3.92,1.5,3.85,4.21c-0.13,4.53-.63,9.06-0.9,13.59-0.17,2.92-.27,5.86-0.26,8.78s0.28,5.7.33,8.55c0.08,4.69,2.09,7.38,6.59,8.73a17.69,17.69,0,0,1,1.94.88,10.78,10.78,0,0,0,2,.79c1.21,0.26,8.9-3.65,9.59-4.72C204.69,310.75,205.28,305.69,204.4,300.35Z" transform="translate(40.32 60.44)" fill="#b35089"/>
    <path d="M141.41-8.3C148-8.57,153.7-10.64,158-16.07c2.65-3.36,5.41-3.49,8.61-1,2.35,1.82,3,6.73,1,9.27-1.85,2.36-4,4.28-7.39,4.06-6.7-.42-11.86,3.39-17.35,6.38a14.22,14.22,0,0,1-11.55.88c-1.77-.58-2.57-2-2.57-4a55,55,0,0,0-.4-5.87,4.35,4.35,0,0,0-.74-2.5c-2.23-2.15-1.78-5.07-2.6-7.63A105,105,0,0,0,118.91-32c-2.33-4.62-2.16-7.06,2.42-9.72,4-2.36,8.21-4.52,12.32-6.76a4.58,4.58,0,0,0,1.38-.77c3.21-3.9,7.78-3.9,12.2-4.29,1.45-.13,2.45.47,2.49,2.08,0.08,3.21,1.18,6.77-2.12,9a10.57,10.57,0,0,1-4.89,1.63,15.31,15.31,0,0,0-13.77,11.1c-0.42,1.53-.87,3.35-0.43,4.77,0.69,2.18,4.38,2.85,7.06,1.57,2.15-1,4.15-2.49,6.39-3.21a8.36,8.36,0,0,1,5.17.05c1.08,0.41-.28,4.87-1.76,5.88-2.34,1.59-4.72,3.14-7.07,4.72a2.45,2.45,0,0,0-.79.71c-0.92,1.61-1.8,3.25-2.69,4.88,1.84,0.7,3.67,1.42,5.52,2.08A3,3,0,0,0,141.41-8.3Z" transform="translate(40.32 60.44)" fill="#b35089"/>
    <path d="M400.19,147.88c-0.24,5-3.29,7.18-6.28,9.21-4.46,3-9.2,5.66-13.73,8.6-1.32.86-2.27,2.24-3.47,3.31-3.58,3.2-8.23,4-12.51,5.74a14,14,0,0,1-8.52.32c-1.71-.4-3.56-2.4-4.33-4.13-2.21-5-4-10.15-3.47-15.73,0.18-2.07.95-4.08,1.16-6.14a10.2,10.2,0,0,0-.3-4.78c-1.67-4,0-6.81,4.22-7.4a31.17,31.17,0,0,0,8-2.43c3.09-1.35,4.72-1,6.37,1.8s3.72,4.49,7.09,4.35a4.76,4.76,0,0,1,2.33.46c2.81,1.49,5.77,1.27,8.82,1.44,4.44,0.25,9.08.49,13,3C399.51,146,399.89,147.39,400.19,147.88Zm-42.58,8.65c0,0.48,0,1,0,1.55,0.16,5.26,4.69,8,9.54,5.8a9.75,9.75,0,0,1,1.49-.55c5.24-1.42,9.87-3.84,13.13-8.32,0.6-.82,1.23-2.36.86-3a6.08,6.08,0,0,0-3.08-2,31.73,31.73,0,0,0-5.55-1.47c-3.55-.59-7.12-1-10.69-1.45a3.52,3.52,0,0,0-1.47.55C357.86,149.39,357.17,152.67,357.61,156.54Z" transform="translate(40.32 60.44)" fill="#b35089"/>
    <path d="M295.51,291.84c-3.72.71-7.47,1.31-11.17,2.15a10.63,10.63,0,0,1-11.88-4.6,88.23,88.23,0,0,1-6-10c-2.4-4.61-.79-8.94,1.17-13.31,3.25-7.25,9.72-9.39,16.61-10.95a5.33,5.33,0,0,1,5.31,1.79,23.28,23.28,0,0,1,6.17,12.46c0.27,1.67-.46,4.4-1.65,5.13s-3.81,0-5.28-1c-2.83-1.8-5.25-4.22-7.91-6.29-1.08-.84-2.3-1.36-3.6-0.16-1.46,1.35-4,2.26-3.38,4.67,1.18,4.43,2.37,9,6.18,12.14a5.44,5.44,0,0,0,6.22.74,12.11,12.11,0,0,1,9.51-.7,6.37,6.37,0,0,0,3.43.21c3.87-.91,6.58.89,8.71,3.7,1.83,2.41,4.23,4.45,4.27,8,0.05,4.52-2.49,7.42-5.69,9.67a39.65,39.65,0,0,1-10.66,5.67c-2.86.89-6.31,0.49-9.36-.09-1.26-.24-2.93-2.4-3-3.73s1.89-2.46,3-3.64a1.34,1.34,0,0,1,1-.27c5.21,0.66,9.24-1.91,13-4.93,1.13-.91,2.72-2.79,2.42-3.58-0.49-1.27-2.27-2.25-3.71-2.85-1.06-.44-2.46-0.09-3.71-0.09Z" transform="translate(40.32 60.44)" fill="#b35089"/>
    <path d="M30.22,60.08c3.49,0.85,7.56,2.42,10.52,6.1,1.17,1.46,2.33,2.95,3.62,4.29,3.51,3.64,6.45,3.61,10.09,0,2-1.94,3.92-3.91,6-5.77s5.44-2,7.15-.63c1.26,1,1.86,2.29.83,3.7a21.67,21.67,0,0,1-3.23,3.46c-4,3.5-8.28,6.74-12.11,10.43-2.24,2.16-1.92,3.56.83,5A72.49,72.49,0,0,0,62,90.11c2.25,0.88,4.73,2,4.34,4.71s-3,3.28-5.4,3.49a21.31,21.31,0,0,1-6.64-.81c-4.8-1.08-7.56-5.26-12-6.56a17.81,17.81,0,0,0-4.15-.65C32.54,90,27,89.95,21.38,89.52A3.54,3.54,0,0,1,19,87.16c-0.67-5.31-1.62-10.69-1.32-16C18,64.87,22,60.12,30.22,60.08Zm5.2,23.09c3.61-.05,4.91-2.16,3.31-5.31C38,76.51,37.57,75,36.79,73.76S35.19,71,34,70.39a5.44,5.44,0,0,0-4.42-.16c-0.85.49-1,2.55-1.08,3.93a18.7,18.7,0,0,0,.7,3.93A6,6,0,0,0,35.42,83.18Z" transform="translate(40.32 60.44)" fill="#b35089"/>
    <path d="M396,111.33c-0.46,2.09-.79,4.28-1.45,6.37-0.88,2.76-3.7,3.32-6,1.54-3.65-2.81-4.44-6.92-5.07-11-0.49-3.16-.29-6.42-0.64-9.61-0.12-1.07-1-2.88-1.57-2.92a11,11,0,0,0-5.79.89c-0.84.47-.92,2.8-0.88,4.27,0.05,2,.85,4,0.72,6-0.07,1-1.33,2.2-2.35,2.76-0.49.27-2.07-.52-2.49-1.23-1.42-2.42-2.47-5-3.8-7.52A11.36,11.36,0,0,0,364,97.3a3.11,3.11,0,0,0-2.95.13c-3.67,2.84-4.37,7.74-2.2,12,1.72,3.38,3.73,6.72,3.57,10.76-0.12,2.89-1.33,4.25-4.15,4.63a7.63,7.63,0,0,1-1.33.13c-1.61-.07-4.22.38-4.63-0.37-1.32-2.4-3-5-1.88-8.06,2.06-5.47.42-10.09-3.05-14.35-0.23-.28-0.47-0.54-0.7-0.81-2.83-3.21-2.5-6.12,1-8.59a16.86,16.86,0,0,1,9.83-3.43c7.31-.12,14.63-0.66,21.92-1.33,2.12-.2,4.14-1.45,6.2-2.23,3.22-1.21,4.13-.39,4.83,3,1.16,5.61,2.72,11.14,4.11,16.7C395,107.34,395.47,109.23,396,111.33Z" transform="translate(40.32 60.44)" fill="#b35089"/>
    <path d="M339.71,271.91a6.13,6.13,0,0,1-2.29-1.15c-3.18-3.57-6.31-7.19-9.28-10.95-2.8-3.55-5.34-7.31-8.06-10.94-2.2-2.94-3.53-3-5.91-.28q-2.82,3.22-5.51,6.55c-2.19,2.71-5.23,2.59-8.12,2.17-2.5-.37-3.52-5.43-1.66-7.78,2.16-2.72,4.61-5.23,6.65-8,4.34-6,8.43-12.14,12.77-18.12a37.84,37.84,0,0,1,5.38-5.88c2.57-2.3,5.11-1.51,6.17,1.71a24.22,24.22,0,0,1,1.56,5.61,8.83,8.83,0,0,1-1.07,4.67c-1.41,2.55-3.43,4.76-4.77,7.34a4.47,4.47,0,0,0,.32,3.87,79.59,79.59,0,0,0,8.62,10.85c2.16,2.13,5.39,3.14,8,4.88a27.61,27.61,0,0,1,4.28,3.9,8.3,8.3,0,0,1,2,2.84c0.35,1,.65,2.68.1,3.3C346.58,269.06,344.06,271.52,339.71,271.91Z" transform="translate(40.32 60.44)" fill="#b35089"/>
    <path d="M82.59,216.11l6.25,2.45a25,25,0,0,0,3.95,1.53c1.92,0.39,1.94,1.35,1,2.62-2.07,2.86-4.24,5.36-8.38,5.28a60.21,60.21,0,0,0-10.92.94c-6.18,1-12.35,2.2-18.46,3.62-3.15.73-6.1,2.26-9.23,3.14a5,5,0,0,1-3.7-.51c-0.62-.41-0.81-2.15-0.53-3.09A17.54,17.54,0,0,1,51,221.18c4.95-2.69,7.69-7.35,10.58-11.79a51.51,51.51,0,0,1,12.14-12.65c2-1.52,6.4-.8,7.84,1S82.62,203,81,205c-1.32,1.57-2.72,3.07-4,4.66-1,1.19-1.89,2.41-.8,4.09s2.22,3.29,4.58,3.1c0.53,0,1.07-.06,1.6-0.08Zm-14.87,2.54c-2.15.62-4,.29-4.13,2.7-0.07,1.64,1,1.93,2.29,1.77,1.51-.18,3.59.28,3.64-2.07C69.54,220.27,68.36,219.46,67.73,218.66Z" transform="translate(40.32 60.44)" fill="#b35089"/>
    <path d="M300.8-31.88c0.39,6.82-2.42,13-3.87,19.47-0.68,3-.91,6.12-1.51,9.16a70.19,70.19,0,0,1-2.37,10c-1,2.83-4.87,3.67-8.09,2.23-2.25-1-2.77-3.28-1.47-6.43,0.34-.82.68-1.65,1-2.49,1.57-4.77-2.22-7.5-6.07-8s-6.53,1.67-9.14,4.09A73.07,73.07,0,0,1,263.44.81c-1.36,1-2,.45-2.34-1.1-0.94-4.56.57-8.26,3.86-11.32,2.87-2.67,5.84-5.24,8.79-7.84q10.39-9.16,20.83-18.27a7.13,7.13,0,0,1,2.73-1.52c2.47-.65,3.32,0,3.47,2.54C300.87-35.1,300.8-33.48,300.8-31.88ZM289.71-20.25l-3.53,3.8c0.73,0.39,1.72,1.3,2.13,1.08C289.77-16.12,290.72-17.38,289.71-20.25Z" transform="translate(40.32 60.44)" fill="#b35089"/>
    <path d="M253.15-44.72c0,5.41.22,9.12-2.67,12.05-2.25,2.29-4.65,2-5.43-1a22.9,22.9,0,0,1-.33-8.08c0.31-2.68-.52-4.26-3.3-4.37s-5,1-6.12,3.48a71.86,71.86,0,0,0-3.48,9.79,7.46,7.46,0,0,0,.58,4.08,51.9,51.9,0,0,0,2.38,5c1,2.17,2.84,2.53,5.43,1.4a20.06,20.06,0,0,1,5.94-1.86c3.07-.28,4.56,1.76,3.69,4.75-1.43,4.95-4.83,8.14-9.49,10.12a15.14,15.14,0,0,0-2.83,1.43c-2.59,1.82-3.47,1.89-5.2-.85-2.93-4.64-6.18-9.25-8.09-14.32-1.56-4.16-2.06-8.91.16-13.48a18.78,18.78,0,0,0,1.51-6.94c0.17-2.77,2-4.2,3.62-6a19.57,19.57,0,0,0,3.59-4.83c2.25-5.06,9.17-7.5,14-5.37a5.58,5.58,0,0,1,2,2C252.13-53.22,253.46-48.32,253.15-44.72Z" transform="translate(40.32 60.44)" fill="#b35089"/>
    <path d="M25.8,138.18a73,73,0,0,1-2.27,7.2c-0.67,1.59-2.13,2.24-4,1.67-1.22-.37-2.57-0.31-3.84-0.55a2.4,2.4,0,0,1-2.12-3.11c1.71-9.81,1.39-19.65.78-29.53A63.24,63.24,0,0,1,14.87,103,4,4,0,0,1,17,100.46c2.22-1.08,7.91,2.13,8.39,4.66a29.15,29.15,0,0,1,.72,6.37c-0.19,5,1.54,6.33,7.16,8.5,6.32,2.44,12.76,1.94,19.23,1.2a12.57,12.57,0,0,0,3.59-1c2.32-1,3.95-.13,5.36,1.63a2.2,2.2,0,0,1,.43.67c0.62,2,1.21,4,1.81,6a34.38,34.38,0,0,1-5.8,1.13c-7.63.2-15.27,0.21-22.91,0.25a14,14,0,0,1-2.92-.32c-4.57-1-7.16,1.25-7,6,0,0.8.08,1.6,0.13,2.41Z" transform="translate(40.32 60.44)" fill="#b35089"/>
    <path d="M49.52,33.25a32,32,0,0,1-5.4,2.44,76.9,76.9,0,0,1-9.82,1.68,2.51,2.51,0,0,1-1.73-1.68,2.79,2.79,0,0,1,1.2-2.07c1.51-1.09,3.51-1.65,4.74-3,3.37-3.58,6.89-7.14,8.33-12.08,1.38-4.72,5.58-7.67,9.63-6.79a3,3,0,0,1,2.58,2.91c0.51,3.43-1.46,6-2.85,8.71-1.68,3.31-1.45,3.71,2,5.26C61.17,30,64,31.55,66.82,33c1.11,0.57,2.21,1.16,3.35,1.68,5.55,2.53,8.07,2.1,12.47-2.08,2.23-2.12,4.54-2.57,6.71-1a2.78,2.78,0,0,1,.89,2.48c-2.58,5.16-5.48,10.16-8,15.35a24.6,24.6,0,0,0-1.72,6.65c-0.55,3.29-3,4.88-6.13,3.75a25.52,25.52,0,0,1-2.74-1.06c-2.52-1.24-3-2.69-1.75-5.2,0.31-.64.7-1.24,1-1.88,2.71-5.49,1.77-8.88-3.76-11.56C62.37,37.81,57.35,35.94,52.4,34a10.31,10.31,0,0,0-2.62-.33Z" transform="translate(40.32 60.44)" fill="#b35089"/>
    <path d="M199.34-48.41a25.82,25.82,0,0,1-.38,4c-1.06,4.22,0,6.3,4.33,7.12a5.59,5.59,0,0,1,4.29,3.51c0.75,1.56.57,2.58-1.43,2.7s-4.28.24-6.4,0.5c-2.53.31-3.12,1.39-1.94,3.63s2.07,4.21,1.25,6.84c-0.35,1.13.57,2.59,0.57,3.9s0,3.25-.74,3.76c-1.46,1-3.69,1.93-5.21,1.51a5.81,5.81,0,0,1-4.37-5.49c-0.1-2-.27-4.1-0.41-6.14-0.26-3.81-1.41-5-5.22-4.59-6.21.67-7.7-1.78-9-5.41-0.73-2-.55-3.55,2.23-3.94,3.05-.42,4.14-2.16,3.93-5.31-0.11-1.6-.12-3.22-0.38-4.8a12.08,12.08,0,0,1,3.3-10.53,6.81,6.81,0,0,1,3.78-1.48c3.6-.56,7.37-0.79,9.59,2.8,1.33,2.15,1.88,4.78,2.77,7.2Zm-6.5,5c-0.64-2.28-.64-4.31-3.15-4.32a2.4,2.4,0,0,0-2.42,3.13c0.39,1.56,1.67,2.89,2.56,4.32Z" transform="translate(40.32 60.44)" fill="#b35089"/>
    <path d="M375.79,214a23,23,0,0,1,0,2.67c-0.32,2.72-1.73,3.3-4.13,2.07-3.71-1.9-7.47-3.71-11.31-5.3-2.87-1.19-5.12.52-5.69,3.6a13.58,13.58,0,0,1-2,5.62c-0.7.94-2.85,1.38-4.13,1.09-0.91-.2-1.9-2-2.05-3.12a10.82,10.82,0,0,1,.63-4.93c0.83-2.28.26-3.73-1.71-5-2.33-1.45-4.65-2.93-6.84-4.57a14.78,14.78,0,0,1-5.18-7.56,7.2,7.2,0,0,1,4.66-8.94c4.21-1.17,7.85.37,11.41,2.29a11.43,11.43,0,0,0,2,1.32c2,0.53,4.09,1,5.3-1.5,0.31-.64.83-1.17,1.13-1.81,0.85-1.81,2.12-3,4.17-2.26a3.76,3.76,0,0,1,2.32,4.83,30,30,0,0,1-3.07,7c-1.13,1.88-1.25,3.1,1,3.9a28.69,28.69,0,0,0,5.44,1.76A9.11,9.11,0,0,1,375.79,214Zm-25.24-11.8c0-2-3.63-6.34-5.36-6.09a3.63,3.63,0,0,0-2.35,2.51c-0.22,1.72,3.48,5.24,5.24,5.52S350.67,203.8,350.55,202.2Z" transform="translate(40.32 60.44)" fill="#b35089"/>
    <path d="M330.25,57c-0.24-3.52.57-4.94,4.36-6.21,3.18-1.06,6.51-1.65,9.78-2.45a7.15,7.15,0,0,0,1.54-.37q6.47-3.29,12.9-6.65a3.19,3.19,0,0,0,1.3-.9c3.08-5.14,8.13-3.31,12.56-3.53a18,18,0,0,1,4.95.63A4.15,4.15,0,0,1,380.16,39a2.62,2.62,0,0,1-.68,2.46A19.79,19.79,0,0,1,375,43.87c-3.14,1.28-6.2,2.64-8.35,5.43A3.81,3.81,0,0,1,363.08,51a7.06,7.06,0,0,0-4.71,2c-2.26,2.34-5.12,2.82-7.94,3.76a19.42,19.42,0,0,0-5.33,3.27c-0.32.25,0,1.61,0.3,2.34,1.33,3.16,2.88,6.24,4.12,9.44,0.91,2.34-.55,6.09-2.79,7a3.74,3.74,0,0,1-3.32-.42,66,66,0,0,1-6.16-7.26A51.31,51.31,0,0,1,334,65.69c-0.57-1-1.09-2-1.64-3.05l-2.82-5.29Z" transform="translate(40.32 60.44)" fill="#b35089"/>
    <path d="M23.16,174.4a5.63,5.63,0,0,1,4.18-5.49c2.89-.81,5.81-1.5,8.69-2.36,1.91-.57,3.14-1.49,2.15-3.91-0.85-2.07.6-3.48,2.28-4.27s3.62-.51,4.6,1.42S47,164,47.8,166.16c1.45,3.67,3.38,4.25,6.7,2.14a88.16,88.16,0,0,1,8.12-4.63c0.77-.38,2.44-0.32,2.84.2a32,32,0,0,1,3.6,6,2.5,2.5,0,0,1-1,2.2,46.59,46.59,0,0,1-6,2.11c-2.68.83-5.44,1.45-8.07,2.42-1.39.52-2.15,1.43-1.14,3.33,1.9,3.57-.58,9.29-4.23,10.85-2,.85-2.85-0.08-3.3-1.78a23.68,23.68,0,0,1-.23-2.4c-0.44-2.81-2.52-4-4.72-2.31-2.74,2-5.84,2-8.92,2.12a4.28,4.28,0,0,1-2.68-.9A14.88,14.88,0,0,1,23.16,174.4Zm11.63,4.24c2.82,0,6.06-2.36,5.64-3.69a2.88,2.88,0,0,0-2.13-1.41c-2.22-.22-5.27,2-4.93,3.45A4.15,4.15,0,0,0,34.79,178.64Z" transform="translate(40.32 60.44)" fill="#b35089"/>
    <path d="M204.89,80.32c0.84-4.91,1.59-9.16,2.26-13.41a2,2,0,0,0-.57-1.36,5.67,5.67,0,0,1-.91-7c1-1.51,2.7-2.26,4.16-1.26,1.12,0.77,1.61,2.46,2.36,3.75a0.34,0.34,0,0,1-.07.25c-3.42,5.28-1.45,10.59-.13,15.91,0.16,0.65.29,1.31,0.57,2.59,1.19-2.61,2.22-4.63,3-6.73s2.59-2.65,4.23-1c0.63,0.63,1,1.5,1.67,2.08,1.67,1.46,2.55,3.83,5.78,3.22,2.56-.49,4.42,2.64,3.86,5.51A2.9,2.9,0,0,1,227,85c-1.24-.58-2.79-2.23-2.78-3.39,0-2.22-1-2.94-2.68-3.59a25.61,25.61,0,0,1-2.93-1.66V90.5c-7.72,0-15.06,0-22.4,0-1.44,0-2.29-.33-2.72-1.87-1.17-4.19-2.36-8.39-3.88-12.46a6.25,6.25,0,0,0-3.1-2.82c-1.67-.81-2.81-1.92-2.46-3.65a8.23,8.23,0,0,1,2.13-4c1.16-1.14,4.84.82,4.56,2.65-0.68,4.51,2.22,7.37,4.1,10.73a7,7,0,0,0,2.57,2.61,11.11,11.11,0,0,0,.19-1.86c-0.24-3.8-.48-7.6-0.83-11.39a3.8,3.8,0,0,0-1.14-1.58,10.66,10.66,0,0,1-2-2.31c-0.7-1.68-1.63-3.59,1-4.72,1.65-.72,3.25-1.74,4.85.05a4.78,4.78,0,0,1-.08,5.82A3,3,0,0,0,198.7,68C200.58,72,202.65,75.91,204.89,80.32Z" transform="translate(40.32 60.44)" fill="#b35089"/>
    <path d="M115.87,252c0.54,4.78-1.81,7.35-5.82,9.19-3.07,1.41-3.1,2.43-.86,5,3.15,3.61,3.29,5.9.68,8.62-1,1.07-2,1.21-2.94.11-1.41-1.6-2.81-3.22-4.12-4.9-1.88-2.39-3.76-2.2-5,.55a69.59,69.59,0,0,1-4,8.44c-1.92,3.08-2.71,3-5.77,1a8.41,8.41,0,0,0-1.37-.83c-4.73-2-3.45-3.3-1.39-6.14a59.93,59.93,0,0,1,6.52-7.37c2.63-2.61,2.63-4.25-.37-6.44-2-1.47-4-2.92-5.93-4.54-1.56-1.35-1.91-3.06-.31-4.66,1.39-1.39,4.33-.86,5.62.63,0.78,0.9,2.08,2,3,1.92s2-1.44,2.67-2.47c1.18-1.86,1.91-4,3.18-5.81,1.48-2.06,3.78-3,6.15-1.81,2.89,1.48,6.94,1,8.51,4.79C115,248.76,115.38,250.39,115.87,252Zm-12.22,5.82c1.86-1,3.95-1.59,5.09-3,0.85-1,.46-3,0.63-4.63-1.43-.09-3.1-0.68-4.22-0.14-1.41.68-2.49,2.21-3.48,3.55a2.73,2.73,0,0,0-.33,2.36C101.71,256.7,102.72,257.11,103.65,257.79Z" transform="translate(40.32 60.44)" fill="#b35089"/>
    <path d="M303.09,20.21c-0.25-3.71,1.22-5.23,3.24-6.49C314.6,8.52,322.82,3.24,331.09-2c2.93-1.84,5.87-3.68,9-5.21,1.06-.53,3.37-0.64,3.71-0.08,0.72,1.18.58,2.92,0.67,4.44a1.51,1.51,0,0,1-.79,1c-4.79,2.55-7,8-11.9,10.49-4.24,2.18-8.14,5-12.18,7.58-2.69,1.7-2.84,3.24-1,5.86a54.65,54.65,0,0,1,5.52,9c0.75,1.73.51,4.2,0,6.12-0.8,2.82-3.25,3.39-5.58,1.41-2.09-1.77-3.84-3.94-5.82-5.85a67.26,67.26,0,0,0-5.68-5.12C304,25.51,304,22.12,303.09,20.21Z" transform="translate(40.32 60.44)" fill="#b35089"/>
  </g>
</svg>
