<?xml version="1.0" encoding="utf-8"?>
<!-- Generator: Adobe Illustrator 17.0.0, SVG Export Plug-In . SVG Version: 6.00 Build 0)  -->
<!DOCTYPE svg PUBLIC "-//W3C//DTD SVG 1.1//EN" "http://www.w3.org/Graphics/SVG/1.1/DTD/svg11.dtd">
<svg version="1.1" id="Layer_1" xmlns="http://www.w3.org/2000/svg" xmlns:xlink="http://www.w3.org/1999/xlink" x="0px" y="0px"
	 width="293.529px" height="195.459px" viewBox="0 0 293.529 195.459" enable-background="new 0 0 293.529 195.459"
	 xml:space="preserve">
<g>
	<path fill="none" d="M172.795,59.421L144.2,62.715c-9.084,8.471-5.433,15.599-2.927,20.491c2.488,4.911-0.453,5.882-0.453,5.882
		s9.004,1.431,26.64-0.533c17.636-1.955,15.233-14.706,15.143-22.806C182.51,57.644,172.795,59.421,172.795,59.421z"/>
	<path fill="none" d="M135.654,88.555c-6.867-8.378-7.924-13.815-7.924-13.815C123.091,86.765,135.654,88.555,135.654,88.555z"/>
	<path fill="none" d="M290.033,5.89l-2.581-2.583h-6.77c-1.249-2.043-2.807,0-2.807,0C216.48,2.596,53.562,4.366,53.562,4.366
		l0.124-1.87L51.372,0h-4.18l-3.385,4.811H33.643L31.7,7.281h258.333V5.89z"/>
	<path fill="#FFFFFF" d="M31.7,7.281l-0.367,0.466l-1.341,25.127c0,0-3.736,0.806-3.736,8.645c0,7.84,8.014,9.437,12.918,10.33
		c4.899,0.884,10.239,0.804,7.032,19.159C42.998,89.348,0.06,168.201,0.06,168.201s-0.804,3.381,3.474,6.674
		c4.274,3.294,5.339,2.941,5.339,2.941h6.335v1.419h3.74v1.25c0,0-3.301,2.143-4.544,5.351c-1.253,3.201,2.31,4.897,2.31,4.897
		s2.945,1.517,6.152,3.114c3.203,1.603,6.943,1.61,6.943,1.61s40.721,0,44.902,0c4.184,0,4.104-3.127,4.104-3.127v-4.804
		c0-0.979-0.72-1.69-0.72-1.69l-2.492-1.777c12.736,0.531,10.692-8.558,10.426-10.701c-0.267-2.13,8.018-23.783,10.865-24.85
		c2.848-1.071,3.829-3.114,3.114-4.365c-0.702-1.253,5.26-17.909,7.84-19.785c2.59-1.863,2.857-2.403,1.879-5.964
		c-0.986-3.565,12.909-25.034,19.599-21.116c6.685,3.927,13.189,3.303,13.189,3.303h43.827c0,0,10.243,0.438,7.56-8.38
		c-2.661-8.818-3.638-16.13-0.791-23.257c2.856-7.121,7.214-7.027,7.214-7.027s3.394,0,11.581,0c8.196,0,6.868-1.784,6.868-1.784
		h35.542v-1.139h4.064l1.733,1.724h21.06c7.974,0,7.348-7.352,7.348-7.352l0.804-8.647c2.319,0,1.959-1.517,1.959-1.517
		s0-4.444,0-5.695c0-1.253-1.337-1.424-1.337-1.424v-4.986h2.314c2.848-10.695,0-19.513,0-19.513h-2.23V7.281H31.7z M127.729,74.74
		c0,0,1.057,5.437,7.924,13.815C135.654,88.555,123.091,86.765,127.729,74.74z M167.46,88.555
		c-17.635,1.964-26.64,0.533-26.64,0.533s2.941-0.971,0.453-5.882c-2.505-4.893-6.157-12.02,2.927-20.491l28.595-3.294
		c0,0,9.715-1.777,9.808,6.328C182.692,73.849,185.095,86.6,167.46,88.555z"/>
</g>
</svg>
