<svg version="1.1" id="Layer_1" xmlns="http://www.w3.org/2000/svg" xmlns:xlink="http://www.w3.org/1999/xlink" preserveAspectRatio= "xMinYMin meet" viewBox="0 0 19.7 7.3" xml:space="preserve">
<path fill="#282425" d="M3.3,1.6c0,0-0.2,0.1-0.2-0.1l0-0.3c0,0,0-0.1,0.1-0.1l0.2,0.1c0,0,0.1,0,0.1,0.1l0,0.3
	C3.5,1.5,3.5,1.6,3.3,1.6z"/>
<path fill="#282425" d="M8.9,1.6c0,0-0.2,0-0.1-0.1l0.1-0.2c0,0-0.2,0-0.1,0c0,0,0-0.1,0.1-0.1c0,0,0.3,0,0.1-0.4c0,0,0-0.2,0.1-0.1
	l0.2,0.1c0,0,0.1,0.1,0.1,0.3l0.1,0c0,0,0.2,0.1,0.3,0.2c0,0-0.3,0-0.3,0.1c0,0,0.1,0.5,0.2,0.5c0,0-0.2,0-0.2,0c0,0-0.1,0-0.1,0
	c0,0-0.1-0.3-0.1-0.3l0,0.2L8.9,1.6z"/>
<path fill="#282425" d="M0.2,3.9c0,0-0.2,0-0.1-0.1l0.1-0.2c0,0-0.2,0-0.1,0c0,0,0-0.1,0.1-0.1c0,0,0.3,0,0.1-0.4c0,0,0-0.2,0.1-0.1
	l0.2,0.1c0,0,0.1,0.1,0.1,0.3l0.1,0c0,0,0.2,0.1,0.3,0.2c0,0-0.3,0-0.3,0.1c0,0,0.1,0.5,0.2,0.5c0,0-0.2,0-0.2,0c0,0-0.1,0-0.1,0
	c0,0-0.1-0.3-0.1-0.3l0,0.2L0.2,3.9z"/>
<path d="M1.8,5c0,0,0.1-1.3,0-1.7L1.5,3.4L1.2,3.1c0,0,0-0.1,0.1-0.1l0.4-0.1c0,0-0.1-0.6-0.1-0.8c0,0-0.9,0.3-1.1,0.5
	c0,0-0.1,0.1-0.3,0L0.1,2.6c0,0-0.1-0.1,0-0.2c0,0,0.1-0.2,0.2-0.4c0,0,0-0.3,0.1-0.2l0.2,0.1c0,0,0.1,0.1,0,0.2c0,0,0.7-0.3,1-0.4
	c0,0,0-0.3-0.1-0.4c0,0-0.1-0.2,0.1-0.1l0.3,0.1c0,0,0.2,1.3,0.2,1.6l0.4-0.1c0,0-0.1-1.5,0-1.9c0,0-0.9,0-0.6-0.7
	C1.9,0.1,2,0,2.1,0l0.3,0c0,0-0.5,0.5,0.1,0.7l0.1-0.3c0,0,0.1-0.1,0.1,0c0,0,0.1,0.2,0.2,0.2c0,0,0.1,0.1,0.1,0.2l0.7-0.3
	c0,0-0.5-0.2-0.5-0.3c0,0,0-0.1,0.1,0c0,0,0.2,0,0.3,0c0,0,0.2,0.2,0.4,0.2l0-0.1c0,0,0.3,0,0.5,0.1c0,0,0.1,0.1-0.1,0.2
	c0,0-0.2,0.1-0.3,0.3c0,0,0,0.1-0.1,0.1c0,0-0.1,0-0.2,0c0,0-0.1,0.1-0.1,0c0,0,0-0.1,0-0.1l0.1-0.1c0,0-0.6,0.2-0.8,0.2
	c0,0-0.1,1.6,0,1.9l0.3,0c0,0,0-0.7,0-0.8c0,0-0.1-0.2,0.1-0.1l0.3,0.1c0,0,0,1.5,0.1,1.9c0,0,0.1,0.2-0.1,0.2c0,0-0.2,0.1-0.2,0
	c0,0-0.1-0.8-0.1-0.9c0,0-0.3,0-0.3,0c0,0,0.2,2,0.3,2.3c0,0,0.9,0.3,1.1,0.5c0,0-0.4-1.3-0.4-1.6c0,0-0.3,0.1-0.4,0.2L3.4,4.3
	c0,0,0.4-0.2,0.4-0.2c0,0-0.2-1.8-0.2-2.1c0,0-0.2-0.4,0-0.4c0,0,0-0.4,0-0.4c0,0,0-0.1,0.1-0.1L4,1.1c0,0,0.1,0,0.1,0.1
	c0,0-0.1,0.6,0.2,1c0,0,0.5,0.8,1.1,1.2c0,0,0.1,0.2,0.1,0c0,0-0.1-1.5-0.2-1.6c0,0-0.3,0.3-0.7,0.4c0,0-0.1,0-0.1,0L4.3,2
	c0,0,0-0.1,0.1-0.1c0,0,0.6-0.2,0.8-0.6c0,0-0.1-0.2,0.1-0.1l0.1,0c0,0,0.1,0,0.1,0.1c0,0,0.3,0.9,0.3,2l0.4-0.1c0,0-0.2-2-0.1-2.2
	c0,0-0.2-0.2-0.3-0.4c0,0-0.1-0.1,0-0.1c0,0,0.1,0,0.2,0c0,0,0.1,0,0.1,0.1c0,0,0.5,0.6,0.9,0.7c0,0,0.1,0,0.2,0
	c0,0,0.1,0.1,0.2-0.1c0,0,0.2-0.5-0.1-0.6c0,0-0.1-0.1-0.2,0c0,0,0,0.1-0.1,0.2L7.1,1c0,0-0.1,0-0.1,0c0,0-0.1,0,0.1-0.2
	c0,0,0.1-0.3,0.5-0.3c0,0,0.6,0,0.4,0.6c0,0-0.1,0.5-0.8,0.5c0,0-0.4,0-0.6-0.2c0,0,0,1.5,0.1,1.9l0.3-0.1c0,0-0.1-0.5-0.1-0.7
	c0,0,0-0.1-0.1-0.2c0,0-0.2-0.1-0.1-0.2c0,0,0.1-0.1,0.2-0.2c0,0,0.1-0.1,0.2,0L7.2,2c0,0,0.1,0,0.1,0.1c0,0-0.1,0.3,0.2,0.5
	c0,0,0.6,0.5,0.7,0.8c0,0,0.3,0.5,0.1,0.9l0.1-0.1c0,0-0.3-1.9-0.3-2.1c0,0,0-0.2-0.1-0.3c0,0,0-0.1-0.1,0c0,0-0.5,0.3-0.2,0.6
	L8,2.6L8,2.7c0,0-0.5-0.3-0.5-0.6c0,0,0-0.3,0.2-0.5c0,0,0.4-0.3,0.5-0.5c0,0,0.1-0.1,0.2-0.1c0,0,0.1,0.1,0.2,0.1
	c0,0,0,0.7,0.2,0.9c0,0,0.4,0.7,0.7,0.9c0,0,0.3,0.3,0.4,0.4c0,0,0.3,0.2,0,0.4L8.9,4.1c0,0,0.3,1.5,0.5,1.6c0,0,0.4-0.8,1.6-0.7
	c0,0,0.5,0,0.6,0.1c0,0-0.5-0.7-0.6-0.9c0,0-0.1-0.2,0.1-0.2l0.1,0c0,0,0.1-0.1,0.2,0.1c0,0,0.6,1,0.8,1.1c0,0,0.1,0.1,0.1,0.1
	c0,0,0.1,0-0.1,0.2c0,0-0.1,0.1-0.4,0.1c0,0-0.6-0.1-0.8,0c0,0-0.3,0.1-0.3,0c0,0-0.1-0.1,0.1-0.1c0,0,0.7-0.1,0.9-0.1
	c0,0-1.2-0.7-1.9,0.1c0,0-0.3,0.4,0,0.8c0,0,0,0.1-0.2,0.1c0,0-0.2,0-0.2-0.1c0,0-0.2-0.3-1,0.2c0,0-0.1,0.1-0.1,0.1
	c0,0,0,0.1-0.2,0L8.1,6.5c0,0-0.1-0.1,0-0.2c0,0,0.4-0.3,0.7-0.4c0,0-1-0.3-1.6-0.3c0,0,0.2,0.5,0.4,0.8c0,0,0.1,0.3-0.3,0.4
	c0,0-0.8,0.3-1.3-0.3c0,0-0.6-0.6-0.3-0.8c0,0,0.2-0.3,1.1-0.1c0,0-0.4-1.5-0.4-1.9L5.9,3.8c0,0,0.1,1.3,0.3,1.5L5.9,5.3
	c0,0-0.1,0-0.2-0.1c0,0-0.7-0.6-0.6,0.1c0,0,0.1,0.3,0.2,0.5c0,0,0.2,0.1,0,0.2L5.2,6.2c0,0-0.1,0-0.1-0.1c0,0-0.4-0.6-0.3-1
	c0,0,0.1-0.4,0.8-0.3c0,0,0-0.8,0-1c0,0-0.7,0.3-0.4,0.6c0,0-0.6-0.1-0.4-0.4c0,0-0.3,0.1-0.5,0.1c0,0,0.3,1.6,0.6,2
	c0,0,0.1,0.1-0.1,0.2c0,0-0.1,0.1-0.2,0c0,0-0.4-0.4-1.9-0.9c0,0-0.9-0.4-1.4-0.3c0,0-0.4-0.1-0.5,0.3c0,0-0.1,0.8,0.5,1
	c0,0,0.3,0,0.5-0.1c0,0-0.4-0.1-0.5-0.4c0,0,0-0.2,0.1-0.1c0,0,0.3,0.2,0.7,0.1c0,0,0.1-0.1,0.2,0l0.1,0.2c0,0,0,0.1-0.1,0.2
	c0,0-0.3,0.3-0.4,0.8c0,0,0,0.1-0.1,0.1c0,0-0.2,0.1-0.2-0.1c0,0,0.1-0.7,0.2-0.8c0,0-1.1,0.7-1.4-0.5c0,0-0.1-0.4,0-0.6l0.1-0.1
	C0.5,5.2,0.8,4.8,1.8,5z M4.7,3.9c0.3,0,0.4-0.1,0.4-0.1c0.1-0.1,0-0.2,0-0.2C5,3.5,4.7,3.3,4.7,3.3C4.5,3.2,4.1,2.7,4.1,2.7
	c0,0.3,0.1,1.2,0.1,1.2L4.7,3.9z M7.3,2.7c0,0,0.1,0.2,0,0.2c0,0,0,1.1,0.4,1.5c0,0,0.1,0.1,0.2,0c0,0,0.3-0.4,0.1-0.9
	c0,0-0.2-0.4-0.5-0.6C7.5,2.9,7.4,2.8,7.3,2.7z M9.4,3.8c0.3-0.1-0.1-0.4-0.1-0.4C9.1,3.2,8.7,2.7,8.7,2.7C8.7,2.9,8.9,4,8.9,4
	L9.4,3.8z M2.8,5.2C2.7,5.1,2.6,3.1,2.6,3.1L2.2,3.2c0,0.3,0,1.8,0,1.8C2.4,5.1,2.8,5.2,2.8,5.2z M6.8,5.7l-0.5,0c0,0-0.4,0-0.3,0.3
	c0,0,0.2,0.6,0.8,0.8c0,0,0.6,0.2,0.4-0.2C7.2,6.5,6.9,5.8,6.8,5.7z M9,5.9C8.8,5.7,8.6,4.4,8.6,4.4L8.1,4.6
	C7.9,4.7,7.5,4.6,7.5,4.6C7.1,4.4,7,3.5,7,3.5l-0.3,0c0.1,0.9,0.5,2,0.5,2C7.8,5.6,9,5.9,9,5.9z"/>
<path d="M11.5,2.5c0,0.4-0.2,0.6-0.5,0.7c0,0,0,0,0,0c0.1,0.1,0.3,0.3,0.5,0.3c0.1,0,0.2,0,0.2,0c0,0,0.1,0,0.1,0c0,0,0,0,0,0
	c-0.1,0-0.2,0.1-0.2,0.1c-0.1,0-0.2,0-0.4-0.1c-0.2-0.1-0.3-0.2-0.4-0.3c-0.1-0.1-0.1-0.1-0.1-0.1c-0.1,0-0.1,0-0.2-0.1
	C10.2,3.1,10,2.9,10,2.6c0-0.4,0.3-0.8,0.8-0.8C11.3,1.8,11.5,2.2,11.5,2.5z M11.3,2.6c0-0.4-0.2-0.8-0.6-0.8
	c-0.2,0-0.5,0.2-0.5,0.6c0,0.3,0.2,0.7,0.6,0.7C11.1,3.2,11.3,3,11.3,2.6z"/>
<path d="M12.8,2.4c0-0.1,0-0.4,0-0.5c0,0-0.1,0-0.1,0l-0.1,0c0,0,0,0,0-0.1c0.1,0,0.2,0,0.3,0c0.1,0,0.2,0,0.2,0c0,0,0,0,0,0.1
	l-0.1,0c-0.1,0-0.1,0-0.1,0.1C12.9,2,12.9,2.3,12.8,2.4l0.1,0.2c0,0.2,0,0.4-0.2,0.5c-0.1,0.1-0.3,0.2-0.4,0.2c-0.2,0-0.3,0-0.4-0.1
	c-0.1-0.1-0.2-0.3-0.2-0.5V2.2c0-0.2,0-0.3-0.1-0.3l-0.1,0c0,0,0,0,0-0.1c0.1,0,0.2,0,0.3,0c0.1,0,0.2,0,0.3,0c0,0,0,0,0,0.1l-0.1,0
	c-0.1,0-0.1,0-0.1,0.3v0.5c0,0.4,0.1,0.6,0.4,0.6c0.3,0,0.4-0.3,0.4-0.6L12.8,2.4L12.8,2.4z"/>
<path d="M13.1,2.6c0-0.4,0.3-0.8,0.8-0.8c0.5,0,0.8,0.4,0.8,0.8c0,0.4-0.3,0.8-0.8,0.8C13.4,3.3,13.1,3,13.1,2.6z M14.5,2.6
	c0-0.4-0.2-0.8-0.6-0.8c-0.2,0-0.5,0.2-0.5,0.6c0,0.3,0.2,0.7,0.6,0.7C14.2,3.2,14.5,3,14.5,2.6z"/>
<path d="M15.5,2.9c0,0.2,0,0.3,0.1,0.3l0.1,0c0,0,0,0,0,0.1c-0.1,0-0.2,0-0.3,0c-0.1,0-0.2,0-0.3,0c0,0,0,0,0-0.1l0.1,0
	c0.1,0,0.1,0,0.1-0.3V2c0-0.1,0-0.1-0.1-0.1h-0.1c-0.1,0-0.2,0-0.3,0.1c-0.1,0-0.1,0.1-0.1,0.2c0,0,0,0-0.1,0c0-0.1,0.1-0.2,0.1-0.3
	c0,0,0,0,0,0c0,0.1,0.1,0.1,0.2,0.1h0.9c0.1,0,0.1,0,0.2-0.1c0,0,0,0,0,0c0,0.1,0,0.3,0,0.3c0,0,0,0-0.1,0C16,2.1,16,2,16,1.9
	c-0.1,0-0.1-0.1-0.3-0.1h-0.2c-0.1,0-0.1,0-0.1,0.1L15.5,2.9L15.5,2.9z"/>
<path d="M16.4,2.2c0-0.2,0-0.3-0.1-0.3l0,0c0,0,0,0,0-0.1c0.1,0,0.2,0,0.3,0h0.4c0.1,0,0.3,0,0.3,0c0,0,0,0.2,0,0.3c0,0,0,0-0.1,0
	c0-0.1-0.1-0.2-0.2-0.2c0,0-0.1,0-0.2,0h-0.2c-0.1,0-0.1,0-0.1,0.1v0.4c0,0.1,0,0.1,0.1,0.1h0.1c0.1,0,0.2,0,0.2,0c0,0,0,0,0.1-0.1
	l0-0.1c0,0,0,0,0.1,0c0,0.1,0,0.1,0,0.2c0,0.1,0,0.2,0,0.2c0,0,0,0-0.1,0l0-0.1c0,0,0-0.1-0.1-0.1c0,0-0.1,0-0.2,0h-0.1
	c-0.1,0-0.1,0-0.1,0.1v0.3c0,0.1,0,0.2,0,0.2c0,0,0.1,0.1,0.3,0.1c0.2,0,0.2,0,0.3,0c0,0,0.1-0.1,0.2-0.2c0,0,0,0,0.1,0
	c0,0.1-0.1,0.2-0.1,0.3c-0.2,0-0.4,0-0.6,0h-0.2c-0.1,0-0.2,0-0.3,0c0,0,0,0,0-0.1l0.1,0c0.1,0,0.1,0,0.1-0.3L16.4,2.2L16.4,2.2z"/>
<path d="M17.6,2.1c0-0.2,0-0.2-0.1-0.2l0,0c0,0,0,0,0-0.1c0.2,0,0.4,0,0.6,0c0.2,0,0.3,0,0.5,0.1C18.8,2,19,2.2,19,2.5
	c0,0.3-0.1,0.5-0.4,0.7c-0.1,0.1-0.3,0.1-0.5,0.1c-0.1,0-0.3,0-0.4,0c-0.1,0-0.2,0-0.3,0c0,0,0,0,0-0.1l0.1,0c0.1,0,0.1,0,0.1-0.3
	L17.6,2.1L17.6,2.1z M17.8,2.9c0,0.1,0,0.2,0,0.2c0,0.1,0.1,0.1,0.3,0.1c0.4,0,0.6-0.3,0.6-0.7c0-0.2-0.1-0.7-0.7-0.7
	c-0.1,0-0.2,0-0.2,0c0,0,0,0.1,0,0.2L17.8,2.9L17.8,2.9z"/>
<path fill="#282425" d="M9.3,2.1C9.3,2.1,9.3,2.1,9.3,2.1l0.2-0.1c0,0,0,0,0,0c0,0,0,0,0,0c0,0,0.1,0.4,0.1,0.5c0,0,0,0,0,0L9.6,2.6
	c0,0,0,0,0,0s0,0,0,0C9.5,2.6,9.4,2.3,9.3,2.1C9.3,2.1,9.3,2.1,9.3,2.1z"/>
<path fill="#282425" d="M9.6,2.1C9.6,2.1,9.6,2.1,9.6,2.1C9.6,2.1,9.6,2.1,9.6,2.1l0.2,0c0,0,0,0,0,0c0,0,0,0,0,0c0,0,0,0.4,0,0.5
	c0,0,0,0,0,0l-0.1,0c0,0,0,0,0,0c0,0,0,0,0,0C9.7,2.6,9.6,2.2,9.6,2.1z"/>
<g>
	<path fill="#282425" d="M19.7,2.1C19.7,2.1,19.7,2.1,19.7,2.1l-0.2-0.1c0,0,0,0,0,0c0,0,0,0,0,0c0,0-0.1,0.4-0.1,0.5c0,0,0,0,0,0
		l0.1,0.1c0,0,0,0,0,0s0,0,0,0C19.5,2.6,19.7,2.3,19.7,2.1C19.7,2.1,19.7,2.1,19.7,2.1z"/>
	<path fill="#282425" d="M19.4,2.1C19.4,2.1,19.4,2.1,19.4,2.1C19.4,2.1,19.4,2.1,19.4,2.1l-0.2,0c0,0,0,0,0,0c0,0,0,0,0,0
		c0,0,0,0.4,0,0.5c0,0,0,0,0,0l0.1,0c0,0,0,0,0,0c0,0,0,0,0,0C19.3,2.6,19.4,2.2,19.4,2.1z"/>
</g>
</svg>
