<?xml version="1.0" encoding="utf-8"?>
<!-- Generator: Adobe Illustrator 18.1.1, SVG Export Plug-In . SVG Version: 6.00 Build 0)  -->
<svg version="1.1" id="Layer_1" xmlns="http://www.w3.org/2000/svg" xmlns:xlink="http://www.w3.org/1999/xlink" x="0px" y="0px"
	 viewBox="0 0 106.823 124.364" enable-background="new 0 0 106.823 124.364" xml:space="preserve">
<g>
	<path fill="#FFFFFF" d="M105.717,17.52c-0.146-0.098-0.305-0.181-0.471-0.248L69.705,3.134c-0.678-0.27-1.441-0.23-2.088,0.109
		c-0.646,0.34-1.11,0.944-1.274,1.654C66.149,5.753,46.653,90.51,36.614,106.654c-0.664,1.067-0.432,2.462,0.543,3.257L54.2,123.802
		c0.571,0.469,1.331,0.658,2.06,0.516c0.729-0.143,1.357-0.603,1.713-1.254c1.668-3.051,40.943-75.045,48.756-102.79
		C107.027,19.215,106.596,18.11,105.717,17.52z"/>
	<path fill="#FFFFFF" d="M51.224,9.285c0.063-0.918-0.38-1.765-1.103-2.25c-0.282-0.19-0.606-0.324-0.961-0.386L11.489,0.038
		c-0.719-0.127-1.457,0.068-2.019,0.531C8.906,1.032,8.573,1.72,8.559,2.45C8.54,3.325,6.696,90.276,0.153,108.124
		c-0.433,1.182,0.082,2.5,1.195,3.08l19.516,10.134c0.658,0.343,1.436,0.374,2.121,0.085c0.684-0.287,1.206-0.865,1.422-1.576
		C25.418,116.52,49.223,38.04,51.224,9.285z"/>
</g>
</svg>
