<svg id="Layer_1" data-name="Layer 1" xmlns="http://www.w3.org/2000/svg" viewBox="0 0 782.86 1184.14">
  <title>vultures-bird</title>
  <path d="M206.36,1049.64a706.6,706.6,0,0,0,222.73-83.36c-27.18-13.63-52.19-28.62-52.19-28.62C444.7,935.66,491,921.09,502.7,917A714.91,714.91,0,0,0,663.15,746.36c-35.85-8-78.8-23.23-78.8-23.23,65.9-15.32,108.34-38.66,119.16-45a706.1,706.1,0,0,0,72.34-226.86c-35.57,8.86-80.4,14.44-80.4,14.44,54.44-45.22,82-86.77,87.14-94.92q0.26-9.62.27-19.31A707.72,707.72,0,0,0,690,0c-44.49,231.44-215.7,417.77-438.61,484-21.38,6.35-65.48-249.45-65.57-250L317,127.79C263.21,102.34,244.75,38,185.42,21.93V21.27c-1.65-.27-3.33-0.45-5-0.7a107,107,0,0,0-14.34-2.12v0.1a712.55,712.55,0,0,0-94.24-6.4A711.41,711.41,0,0,0,0,15.79V1112.28l71.86,71.86ZM65.31,96.73c47.44-2.26,71.7,15.66,71.7,15.66L61.83,133.86Z" fill="#c02128"/>
</svg>
