<?xml version="1.0" standalone="no"?>
<!DOCTYPE svg PUBLIC "-//W3C//DTD SVG 1.1//EN" "http://www.w3.org/Graphics/SVG/1.1/DTD/svg11.dtd" >
<svg xmlns="http://www.w3.org/2000/svg">
<metadata></metadata>
<defs>
<font id="veneerlowresregular" horiz-adv-x="866" >
<font-face units-per-em="2048" ascent="1638" descent="-410" />
<missing-glyph horiz-adv-x="409" />
<glyph horiz-adv-x="0" />
<glyph horiz-adv-x="0" />
<glyph horiz-adv-x="682" />
<glyph unicode="&#xd;" horiz-adv-x="409" />
<glyph unicode=" "  horiz-adv-x="409" />
<glyph unicode="&#x09;" horiz-adv-x="409" />
<glyph unicode="&#xa0;" horiz-adv-x="409" />
<glyph unicode="!" horiz-adv-x="497" d="M377 1389l2 -31l-2 -58l-4 -53v-57l-6 -62l2 -59l-7 -16l-2 -56l-6 -67l2 -66l-6 -49v-55l-4 -53l2 -62l-6 -37v-35l-6 -49v-57l-8 -25l-19 -14l-28 -4h-60l-35 6l-20 21l-4 59l-6 65l-2 60v59l-4 60l-3 53l-6 49l4 55l-6 21l4 18l-6 35v35l-4 61l-2 64l-6 59l4 29l-8 53 l2 53l-6 31v88l20 21l33 6l61 -4l50 4l41 -2l61 -23v-49zM373 195l-4 -21l2 -53l-2 -53l-4 -56l-27 4l-6 -16l-39 -2l-76 4l-35 -4l-37 6l-14 25l2 30l-4 29l4 27l-4 57v61l8 31l31 15l68 -5l38 5l68 -3l37 -14zM199 942l28 -6l17 25l20 12l-18 14l-23 -14l-33 10l23 -14z M256 1313l-33 16l23 -41l18 2zM250 1014l-12 -8l53 -31zM254 723l-23 -4l23 -31v35zM268 1153l-4 10l-20 13l10 -33zM287 866l18 -8l-14 23l-17 -4zM248 801l-4 24l-15 -16zM268 821l15 6l-13 21zM227 1118l9 12h-15zM274 623l-14 2l8 -13zM178 106l-6 9v-9h6zM338 674l-6 6 v-6h6zM334 606l-6 6v-6h6z" />
<glyph unicode="&#x22;" horiz-adv-x="628" d="M573 1427l5 -28l-5 -35v-59l-6 -54l-6 -69l2 -27l-2 -51l-8 -23l4 -69l-8 -56l-25 -20h-59l-49 2l-23 12l-6 41l-4 53v58l-4 51l-6 57l10 31l-10 14l-4 52l2 34l-9 66l3 37l10 22l24 11l62 4l26 -6l23 4l25 -2l43 -29zM219 1479l37 -6l10 -46l-2 -63l-8 -70v-51l-6 -16 l4 -51l-4 -41l-4 -56l-6 -65l4 -31l-8 -25l-15 -14l-31 -10l-65 2l-41 14l8 27l-14 29l18 -5l-4 13l-18 4l-2 41l22 22l-20 17l-6 26v56l-5 18l-2 70l2 47l-8 45v47l-4 41l17 25l57 6h94zM131 1104l-18 -12l30 -15l-10 -12l8 4l13 -22l39 16l-19 12l-27 8v15zM463 1174 l37 26l-39 -2l-21 -24l41 -11zM199 1028l-13 -16l23 -13zM459 1133v-19l22 19h-22zM174 1010l10 -9l-8 25l-14 -14zM477 1247l-28 4l8 -14zM199 1116l18 -41l-2 25zM428 1100l-6 16l-14 -6zM172 1212l-6 -10l14 -6zM121 1276l-4 -6l12 -15zM479 1030l6 10v17zM82 1143l4 8 l-4 14v-22zM111 1268l-7 6v-6h7z" />
<glyph unicode="#" horiz-adv-x="946" d="M944 1057l12 -25l2 -33l-2 -59l-6 -31l-26 -12h-50l-51 4l-43 -6l-18 -16l-6 -52l-11 -73l-10 -19v-41l-10 -59l2 -47l68 -10l24 2l53 -2l29 -21l4 -27l-4 -47l2 -24l-6 -25l-18 -16l-33 -2h-62l-77 -6l-15 -37l-10 -56l-6 -53l-6 -80l-13 -43l-8 -78l-8 -47l-18 -14 l-23 -6h-51l-49 2l-25 6l-12 25l2 39l14 77l4 54l9 65l10 62l8 59l-14 27l-29 6l-66 -6l-22 4l-25 -10l-10 -54l-8 -47l-6 -51l-4 -64l-11 -67l-12 -82l-10 -29l-33 -14l-59 -2l-74 8l-8 25l2 49l8 51l10 49l6 51l7 50l6 45l8 69l-10 21h-115l-29 4l-18 26l-4 35l2 62l8 24 l41 15l57 -2h58l39 18l10 49l4 47l4 56l10 20l-4 20l4 27l6 55l-10 23l-35 4l-26 -2l-72 4l-31 8l-12 33l2 37l4 61l14 21l56 6l55 -2h66l20 14l6 47l6 60l11 51l8 65l8 56l6 49l6 51l17 19l28 8h33l62 -2l28 -6l10 -25l-2 -35l-6 -67l-10 -48l-6 -57l-8 -53l-4 -53l-9 -58 l15 -18l26 4l29 -2l57 -2l27 6l16 66v28l11 51l4 56l8 59l10 59l4 62l11 20l20 9l55 4l70 2l22 -19l7 -28l-5 -27l-8 -59l-10 -62l-12 -119l-8 -59l4 -43l49 -6l22 2h52zM545 653l6 21l2 24l6 60l14 8l-12 6l2 39l8 35l2 37l-28 14l-41 -2l-64 2l-20 -20l-8 -46l-11 -83 l-16 -82l-2 -76l23 -12l28 2l60 2l28 -4l17 20zM348 889l8 10l-14 12l-27 2l11 -26l16 10zM588 492l-21 16l-6 -37l21 10l10 -8zM303 965l31 4l8 24l-25 -8zM293 780l-19 -16l31 4zM690 1006l15 18l-17 8zM645 586l14 26l-12 -14l-18 2zM344 485l21 19l-21 -2v-17zM147 958 l15 11l-19 8zM524 485l-2 23l-12 -12zM348 1061l-12 4l-8 -12zM393 1169l-8 -4l10 -16zM647 799l4 -11l8 13z" />
<glyph unicode="$" horiz-adv-x="786" d="M729 436l6 -24l-4 -25l4 -29l-4 -57l-10 -61l-21 -50l-26 -43l-33 -43l-47 -41l-27 -14l-53 -20l-25 -21l-2 -41v-69l-12 -23l-16 -8l-47 2l-72 2l-21 12l-10 27l4 76l-8 28l-51 21l-27 18l-24 8l-19 21l-41 35l-28 43l-23 41l-14 53l-12 51l-3 60l-2 57v70l29 28l21 8 l30 -2h39l64 2l30 -6l19 -26l2 -37l-4 -58l4 -55l6 -24l18 -46l31 -30l25 -8l24 -2l33 4l31 20l20 25l9 26l4 62l-9 26l-14 58l-31 51l-36 45l-41 43l-46 43l-40 47l-41 41l-41 45l-35 47l-27 41l-6 19l-14 20l-25 68l-12 57l-6 63l4 84l16 70l33 57l35 50l47 41l29 14 l59 29l18 20l-6 37l8 78l33 16l27 4l24 -2l58 -2l32 -22l-4 -27l-6 -41l19 -57l26 -15l29 -6l12 -16l23 -8l55 -56l35 -57l24 -61l9 -52l6 -61l-2 -31l4 -53l-2 -21l-17 -38l-34 -7l-58 4h-51l-25 -4l-36 15l-7 22l3 27l-5 26l-2 54l-8 51l-16 41l-45 24l-19 3l-22 -5 l-23 -10l-30 -35l-9 -26l-2 -54l23 -77l28 -45l74 -86l39 -35l8 -15l27 -24l47 -49l43 -49l35 -50l20 -22l11 -21l26 -47l21 -51l14 -55zM412 1341l-23 -12l43 -8l25 4l12 -22l-12 45l-45 20v-27zM213 1286l2 -14l18 -12l33 -13l4 31l-12 8l-6 2l-16 -2l-11 12zM592 1188 l-29 2l-10 4l-4 -18l12 -19l21 12zM436 729l15 -2l10 -12l8 20l2 25l-22 4l8 -14l-19 -11zM338 137l2 10l14 9l-43 4l4 20l-18 4l18 -47l17 6zM631 1090l22 16l-20 10h-15l11 -20l-21 6v-21zM309 803l-30 18l12 -20l2 -17l-29 4l31 -10zM229 250l-8 12l-12 -26l16 -19z M264 129l6 14l-24 -6l12 -28zM246 987l10 -18l12 -13l17 -8l-13 21zM205 1233l-17 -12l23 -7l4 35zM571 1049l-18 12l-2 -35zM131 346l27 10l-21 17zM492 1282h-19l8 -10l-12 12l16 -31zM471 662l-4 30h-10l8 -14l-10 -19zM221 1219l17 -2l-5 34zM223 1026l-8 -22l16 -17z M178 1239l-12 -29l18 2zM184 315l-22 11l10 -27zM137 1122l-16 -4l14 -24zM418 721l-17 20l-4 -20h21zM186 188l17 19l-21 2zM553 1243l-14 -16l12 -15zM301 145l-18 11l12 -29zM590 1149l2 18l-23 -10zM512 1317l2 -12v-33l8 10zM219 297l-12 -4l29 4l-13 14zM367 1348 l6 -11v-28l8 24zM221 1161l12 4l-14 19zM197 381l-7 -23l13 15l-4 18zM342 1323l14 -4l-8 20zM324 838l18 -4l-25 12l2 -23zM311 1358l-4 -17l12 2z" />
<glyph unicode="%" horiz-adv-x="1380" d="M1305 358l-2 -32v-99l-7 -61l-14 -47l-27 -49l-38 -43l-29 -19l-47 -20l-72 -15l-18 13l-13 -11l-57 -2l-63 9l-25 8l-53 22l-49 35l-17 25l-26 49l-7 29l-8 43l-2 55l-2 61l12 25l-14 6l2 66l4 61l17 59l20 33l2 16l19 15l4 16l51 35l57 21l66 12l63 4l17 -4l18 2l37 -8 l47 -13l55 -22l21 -27l20 -12l19 -27l12 -30l20 -64l-2 -16l7 -25v-24zM293 805l-31 6l-55 16l-14 15l-17 4l-33 24l-22 29l-29 55l-2 27l19 4v21l-17 -9l-12 29l-4 27l6 20l-10 53l4 35l-2 51l4 19v41l8 55l23 55l18 27l41 45l33 14l20 15l74 14l61 6l62 -4l59 -8l33 -14 l49 -27l39 -33l12 -20l2 -23l19 -18l12 -39l2 -64l6 -16v-33l-20 -12h20v-100l-6 -72l-14 -74l-23 -31l-6 -22l-27 -31l-43 -16l-20 -21l-31 -12l-67 -12l-60 -4zM748 680l-9 -14l-10 -35l-33 -58l-20 -16l2 -22l-27 -46l-28 -53l-33 -53l-29 -55l-18 -25v-16l-13 -15 l-32 -57l-23 -27l-4 -30l-27 -31l-10 -25l-31 -65l-20 -25l-29 -16l-32 -2l-27 4l-55 -2l-27 8l-8 23l12 28l35 62l33 18l-2 21l4 28l16 27l21 39l24 14l-10 15l33 49l32 65l31 58l33 47l4 20l12 17l29 61l61 102l9 23l22 27l2 20l27 31l10 39l19 -2l8 28l24 13l6 20 l-26 -12l16 22l10 25l25 51l25 39l8 22l33 56l30 59l33 55l41 76l31 58l24 18v27l17 32l34 50l54 6l53 2l8 -10l23 10l28 -10l4 -29l-16 -29l-29 -59l-32 -62l-35 -57l-62 -115l-16 -10l-2 -27l-12 -24l-39 -57l-33 -66l-25 -47l-24 -53l-37 -54l-16 -34l-35 -64zM334 1327 l-29 -16l-22 -23l-13 -28l2 -72l2 -51l-8 -23l6 -29l-2 -45l11 -30l49 -31h45l37 6l30 21l13 28l4 37v55l10 2l-4 11l-6 22l-2 58l-4 63l-21 27l-31 14zM1110 242l-4 16v43l2 51l-2 58l4 20l-20 49l-23 13l-31 6l-53 -4l-22 2l-29 -31l-8 -55l-2 -58l4 -55l-2 -25l2 -65 l18 -43l57 -12l58 4l28 10l13 27zM532 1352l-10 -33l-10 -6l-8 -23l41 6l-4 19l10 10v23l8 20l-20 2zM477 913l21 15l-13 16l-12 -14l8 -6l-16 -11l8 -16l19 -8zM551 1051l-12 10l12 14l-31 2l12 -28zM504 1386l-17 15l5 -29l18 -4l12 8zM160 1282l-8 -10l18 4l20 -8l5 12 l-11 10zM573 514l21 12l2 19l-21 -13l-12 5zM750 895l6 -16l-13 -21l25 29l27 22l-25 2l6 -8l-16 -16zM143 1112l13 -12l14 -17l10 7l-14 18zM319 899l11 -18l-4 20l16 -12l-6 20l-29 4zM557 936l4 16l-16 11l-8 -19zM145 1219l-4 -21l23 29v20zM535 971l30 14l-12 16z M176 983l10 6l15 -6l-11 14l-20 9zM600 1137l2 18l-18 -6l14 -19l23 5zM702 741l25 2l-29 21zM836 582l6 -23v-14l14 18zM498 1325l18 12l-12 19zM805 211l29 -4l-33 20zM1171 508l-14 -16l17 -13zM367 877l14 -11l-23 25l-12 -17zM1030 580l8 18l-18 8zM115 1006h12v32z M162 1075l-2 -18l20 -4zM553 1309l-4 -23l14 -8zM901 1180l6 -13l23 13h-29zM827 391l19 15l-19 4v-19zM664 696l-23 9l8 -17zM545 1264l-13 -25l17 8zM625 623l12 6l-19 14zM858 537l19 2l-13 14zM578 1098l14 2l-17 16zM543 1087l18 19l-12 2zM182 1137l-8 -21l14 4z M961 84h-21l10 -12zM498 977l-13 2l4 -18zM164 1120l-4 15h-15zM592 1174l-2 -7h33zM862 1102l-4 -12l19 6zM489 367h23l-23 8v-8zM829 498l-2 -9h21zM1210 264l9 4l-29 4zM311 877l-12 16h-8zM535 1233l-3 -6l25 8zM207 1092l-2 -11l10 11h-8zM883 1030l-6 8v-8h6z M1174 545l-7 6v-6h7zM655 743l-6 5v-5h6z" />
<glyph unicode="&#x26;" horiz-adv-x="1202" d="M1128 313l2 -41l-2 -28l-4 -60l-8 -49l-24 -53l-23 -31l-53 -41l-39 -12l-29 -14l-59 -7l-58 11l-65 22l-61 47h-37l-41 -26l-52 -25l-53 -20l-30 -2l-48 -4l-55 -3l-31 5l-65 16l-21 14l-24 4l-27 23l-37 29l-30 34l-27 41l-25 45l-14 52l-8 51l-4 55l4 57l8 64l10 29 l27 71l14 23l25 47l31 43l34 41l43 47l4 33l-18 49l-16 49l-13 45l-18 60l-10 81l2 35l-6 13l4 34l2 50l10 53l18 51l25 51l47 58l23 18l49 29l53 18l70 12h45l69 -10l27 -10l57 -29l43 -41l21 -28l24 -48l19 -79l8 -48l-8 -14l10 -31l-10 -63l-12 -55l-19 -47l-35 -60 l-22 -41l-31 -33l-59 -63l-56 -62l2 -26l17 -27l8 -24l18 -33l13 -39l20 -45l21 -43l28 -29l13 19l12 51l12 55l12 66l3 45l22 51l25 4l47 -6l53 4l53 -4l13 -21v-61l-13 -37l8 -18l-8 -62l-16 -20l2 -39l-10 -43l-17 -47l-18 -49l-29 -62l-12 -31l2 -41l47 -30l25 4l22 37 l2 30l8 78l23 13l27 2l63 4l35 -4l20 -15zM436 1206l-2 -30l4 -62l13 -61l16 -60l20 -26l29 37l27 43l18 18l-4 16l18 56l7 57l-11 55l-12 27l-22 20l-27 7l-29 -9l-24 -22l-15 -31zM393 236l25 -13l31 -6h30l29 6l20 35l-43 74v14l-16 16l-10 19l-21 39l-22 49l-21 53 l-20 2l-17 -24l-22 -51l-6 -72l8 -66l12 -28l19 -27zM707 213l28 2l-45 41l17 10l-2 25l14 20l-35 -8l12 -10l-20 -10l6 -9l-2 -43zM569 147l11 -4l-15 19l-8 -15l-25 5l9 -19l-11 -18l-18 -9l20 -14l11 21zM401 821l23 13l-31 -5l-2 29l-33 -31l17 -14zM670 330l-17 4 l-28 -2l26 -27l21 -8l-13 12zM444 903l-12 -22l17 8l-3 -31l7 -18l18 -11l-12 25l-4 29zM715 156l4 30l-35 -10zM213 352l-14 15l-27 -11l2 -14l8 -6l8 18zM391 1376l-2 -10l10 -18l21 22zM770 317l31 -26v28zM457 631l10 -23l14 6l17 -8l-19 19zM823 535l-16 18l-8 -33z M510 522l27 4l-23 15l-12 -4zM774 223l12 4l-38 6l8 -18zM838 586l-25 -8l35 -15zM526 477l25 -24l-12 36zM365 1149l-3 -27l23 6zM623 199l-7 10l-20 6l10 -20zM635 422l-10 -10l8 -25l6 10zM631 385l-17 -16l15 -17zM823 129l13 14l-35 -6zM535 434l20 -16l-20 37v-21z M586 385l14 -25l8 15zM791 246l16 -15l16 11zM432 797l8 -17l13 11l-13 8zM289 631l-21 6l6 -19zM705 348l-15 -4l2 -22zM444 80l-12 16l-4 -20zM567 430l19 -6l-6 18zM504 72l-15 18l-2 -18h17zM383 707l-2 14l-8 -10l-13 -4l-10 -11l17 11h16zM469 109l6 18l-16 -4z M467 717l-8 14l-10 -8zM481 121l27 -10l-10 12zM770 559l4 -10l23 -4zM811 416l6 14l-12 4zM379 784l18 23l-20 -14zM774 270l-10 2l4 -18zM160 322l26 2l-6 4zM547 1460l-4 4v-4h4zM565 479l-4 4v-4h4zM668 1282l-9 -8l17 14z" />
<glyph unicode="'" horiz-adv-x="409" d="M307 1372l-6 -16l-16 -6h22l-6 -72v-39l-2 -55l-4 -58l-2 -51l-4 -61l-4 -58l-21 -18l-45 -2l-20 4l-25 -6l-37 14l-18 62l4 39l-6 49l-4 51l-2 57l-2 62l-5 55l-2 53l-4 56l4 24l15 21l26 4l70 2l78 -4l20 -37v-25zM287 1198l-13 -10l17 -19zM207 1280v-12l22 2z M197 1260l-9 6v-6h9z" />
<glyph unicode="(" horiz-adv-x="507" d="M385 -100l21 -29l-17 -41l-45 -43l-6 18l-2 -26l-57 -43l-29 10l-43 43l4 18l-25 7l-14 18l-2 16l-23 9l-24 34l-21 41l-34 74l-13 64l-4 77l4 60l-4 39l2 63l-2 51v70l-2 59l4 29l-2 39l-2 55v56l6 26l-6 35v70l2 53l-2 55l2 58l2 71l-4 54v51l4 59l-4 29l4 31l-4 51 l6 73l11 82l28 72l29 53l18 8l11 27l16 21l43 47l33 35l18 2l55 -9l9 -20l22 -10v-25l25 -4l18 -18l-6 -19l8 14l15 -18l-9 -27l-18 -22l-47 -45l-29 -43l-29 -60l-6 -30l-8 -60l2 -26l-6 -23l4 -29l-2 -30v-64l2 -61l-2 -45l2 -84l-2 -58v-55l-2 -55l6 -23l-2 -49v-51 l-4 -23l6 -71l-4 -49l-2 -62l-14 -10l12 -25l4 -77l2 -66l-2 -55v-72l4 -43l-14 -4l10 -12l19 -62v-18l22 -31l35 -51zM139 170l13 27l-19 -13l17 23l-15 10l-16 -18l2 -9zM307 -125l21 4l-23 15l-24 -5zM203 -59l2 12l-23 -2l15 -27zM141 117l19 12l-25 2l-14 21zM201 109 l22 2l-28 14zM180 -10l-10 -10l10 -15v25zM231 -47v10l-22 6zM188 737l-8 -10l27 6zM160 -113l10 7h-10v-7z" />
<glyph unicode=")" horiz-adv-x="507" d="M459 461l4 -35l-6 -70l4 -39l-2 -84l2 -45l-2 -59l-6 -59l-9 -66l-20 -53l-27 -43l-24 -43l-17 -17l-45 -51l-43 -47l-24 -14l-27 -2l-18 22l-25 19l-41 43l-8 30l-23 15l21 28l43 50l43 55l29 70v18l8 25l4 57l2 72v38l-2 56l4 45l-6 20l4 25v63l-2 47l2 50l-2 49l-2 65 l4 72l-4 61l2 82l2 64l-4 69l6 13l-4 61l10 29l-8 22l-2 41v72l-2 66l4 43l-8 -13l-17 58l-4 32l-14 11l-43 55l-25 25l-18 26l-17 35l15 25l22 18l15 23l32 26l19 23l41 8l45 -45l41 -47l22 -19l21 -41l-21 -16l39 -16v-13l35 -39l-12 -18l22 -14l15 -72l4 -74l-6 -67 l8 -31l-6 -60l6 -57l-2 -61l-2 -60v-119l2 -59l-6 -80l6 -20l2 -37l-10 -31l6 -24l2 -80l-8 -21l8 -24l-4 -17zM319 1503l-14 -4l12 -20l23 -13l12 11l13 -15l8 2l-25 29l-6 20l-2 -18h-16zM350 1221l2 18l-26 -6l16 -6l-8 -19zM385 750l-16 -13l2 -24zM350 625l29 -19 l-12 23zM356 1587l-26 -6l16 -6zM387 567l-8 6l-10 -18zM301 1513l-6 7v-7h6zM453 285l-7 6v-6h7zM125 -123l-4 6v-6h4z" />
<glyph unicode="*" horiz-adv-x="868" d="M793 1176l12 -31l-10 -29l-37 -6l-27 8l-29 -6l-14 -10l-31 -2l-51 -6l-49 -7l-10 -22l22 -31l49 -45l50 -43l45 -41l12 -24l-10 -23l-37 -24l-47 -33l-53 -33l-29 -4l-19 29l-4 16l-26 59l-4 23l-27 47l-25 49l-20 -4l-37 -70l-8 -24l-21 -53l-24 -52l-23 -22l-24 6 l-51 33l-52 39l-39 41l21 34l29 19l16 18l29 2l-4 21l18 16l31 37l20 12l14 21l3 22l-35 7l-58 8l-47 8l-24 -2l-15 18l-12 -6l-35 -2l-22 8l-11 23l5 26l18 56l20 59l15 23l33 6l41 -21l38 -24l58 -35l69 -21l7 29l-7 29l-10 59l-12 60l-8 51l4 24l24 13h27l55 2l78 -2 l21 -19l-2 -37l-13 -65l-10 -55l-8 -68l10 -27l47 23l47 26l52 25l34 25l33 12l19 -8l18 -29zM608 901l-10 -4l-4 -18h14v22zM272 854l-2 25l-16 -13zM168 1176l-2 32l-10 -28zM209 1190l-14 -21l24 13z" />
<glyph unicode="+" horiz-adv-x="1089" d="M1020 727l2 -35l-4 -45l-23 -14l-65 -4l-27 4l-24 -2l-56 2l-57 -2h-68l-12 10l-20 -12l-15 -29l-4 -25l2 -53l-2 -73l2 -56l-2 -55l2 -59l-8 -29l-29 -10h-86l-53 -2l-22 10l-15 35l6 39l-4 32l2 33l-4 31l2 33l2 75v72l-10 27l-37 16l-4 -8l-29 2l-69 -6l-68 2l-57 2 h-53l-37 16l-6 31l-4 68l4 36l-4 27l10 27l22 10l25 4l22 -4l35 4l25 -4l63 4l17 -4l20 2l25 -4l57 2l45 12l10 27l-4 57l2 47l-4 31l2 74l-2 55l2 59l15 27l53 10l29 -2l57 2l29 -6l20 -10l8 -35v-47l-2 -47v-70l-2 -65l4 -27l-2 -29l2 -47l19 -12l41 2l34 -14l27 10l31 4 l63 -2h131l23 -23l6 -30l-4 -8v-64zM524 1106l-20 -4l-2 -15h20l27 -20l-8 18zM915 760h25l-4 18h-18zM590 1141l-4 -19l2 -16l16 8zM457 731l20 -2l-26 19l-13 -19zM420 782l-6 23l-13 -47zM543 848l16 -8l6 18h-6zM530 1159l-16 -16l37 2h-12zM319 670v14l-26 -27z M164 739l16 9l-18 12zM303 762l-4 -25l12 4zM207 731l-8 17l4 16l-13 -14zM547 1112l6 -25l6 15zM514 592l-27 -6h29l2 20zM575 346l-6 6v-6h6z" />
<glyph unicode="," horiz-adv-x="385" d="M311 176l2 -18v-64l-2 -51l-12 -59l-16 -64l-25 -53l-29 -51l-36 -39l-23 -4l-16 6l-23 -6h-31l-26 10l4 37l18 33l19 18l2 18l14 15l19 59l-9 31l-53 4l-14 20l-2 43l8 54l-8 22l4 23l-4 61l6 35l28 16h127l56 -2l20 -14l4 -27zM135 127l10 20l-12 -4zM209 111l2 8 l-21 2z" />
<glyph unicode="-" horiz-adv-x="653" d="M563 774l-2 -29v-55l-8 -31l-31 -16h-71l-33 4l-33 -2h-74l-35 10l-28 -8l-115 -4l-27 6l-16 29v31l2 49l-4 26l2 23l19 16l26 11h64l55 -5l78 2l65 3h111l35 -7zM209 713l4 18l-29 2z" />
<glyph unicode="." horiz-adv-x="385" d="M295 94l12 -26l4 -31l-10 -27l-20 -10l-50 -4l-59 4l-57 -6l-29 6l-14 29v147l2 53l8 37l24 8h60l59 -2l54 2l24 -10l8 -53l2 -66l-4 -24l2 -27h-16z" />
<glyph unicode="/" horiz-adv-x="497" d="M565 1597v-28l-16 -58l-17 -16l15 6l-17 -53l-14 -47l-8 -49l-8 -23l-13 -47l-14 -47v-16l-12 -19l-2 -18l-15 -52l-14 -6l6 -18l-4 -29l-20 -49l-2 -39l-11 -18l-2 -25l-12 -39l-20 -80l-21 -84l-10 -22l-2 -19l-10 -8l-5 -51l-10 -22l-2 -23l-18 -57l-25 -64l4 -24 l-12 -31l-18 -78l-21 -76l-10 -45l-6 -6v-18l-13 -37l-12 -51l-16 -50l-17 -63l-12 -47l-25 -76l-18 -16l-59 -2l-60 2l-30 14l-7 27l21 63l10 49l12 56l13 36l10 48l10 18l14 57l11 49l16 43l6 31l15 62l22 57l10 63l13 23l14 78l14 51l15 47l14 49l12 51l17 62l14 51 l20 64l11 63l22 62l13 57l16 57l4 33l10 27l15 49l12 53l14 55l21 64l6 41l12 24l12 11v6l21 10h59l66 -4zM313 981l25 -23l-4 39l-25 17zM180 514l21 27l-39 -17l8 -20l-20 -19l10 -8v17l20 2v18zM348 1190l33 6l-2 21l-17 2l3 -21zM154 350l6 12l4 17l-21 -17l-26 -2z M96 299l21 -8l18 4l-20 16zM373 1141l-2 8l-9 -27l-16 -2l21 -12zM154 313l-4 21l-27 4zM414 1161l10 -2l-4 17zM137 410l-14 2l14 -13v11zM238 721l-5 6l-4 -27zM307 1171l-10 -6l33 6h-23zM305 905l14 10l-14 -4v-6zM170 471l-6 4v-4h6zM104 158l-4 6v-6h4z" />
<glyph unicode="0" horiz-adv-x="837" d="M774 854l4 -25v-176l-4 -61l-2 -68l4 -55l-8 -18l10 -31l-2 -35l-2 -66l-4 -71l-25 -72l-22 -49l-35 -49l-47 -43l-63 -35l-62 -16l-80 -9l-82 5l-73 16l-66 31l-47 36l-39 43l-14 27l-23 49l-22 72l-7 47l5 18l-2 50l-3 55l13 37l-13 12l-2 39l5 35l-3 31v147l15 -16 l16 30l-16 -10l-15 16v31l3 62l-7 73l7 37l-5 66l2 57l7 25l-11 12l2 43l9 41l-2 25l4 24l12 27l2 20l29 68l32 45l37 37l33 24l25 6l22 -2l17 21l30 12l72 8l27 -4l36 2l52 -2l67 -16l37 -17l49 -28l39 -37l39 -55l14 -31l25 -74l6 -71l2 -60v-125l2 -65zM520 336l2 39v90 l-2 55l2 64v118l-2 37v146l4 22l-4 19l-4 43l12 35l-2 71l-6 29v43l-4 57l-29 47l-26 17l-33 8l-29 -2l-43 -19l-16 -18l-16 -49l-7 -49l7 -25l-2 -24l-9 -19l9 -12v-285l-9 -59l6 -21l-2 -28l5 -74v-66l-5 -24l5 -45l-3 -47l-8 -33l8 -12l3 -23l8 -74l18 -28l29 -21l35 -8 l32 -2l31 12l27 29l14 39zM272 1055l9 20l-25 -6l-2 -8l-25 -10l-26 8l-15 -15l-10 39l-24 2l20 -20l8 -31l25 2l18 -26l-8 -21l31 27l-15 10l13 18l16 -6zM199 1303l-19 8l6 -51l17 -15l30 -26l-14 28l49 2l-18 31l-2 16l-8 -20l-23 -12h-20l8 24l8 33zM215 1348l-6 -15 l16 -4l-2 17l33 4v-17l14 -6l-22 -20l14 8l19 -6l4 41l-41 8zM715 397h-23l-12 21l-6 -25l2 -20l20 -27l2 29zM231 371l17 -15l-2 27l-35 6l-16 -10l22 -19zM164 358l16 21l-10 12v23l-6 -19l-25 4v-24l13 8zM170 889v-21l-18 31l2 -27l26 -14l4 35l11 12l-11 -2l-12 4z M82 766l18 -12l-2 -27l29 25l-14 14h-31zM162 651l35 2l10 29l-23 2l-8 -27zM238 899l4 35l-41 -37zM154 655l-23 -4l-16 -18l30 -12l-6 16zM616 446l19 3l6 20l-18 12l2 -16l-17 -16zM166 778l-14 -22l34 8l19 -14v18l-17 4l-22 -6v12zM649 621l21 -5l-11 35l-8 -12l-8 -2z M176 961l-43 -9l35 -14zM256 705l-8 8l-10 -19l-25 2l16 -18zM168 834l-8 -25l37 6zM184 1202l-14 -4v-20l-8 -7l16 -6zM178 432l10 -22l-2 -17l23 15zM213 1176l-20 -13l2 -18l12 20l18 -12l6 14l-16 -6zM119 569l6 -18l8 -6l14 16zM631 408h22l-10 28zM264 1212l-6 17 l-16 -15l2 -20l8 16zM152 690l-13 -2l21 -14l12 24zM612 524l9 13l-21 -11l12 -37v35zM651 713l17 -6l-15 16l-16 -2l-10 8l8 -16h16zM623 676l10 -23l18 15zM256 328l-4 10l-21 -16l-16 -7l6 -2zM641 791l-16 20l-17 -8zM217 764l4 -25l21 -8zM217 479h16l-26 13l-6 -19z M152 909v27l-17 -14zM172 1155l-18 -27l18 5v22zM195 1196l8 21l-21 -5zM158 1016l26 -6l-26 20v-14zM315 971l-20 2l20 -19v17zM575 227l15 19l-15 2v-21zM346 1423l-16 -10l4 -22l4 20zM190 1124l17 -6v17zM281 1393l-7 -15h19zM123 346l6 -10l6 26zM594 231l12 -18l-2 18 h-10zM670 672l10 -4l16 10zM219 1274l2 10l-14 2zM127 492h18l-18 8v-8zM639 307l27 19l-13 -4zM248 614l-15 23l-2 -4zM621 276l28 -2l-16 5zM399 1466l-12 -6v-6z" />
<glyph unicode="1" horiz-adv-x="563" d="M465 221l-4 -45l4 -51l-6 -21l4 -18v-49l-19 -35l-53 -8l-45 4l-43 -2l-57 2l-23 10l-12 21l-2 28l4 58l-4 20l6 21l-4 16v59l2 64l-2 72v53l2 49l-4 53l2 60v110l4 25l-4 131l4 18l-2 19v51l-2 47l8 21l-8 22v72l-18 16l-25 -8l-49 -21l-47 -24l-27 -4l-20 14l-7 53 l5 21l-5 22l-2 90l11 31l45 35l106 57l55 41l35 15l11 18l14 12l20 -4v13l33 -5l6 15h35l25 -17l14 11l16 2l19 -39v-56l2 -69l-6 -33l6 -78v-65l-4 -49l6 -19l-6 -14l6 -35l-4 -80l2 -67v-70l-10 -45l10 -10v-107l2 -55l-2 -64l-4 -59l2 -72l2 -61l4 -68zM338 905l-35 -8 l6 -20l10 12l31 -25l6 29zM358 1333l-16 2l12 -12l-16 6l12 -24l4 4l15 -6l16 20zM379 1257l-25 23l-6 -16l10 -21zM340 653l31 4l-15 19l-32 -19zM303 922l6 18l2 25l-26 -27zM297 983l-16 16l26 -32l12 10l3 10l-7 14zM328 424l16 12v13l-25 -35l-24 2l16 -27zM369 1225 l-9 -15h15l37 13zM319 1151v-27l-12 -12l19 4l20 -14l-18 22zM350 774l8 -16l-4 33l-26 2zM313 1040l-6 -12l29 -24zM354 1079l-10 -10l-18 6l36 -16zM381 1348l-12 22l-7 -18zM344 328l18 2l7 20zM365 422l4 12l-19 -6l23 -20zM309 543v-17l17 -10zM393 365l17 4l-9 14z M350 1167l-14 -14l22 4zM272 612l9 15l-7 20zM391 1047l-22 -15l14 -2zM356 520l27 12l12 23l-16 -20zM383 836l20 -5l-2 9zM371 442l16 21l-14 -8zM223 715l6 2l-6 4v-6zM348 1401l17 -25l4 -4zM422 819l-6 4v-4h6z" />
<glyph unicode="2" horiz-adv-x="817" d="M754 1180l4 -27l-2 -29l-15 -32l2 -37l-8 -49l-14 12l4 -29l-14 -41l-31 -78l-21 -32l-28 -52l-35 -61l-39 -61l-12 -27l-31 -55l-31 -58l-37 -53l-16 -41l-31 -57l-24 -47l-29 -70l23 -20l20 -7l35 9h25l47 -5l24 5l51 -5l27 3l55 2l60 -2l20 -19l4 -67v-70l2 -49 l-20 -29l-35 -6l-31 4l-35 -4l-34 2l-70 -2l-70 4l-34 -4l-70 2l-64 6l-14 19l-2 -23l-61 -2h-78l-15 8h-40l-9 27v28l11 19l-9 16l13 10l-17 5l8 36l11 66l14 55l23 60l24 49l12 37l23 41l27 53l18 20l6 27l31 49l35 49l14 31l29 51l28 47l29 56l16 16l33 47v21l10 12l5 20 l8 15l24 61l11 17l4 32l10 68l10 22l-12 15l6 16l-14 31l-41 33l-39 10h-33l-25 -10l-34 -29l-11 -25l-8 -51l2 -61l2 -54l-16 -32l-37 -6h-119l-49 4l-24 16v41l-5 74l2 67l5 43l8 15l4 26l29 62l16 22l39 43l22 19l58 26l22 19l47 16l25 2l-10 -12l34 18l25 -2l2 -22l8 26 l60 -6l47 -6l8 -14l16 8l45 -16l54 -33l55 -53l18 -33l33 -60l10 -39l-2 -18l9 -27zM418 1370l-2 14v15l-15 -21l11 21l-23 -6l-12 28l4 -43h-21l23 -14l12 10l8 -16zM557 922l12 12l-4 22l-14 2l-29 -10l19 -8l-15 -18h31zM285 78l24 6l2 16l17 15l-15 2l-12 33l-12 -15 l12 -16v-27h-22zM616 979l33 -2l-28 27h12l-6 18h-21l-6 -6l21 -23zM666 1280l-25 -2l-12 -23l-21 -12l8 -26l25 43zM344 1419l-14 -2l14 -12l-33 -6v-17l35 15l8 -15v27zM268 1380h8l21 -14l16 -2l-14 20l-25 21zM264 403l-20 -18l20 -8l-14 -21l14 13l15 -19l-5 33z M432 1378l27 -22l10 24l-18 -8l6 19zM176 63l31 3l-4 30zM145 254l-4 31l-20 -6l12 -15l-4 -16zM252 135l16 -16l2 18l-28 13l6 -33zM174 285l-2 -23l8 -18l23 8l-17 6zM182 1266l4 32l-26 -22zM561 999l14 11l-24 10l2 -29zM590 1370l-15 -16h15l14 32l-16 -8zM154 131 l28 -8l-6 22zM301 57l4 -30l6 24l15 21zM420 143l-19 -10h17l10 -10l21 8h-19zM317 1296l17 11l-37 14l12 -8zM504 1319l-2 43l-19 -19l17 -2zM475 1327v16l-29 7zM539 1358l-19 -8l31 -11zM367 551l-11 -23l17 -6zM477 1372l15 -8l4 27zM586 1075l-8 -12l26 -10zM522 860 l2 14l-24 -8zM231 274l31 5l-20 8zM246 78l22 -4l-12 16zM309 1446v-19l4 -4l9 13zM647 1022l15 12l-11 13zM195 115l6 -15l10 15l-10 4zM381 1438h-33l12 -8zM250 375h-17l-6 -17zM395 543l13 14l-15 4zM219 127l10 10l-26 -4zM324 160l-9 -21l15 8zM254 1341l-6 -10 l12 -10zM221 215l23 12l-17 -2zM459 1444l6 -17h8zM324 1341l2 13l-11 -2zM379 1315l-12 10l-19 8zM336 1386l2 -14h6zM285 1128l-6 5v-5h6zM289 115l-6 4v-4h6z" />
<glyph unicode="3" horiz-adv-x="796" d="M735 385v-27l-2 -26l-2 -64l-12 -59l-25 -68l-41 -53l-51 -47l-31 -18l-45 -21l-65 -20l-27 -2l-59 -5l-58 11l-57 8l-63 33l-41 30l-35 37l-31 49l-22 78l-11 49v140l11 41l26 8l33 2h121l35 -6l16 -25v-31l-2 -59l2 -43l18 -51l19 -21l24 -12l29 -6l27 4l24 10l31 35 l12 27l6 30l-2 52l2 53v90l-10 76l-28 55l-43 10h-21l-45 8l-31 -2l-18 19l-6 26l2 27v64l4 59l16 16l33 6l64 5l30 14l23 20l16 35l6 66l2 55v68l-2 57l-6 18l-16 47l4 19l-23 -12l-32 12l-39 -2l-31 -19l-21 -24l-10 -29l-6 -63v-68l-18 -27l-27 -4l-53 2l-66 -6l-37 2 l-26 13l-13 24l-2 41l2 74l7 51l12 55l10 23l37 67l31 35l51 41l65 31l43 8l50 4l20 -10l10 10l47 -12l9 4l-2 10l28 -6l25 -12l31 -6l57 -27l22 -22l17 -7l39 -51l-4 -12l22 -6l17 -33l6 -25l12 -61v-78l4 -49l-6 -22l4 -25v-111l-18 -77l-35 -56l-33 -24l-18 -35l41 -35 l14 -22l33 -46l14 -43l8 -51v-69zM420 1432l16 -7l8 37l23 -4l-25 25l-30 -4v-25l-19 -16l21 -25l6 -22l6 8zM643 969l2 22l-12 17l20 -7l-22 13l-39 2l-14 -25l45 15l-9 -31zM612 1208l2 -12l-18 -6l-14 4l6 -20l14 6l-24 -23l24 -12l8 16l6 33l17 6zM582 1100h-15l-16 -2 l-19 -17l27 -12l12 -31l7 25l-13 14l-12 -4l2 21h16zM524 819l19 2l-4 19l2 22l-19 -28l-14 8v-19h-14zM641 336l6 12l-10 12l-31 -10l10 -10zM641 440l39 11l-25 4l-12 18l-12 -24zM643 1247l-18 -24l26 -4zM436 1374l15 -14l4 26l12 -24l-10 31zM344 786l-2 -12l18 -10 l5 16zM592 514l14 -2l8 10l2 19l-12 -21l-8 12zM446 727l9 23l-27 8l-6 -17l29 9zM600 952l-12 17l-13 10l13 -18l-8 -21zM475 727l21 -10l-25 24l-12 -18zM608 1073l-24 10l6 -16zM348 1413l19 -8v14zM522 682l8 -4l-2 -8l13 -4l-19 28v-12zM522 719l17 8l-15 8zM639 584 l-23 10l25 -16l16 10zM403 1399l7 -19l8 11zM567 647l17 -2l-4 14zM551 842l-8 -21l12 2zM211 387l8 -14l6 14h-14zM559 899l-12 4l-8 -8zM369 1489l-11 10l17 -31zM545 1413l6 6l-33 -14zM102 1229h17l-21 6zM512 662l-6 8v-8h6zM545 639l6 -6v6h-6zM575 866l-6 4v-4h6z M115 1264l12 -25l8 -14z" />
<glyph unicode="4" horiz-adv-x="811" d="M788 467l7 -37l-4 -65l-19 -5l4 -26l-41 -12h-37l-22 -21v-35l2 -86l-6 -14l4 -23l-10 -6l12 -22l-4 -70l-8 -35l-31 -14l-31 2h-59l-56 -2l-49 12l-10 25v82l2 63l-2 51l6 11l-4 16l-2 49l-18 19h-64l-59 -2l-10 10l-48 -10l-53 2l-47 -2l-25 4l-32 -2l-33 4l-18 24 l2 49l6 17l-8 26l8 21l-8 45l12 35l26 61l23 51l20 54l27 53l12 37l31 67l23 56l18 45l23 28l2 21l14 31l22 61l27 61l33 76l16 31l21 53l22 55l27 60l18 22l31 13h158l35 -6l10 -33v-125l2 -57v-103l-4 -35l4 -24l-6 -21l8 -33l-4 -30l2 -90v-54l-4 -18l6 -53l-6 -35l4 -70 v-76l-4 -55l14 -22l76 -2l20 -13l9 -18zM408 539l20 24v74l4 18l-4 27l2 27l6 12l-8 29l4 71l-2 74l-8 27l-25 -27l-4 -29l-14 -24l-8 -29l-23 -53l-22 -51l-25 -62l-29 -67l-2 -35l39 -6h99zM698 430l11 -2l-9 16l13 21l-31 6l4 -18l-14 8l12 -29v-37l21 2zM545 268l33 -8 l-15 21l8 12l-18 24l-18 -6l-15 17l-4 -21l12 -10l19 10l8 -22zM631 383l-4 18l-15 15l-18 2l2 -47l16 10zM588 471l-13 14l-24 19l-31 -25h21zM266 461l23 18l-45 -2v-16l16 -4l-16 -8l14 -21zM573 539l11 6l18 -19l6 19l-4 8l-39 2zM428 406l-18 18l24 8l-28 8l-13 -18z M555 1208l-31 -34l33 14l2 -17l14 9l-22 12zM555 195l10 -5l23 17l-31 6zM498 1204l-9 -37l13 13l20 -6zM573 446l-10 -34l27 10zM553 532l10 -22l25 8zM612 496l11 -4l-11 24l-18 -8zM573 55l21 21h-29zM559 1094l-12 6l-6 -17l4 -16zM365 438l-17 19l23 6l-23 8l-4 -20z M489 1079l-20 8v-10l27 -14zM420 1155l29 6l-19 15zM428 1014l29 -4l-19 20zM526 1030l11 29l-33 -15h20zM571 668l9 -21l14 25zM502 516l-2 -31l16 15zM389 1169l19 -6l20 15zM457 1153l20 -12l-6 22zM623 178l-27 -8l16 -8zM190 645l-16 -12l21 -6zM385 1096h-20l4 -17z M537 373l-17 -8l19 -19l-7 16zM526 1288l-4 -14l27 16zM442 1270l-14 2l18 -15l3 29zM608 899l19 12l-19 4v-16zM373 905l14 -10l-2 18zM485 700l-4 15l-6 -21zM559 131l10 -4l6 12zM330 330l-2 10l-4 -6zM557 662l16 16l-32 -31z" />
<glyph unicode="5" horiz-adv-x="811" d="M750 465l-2 -43l4 -70l-7 -14l3 -16l-7 -43l-10 -74l-12 -35l-33 -57l-14 -7l-13 -30l-20 -23l-49 -37l-27 -10l-55 -16l-66 -10l-43 -3l-63 7l-64 12l-55 20l-49 33l-35 41l-35 43l-6 25l-12 24l-6 25l-13 59l2 27l9 20l-9 54l11 32l-13 4l5 31l28 17l21 4l63 -2h78 l33 -7l12 -18v-25l-2 -61l10 -57l17 -41l24 -21l29 -12l29 -2l28 8l27 19l18 30l6 37l9 16l-4 19l2 45v90l-2 57l8 25l-8 35l8 55l-6 17l4 24l-2 25l16 2l-10 14l-15 6l-6 25l-12 20l-23 15l-26 8l-49 -8l-39 -27l-25 -49l-18 -17l-43 -2l-35 4h-61l-48 11l-18 18l-4 31 l4 33l-2 28l4 31l2 57v60l2 28l6 54l-4 41l6 71l4 82v117l7 33v49l20 35l70 4l75 2h187l51 -4l39 4l65 -2l35 4l45 -8l21 -11v-53l-19 2l-14 -8l-6 -25l12 -4l8 15l17 -8l-6 -33l-13 -62l-10 -28l-22 -15l-29 -4l-27 2h-57l-55 -2h-47l-23 4l-8 15l6 -17l-37 2l-12 21l2 -17 l-37 -10l-18 -20l4 -56l-4 -53v-49l-7 -76l17 -22l37 18l69 23l2 -15l6 13l35 8l35 -6l27 2l47 -11l33 -14l45 -39l37 -41l28 -73l15 -72v-45l6 -33l-6 -20l2 -29v-170zM193 1274h-25l-14 12v-26l16 -19l4 25l19 -25v33zM553 1417l14 -10l8 -31l13 2l2 -30l4 28l-8 23 l-15 12zM145 1475l11 -15l6 -16l22 24zM174 940l19 21l-41 -27l2 -25zM410 1319l-17 -37l19 -8zM145 1149l19 -29l8 27zM242 821l28 8l-26 15zM520 1415l-8 25l-12 -37zM254 1339l-25 -2l35 -10l-8 31zM297 129l25 -4l-27 20zM555 924l-23 -23l25 8zM180 1161l17 -8l12 -8 l-8 18zM88 256l2 23l-16 -9zM293 1251l-25 2v-12zM215 1231l-12 -6l20 4l15 22zM174 1305l2 -15l17 23zM692 1300l-16 -6l12 -10zM162 885l6 14l-25 -20zM240 1210l18 -10l-12 17l-23 -17zM219 817l4 10l-14 9zM227 1309v8l-18 8zM178 1380l-18 2l20 -10zM225 1292h-6 l-16 -18zM274 1196l7 4h-7v-4z" />
<glyph unicode="6" horiz-adv-x="827" d="M768 508l2 -43l-6 -27l4 -47l-2 -41l-4 -49l-4 -53l-8 -19l-5 -34l-24 -56l-33 -49l-41 -45l-24 -18l-23 -11l-57 -24l-68 -17h-76l-59 5l-59 10l-54 24l-41 25l-51 51l-29 49l-18 56l-22 69l2 31l-5 57l5 27l-2 35v133l-3 63v105l5 24l-5 27l3 61l-5 68l5 33l-3 37l9 51 l-9 14v60l3 63l2 47l8 55l18 62l12 16l44 70l40 39l62 37l37 10l61 12l70 4l72 -6l16 -6l61 -16l29 -15l51 -43l17 -33l18 -6l21 -26l24 -60l14 -63l5 -80l-3 -64l-10 -34l-24 -11h-111l-61 2l-25 19l-4 33l2 34l-6 76l-12 27l-21 22l-27 15l-49 4l-28 -10l-23 -19l-24 -51 l-3 -23l-4 -55l4 -92l-10 -66l8 -10l2 -24l5 -62l26 6l25 21l33 12l55 14l24 -2l19 5l26 -3l50 -6l61 -24l62 -49l12 -21l26 -43l15 -51l10 -53v-64l-4 -22l6 -27l-6 -20zM516 414l-4 39l2 59l-2 61l-2 60l-10 29l-19 18l-22 14l-27 6h-29l-28 -8l-31 -28l-20 -31l-7 -68 l2 -35l-4 -73l4 -54v-61l7 -70l16 -39l31 -20l49 -8l53 20l19 19l12 24l6 29v53zM201 997l-31 -14l20 -18l29 -4l-14 16l16 10zM166 637l10 10v17l-8 -17l-10 53l-11 -28zM127 1040l-18 -20l22 2l14 -29v25zM172 1020l-22 4l6 -20l26 2zM182 598l15 -29l-2 25l-17 20 l-16 -12zM86 961l16 -23l15 -4l-23 35zM186 137l27 21l-12 14zM106 637l17 -2l16 2l-30 16zM311 745l27 3l-27 20v-23zM170 342l-29 2l25 -18zM164 901v-29l12 15v8zM123 442l16 -2l13 -6l-5 17zM225 256l21 10l-21 4l-2 27zM143 379l-8 -10l23 -11zM221 1071l-2 -16l23 -4 l-11 6zM125 770l20 -12l-4 16zM193 752l-25 8l18 -19zM236 1192l-17 -8l21 -4zM129 489l-8 -18h12zM213 229l6 11h-20zM217 211l2 8h-10zM90 739l-4 6v-6h4z" />
<glyph unicode="7" horiz-adv-x="716" d="M696 1405v-29l-2 -59l-8 -31l-16 -51l-13 -53l-12 -21l-12 -47l-25 -78v-12l-10 -8l-8 -39l-19 -68l-16 -65l-10 -49l-21 -70l-16 -70l-16 -67l-13 -60l-12 -57l-10 -59l-11 -58l-10 -67l-12 -62l-8 -53v-27l-15 -82l-14 -30l2 -19l-37 -18l-76 -4l-28 4l-27 -2l-59 2 l-23 12l-6 43l2 29l8 24l4 48l15 88l10 34l8 60l17 69l12 60l10 51l14 47l11 49l14 54l21 75l12 54l16 59l21 57l14 60l18 63l21 66l22 63l17 53l-2 23l-25 6h-174l-51 2l-55 -2l-58 4l-28 13l-7 63l5 43l-7 59l5 31l14 21l82 6l28 -4l21 4l25 -2l40 4l21 -4l27 2h49l51 -2 h237l58 -2l18 -19l4 -28zM483 1010l4 14l-10 14h-28l-13 13l-6 -21l16 -18l25 -13zM492 928l-3 14l-20 4l-12 19l-2 12l-19 -10l23 -17l14 -24zM389 559l8 23l-32 16v-16zM412 1352l10 12l-23 6l-12 -29zM502 1090l-2 20l8 6l12 -2l2 16l-24 -14l-17 8zM86 1374l31 6l-6 15 l-19 -2zM543 1249l30 21l-30 2v-23zM350 1356l19 -19l14 19h-33zM459 1085l30 -2l-18 21zM524 1303l-22 -3l-8 -26zM436 682l8 12l-18 15zM520 1374l-18 -18l22 -15l-12 15zM162 1337l8 17l-27 -15zM428 1391l-4 -23l16 14zM362 639l13 -16l6 18zM377 1298l31 27l-13 -6z M362 662l11 -9l6 9h-17zM287 451l-2 -5l12 -12z" />
<glyph unicode="8" horiz-adv-x="792" d="M741 383l4 -31v-33l-8 -67l-16 -70l-12 -28l-37 -58l-41 -43l-47 -35l-76 -32l-51 -9l-45 -2h-54l-88 17l-51 18l-31 25l-16 6l-39 39l-37 45l-12 25l-21 53l-14 51v27l-4 55v70l2 65l-4 59l8 64l12 55l15 25l31 47l20 18l18 29l-16 31l-41 53l-12 31l-21 67v37l-2 55 v107l4 35l7 57l12 37l8 45l12 16l23 45l31 35l32 23l47 31l27 10l51 16l56 8h53l59 -8l31 -8l70 -29l47 -30l39 -43l32 -52l29 -80l4 -30l4 -66l4 -69l-4 -25l4 -25l-2 -22l-4 -59l-10 -60l-12 -27l-23 -45l-37 -45l-4 -24l19 -23l34 -35l25 -57l20 -63l2 -29l-4 -23l4 -47 l-4 -18l4 -57zM489 395l5 27l-2 27l6 57l-2 31l-15 65l-20 29l-31 20l-37 11l-33 -7l-26 -16l-21 -25l-14 -30l2 -29l-6 -35l4 -31l-2 -65v-64l4 -65l8 -31l15 -28l18 -17l66 -14l32 12l23 14l20 33l6 31l5 72zM297 1188l8 -6l-2 -31v-61l2 -52l-6 -20l4 -53l16 -58l17 -18 l24 -15l25 -6l33 4l24 9l27 20l14 35l4 35l-2 63l-2 68l4 31l-4 63l-10 29l-18 24l-25 17l-33 8l-35 -2l-26 -21l-17 -24l-8 -25zM481 788l6 15l-34 10l-21 -6l-16 -27l-27 11l-4 -15l16 -6l7 -14l57 20v27zM424 1370h-8l10 -14l6 -23l17 13l-15 20l19 12zM528 645l17 23 l-27 8l-6 -23zM539 700l-9 -16l31 2l-8 21zM500 799l-13 4l19 -21l20 6l-12 13zM608 541l19 14l22 16l-31 -8l-12 -14zM397 735l27 4l-41 19zM561 1217v-35l12 12l2 14zM557 557l-6 -18l29 -11zM205 903l14 27l-20 2zM158 913l28 7l-10 16zM197 1196v-25l-19 -2l31 -8z M328 713l6 16l-10 10l-7 -14zM563 578l25 14l-23 4zM479 1382l-12 -16l29 4zM334 784l31 2l-7 13zM356 758l2 20l-20 -18zM508 1346l-21 4l-10 -15zM213 1106l2 16l-18 11zM250 1190l-23 8l15 -10l-9 -25zM557 911l-10 4l8 -14l18 4zM637 903l2 15l-16 6zM451 723l2 12 l-19 4zM606 502l8 16l-16 -4zM250 1034l-21 10v-10h21zM375 750l4 12l-12 12zM268 735l37 -14l-12 10zM545 1276l-8 -27l14 27h-6zM236 643l-3 4l-16 4zM199 436l-9 13l-12 14zM516 721l21 8z" />
<glyph unicode="9" horiz-adv-x="808" d="M754 829l6 -32l2 -33l-2 -70l-2 -76v-65l2 -59l-8 -68l6 -14l2 -52l-2 -53l-8 -53l-11 -59l-12 -27l-20 -25l4 -8l-19 -31l-45 -51l-33 -10l-8 -18l-24 -17l-58 -20l-59 -8l-59 -5l-48 2l-61 7l-68 28l-61 43l-25 27l-34 51l-25 51l-12 58v73l-4 70l6 23l18 18l29 4 l61 -2l58 4l18 -8l21 2l16 -12l10 -47l-4 -27l8 -59l19 -41l16 -21l23 -12l30 -2l33 4l31 14l28 33l7 29l14 18l-8 14v50l2 51v55l-2 57l4 35l-21 41l-36 -16l-15 -15l-31 -10l-53 -10h-55l-55 10l-56 17l-49 36l-39 46l-30 65l-11 59l-4 62v65l8 31l-10 21v30l4 58l-2 49 l2 47l10 82l25 78l12 35l17 24l41 47l45 39l26 14l68 25l61 6l56 2h49l53 -8l49 -20l25 -7l51 -32l31 -29l30 -43l13 -25l26 -75l13 -58l6 -78v-59l-2 -72l-2 -65l4 -39l-6 -33v-31zM504 963l-2 38v101l2 39l-6 55l4 27l-17 6l-26 31l-25 12l-63 8l-6 -14l-39 -25l-15 -35 l-8 -35l4 -30l-2 -43l2 -62v-59l2 -68l-2 -67l15 -31l20 -27l23 -12l32 -8l68 22l33 54l6 57v66zM129 1010l-16 -6l10 -43l10 -15l17 -2l-17 19l10 14l25 16l-18 27v-21l-21 -10v21zM225 999l21 -8l-4 17l-21 -4v16l-18 -2v-19l10 -18l-6 12zM123 887l14 10l-4 18l-27 -18 l7 -20zM158 1090l6 -9l12 -8l19 2l-23 23zM629 676l16 2l-18 12l4 15l-19 -35zM170 1038l-6 -8l10 -29l2 31l17 -2zM637 631l27 -21l-7 25zM199 932l-19 18l-2 8v-30zM197 764l-7 -19l23 -8zM682 1188l-20 4l6 -18l24 18zM682 741l-20 7l-5 -19zM299 895l-16 -6l10 -21z M160 713l28 -13l-12 19zM164 1155l-2 -20l-12 -9l24 9zM215 305l-16 -16l18 -2zM246 766l-2 20l-15 -16zM248 1036l-12 -6h-11l8 -14zM571 752l17 -4l12 14zM231 102l11 17l-9 14zM586 1083l4 17l-19 -10zM182 272l-2 19l-10 -29zM225 1239l-18 25v-11zM240 1120l2 10l-17 5 zM557 434l14 -12l-8 18zM133 1122l-10 -12l10 -2v14zM674 932l12 12l-18 -16l-4 -10zM545 1010l-2 -4h4z" />
<glyph unicode=":" horiz-adv-x="385" d="M70 739l2 27v108l18 21l31 4h65l74 2l31 -8l18 -16l4 -27l-2 -29l2 -65l2 -62l-8 -55l-16 -16l-31 -5l-31 3h-59l-66 4l-30 10v35zM317 92v-39l-10 -39l-37 -18h-34l-43 8l-31 -6h-68l-16 16l-6 25v63l-2 62l6 37l-6 32l14 37l45 6h61l68 3l31 -9l20 -22l-4 -31l8 -65 l-2 -43zM233 211h-24l16 -10l-4 -31l17 20zM219 797l-8 -11l14 -24l-8 -12l16 18zM182 117l23 -2l-25 22zM180 780l-22 -6l37 -6zM141 809l-6 -18l10 -17z" />
<glyph unicode=";" horiz-adv-x="385" d="M311 176v-76l-4 -63l-14 -76l-12 -45l-15 -14l-2 -29l-16 -29l-37 -51l-25 -14l-61 -6l-21 10h-20l-14 12l12 33l14 18l25 48l26 63l5 25l-23 14l-33 2l-20 22l-4 31l-2 66l2 63l2 62l14 24l33 8h123l59 -6l12 -65zM145 623l-26 -7l-31 5l-25 12v57l-2 58v63l5 66l20 18 l29 4h61l57 -2l52 -6l10 -25l6 -37l-12 -28l12 -23l4 -67l-4 -60l-12 -24l-29 -9h-55zM182 78l25 -4l8 4l-18 6l-56 14l19 -16zM195 178l-29 -2l16 -29v17zM219 129l-16 -10l30 6l5 16zM211 12l12 13l-18 16zM231 154l-22 6l22 -17v11zM217 811l-8 -2l18 -16zM119 813l4 -2 l16 4z" />
<glyph unicode="&#x3c;" horiz-adv-x="1142" d="M1044 371l5 -19l-7 -37l7 -28l-13 -37l-28 -4l-64 26l-53 25l-55 22l-52 27l-16 -2l-6 16l-35 9l-45 18l-57 25l-54 24l-43 17l-57 28l-51 21l-51 22l-54 25l-63 26l-47 25l-29 8l-63 33l-19 27l-2 55l2 57l4 43l17 17l22 12l53 22l52 27l30 8l60 29l102 45l41 16l53 29 l19 4l37 19l65 24l60 29l51 20l65 33l54 21l59 28l70 29l36 -8l3 -68l2 -65l-7 -62l-43 -41l-49 -18l-55 -25l-68 -16l-10 -17l-37 -16l-59 -25l-53 -26l-27 -8l-37 -15l-51 -22l-47 -23l-55 -22l-9 -33l43 -18l52 -25l53 -20l55 -25l29 -6l61 -31l43 -20l58 -27l75 -31 l64 -26l55 -29l17 -21l-3 -28l5 -29zM752 1001l-21 11l14 -11l-16 -10l16 -8l23 2l16 16h-32zM811 451l-10 24l-8 -8l-17 -25l17 11zM924 391l16 4l-4 13l-21 4zM512 881l-8 2l-17 -15l15 -10zM393 629l6 18l-4 17l-10 -25zM209 784l24 -4l9 -18l-9 31zM645 985l-24 8 l10 -10v-16zM489 897l-24 -18l18 6h17zM268 807l-16 -4l12 -12zM420 633l16 -12v14zM844 453l-8 8l2 -27zM270 795l-4 -4l17 2zM621 492l-7 6v-6h7zM385 543l-4 6v-6h4zM879 410l6 4h-6v-4zM193 686l4 4h-4v-4z" />
<glyph unicode="=" horiz-adv-x="1142" d="M1047 578v-123l-21 -27l-29 -4l-30 2h-211l-17 -4l-22 4h-64l-67 -2l-68 2h-55l-57 -2l-56 4l-24 -4l-23 6l-31 -6l-67 4l-68 -4l-31 10l-14 37l4 18l-4 25l4 49l-2 58l19 24h118l25 4l25 -2l49 -2l55 2l41 -2h51l47 2l13 -4l34 4l52 -2l59 -6l43 8l41 -2l47 -4l41 6 l29 -2l55 2l23 -6l34 4l27 -4l20 -14l7 -23zM92 920l2 24v55l4 27l17 16l26 9h33l66 -7h59l51 3l47 -5l56 5h55l53 2l68 -5l67 3l35 -5l66 2l71 3l72 -5l27 5l71 -9l9 -22l-3 -25l5 -84l-5 -26l3 -25l-13 -22l-24 -9l-64 -2l-24 4h-54l-55 2l-57 -6l-29 2h-53l-25 4l-53 -2 h-37l-57 -4l-53 4l-58 -2l-49 2l-55 -2h-47l-41 6l-23 -6l-67 9l-13 28zM506 969h-12l6 -19l-19 -4l-24 8l16 -18l27 -4l26 20l23 -4l-12 -26l-11 22l-8 -41l23 -14l24 -2l-4 22l10 11l-10 38l12 27l-49 -16l-18 -15v15zM840 977l-25 -8l23 -19l-2 -35l24 -2l-6 21l25 -16 l8 20l-4 29l-25 -9zM420 942l-14 -20l-13 -11l4 23l-14 -19l10 -26l43 49zM569 537l19 -15l22 4l-22 21l-19 6v-16zM870 526l-8 31l-14 -35zM690 969v-8l17 -9l14 13zM598 965l-10 -31l22 -6l-12 18v19zM772 481l14 25l-26 -12zM795 956l-25 2l4 -18zM319 936l-16 8l8 -29z M590 907l20 2l-18 17zM332 965l10 -15l12 17zM694 944l17 -20l14 -23l-10 27zM819 920v16l-16 -4zM385 956l-14 -6l30 -4zM270 973l-2 -12l17 -7zM653 946l-18 -22l24 22h-6zM268 463l-6 6v-6h6zM813 905l-4 6v-6h4z" />
<glyph unicode="&#x3e;" horiz-adv-x="1142" d="M109 446l30 37l54 21l59 24l29 17l32 10l64 29l49 22l53 23l56 26l55 21l47 22l47 21l31 24l-33 21l-57 20l-66 33l-49 21l-66 26l-51 27l-57 20l-19 13l-22 6l-49 20l-66 29l-65 33l-17 24l-2 60v106l8 27l39 2l54 -23l51 -22l63 -33l66 -25l47 -20l45 -21l59 -22 l60 -31l24 -6l64 -33l45 -18l45 -16l18 -15l45 -18l52 -25l51 -18l61 -29l43 -25l15 -28l-2 -35l-2 -33l-3 -67l-18 -29l-25 -12l-51 -23l-51 -26l-51 -19l-51 -22l-56 -27l-57 -23l-55 -24l-45 -21l-54 -26l-53 -21l-59 -24l-51 -29l-60 -23l-16 3l-51 -31l-58 -27l-51 -18 l-22 2l-13 37v32l-2 64l6 27l-4 24zM809 797l20 4l29 -17l12 13l-14 14l-25 6l-18 -2zM424 967h18l-8 20l-22 4zM842 737l20 21h10l-12 24zM950 748h23l-37 4l4 -23l14 -4zM446 995l5 -24l14 18l-4 12zM678 893l-23 6l-6 -18l6 -15l4 21zM260 412l14 26l-26 -10zM893 725 l-27 16l8 -16l-12 -10zM737 666l4 -15l-12 -20l27 35h-19zM768 836l-16 -13l24 4zM705 600l14 -2l-8 16zM168 1098l31 -4l-11 8zM846 666l-10 4l-17 -11zM582 563l12 19l-23 -25zM209 1049l-2 24l-4 -6zM864 637l-6 6v-6h6z" />
<glyph unicode="?" horiz-adv-x="700" d="M657 1284l9 -31l4 -63l-4 -66l-13 -69l-28 -78l-23 -16l19 8l-25 -45l-37 -72l-31 -47l-39 -57l-28 -50l-23 -55l-14 -47l-8 -49l-8 -27l-2 -74l-15 -30l-24 -6h-93l-45 2l-22 24l-2 37l2 62l6 16l-2 24l4 23l8 57l15 56l16 53l20 49l21 45l33 60l32 61l25 53l8 31l15 51 l12 51l-10 62l-21 33l-24 14h-31l-27 -8l-20 -17l-15 -22l-8 -25l-16 -20l8 -25v-29l-2 -67l-12 -27l-31 -10h-141l-29 10l-10 27v115l10 20l-8 18l8 41l22 74l17 25l10 26l49 50l51 36l54 23l69 14h66l67 -8l58 -22l59 -39l41 -45l33 -50zM422 109l2 -31l-4 -60l-17 -16 l-22 -6h-78l-16 14l-8 -12l-37 -4l-37 2l-19 22l-4 31l6 27l-6 61l4 64l-2 30l9 23l30 8l29 2l57 -2l64 4l41 -10l8 -27l-4 -41l4 -30v-49zM369 680l-13 4l-22 12l10 -34l-33 -9l21 -4l26 6zM299 473l16 19l-18 24l-16 2v-26l16 6zM408 1376l14 -6l4 31l-16 -2zM362 1370 l15 21l4 22l-14 -24l-23 -9zM307 143l12 -6l19 21l6 16zM340 123l-4 4l-17 -18l9 -25zM586 1210l4 -45h10l-4 25zM498 1094l24 4l-30 18zM270 604l19 -24l16 -5l-14 19zM518 936l2 25l-20 -7zM473 965l6 26l-16 -6zM293 90v10l-37 -12zM510 1053l-4 -23l16 2zM334 569l8 -8 l10 29zM293 602l26 16l-26 -6v-10zM324 1407l20 -25l-12 25h-8zM494 1341l10 -10l22 -4zM557 1073l-2 19l-8 -7zM252 137v-12h12zM489 872l-6 7v-7h6zM260 1280l-6 4l-2 -4h8z" />
<glyph unicode="@" horiz-adv-x="1306" d="M1251 752l-2 -27v-29l-4 -55l-16 -68l-2 -22l-10 -23l-31 -69l-21 -41l-20 -21l-35 -41l-45 -37l-23 -10l-63 -28l-27 -5l-65 -6l-21 6h-24l-41 15l-29 22l-24 27l-17 33l-31 4l-32 -19l-6 -14l-21 -16l-49 -17l-64 -8l-30 2l-31 10l-31 17l-20 20l-39 45l-21 68l-6 63 l8 58l15 65l26 66l17 20l16 41l29 19v18l14 21l47 43l21 14l55 29l55 10l60 -6l47 -15l16 -18l23 -8l28 30h41l23 7l59 -4l27 -7l12 -24l-14 -37l-14 -55l-27 -60v-30l-10 -29l-21 -72l-18 -61l-21 -58l10 -51l23 -18l61 -4l25 16l45 25l8 26l33 45l8 29l13 59l12 84l-6 27 l2 27l8 24l-8 14l-29 84l-25 54l-40 59l-31 27l-39 35l-62 36l-61 27l-39 10l-29 2l-55 2h-47l-27 -6l-67 -18l-47 -21l-58 -32l-67 -50l-10 -16l-43 -53l-39 -64l-23 -45l-4 -26l-12 -25l-13 -47l-8 -51l-2 -60l2 -61l8 -62l21 -59l24 -59l35 -56l33 -47l39 -39l47 -39 l25 -28l30 -13l19 3l37 -13l69 -16l62 -6l65 4l31 -2l18 8l50 14l59 23l53 33l27 22l24 -2l17 -16l51 -62l-6 -35l-60 -45l-55 -32l-41 -15l-78 -26l-34 -4l-70 -11h-59l-56 4l-51 7l-49 14l-25 2l-41 18l-22 4l-55 33l-64 41l-51 43l-19 25l-4 28l-10 -16l-22 18l-13 21 l-28 43l-25 49l-18 27l-19 47l-10 49l-10 20l-2 25l-11 51l2 29l-6 20l2 27l-2 55l6 60l9 55l18 47l2 21l21 53l20 45l41 70l45 55l35 43l37 24l8 13l57 41l39 24l25 6l35 21l41 14l43 12l69 15l19 -2l26 4h56l63 -6l47 -8l74 -19l24 -12l52 -25l45 -26l43 -31l12 -17 l41 -36l35 -43l28 -47l23 -46l27 -49l2 -24l18 -78zM754 735l-4 31l-15 29l-30 10l-29 -6l-29 -13l-45 -43l-29 -51l-24 -53l-8 -53l-17 -27l13 -74l14 -26l20 -19l60 4l14 15l14 -2l23 53l20 49l21 74l14 35zM410 555l4 -43l10 8l-8 31l22 -16l4 20h-32zM440 369l15 2l-6 6 v18l-21 -20zM180 379v18l-14 -22l-8 2l12 -12zM328 244l-27 8l6 -19zM836 375l16 -21l-2 29zM469 356l-14 15l-9 -21zM158 547l-23 -4l23 -13v17zM479 446l-12 9l-16 -15zM467 426l-18 -2l26 -2l2 12zM332 156l-15 14l-6 -4zM1004 403v11l-13 2zM983 334l18 2l-18 4v-6z M1051 991l-2 6l-5 -6h7z" />
<glyph unicode="A" d="M838 57l2 -24v-23l-15 -10l-37 -4l-57 2l-29 16l-14 -16h-86l-22 14l-11 25l-6 47l-2 45l-8 21l-4 38l2 19l-4 14l-8 47l-17 33l-39 -4l-75 4l-62 -4l-24 -12l-9 -56l-10 -49l-8 -55l-4 -49l-12 -51l-13 -19l-28 -8h-129l-54 -2l-22 12l-8 43l8 21l2 32l12 62l12 67l9 54 l12 57l2 33l10 53l12 47l9 74l8 35l8 57l8 21v18l6 47l23 21l-19 2l9 39l12 38l-2 27l6 27l10 59l11 62l10 51l4 22l8 37l2 25l14 67l9 56l10 69l10 58l10 28l-4 13l6 20l21 14l8 17l37 -2l59 2l52 -8l12 14l39 -6l35 2l34 -4l21 -23l14 -63l8 -60l11 -63l10 -51l8 -66 l16 -47l5 -49l8 -47l-11 -21l13 -16l-2 -12l12 -15l4 -33l-8 -8l14 -14l2 -33l11 -31l6 -43l-21 -14l27 -10l4 -41l14 -70l8 -55l11 -74l12 -47v-24l14 -48l6 -53l13 -78l14 -75l8 -58l10 -61zM436 535h31l27 14l2 26l-7 56l-12 53l-8 57l-10 50l-8 63v33l-11 39l-14 35 l-25 -89l5 -20l-5 -27l-8 -65l-10 -55l-10 -64l-6 -61l6 -41l30 -7zM522 961l17 4l14 -15l8 15l-14 14l-27 6l17 16l16 -12l18 6l17 15l-33 14l-20 -8l-19 28l14 -28l-24 -2l12 -10l-2 -25zM600 555l25 2l16 -16l-6 20h-23l13 12l-4 37h-39l12 -4l6 -26v-25zM530 1122l-12 6 l4 -28l15 4l14 -4l-2 22h-19zM291 928l16 -4l8 30l-36 -16zM586 995l-15 -2l9 -24l22 -2zM276 627l27 16l-20 8l-17 -24l21 -13zM141 473l2 6l-2 21l-12 -64l-20 4l12 -16l16 20zM504 406l-6 14l-25 4l21 -27zM561 795l33 10l-19 16zM623 311l12 -2l4 25l-29 -15zM319 997 l-18 -24h27zM582 848l16 -14h6l-4 22zM352 1272l-16 10l-12 -22zM276 741l29 9l4 12l-4 6l-10 -14zM608 692v-20l13 14l-21 29zM612 891l-20 -8l14 -17zM549 930l4 -12l16 2l-2 12zM309 733l17 10l-15 17zM645 625l-24 -13l18 -8zM162 403l18 5l-10 20zM604 913l-8 15l8 18 l-20 -26zM299 1124l4 21l-20 -8zM553 1243v21l-18 -19zM352 1325l-10 -10l25 -12zM637 520l20 -14v18zM397 1210l-4 -14l31 16zM567 1090l-14 -19l10 -12zM248 629l4 14l29 21l-27 -9zM668 219l-4 25l-15 6zM301 588v14l-20 -12zM334 1028l22 -6l-20 18zM604 813l-4 -18 l16 8zM276 698l17 -12l2 14zM244 588l30 -4l-30 12v-8zM545 838l4 20l-14 -27zM602 477l10 -14l6 8zM279 815l6 -8l12 8h-18zM623 459l12 -2v12zM557 854l8 14l6 29zM670 293l-6 8v-8h6zM227 690l-6 4v-4h6zM324 1102l-7 4v-4h7zM342 889l-6 4v-4h6zM244 391l-4 4v-4h4z M604 436l4 4h-4v-4z" />
<glyph unicode="B" horiz-adv-x="876" d="M842 469v-27l2 -28v-72l-4 -51l-15 -74l-20 -55l-14 -23l-39 -49l-45 -39l-52 -26l-43 -15l-49 -8l-53 -2l-76 -2h-72l-63 -2l-47 4l-57 -2h-74l-27 29l-4 59v51l2 70v63l12 4l5 19h-17l-6 20l8 15l-4 55v55l4 41l-4 29v106l-2 58l6 78l-6 61l4 29v63l-2 62l2 61l14 -4 l-12 8l-4 23l4 63l-4 29v69l2 60v59l-2 58l8 75l31 15l29 2l45 -4l76 4l40 -6l23 4h47l60 4l57 -4l59 -4l51 -13l54 -24l18 -17l19 -8l30 -22l49 -68l29 -76l-4 -20l6 -15l8 -73l2 -78l-2 -76l-10 -69l-31 -66l-36 -49l-23 -21l-2 -32l33 -27l28 -33l33 -59l8 -37l6 -8v-23 l9 -22l6 -49zM580 430l16 12l-21 -8v31l-2 51l-10 27l-6 51l-55 43l-29 8l-65 4l-33 -10l-13 -33v-31l3 -59l-3 -59v-60l3 -57l-3 -59l5 -33l20 -19l64 2l30 -8l19 15l24 6l25 22l12 31l14 70l-2 16l13 6zM350 928l15 4l-3 -27l9 -35l71 -2l50 9l34 24l25 45l6 23v26l4 62 l-6 63l-14 62l-35 53l-51 8l-31 12l-16 -8l-29 2l-17 -6l-4 -20l7 -29l-7 -66l4 -24l5 -68l-5 -73l-16 -7zM248 1350l-23 -7l37 -10l17 13l4 14l-4 20v-20l-25 -10h-6zM145 496l5 -19h24l19 8zM557 729l-8 -31l16 11l10 22zM223 444l31 11l6 6l-41 -10l-14 -23l14 4z M272 1305l7 20h-19l-10 -12zM721 795l-4 26l-19 6v-14l17 6l-13 -10zM307 1264l-26 -2l22 -25zM178 410l19 -9l16 23l-18 -18l-9 32zM246 1137l-15 26l-14 -20zM274 881l-22 -27l18 -8zM344 1382h-14l4 -20l18 4zM741 1006l11 4l-33 14l14 -27zM625 899l4 -20l26 10z M281 805l16 18l-25 -6l-10 -12h19zM211 709l12 8l-4 12l-26 -18zM532 727l-24 4l-2 -22zM670 844l10 -10l20 16l-16 2zM692 922l-35 12l15 -21zM662 307l20 2l-12 13l-15 6zM643 1122l-6 -16h29zM389 1307l-24 -13l24 -6v19zM444 805l-6 -23l21 13zM600 840l10 26l-18 -12z M238 881l-21 4l25 -23zM651 958l21 11l-19 8zM246 1446l-2 -19l18 19h-16zM240 506l-15 -10l17 -9zM721 915l-10 17l2 -31zM705 395l6 25l-15 -14zM311 1395l-14 2l22 -21zM686 1073l2 -18h12zM203 803l-23 -8l6 -9zM186 231l13 2l-17 15zM172 1147l-4 6l2 -16l16 6z M158 530h-11l17 -18zM229 1309l-6 -13l25 31zM242 602l12 6l-14 -4zM389 772l-4 4v-4h4z" />
<glyph unicode="C" horiz-adv-x="851" d="M537 965l2 16l-4 53v66l-3 63l-24 58l-23 30l-39 9h-28l2 22l-4 21l-17 2l11 -45l-48 -25l-26 -35l-10 -33l2 -26l-4 -23l2 -45v-51l4 -43l-4 -16l2 -35l-2 -62l2 -59v-47l-2 -55v-246l-4 -51l4 -29l4 -55l8 -52l16 -20l21 -16l22 -11l62 -8l49 29l14 30l13 48l-3 43 l5 45l-5 49l5 18l-2 21v47l16 37l27 6h84l59 2l24 -6l19 2l27 -13l4 -12l4 -76l2 -57v-121l-4 -28l-11 -52l-16 -51l-18 -47l-37 -41l-41 -41l-51 -35l-64 -26l-72 -8l-45 -5h-51l-55 11l-60 12l-30 12l-23 19l-22 10l-41 35l-31 32l-10 41l-10 5l-23 24l-2 37l-27 43l-2 51 l2 55l-6 25l-2 66l4 30l-4 35l4 35l-2 27v204l8 23l-10 24l12 29h-6l-4 39v164l2 55l-4 21l12 39l-4 28l25 86l33 64l28 33l50 45l18 8l29 22l53 19l55 14l43 2l23 6l53 -2l53 -4l51 -12l56 -27l53 -39l51 -51l23 -31l6 -28l12 -27l21 -61l6 -66v-67l6 -41l-6 -60l4 -43 l-21 -37h-30l-60 -2l-61 -2l-60 2l-30 21zM131 991l-10 -18l2 -15l10 13l19 -15l-7 21l19 8l8 21l-29 30l21 15l-19 28l7 -16l-17 -14l2 -48l8 21l23 -21l-14 -8zM225 907l-18 4l14 -8l6 -12l-12 -14l21 -31l14 10l20 6l-30 23l10 26zM158 774l14 -4l-4 21l14 2l-18 28 l18 27l-30 -19l10 -14l-17 -27l23 3zM223 598h21l-13 14l-24 15l-19 -2l11 -11l6 -22zM150 459l14 -21l18 17l-12 26l-23 -16l-20 6zM184 1065l-12 -29l21 -22l6 47zM256 209l14 6l4 -6l13 35l-17 -17l-26 21zM211 211l14 6l-8 -27l29 5l-25 43zM119 844l-19 14l-12 -22 l6 -23zM96 326l10 -9l11 -26l10 10l-21 39l-26 -12zM266 1235l4 20l-22 13l-6 -27zM135 256l45 10l-2 15l-16 2zM199 162h8l-10 10l10 14l-35 -10l18 -4l-10 -18zM336 156l2 -17l29 -22l-11 24zM150 940l-39 -14l47 8l20 -6l-10 14zM215 1260l16 6l-8 12l-22 -16l2 -13z M385 102l2 -8l23 -2l4 17zM150 631l26 16l-12 4l-21 -12zM221 279l15 22h-21l-12 10l14 -16zM158 1118l24 -2l-24 23v-21zM209 983l-43 -8l18 -8zM139 885l17 14l-21 12zM100 967l-10 -17l27 21l-13 12zM160 922l16 -19h25zM168 412l6 -17l23 8zM139 426l-22 6l14 -22z M225 106l17 9l-19 14zM559 975l-12 -21l24 11zM223 465l13 6l-35 -8l16 -10zM246 340l24 -21l-6 19zM326 98l-21 31l10 -31h11zM256 1124l-16 -2l22 -6l12 10zM553 215l-6 -16h18zM641 1098l21 -11l-9 19zM201 365l18 8l-12 10zM186 385l-2 -20l-2 -35l6 26zM147 287l-20 14 v-12zM377 70l-15 -21l-4 -22zM127 578l12 -9l4 -16l11 8zM129 1163l-2 -12l14 -10zM457 1278h10l-21 18zM420 141l-4 -10l12 -12zM643 1292l-6 -2l14 -20zM233 442l21 -8l-14 8h-7zM215 831l10 -2l-35 11zM698 387l4 2l-4 4v-6zM129 242l-4 4v-4h4z" />
<glyph unicode="D" horiz-adv-x="901" d="M850 487l2 -45l-4 -47l-2 -59l-8 -62l-15 -53l-24 -57l-33 -51l-33 -31l-39 -29l-53 -28l-53 -19l-47 -6l-52 -4l-53 2l-55 2l-31 -4l-57 4l-43 -2h-121l-25 6l-8 19l8 22l-4 29l-10 22l4 23l-2 35l4 82l-4 47v53l29 31l-27 12l2 45l-4 45l4 27l-4 24l8 43l-6 33v270 l4 35l-6 64v233l2 59l2 64l-4 68l4 24l-4 43l12 19l72 10h41l25 -4h53l55 2l74 -4l65 4l27 -4l86 -15l37 -16l33 -10l28 -19l13 -18l26 -12l19 -19l-10 -29l20 15l25 -33l24 -51l17 -51l8 -50v-26l6 -70v-65l-12 -17l-25 4l37 -10l2 -39v-106l-16 -23l12 -26l4 -21l-4 -59 l4 -74l-4 -21l4 -18l-2 -49zM575 995l9 39l-11 23l9 30l-7 29v31l-10 27l-14 36l-21 19l-20 2l-76 16l-28 -2l-39 -10v-70l-2 -78v-49l2 -49l-5 -39l5 -39l-5 -67l5 -62l-5 -51l3 -49l-3 -61l3 -70v-70l-3 -61l5 -66l-5 -69l9 -43l39 -11l26 2l56 7l26 10l39 31l12 45l6 49 v108l5 47l-5 25l5 20l-5 21l-2 51l7 27l-7 65l2 56v73l3 58l2 51zM459 1362l8 -16l41 -17l10 -31l25 11l-2 12l-23 4l23 14l-27 15h-18l-7 14zM776 991l-35 19l-43 -6l13 -23l20 -2l25 12h20zM705 1266l-23 12l4 -16l19 -7l22 -22l25 -4l-25 35l12 8zM737 1167l-18 -24 l-23 -4l17 -6l-25 -21l37 12l-8 -10l6 -8l37 -19l-21 19l-8 27l-8 6zM723 907l14 -24l17 18l-2 21l-25 24l-27 8l-16 15l43 -39l14 -19l-4 -14zM782 1090l-8 30l-26 -8l14 2l10 -14v-21l-20 4l-7 -14l5 -16l22 12zM657 844l9 24l-2 25l-19 -2l2 -35l8 -29zM752 1038l-9 19 l-24 2l-6 -12l14 -17zM692 920l-10 8l-20 -27l24 -18zM680 1012l25 8l-19 -4l-18 20l-17 11l11 -25l-7 -16l11 -2zM686 1221l-6 -13l14 -6l6 21l15 14l-19 6zM637 1350l-19 20v-33l35 6l-8 15zM715 819l18 17l-12 28l6 -16l-27 16l11 -16zM659 1280l-14 -6l-20 8l34 -27 l11 19zM639 991l12 25l-8 18l-12 -26zM657 952l13 19l-8 16l-15 -14zM678 1194l-37 -2l10 -21zM500 1393l6 -11v-18l22 35l-20 -10l2 16zM215 1225l-14 -8l-23 -11h33zM707 1104l14 -35l8 18zM657 1087l-14 -12l35 -8zM199 356l24 -14l-8 20zM279 1231l-31 4l16 -14z M713 1206l16 13l-16 8v-21zM670 1159l-2 -35l-11 -12l19 16zM735 762l15 -4l2 22zM815 655v17l-18 -17h18zM754 1180l4 -17l-4 -20l12 18zM184 1247l-14 -8l29 -4zM768 909v-16l16 6zM303 143l14 23l2 20zM389 1409l8 -6l17 16zM780 758l-4 -6l27 -11zM123 45l-8 21l-9 -3z M776 631l-6 8v-8h6z" />
<glyph unicode="E" horiz-adv-x="802" d="M760 84v-43l-4 -25l-17 -16l-61 -4l-29 4h-55l-45 -4l-45 6l-31 -6l-24 2l-56 -2l-65 4l-58 -2l-45 2h-100l-23 10l-10 37l-2 27l2 71l-4 29l2 59l-2 62l4 47v57l-4 64v57l4 53l-6 17l4 69v121l4 39l-6 31l4 47l-4 64l4 53l-2 57l-4 45l4 23l-4 24l4 27l-2 24l2 52v118 l4 46l-4 24l14 21l54 10l14 -6l27 4l22 -4l35 4h238l55 -2l76 -2l75 4l13 -13l18 5l14 -39l-4 -23l7 -16l-3 -33l-2 -53l-6 -56l-28 -16l-37 2l-56 2l-18 -4l-35 6l-12 -4h-76l-57 4l-33 -4l-18 -10l-9 -27l4 -59l-4 -17l2 -18l-4 -23l4 -24v-57l2 -54l-4 -39l17 -28l24 -4 l27 2l61 4l23 -4l51 -2l53 2l21 -13l8 -26l-4 -27l6 -26l-2 -60l-2 -55l-12 -21l-29 -8l-33 2l-75 -4l-37 6l-80 -6l-15 -37v-51l-12 -4l14 -16l-4 -29l4 -29l-2 -26l2 -54l-6 -43l4 -47l9 -59l28 -8h129l17 4l16 -2l53 -2l54 4l49 -4l39 -13l4 -20l4 -66zM295 813l-19 -2 l-8 16l19 -2l-27 4l-14 -14h14l14 -16l21 -13l14 -2l-6 19l19 -2l6 18l-31 10zM324 1288l-2 23l-17 -8l-2 -17l-20 -6l6 -16l16 10l2 -14l19 -5l-15 15zM225 684l15 -12l-7 -19h19l-4 23l4 24zM160 1153l-10 -20l12 -29l26 2l-28 22v25zM152 1020l4 -6l20 28l-14 -8l4 21 l-25 -17zM203 618l12 5v20l-18 12l-4 -12zM317 702l13 21l-17 20l2 -12l-6 -16h-16zM299 662l10 12l-28 -15l-2 19l-17 -12l27 -13l4 -12zM268 961l-4 -13l19 -16l4 33zM217 1182l19 -13l14 9l-10 10l-4 10zM207 1096l4 -23l33 23h-37zM217 901l-4 -27l14 5l13 12l2 10 l-11 -8zM283 1036l-29 31l-8 -25l16 2zM160 846l-4 -15l26 9l-4 16zM199 313l16 23l-25 6zM279 1325l-11 6l23 -18l14 16l-16 -2l-8 19zM141 803l21 -12v30zM354 190l-16 15l-27 2l11 -10zM313 117l-4 12l6 14l-8 11l-8 -27zM184 535l-16 -19l14 -18zM213 1274l-10 12 l12 -31l-8 -14l22 31zM178 1061l4 20l-18 13zM147 731l-20 10l6 -22zM248 221l10 -16l12 18zM199 1010l-6 20l-11 10l2 -18zM678 78l14 -2l-14 28v-26zM174 684l-4 -25l16 7zM399 811l9 -25l10 15zM272 698l17 15l-17 8v-23zM240 1260l-7 -13l17 -24zM197 825l12 -26l-4 22 l8 15zM274 512l13 6l-21 6l-2 -10zM217 508l27 -6l-13 12zM266 182l6 13l-18 4zM270 1243l9 17l-15 2zM248 1292l-6 -10l18 -6zM444 764l15 -10l10 22l-14 -18zM244 1004l-13 -5l-8 -12zM291 1055h-10l16 -8zM467 678l-6 6v-6h6zM725 1348l-6 6v-6h6zM156 1063l-6 4v-4h6z " />
<glyph unicode="F" horiz-adv-x="813" d="M756 1307v-29l-8 -25l-21 -12l-20 8l-9 -10l-41 2h-131l-63 2l-74 -2l-18 -16l-4 -33v-119l2 -53l-4 -41l4 -51l-4 -25l4 -24l-7 -17l13 12l28 3l64 -3h111l69 -8l10 -20l5 -51l-5 -25v-47l-4 -72l-22 -14l-25 -2l-63 8l-74 -8l-57 12l-23 -4l-22 -27v-96l4 -55l-4 -25 l4 -20l-4 -53l-2 -52l6 -24l-4 -35l-2 -49l4 -66l-2 -65l-5 -60l-20 -16l-25 -2h-188l-20 8l-11 23l-2 57v51l-4 72l4 24l-4 48v59l2 63v238l-2 64l6 22l-4 27v67l4 56l8 2l-10 26l2 25l-6 31l4 28l2 45l-4 62l-2 65l4 66l6 18l-8 37l2 70l-4 55l10 61l33 13l25 -2l76 6 l43 -2l61 -2h192l19 -23l12 23h99l67 -2l27 -19v-30l4 -76zM401 803l7 -23l34 -18v22l25 9l-12 10l-27 -21zM197 1032l-17 4l27 -22l20 26l-24 13zM266 1262l2 -17l29 8l-10 11l10 12zM250 1364l-4 -25l20 23l17 -19l-15 31zM174 940l2 12l-14 -18l16 -4l19 2l-7 14z M573 723l11 6l-21 8l-10 -37zM326 752l-4 20l-7 21l-6 -41h17zM195 614l10 13l-27 6v-8zM242 1325l-19 10l-8 -20zM219 1282l-20 4l10 -24zM281 1042l16 13l-14 14zM219 942l10 19l-18 6zM391 711h15l-9 26zM246 1161l-10 19l-11 -19h21zM172 547l23 4l-23 12v-16zM575 752 l-24 -2v-15zM381 791l-10 -21l14 -4zM170 672l-4 -13l29 7zM139 1169l-10 -12l21 -6zM106 1354l19 -2l2 16zM203 1100l6 22l-16 -10zM297 1217l18 8l-14 10zM168 1071l16 27l-16 -11v-16zM166 758l2 -17l14 13zM295 1327l10 6l-24 -2l-17 8l19 -12h12zM334 1339l-8 23l-9 -2 zM272 852l33 16l-20 -4zM164 1346l-23 -19l21 14l14 -20zM276 1378l-6 -4l23 -2zM362 815l-2 -4l15 -10zM190 819l-6 4v-4h6zM180 1047l6 4h-6v-4z" />
<glyph unicode="G" horiz-adv-x="899" d="M805 158l2 -31v-84l-14 -41l-52 -4h-57l-25 27l-12 32l-29 4l-20 -20l-51 -35l-62 -22l-63 -9h-66l-84 17l-22 12l-43 19l-43 34l-35 39l-31 47l-24 52v14l-11 18l5 17l-13 41v24l-2 39l-2 49l-2 60l2 61l4 33l-6 41l4 67l2 56l-4 28l2 60l-4 31l6 18l-4 35l12 35l-12 28 l2 54l-2 53v121l10 59l21 55l29 58l20 24l43 47l27 19l59 37l35 8l72 16l63 2l68 -4l67 -16l27 -13l39 -20l35 -27l36 -32l27 -37l31 -58l14 -57l10 -27l2 -26l9 -68l-2 -49l4 -49l-9 -57l-18 -19h-80l-69 -2l-50 6l-16 -6l-23 23l-4 73l-4 80l-4 47l-16 47l-17 21l-20 16 l-31 11h-30l-29 -13l-25 -20l-16 -27l-12 -55v-72l2 -47l-4 -82v-70l4 -22l-2 -68l-2 -59l-21 -6l23 -12v-242l-19 -21l19 -18l-9 -33l7 -39l12 -65l10 -25l18 -20l29 -19l33 -4l53 8l27 15l18 22l19 51l4 52l-4 26l8 54l-4 16l-2 59l-19 15l-41 4h-57l-25 32l-2 29l4 49 l-4 54l4 28l27 27l23 -4l26 2l53 2h58l59 -4l27 4l26 -2h70l25 -10l8 -25l2 -29l-4 -18l4 -25v-100l-2 -55l2 -82v-105l-4 -57v-55l6 -21zM233 250l25 10l-14 14l22 2l10 19l-32 -4l-17 -35l-14 2l-10 -16zM90 741l23 -10l14 -31v-16l10 12l4 17l33 4l-16 12l-23 -6l-16 14z M332 82l18 8l-14 21l-14 -27l-15 -4l-22 16l12 -24l25 -13zM152 311l2 -14h-15l15 -23l14 9l-2 12l4 49l-10 -12l-6 -6zM184 156l21 -6l28 14l-16 14l-49 -18zM150 201l4 16l24 6l-8 17l-23 12l5 -29l-23 -10zM233 109l9 -3l4 29l-23 -8l-18 2l8 -25l23 -12l-17 17h14z M307 174l-12 -35l-12 -14l30 4zM397 72l2 -17l23 6l20 21zM184 358l29 -8l-6 15l-19 8l-18 -25zM434 123l-18 -14l16 -5l29 17zM143 588l15 14l-11 14l-18 -20zM147 502l29 -10l14 4l-12 18l-10 -10zM211 567l-18 23l-15 -12l10 -11h23zM270 213l9 12l-17 -10l-6 -47l14 29 v16zM492 49l12 23l-4 12l-13 -16zM127 625l-4 -15l24 17l-12 10zM186 690l-2 -31l17 3zM246 98l26 6l-6 23l-8 -23zM158 819l-23 -10l12 -12zM207 217l6 -24l25 14l-19 -4zM244 322l14 4l-16 18zM199 283l14 8l10 2l-24 4v-14zM125 469l16 -2l-2 16zM127 311l-4 -16l8 20 l-14 11zM219 537l-10 -5l14 -4zM127 227h6l-10 17z" />
<glyph unicode="H" horiz-adv-x="952" d="M858 195l2 -45l-2 -68v-51l-8 -23l-21 -10l-24 2l-21 -4l-6 10l-28 -10l-62 2l-55 2l-33 8l-10 39l-2 57v66l4 72l-2 53v240l-2 51l-13 37h-49l-55 4l-22 -4l-27 4l-29 -2l-24 -9l-9 -43l7 -59l-5 -55v-64l3 -63v-254l-7 -60l-14 -16l-27 -4l-59 -2l-55 4l-43 -4l-31 2 l-25 10l-10 25l-4 61l2 51l4 43l-4 27l4 59l-2 29l-2 57l-2 50l6 49l-4 33l2 71v117l-2 41l2 67l2 60l-4 51l2 23l-4 30l2 66l-2 63l4 27l-2 29v51l2 51l-2 53l4 49l-4 27l4 37l-4 29l4 28l23 19h47l67 2h86l29 -8l19 -23l-7 -31l5 -57l-3 -59l5 -60l-5 -20l5 -29l-2 -27 l-5 -55l7 -24l-9 -19l7 -18l-7 -45l9 -43l-5 -58l5 -26l22 -11h66l10 -14l31 -2l-13 18h25l47 -4l25 6l12 39l-2 29l6 25l-6 24l-2 47l6 27l2 84l-8 22l4 101l-4 37l2 53l4 49l12 19l-16 -11l2 33l12 21l31 6l51 6l23 -4l24 2l51 -2h47l21 -8l8 -33l-4 -66l-12 2l14 -41 l2 -37v-98l2 -49l-4 -31l2 -63l-4 -56l4 -16l-2 -27v-61l2 -72v-149l-4 -74l4 -24l2 -60l-4 -22l2 -45l-2 -37v-121l4 -19l-2 -26zM729 958l12 -20l-4 14l21 9l24 -7l-16 41l-18 -18l-25 27l10 14l-26 -19l14 -22l14 -6zM461 750l16 6l-28 43l-9 -15l21 -14l-35 -16l-14 -17 l-19 -6l17 -29l6 25l20 21zM768 1321l-23 -8l-2 20l-28 -12l-2 -27l14 2l8 19v-19l33 2l18 -6zM662 795l53 -7l16 13l12 -21l7 13l-27 14l-14 -6l-39 -2l-8 22l-19 -8zM201 737l18 -32l17 14l-21 29l-2 24l-23 -8l19 -8zM690 739l27 -6l-33 53l-6 -24zM662 733l-19 4l14 -4 l-12 -16l4 -23h-12l2 -20l6 14l12 2v23l13 8l-4 22l-9 -10h5zM614 731l-12 -16l31 -8l-8 47h-7zM672 1253l-2 -18l12 -37l6 39zM670 559l22 -2l-2 27h-16zM530 762l19 26l10 13l-35 10l17 -20zM270 866l9 25l-31 -8l14 -13l-10 -14zM682 1389h-12l2 -29h18zM750 868l20 -10 l29 6l-31 6l-27 13zM676 1112l8 12l-25 -10l13 -41zM651 1227l-6 -29l8 -4l17 23zM762 1087l-12 -6l10 37l-21 -43l23 -6v18zM242 874h-31l12 -18zM293 1174l-6 24l-8 14l-5 -18zM256 600l-12 23l6 -13l-14 -6l-3 -14zM711 590h16l4 8l-29 6zM674 1004l-31 18l8 -18h23z M684 1323l-8 12l-12 -6l14 -14zM688 614l14 19l-4 22zM741 651l9 6l2 11l-25 -9zM383 754l-16 -23l20 6zM279 1001l20 -16l-2 19zM248 791l-19 -3l15 -16zM240 399l-15 -39l17 23zM592 766l-17 -10l17 -8v18zM737 1059l-37 12l19 -14zM760 1210l-10 -10l18 -10zM754 1364 l2 12l-23 -2zM684 995l-12 -2l-2 -22zM166 727l16 -12l-8 22zM668 938l10 2l-2 4l-14 14zM772 1034v-16l12 6zM745 1188l-22 -10l39 12zM633 760l24 10l-41 -12zM670 1309l-17 -21l15 12zM246 543l-6 4v-4h6zM782 614h-4v-2z" />
<glyph unicode="I" horiz-adv-x="448" d="M358 182l4 -26v-64l-8 -76l-14 -18l-51 -2l-19 6l-18 -4l-68 2h-59l-29 12l-6 35v35l2 53l-4 41l2 33l-2 49l2 61l-2 50l-2 71l4 29v59l4 41l12 15l-18 -2v75l4 21l-2 63l6 37l-6 13v104l-2 63l4 31l-4 70l8 24l-8 29l4 47l-4 19l2 53l-4 55l6 25l-4 55l4 33v55l14 23 l25 6l72 -6l80 6l47 -4l8 -25l8 21l14 -21v-29l2 -55l-4 -53l2 -39v-57l-2 -56l4 -57l-4 -61v-173l4 -26l-4 -31l4 -20l-4 -39v-62l-4 -47l6 -26l-16 -17l16 -6v-84l-2 -63l2 -58v-55l-2 -72l-2 -37l6 -34zM221 1374l-2 -16l-6 -27l20 15l25 8v18l21 12l-17 15l6 -17z M139 606l19 -12l28 -12l-12 12l6 55l-10 -14l-8 14l-4 -28zM188 1096l-16 -19l8 -26l2 14l27 -14zM252 1233l18 -16l11 12l-7 8l-26 20zM172 924l-6 -17l6 -28l18 28l-8 6zM178 252l17 24l-11 19l-20 -16l14 -11v-16zM193 752l-3 -19l23 -2l2 21h-22zM268 332l27 22l-21 15z M238 1014l-23 -8l-14 -25l26 23l13 -13zM203 580l-13 -2l5 -25l22 35zM213 711l18 4l-20 10l-21 -12zM242 1044l-2 -20l16 8l-12 17l-19 14zM252 662v14l-19 14v-10zM240 1141l-17 12l-4 -8l8 -15zM100 1085l-2 -2l21 -6l-13 27zM139 903l17 25l-21 -6zM221 311l2 17h-8 l-10 -17h16zM174 805l19 -6l-3 22zM281 1178l10 14l-23 6zM233 791l9 -33l8 14zM141 1239l19 18l-23 -2zM203 274l12 -12l2 29zM195 1012l-15 -23l17 2zM268 979l-16 -21l18 5zM266 248l19 -10l-13 18l-24 -18zM119 1071l-10 -8l18 -12zM272 899l-20 2l10 -14zM203 420 l2 -19l12 21zM276 788h15l-21 19zM211 494l20 6l-20 6v-12zM276 1417l-2 -8l31 6zM223 1214l-8 -16l8 -12v28zM209 1272l-10 -10l12 -9zM231 358l2 -10l17 12zM158 1219l-2 -13l14 -6zM295 821v-12l14 8zM184 776l29 -10l-20 12zM244 582l4 -17l6 -14zM287 391l-4 6v-6h4z M215 1186l-4 4v-4h4z" />
<glyph unicode="J" horiz-adv-x="856" d="M764 1004l-2 -46l2 -36v-105l2 -90l-4 -51l4 -33l-2 -33l-4 -55l4 -55l-2 -60l4 -51l-4 -24v-68l-8 -68l-21 -51l-26 -49l-29 -41l-37 -33l-39 -35l-27 -10l-38 -18l-58 -15l-55 -2h-57l-54 7l-43 16l-43 14l-37 27l-38 35l-25 30l2 17l-41 43l-20 57l-13 60l-4 55l6 53 l-6 23l2 28v66l17 20l-19 68l10 33l25 14h131l72 -6l16 -27l6 -33l-2 -20l4 -27l-4 -26l4 -27l-4 -24l-2 -60l4 -65l6 -45l17 -29l51 -35l55 10l35 27l17 55l2 35l2 68v57l-2 57l2 52v53l-2 61v60l4 51l-6 26l4 45l-2 62v57l2 58l-2 67l2 66l-4 63l4 49l-2 52l2 49l-2 49 l12 22l18 13l45 -2l31 4l39 -4l35 2h67l19 -21l4 -26v-54l-2 -55l2 -53l-2 -55l4 -25l-6 -49l2 -27l2 -53v-59zM219 160l27 24l-4 -16l16 12l10 29l-6 10l-18 -2l-15 -20zM395 63l-10 23l12 27l-18 -21l2 -26l-10 -13l-19 23l-12 -13l16 -2l15 -22l10 4zM219 528l-16 -24 l8 -27l-4 -16l10 18v19l21 18l-7 14l5 13zM211 379l-8 -29l35 -14l-7 33zM229 131l7 -10l4 -19v19l16 -2l8 22l-31 11zM449 102l2 -16l12 20l-8 17l-29 22v-16zM324 82l16 6l12 -8l-16 29l-23 -3zM401 70l27 18l-6 25v-17l-14 6l-7 -16v-16zM223 319l23 5l-15 10l-28 -12 l24 -19zM625 801l-15 -15l-10 5l6 -19l19 10l18 -30l-16 32zM604 381l10 -12l15 -23l18 12l-18 7zM172 268l10 -22l2 30l-18 15zM643 590l29 -4l-15 12l-18 8l-10 15zM160 541l-17 -13l17 -2l-10 -14l22 12zM590 827l-23 -12l8 -16l11 12zM539 659l32 -4l-12 19zM520 102 l-16 35l-4 -20zM184 186l15 9l14 -2l-35 14zM295 94l-19 2l-6 41l-2 -45zM188 379l19 18l-19 4v-22zM129 403l21 -12l6 17zM686 776l-16 -12l-8 -10l12 -2zM94 211l15 -14l2 22zM643 928l-29 -13l15 -18l-4 16zM594 297l27 27l-23 -11zM63 442l29 7l-14 8zM659 684l25 2 l-10 12zM606 582l23 -7l-17 19zM158 430l10 -8v29zM303 184l-27 4l11 -12zM618 252l-12 -21l17 -8l-9 19zM616 1034l-4 -16h17zM262 63l12 -4l-2 23zM436 63l8 15l-16 2zM279 207l-9 -14h17zM672 803l4 22l-17 -34zM715 553l-13 -8l19 -6zM281 139v13l-19 22zM602 762 l-4 -12l23 16zM559 115l-22 6l12 -12zM197 119l14 18l-21 -16zM205 45l18 23l-12 -9zM537 195l-5 -5l15 -8zM643 528l-12 -6l20 4zM582 846l-27 2v-2h27zM518 1186l-6 4v-4h6z" />
<glyph unicode="K" horiz-adv-x="888" d="M868 39l-12 -35l-18 -8l-39 2h-60l-55 -2l-20 4l-19 -4l-24 4l-29 18l-4 25l-19 51l-12 49l-2 37l-10 15l-10 38l-23 66l-12 45l-15 55l-14 54l-27 73l-4 35l-6 17l-26 -11l-31 -61l-17 -55v-29l-8 -37l6 -45l2 -66l-2 -59l-2 -61l4 -62v-55l-6 -27l-28 -12l-33 -2h-62 l-57 2l-59 4l-21 16l-6 31v121l2 55v99l-2 45l4 53l-4 33l2 55v57l-2 56l6 24l-6 25l4 18l-4 51l2 56v55l-2 61l4 76l-4 41v127l2 66l-4 49l6 31l-4 34l2 31l-4 68l6 28l33 19l68 2l81 -4l48 4l28 -15l10 -34v-35l-2 -68v-51l-2 -55l6 -72l-4 -29l-2 -55l2 -65l9 -33l22 26 l12 35l29 64l6 26l29 64l20 51l23 51l29 74l20 49l18 49l13 15l67 8h121l53 -8l15 -29l-21 -62l-12 -20l-20 -41l-21 -47l-4 -23l-12 -18l-27 -68l-22 -49l-46 -106l-26 -53l-27 -64l2 -35l10 -16l3 -25l10 -22l10 -56l12 -14l11 -39l-13 -26l31 -33l18 -53l19 -62l18 -59 l19 -62l16 -45l4 -24l12 -39l13 -47l20 -43l2 -25l19 -45l10 -41zM188 805l23 -2l-8 31l-21 -23l-6 14l17 13l-48 -23l15 2l6 -22zM199 625l-4 -15l-9 15l-14 -15l27 -20l22 10l-16 8l43 8h-37zM483 936l6 -12l-4 -11l17 7l12 -11l18 -6l-6 23l-20 14zM176 537l23 -29h12 l-25 27l-4 30l23 -18l-4 22l14 17l-12 -8l-25 -7zM158 664l-8 -29l18 12l18 -2l-4 21zM541 1018l-6 18l-29 -20l26 -23l-6 17zM383 707l12 20l-6 6l-27 8l5 -16l18 -6l-20 -6zM272 217l33 4l-31 6l-18 19v-19l-6 -14zM311 434l15 10l6 11l-29 4l-8 -23zM242 602l8 -18 l-17 -23l19 10l16 -4l-10 13l8 18zM332 715l-2 -29l22 29l-18 20zM180 688l-2 12l12 9l-10 12l-20 -19zM379 754l2 18l-16 2l-15 -8zM203 354v19l-6 4l-27 -33l12 10h21zM496 588l24 10l8 29l-16 -9l4 -12zM166 307l14 4l10 -8l5 19l-19 -7l-12 11zM268 709l-24 -11l28 -10z M299 524l-6 29l-4 -18h-27zM387 793l16 8l-16 -2l8 14l-22 -10zM428 762l25 4l-13 14zM573 571l7 17l-21 10zM213 225l-6 21l-12 -23zM258 471l6 -16l15 22zM502 1057l8 -19l4 33zM293 494l10 -27l16 4l-18 10zM332 659l-17 -16l17 -4v20zM250 492l8 12l25 -8l-25 18z M127 768v-25l12 13zM231 752l-12 -2l17 -11l10 2zM238 406l10 -17l8 14zM483 1022l-8 -12l27 6zM502 578l20 -7l-6 15zM156 494l2 -17l10 -16l-4 20zM242 815l-23 14l12 -10l15 -24zM291 1108l2 -14l14 10zM535 862l-15 10l-6 -10h21zM397 772l27 -6l-2 8zM201 1034l-19 17 v-11zM276 991h-6l6 -26v26zM551 805l-14 4l-2 -8zM512 887l6 14l-16 -18zM496 664h-19v-7zM217 776l-6 6v-6h6zM246 973l10 2l-29 -2h19zM270 1028l-6 4v-4h6zM186 1112l-4 6v-6h4zM629 559l-4 6v-6h4zM436 977l-6 6l23 -27zM469 754h10l-18 2zM395 682l-4 4v-4h4zM348 590 l-4 4v-4h4z" />
<glyph unicode="L" horiz-adv-x="757" d="M727 160v-68l-4 -69l-27 -25l-49 -2l-29 20h-18v-18l-74 2h-114l-60 -4l-22 6h-66l-8 14l-18 -18l-35 10l-45 -10l-45 2l-23 35v59l2 64l-2 65v62l2 61v139l2 72l-2 61l-2 60l6 57l-6 33l2 63v70l-4 25l2 22l2 72l-2 55v160l4 45l-4 18v119l6 51l35 15l66 -2h125l22 -6 l16 -17l5 -33l-3 -67v-55l3 -56l-5 -41l5 -43l-7 -49l4 -35v-55l-4 -106l4 -62l-4 -76l7 -45l-7 -45l4 -63v-185l3 -53l-7 -76l9 -59l18 -16l37 -5l76 11l77 -4h48l57 2l41 -15zM322 82l26 2l-24 25l-5 28l7 8l22 -10l-4 21l10 10l-16 12l-16 -18l-25 22l-16 -10l16 -2 l12 -37l-20 -18l-13 14l-10 -4l19 -16l-11 -9l15 -30zM645 125l-8 4l-23 2l-14 8l4 -8l-6 -12l-33 10l25 -12l12 -31l33 -23l6 37l-8 6v-16l-10 21zM303 199v39l-10 18l-17 -10l11 -4l-4 -13l4 -16zM156 899l-9 -12l41 4l5 12l-19 8l-10 11zM240 807l-15 12l-16 -2l-16 -12 l12 -8zM211 80l16 20h-6l-28 -28l-11 -19l23 8zM354 86l13 -16l-2 36l12 -22l-4 22l-23 7zM596 174l-29 -16l25 -19zM172 170l16 -10l15 41zM559 72l19 18l-19 -10l6 18l-18 -4l-4 -12zM258 750l-16 -19l18 -10l12 12l-10 4zM283 768l-21 14l-20 -4l16 -12zM195 477l16 -6 l-18 25l-19 -31zM231 80l13 2l10 10l-21 14zM489 66v22l-4 23l-16 -5l14 -18zM152 449l16 6l10 4l-4 6l-6 12zM385 147l-27 -4l19 -18zM262 920l19 -29l-5 14l13 13zM168 870l25 -12l-9 14l-18 13zM408 90l20 12l-29 7zM240 1104h-27l23 -17zM547 199l-2 -25l18 8zM270 326 l23 14l-21 6zM213 299l6 23l-20 -9zM221 997l-22 -6h18l16 -10l-8 14l4 19zM266 197l-6 26l6 -37l-8 -20l8 -19v50zM178 145v-14l27 16zM629 180l-8 -16l20 4zM166 541l-23 2l13 -15zM307 520l15 10l-25 2zM158 420l6 -17l10 15zM160 213v8l-31 -2zM426 147l6 -16l12 6z M215 338l23 16h-15zM221 184l17 15l-5 10zM377 23v12l-19 -15zM244 692l-11 2l5 -22zM440 100l-12 2l12 -18v16zM514 98l8 -2l-2 19zM285 1110l-6 -2l26 -14zM455 68l6 22h-6v-22zM240 401l16 5l-16 4v-9zM414 170l-13 -4l31 2zM225 35l-6 6v-6h6zM350 537l-6 4v-4h6z M119 625l-2 -2l4 2h-2z" />
<glyph unicode="M" horiz-adv-x="1206" d="M1110 367l4 -27l-4 -68l-2 -57l4 -57l-2 -19v-57l-4 -64l-21 -20l-57 -2l-24 4l-25 -4l-27 2l-57 2l-27 12l-8 72l-2 55l4 54l2 57v59l-2 60l-2 61v68l4 22l-2 62v174l-2 59l6 21l-12 22l-10 -14l-13 -66l-12 -63l-14 -62l-2 -28l-12 -29l2 -29l-9 -45l-14 -33l-2 -40 l-14 28l8 -65l-17 -84l-10 -60l-10 -18l4 -19l-8 -38l-8 -48l-17 -84l-14 -55l-57 -10l-54 4l-26 -4l-35 27l-8 22l-4 31l-13 65l-10 54l-10 47v26l-8 41l-15 64l-8 51l-12 57l-10 62l-13 57l-6 55l-14 56l-8 51l-11 61l-12 27l-12 -25l6 -65l-8 -35l6 -14l-2 -43l4 -19 l-6 -43l6 -43l-4 -28l4 -23l-10 -29l6 -18v-25l-6 -20l10 -23v-92l2 -55l-4 -27l2 -22l-6 -27l4 -41v-51l-4 -59l-17 -19l-24 -6l-53 -2h-56l-65 6l-21 25l-4 22l2 21l-2 51v57l2 58l-2 61v123l-2 59l6 58l-4 34l2 60l-4 59l4 60l-2 67l2 51l-4 25l8 49l-4 57v52l-4 24l4 25 l-2 26v50l2 59l-2 47l2 53l-4 23l4 49v49l17 21l24 6l25 -4l65 4h68l65 2l48 -4l22 -11l19 -22l8 -23l10 -57l10 -65l8 -60l15 -26v-27l6 -27l-2 -20l8 -21l12 -67l15 -60l8 -51l4 -39l10 -41l6 -41l9 -37l-5 -16l7 -16l12 -58l22 2l15 56l8 61l14 57l2 37l13 35l4 33l20 14 l-14 15l8 36v27l6 29l10 59l13 68l10 20l2 27l10 37l-2 24l10 27l2 24l11 19l-2 41l12 24l25 15l63 2l64 -2l67 -2l76 4l35 -8l14 -31l2 -37l-4 -59l6 -66l-4 -35l-6 -57l6 -35v-104l2 -54l-6 -73l4 -19v-51l-6 -22l8 -23l-4 -25l2 -45l-4 -26l8 -111l-4 -26l-2 -43l2 -56 l2 -53zM567 416l13 -10l20 -21l-12 23l-23 38l-26 -8l30 -6l-10 -12l-8 -21l-16 -10l16 2l12 -18l-8 -15l27 -6v21l-11 16zM967 530l4 -24l22 8h-10l-10 21l10 20l-6 16l-23 -30h-26l-15 10l13 -29l20 -4l10 12h11zM602 498l-20 12l-11 -12v-9l27 3l-2 -21l37 12l-15 4l3 13 l-9 6zM545 594l-4 29l-31 -25l-27 6l15 -26l14 -5l2 25l16 2zM983 1104l-12 -37h28l11 14l24 9l-33 4l-6 -15zM481 922l8 14l-24 -10l18 -39l27 18l-14 15l-21 -7zM248 506l22 6l-18 2l-2 27l14 14l-28 -10l-11 -27zM653 254l11 12l-11 21h-24l-19 -8l17 -21l6 14l12 4z M1006 760l24 2l-12 12l14 14l-39 -4l-4 -20zM446 770l17 -2l16 2l15 12l-29 31l2 -29zM299 1266l-14 -11l4 -26l20 4l13 10zM383 1014l16 -15l31 -34l29 -21l-13 25l-43 35zM221 1298l-14 -14l26 -14l19 18l-12 10h-19zM535 698l-25 9l-4 -37l14 8l2 18l4 -18l25 16z M934 936l-10 14l-9 -12l15 -14l43 2l-10 14zM1026 1194l-6 37l-12 16l-2 -22l4 -21l-2 -14zM956 1092l17 10l20 16l-24 2l-25 -8zM971 809l-27 16v-14l4 -14l35 -9zM557 315l18 -12l-4 25l-24 2l-19 -4l9 -15zM680 471l-21 16l-18 2l12 -12l-6 -16l10 -4zM461 737l12 -16 l29 8l-8 21l-27 -5l29 -12zM1008 995l-21 -18l19 -14l-9 -11l25 9l-14 18v16zM987 1143l-14 -2l33 2l18 18l-33 2zM649 416l27 20h-23l-22 6zM918 608l-9 -30l15 18l20 -6l-6 20zM963 1341v-45l20 21zM1096 1264l-35 -7l-6 9l-25 -17h35zM190 1163l-20 15l12 -31l25 4z M203 635l24 6l15 16l-13 -8l-22 8zM842 1354l-19 -37l33 22zM602 324l27 28l-33 2l8 -6zM231 403l7 -26l22 20zM983 866l29 13l8 12l-23 -4zM219 262l29 -6l-29 29v-23zM739 535l11 14l-21 12l4 -24zM1012 1268l-17 39l2 -39h15zM870 1251l7 15l-25 -9l10 -10l27 -2z M674 805l4 -25l14 6l8 21l-12 -14zM668 389l22 8l-37 9zM723 623l14 -2l-14 16l-18 -6zM199 1053l6 24l-25 -24h19zM225 1217l-14 -5l22 -24zM549 643l12 21l-18 -9l2 -28zM225 852l4 16l-8 4l-10 -14zM702 653l29 4l-16 13zM518 473h2l-35 19l17 -21zM1040 1053l25 8l-37 4 zM389 952l-4 6l-8 15l-6 20l4 -20l-2 -19zM956 676l19 -27l-8 23l2 16zM262 246v22l-16 6zM229 1049l-14 4l21 -19l2 25zM1026 643l-12 -16l18 -4zM205 862l-17 -10l15 -12zM741 487l2 23l-16 -14zM414 954l16 2l-16 9l-17 -25zM696 608l2 33l-10 -8zM186 1010l-2 -25l13 -6 zM946 846l-2 -21l17 4zM530 485l-10 -12h25zM866 1235l17 -12l2 16zM836 1161l14 8l-10 13zM492 535l-7 -11l21 -8zM961 1071l-23 -2l10 -10zM643 524l6 11l-24 -5zM903 874l12 -6l9 15zM723 719l-14 -2l4 16l-13 -26zM686 684l8 -16l6 12zM598 453l-6 -7l20 -12zM1030 971 l2 -21l21 -4l-17 8zM575 274l11 2l4 17zM961 754l4 10l-9 16zM926 719l6 -10l4 14zM674 295l12 -2l-12 12v-10zM705 492l-3 -17l7 -6zM258 1001l-2 11l-12 8zM545 352l-8 4l22 -22zM629 573l-19 -4h15l16 13zM618 223l-6 8v-8h6zM508 432l-6 6v-6h6zM905 326l-6 4v-4h6z M229 1102l-4 4v-4h4z" />
<glyph unicode="N" horiz-adv-x="956" d="M864 223v-33l2 -32l-2 -60v-71l-26 -25l-45 -6l-68 4l-68 -2l-22 18l-10 25l-21 53l-12 39l-23 57l-16 46l-18 47l-17 51l-18 49l-23 61l-20 56l-23 63l-18 41l-4 25l-25 63l-29 68l-16 10l2 -65l-2 -60v-84l-10 -20l10 -31v-180l2 -68l-2 -59l2 -58l-2 -57l-2 -55 l-14 -29l-70 -8l-18 4l-25 -4l-18 2h-54l-32 6l-17 27v22l4 49l-4 27l2 27l-2 63l2 66v55l2 57l-4 60l2 57v53l4 39l-4 56v61l2 57l-4 58l6 16l-2 45l-2 62l2 59l-2 59v72l2 72l-4 65l4 37l-4 86l10 57l29 13l37 4l27 -6l55 4l41 -4l26 2l23 -13l14 -26l21 -56l18 -55 l19 -53l18 -55l21 -54l24 -57l14 -63l21 -41l2 -19l12 -37l19 -37l18 -63l29 -76l18 -31l10 58l-4 49l4 57v541l9 20l22 13l29 2l55 -2h43l51 -2l23 -8l12 -19l4 -27v-55l-8 -63l8 -15l-2 -22v-53l-2 -64l2 -61v-119l-4 -84l4 -25l-20 -18l22 -21v-106l-10 -25l8 -26v-41 l-4 -21l4 -20l-2 -45l4 -35l-2 -35v-61l4 -56l-2 -53l-4 -51zM664 362l22 11l2 30l29 33l-39 -20l-4 -23v23l24 33l-39 -17l7 -24l-19 -23l19 -6l16 4zM223 860l25 4l-8 8l6 17l-33 22l-2 -22l-8 -8v-11l-13 -24zM754 528l4 27l-29 -25l12 -24l-18 -4l27 -27l8 10l16 -8 l-24 27l-11 22zM709 209l18 10l-2 23l-31 -19l13 25l-29 -29l16 2zM686 489l12 -32l21 24l-21 13zM705 739v-4l14 -18l24 14l-16 12zM250 1210l14 -10l15 2l16 12l10 23l-33 -25zM385 969l-6 26l-25 -8l-4 -29l17 21zM391 938l15 -8l16 2l-2 31zM250 700l-6 19l-15 -2 l15 -15l-4 -26h14l10 -12zM696 1006l23 26l-27 4zM283 995l18 4l-20 7l-9 -7l-6 -18l25 6zM254 936h16l-8 22l-18 -4zM186 1165l-12 -16l43 6l2 14l-12 -12zM399 909l43 -6l-12 19zM602 401l25 -16l12 21zM580 535l2 -21l28 37zM664 311l10 27l-21 -2zM203 1116l-8 -18l18 8 l8 14zM739 424l25 6l-39 10zM473 760l23 10l-17 14zM592 496l-19 -2l11 -25zM717 287l-10 20l-21 -4zM225 975l-10 -17l23 -4zM264 922l-16 -15l22 -4zM700 272l-12 -14l31 4zM348 1161l-14 6l2 13l-25 -11zM684 506l8 22l-18 -4zM733 207l21 20l-21 -2v-18zM489 705l-4 -23 l21 20zM745 971l-20 6l12 -21zM168 1133l2 -7l16 7l-6 12zM635 567l12 -18l10 12zM782 455l-8 12h-24zM348 1008v18l-16 -4zM369 1143l-19 8l15 -23zM598 373l-12 8l-2 22l-6 -24zM774 797l-4 14l-14 -14h18zM188 922l-12 10l-6 -17zM242 1118l14 17l-14 22l8 -24zM707 618 l4 17l-17 -8zM264 881v-17l15 21zM678 578l18 -9v11zM442 571l7 7l-7 24v-31zM776 825l17 -8l-11 17zM166 874l22 -2l-10 9zM231 932l13 -6l-23 16l17 -24zM125 27l10 26l-10 -14v-12zM221 901l-10 -12v-2zM467 604l-6 4v-4h6zM328 1042l-6 5v-5h6zM709 791l2 -3l10 3h-12z M756 1212l-6 5v-5h6zM260 1051l-4 4v-4h4z" />
<glyph unicode="O" horiz-adv-x="864" d="M811 920l4 -66l-4 -41l4 -35l-18 -39l12 -24l-12 -23l16 -8v-29l-2 -63l2 -53v-72l-6 -29l6 -37l-2 -43v-65l-6 -33l-23 -72l-22 -41l-31 -45l-37 -39l-49 -36l-49 -25l-43 -10l-37 -2l-37 -13h-57l-72 9l-59 12l-45 16l-56 37l-43 39l-14 23l-16 12l-23 43l-22 53 l-13 64l-4 67v127l4 68l-4 26v66l2 55v58l-2 73v45l2 50l-4 43l6 18l-4 33l4 35l15 -11l-17 31l2 66l-4 24l4 29l9 51l10 16v25l30 68l27 32l49 50l47 34l23 6l47 21l94 16h39l60 -4l28 -4l27 -10l35 -4l39 -12l16 -13l10 -16l27 -6l14 -19l19 -10l26 -29l35 -49l23 -49 l-5 -14l21 -54l-2 -43l6 -16l-6 -33l8 -24l-2 -25l-27 12l19 -22l10 -55l-2 -27v-61zM549 586l18 -13l-16 19l-10 20v54l4 22v70l-6 18l2 25l-2 61v127l4 62l-4 28l2 60l10 -19l14 29h-26v31l-9 28l-16 25l-22 16l-70 25l-45 -23l-31 -30l-12 -23l-10 -61l2 -29v-59l-9 -19 l11 -24l-4 -17l4 -18l-2 -19v-37l-2 -47l4 -26l-2 -51l-2 -74l2 -47l-9 -21l9 -76v-170l-2 -61l12 -51l12 -27l21 -22l34 -15l25 -4l25 2l45 17l26 26l11 25l6 53l2 60l-4 24v51l-2 68zM600 1384l-20 -36l20 -33h18l13 16l-15 -28l-26 -15l-21 15l-14 26l-10 -31l18 -10 l23 -10l4 -16l18 -9l-8 -14l-12 10l18 -47l29 -4l27 4l-17 6l-27 35l19 14l-2 -18l29 14l16 2l-10 35l-11 6l21 13l-12 24l20 19l-20 2l-17 22l-12 -20l23 -4l-5 -19h-24l-21 8l17 9l-29 14v20zM358 1405l-8 12l-8 -26l18 -25l13 20l8 -16l25 14l10 -10l-8 -18l14 -23l31 4 l-13 25l-18 -12l22 26l-22 2l6 25l-18 -2l-17 -8l-6 14zM459 1386l-6 15l-11 -8l27 -23v16l8 -36l-6 14l8 -23l13 -4l20 2l12 11l-6 26h-29l11 27zM647 1108l-10 10l-31 -8l23 -18l8 6l12 -13l-12 -12l18 -29v23l13 6l-4 19l6 20zM623 913l20 31l-27 -8l9 27h-35l2 -19 l16 10l6 -55l-12 -4l16 -12zM674 1186l-2 -19l14 19l19 -2l18 26l-27 2l6 19l-8 -4zM532 1446l-6 -14l-12 -17l12 -24l37 -9l6 9l-4 16l-4 -18l-29 4v24l7 19l14 4zM346 1341l-2 -10l18 12l-4 15l-12 10l-24 -6l-9 -23l13 15zM199 772l12 16l-18 -2l-11 15l-16 -19l10 -20 l17 4l-13 10zM276 1411l5 -18l22 2l4 35zM612 1165l-12 -4l14 -12l27 -14l-10 32zM623 1294l20 -12l8 12l11 -18l-39 -6v24zM709 1071l2 21l-11 18l-6 -35l6 -20zM723 997l-2 -30l-4 -19l24 27zM629 1006l12 20l-16 29l-17 -13l21 -8v-28zM588 1022l18 27l-18 24v-51z M477 1438l-20 -15l6 -20l20 20zM733 524l17 -18h24l-20 20zM649 729l19 21l-17 18l-6 -12zM588 682v-12l24 14l-2 23zM666 788l10 7l-21 14l-4 16l-8 -12zM803 674l-17 -12l-2 -19l15 4zM188 858l9 -18l-19 -11l21 -8l6 13zM696 1321v-18l-8 -23l19 8zM383 1460l-10 -12 l26 10l-18 19zM494 1321l18 -21l-2 29zM582 1317l-17 31l-6 -17zM532 1264l23 -13l12 19l-14 -6h-21zM666 1147l-23 4l21 -23zM717 801l6 16h-25zM590 1184l2 18h-21zM430 1483l-4 -17l25 9zM219 1323l-2 -23l16 3zM219 1288l-18 -8l12 -14zM238 1077l-25 17v-15zM119 1128 l6 -14l-4 -12l18 -2zM760 602l-19 8l19 -26v18zM707 1012l6 20l-21 -14zM772 686l6 14l-16 15zM729 915l2 29l-12 -18zM678 502l4 16l-20 -6zM737 561l-14 -16l33 16h-19zM719 848l18 20h-14zM772 956l-4 -16h16zM754 1221l2 -15l16 15h-18zM627 682l-21 -16l29 10zM283 963 l-4 -15l16 -4zM90 1004l6 10l-20 4zM674 1210l2 13l-19 -9zM684 1161l4 -10l19 2zM96 1071l-16 2l10 -12zM195 524l-9 -2l13 -18zM711 1343v-8l18 -2zM422 1298l16 7l11 12zM588 776l16 12l-2 7zM285 1206l-4 13l-5 -13h9zM477 131l-6 6v-6h6zM197 1112l-7 4v-4h7zM555 610 l-4 4v-4h4z" />
<glyph unicode="P" horiz-adv-x="899" d="M856 954l-4 -34v-39l-14 -72l-17 -49l-41 -66l-47 -45l-18 -4l-21 -20l-55 -21l-74 -16l-53 -6h-113l-28 -7l-9 -36l3 -52v-57l-3 -55l5 -111l-7 -57l5 -70v-61l-3 -56l-12 -16l-35 -10l-26 4l-33 -2l-33 4l-65 -4l-41 6l-17 10l-12 47l2 27l2 49l-2 47v68l4 18l-2 25v53 l2 68v127l-4 39l2 67l-2 64l2 63v76l-2 59l4 54l-4 61l2 37l-4 35l4 63l-2 55l4 27l-2 33l-2 63l2 62l4 55l15 23l22 4h70l71 -2l62 2l61 -2h127l64 -6l59 -17l47 -22l58 -41l32 -41l29 -41l8 -25l17 -51l2 -27l10 -41l-2 -30l8 -72v-111zM475 809l35 6l37 14l31 58l4 47 l8 76l-2 39l-4 63l-6 16l-23 74l-18 23l-25 14l-70 12l-41 -4l-14 4l-22 -12v-276l-3 -76l5 -17l-2 -30l10 -27l31 -4h69zM209 670l-33 8l-4 -23h31l-4 -22l12 18zM252 88l4 16l-29 15l-16 16l-10 -8l10 -23l12 13zM221 616l-8 9l-10 -15l16 -14l23 14l-9 23zM221 346l-4 21 l14 12l-10 14l-16 -31zM410 657l-7 11l-14 10l-22 -21l28 13l-12 -19zM606 803l-6 -15l-8 -14l26 12zM156 827h-15l27 -32zM170 66l12 20l-24 -4zM573 702l23 23h-21zM188 762l13 12h-37zM637 748l-8 20l-25 6zM412 690l-23 25l4 -25h19zM178 737l25 -4l-17 21zM262 836 l27 14l-23 4zM182 588l-26 -10l20 -9zM256 946l-16 6l-2 -24zM264 303l17 4l-11 23zM260 666l-22 -15l18 -4zM586 756l-2 18l-19 -6zM281 762v20l-17 17zM455 645l24 -6l-30 20zM225 489l11 -20l-3 33zM152 874l4 -18l12 14zM176 530l-2 -10l25 2zM236 455l14 -19l-19 29 l-6 -23zM252 348l10 -8l21 2zM356 727l6 -8l5 20zM418 729h8l10 14zM528 678l-14 14l10 -12l-20 -10zM659 1198l-4 6v-6h4zM172 1087l-6 5v-5h6zM270 524l-6 4v-4h6zM715 786l-4 5v-5h4z" />
<glyph unicode="Q" horiz-adv-x="864" d="M537 -279l6 9l-19 4l6 -25l-16 2l-33 13l-57 30l-41 37l-47 62l-21 55v24l-8 33l-22 31l-68 29l-29 20l-51 47l-37 53l-26 58l-19 67l-2 43v103l-4 49l6 29l-6 26v27l2 55l4 68l-6 24l2 64l2 59v60l-4 53l4 55l-2 51l2 70l2 68l11 65l20 61l20 43l33 39l51 52l29 18 l47 23l70 20l59 8l54 2l47 -4l47 -8l43 -10l53 -27l35 -22l28 -23l37 -39l35 -49l6 -18l17 -41l8 -50l-2 -22l8 -14v-58l2 -63v-160l2 -43l-4 -63l4 -43l-4 -35l2 -43l-2 -56l4 -18l-4 -25l4 -26l-2 -25v-86l-4 -94l-2 -66l-10 -36l-2 -27l-11 -23l-22 -24l2 -23l-25 -24 l-30 -37l-60 -51l-20 -4l-11 -15l-22 -8l-33 -2l-2 -20l-31 10l-28 -27l45 2l16 -8l10 -27l76 -18l33 2l14 -8l25 -2l16 -25v-57l-6 -12l6 -48l-4 -53l-12 -20l-19 8l-20 -4l-53 -10l-66 10l-16 12l-17 4zM326 426l2 -27v-30l-6 -21l6 -33l20 -59l14 -27h23l31 -10l37 2 l32 10l27 19l16 29l15 67l-2 70l-2 65v43l4 70l-4 41l2 33l-2 80l6 36l-4 88v48l-4 81l4 37l-2 27l4 53l-2 23l-11 51l-10 25l-18 18l-53 25l-31 -3l-35 -10l-29 -20l-18 -29l-8 -33v-164l-9 -30l9 -25l-4 -53l2 -64l-4 -32l4 -54l2 -63l-4 -70l4 -75l-9 -19l11 -18l-6 -35z M625 221l18 41l-20 19l-15 -11l2 -24l-20 -13l-15 -22l19 -16l16 14l-4 12h19zM696 504l19 4l-15 16l-18 -8l-18 -16l-2 -17l-17 -16h-14l-8 -27l18 19l23 -10l-7 26l19 -8l6 -14v24l18 8zM221 494l15 22l16 25l-31 -11l-14 11l6 -13l-10 -22l-31 -53h16l7 12l34 4l-20 6 l8 33zM664 158l14 -17l16 9l-18 14h16l-30 6l12 20l-15 13l-24 10l10 -18l-6 -21l-21 -18l23 -4l10 2zM670 311l20 -8l-12 27l-25 2l27 6l37 16l-43 2l-35 -22l6 22l-22 6l6 -30l20 -6zM635 643l-25 8l17 -8l10 -20l33 -7l10 -8l8 10l-2 11l-14 10l-31 8l21 -10zM221 766 l-33 16l5 -20l30 -53zM403 119l-6 -17l25 4l8 19l-16 -4l24 37l-24 14l14 -18l-16 -11zM379 37l12 47l-22 -6l-4 -27zM637 395l2 13l-12 22l4 -16l-25 8l25 -37l-21 -10l23 2zM463 123l4 -25l12 -24l10 6l-8 16l-2 23zM489 33l29 14l-22 6l-33 2zM692 535l-6 14l27 -8 l-17 18l-24 -6l-2 -21zM221 264l31 19l12 -11l-20 21l-31 -10zM473 20l41 5l-35 8l-16 -8l-10 -7l18 -16zM375 131l22 2l-28 21l-9 -15l-20 -4zM707 768l-7 25l-12 18l-8 -27l14 -4zM713 711l4 14l-39 -10l18 -10zM479 -92l6 20l-30 21zM213 621l31 30l-21 6l-12 -6l16 -12z M684 68l23 18l-17 6l-14 -12zM639 279l10 10l19 2l-19 22zM602 -123l-4 -14h16l13 22zM559 -127l4 -25l21 29zM461 -246l18 31h-18v-31zM637 717l10 22l-12 19l8 -15l-16 -8zM535 23l-13 14l-2 -21l15 -12v19zM168 510l6 18l10 17l-24 -15zM676 776l-8 -26l22 10zM506 88 l16 -18l-8 26l-22 2zM485 -20l-18 -11l29 -10zM645 399l35 -2l-10 15zM662 932l-15 -19l43 23zM197 362l20 5l-12 18zM707 -152l-9 -16l21 -10zM553 131l20 21h-20v-21zM723 279l2 8l-18 -4l4 -17zM201 965l-25 -21l27 6zM461 158l12 -17l27 -6zM141 438h19l-10 19zM721 465 l27 6l-11 10zM641 1159l-20 -20l12 -4zM674 815l-29 -8l12 -8zM125 604l10 -26l6 16zM670 375l22 -8v14zM516 -68l-20 -20l18 -6l-6 12zM422 6h22l9 12zM586 -250l4 14l-25 -14h21zM647 252l-4 -16l16 -7zM219 571l-20 -18l16 2zM133 463l10 16l-14 2zM279 580l-13 -2 l10 -19zM618 1053l9 22l-15 12l9 -16zM311 313l-20 -6l31 -2zM686 1051l-12 8l2 -17l20 13zM403 31l23 12l-14 2zM627 965h-11l9 -19zM240 1307v-11h18zM645 260l17 4l14 15zM688 -104l-6 -9h20zM240 791l-11 16v-16h11zM297 125l20 4l-20 4v-8zM690 209l17 -10l-29 26z M182 698l-4 -8l8 -12zM221 395l6 -35v19zM260 164l-2 6l-6 -16zM668 954l-2 -12l10 33zM686 426l10 4l-24 -4h14zM608 123l10 12l-18 -16zM723 145l2 -10l4 6zM737 412l-10 14l-12 12zM272 356l-10 -4l-2 -6zM682 670l-2 -21l2 6v15zM229 829l-6 5v-5h6zM645 844l-4 4v-4h4z " />
<glyph unicode="R" horiz-adv-x="901" d="M848 35l-17 -33l-38 -4l-76 -4l-37 4h-68l-24 16l-23 66l-14 53l-16 64l-3 30l-14 21l-6 31l-12 47l-15 45l-4 30l-20 68v16l-12 21l-5 24l-12 48l-18 18l-27 4l-18 -14l-7 -33l3 -33l-3 -63v-60l3 -59v-59l-3 -62l3 -61v-58l2 -65l-25 -33l-25 -4l-26 2l-55 -2l-21 14 l-27 -14l-61 2l-25 10l-8 25v301l-2 57l12 23l-12 45l21 4l-21 4l2 29v71l-4 64l2 65l2 52v49l2 61l-2 70l-2 63l2 58l-2 51l4 26l-2 66v63l-2 64l2 59v56l6 26l19 19l26 2l64 2l72 -4l18 4l59 -2l62 -4l26 2l56 4l49 -2l39 -13l59 -16l35 -16l43 -29l18 -23l33 -43l31 -61 l8 -29l10 -57l9 -53v-56l2 -45v-69l-2 -56l-11 -71l-18 -66l-21 -37l-36 -43l-35 -28l-41 -19v-33l20 -71l21 -66l20 -63l19 -64l18 -67l21 -70l20 -63l16 -56zM446 829l33 -2l31 9l29 16l20 39l6 33l8 65l-2 25v57l-6 70l-8 35l-14 30l-25 27l-78 16h-32l-29 -6l-12 -37 l-5 -73l3 -54v-59l-3 -57l5 -54l-2 -55l8 -25l37 -6zM293 485l-31 -20l-6 -12l-18 -9l-9 -14l-2 -20l15 10l-2 16l26 4l-10 -22l31 2l-19 -6l23 -21l6 35l-21 14l3 21zM180 791l-10 -29l45 16l-18 4l8 37l6 6l33 25l-6 12l-9 -18l-34 -2l-15 -27l15 -31zM246 584l20 16 l-10 21l-14 -23l-23 -16h19l4 -29l10 14l16 -2l-6 23zM631 305l6 23l18 18l-12 35l-10 -23l-10 4l14 -14l-27 -33zM190 612l-16 -18l-16 -10h37l10 43l-21 20zM567 356l-2 -6l41 -10v25l-6 22l-6 -18zM182 1288l11 -16l-3 -29l15 -22l12 18l-14 21l2 8zM625 950l10 -8 l29 -18l-15 32l23 2l-35 3zM307 1305l19 14l-17 10l-20 -10zM203 657l8 -12l22 25l25 8l-37 -8zM719 969l-12 10l6 -25l20 11l-10 20zM545 651l18 19l-31 -11l-4 -12l7 -8zM301 670l14 18l-39 -4l21 -8l4 -19v13zM709 999l-2 21l-17 -10l-18 4l16 -10zM258 975l18 10h-26 l-4 19l-6 -21zM696 930l-22 16l4 -28zM229 737l37 -12l-14 20zM283 870l10 21l-35 -17zM172 852l-6 14l-6 -35l16 9zM266 795l-14 8l-12 -2l16 -19zM713 895l4 14l-27 -24h21zM680 270l18 4l-32 19zM293 782l18 -20v24zM248 823l-27 4l12 -8l11 -16zM279 242l10 12l-21 -2 l-12 -6zM590 311l2 23l-21 -25zM279 1030l-27 -14l35 4zM655 1063l-12 -19l19 -4zM723 946l10 -14l15 16zM219 319l10 -10l11 25zM176 672l4 -15l19 15h-23zM256 750l12 12l-16 8zM238 1069l-13 -8l31 -4zM602 506l4 -17l17 9zM168 528h-12l12 -22v22zM268 1247l-14 -6 l14 -12v18zM133 436l19 8h-17l-18 -14zM684 1137l-14 4l2 -19zM680 1061l2 14l-18 -6zM256 809l16 2l-4 14zM596 780h-16l10 -14zM195 578l-13 -5l25 5l-2 14zM678 803l12 -23l25 -4l-21 6zM670 1268l-8 -8l14 -7zM219 522l25 -12l-8 10zM387 735l6 -4v23zM197 434h12 l-12 10v-10zM739 1020v-10l11 -4zM285 831l20 7l-20 -2v-5zM227 1030l11 2l14 10zM152 377l-7 6v-6h7zM205 698l-4 7v-7h4z" />
<glyph unicode="S" horiz-adv-x="843" d="M807 328l-4 -33l-6 -57l-15 -31l-32 -72l-23 -29l-31 -36l-41 -29l-45 -27l-53 -20l-55 -10l-49 -4l-72 2l-59 6l-62 24l-55 31l-49 41l-37 51l-29 51l-4 23l-10 14l-13 56v28l-4 90v49l2 50l17 22l31 10l28 -4l27 2l29 -4l77 4l27 -6l14 -16l2 -31l4 -67v-66l7 -37 l32 -59l37 -25l90 -4l6 12l35 27l19 43v63l-17 66l-32 61l-2 21l-17 8l-18 27l-41 43l-41 39l-78 73l-41 41l-41 47l-41 52l-35 53l-28 53l-25 64l-4 34l18 5l-22 14l-6 43v51l6 62l12 57l16 45l35 57l45 47l54 37l61 27l27 -12l16 22h43l12 8h56l55 -4l22 -10l60 -14 l33 -17l28 -20l25 -25l14 -8l21 -27l24 -34l25 -50l14 -45l6 -53l6 -59v-58l3 -55l-9 -25l-30 -12l-52 -2l-49 2h-45l-22 10l-17 -10l-28 27l-4 24l4 27l-4 43v49l-23 66l-18 20l-39 19l-39 -2l-25 -7l-37 -30l-10 -23l-16 -55l10 -29l2 -24l18 -39l29 -54l39 -45v-14 l33 -20l24 -27l39 -37l53 -51l48 -49l-7 -29l23 10l2 -18l16 2l13 -21l24 -22l33 -55l33 -54l4 -24l20 -37l11 -41l12 -68v-73zM539 606l6 -6l22 -14l21 -4l-8 22l-17 6l-4 13l-20 4l-21 -13l12 -28zM301 887l27 -4l-35 32l-6 19l-19 12l13 -37l-17 -8l6 -14h31zM553 551 l37 -6l-25 16l17 10l-31 11l-14 -11l4 -26zM168 1104l6 -21l2 17l-4 16l10 21l-26 28l-6 -10l10 -4l6 -23l-12 -20zM625 580l-9 2l-4 -15l21 -2l20 21l-12 2l-6 20zM629 473l24 21l2 16l-14 -12l-18 16l10 -12l-21 -21zM412 766l26 -18l15 12l-45 24zM211 1096l-14 -35 l39 24zM350 827l15 -2v21l-31 -27l4 -43l2 27zM248 1049l35 20l-45 10l16 -10l-8 -10zM291 956l37 2l-21 11l-18 20zM561 717l-14 10l-4 -16l16 -13l21 2zM635 1239l6 -14l25 2l-17 18zM588 1307l20 14l-4 39l-12 -10l12 -27zM186 1245l-6 -10l-12 -25l25 11zM641 1253l2 31 l-22 -8zM201 1143l-4 -10l-11 -17l21 19l10 -33l-2 28zM549 662l-21 -9l11 -18zM625 154l-2 20l-19 -29zM463 770l10 -27l6 -6l-8 21l4 24zM721 365l-10 6l-4 -27l10 6zM541 770l-13 -22h19zM426 930l-29 -6l15 -11zM674 203l-17 -2l21 -21zM244 1262l-11 -17l19 -4z M596 430l18 -24l-6 26zM371 924l10 -23l2 -16l4 22zM606 545l-14 -25l31 31zM616 1245l2 12l-24 -2zM295 858l-29 2l6 -10zM729 356l19 6l-3 15zM647 1294l-26 4v-10zM188 1073l11 17l-19 -5zM573 131l-4 27v-15l-10 -16zM205 1235l-6 -12l22 4zM688 504l-2 -33l8 16z M721 389l-14 10l-13 -6zM682 373l-14 -15l10 -2zM649 338v-12h15zM696 317l-30 -8l2 -4zM381 944l-19 -12l15 2zM696 217l4 14l-8 5zM346 958v11l-12 -29zM659 1116l17 10l-17 -4v-6zM492 608l-9 10l-12 11zM231 958l-6 7v-7h6zM248 1024l-12 2v-2h12z" />
<glyph unicode="T" horiz-adv-x="800" d="M788 1329l5 -45l-13 -39l-39 -10l-49 8l-41 -4l-39 -2h-59l-16 -37l2 -43v-74l-4 -43l4 -30v-70l2 -63l-9 -13l7 -28l-2 -62l2 -94l-4 -18l6 -58l-2 -57l-15 -12l15 -25v-27l-2 -59v-66l2 -63v-78l-2 -49l2 -49l-9 -82l7 -17l-29 -20l-25 -4l-53 2h-63l-68 2l-23 10 l-8 21l-4 69l4 31l-2 31l-2 61l2 60v102l4 51l-4 56l2 57v106l-2 54v120l2 78l29 4l-10 29l-8 -18l-15 36l4 33l-2 78l6 16l-4 25l8 29l-8 10l4 43l-14 41l-27 2h-112l-27 6l-74 8l-4 29l-2 59v60l4 57l9 21l22 10l25 -2h55l55 -2h41l64 -2h57l55 2l11 -29v27l79 2h58l47 2 h59l54 -4l41 4l34 -13l9 -36l-3 -62v-43zM449 1348l-37 -19l12 -18l-6 -15l16 7l4 26h31l12 27l-18 12zM383 1395l14 -17l43 11l-2 18l-16 6h-14zM317 831l21 3l27 -7l-25 37l-23 -20l-24 -6zM590 1321l-17 4l-36 -14l-5 -17l19 11l20 -7zM336 1356l-6 -8l-19 4l21 -15 l6 -22l18 12zM291 1114l26 -12l7 26l-9 11zM449 1149l-17 18l-26 4l-11 -14l11 6l18 -12zM414 834l14 16l-20 33l4 -31l-15 -10zM106 1386l13 -14l18 12l-18 19zM475 1378v-14l17 -6l30 -21l-24 27zM393 399l45 -2l-39 19zM375 582l20 -4l-6 24l-14 -2v-18zM137 1333l27 -2 l-27 29v-27zM348 1411l25 -29l-6 21l-19 29v-21zM362 899l-6 -12l21 -8l4 20h-19zM461 926l-23 -13l2 -20l9 16l8 -4zM442 354l-6 8l-10 13l-6 -29zM305 1403l2 33l-16 10zM608 1370l17 14l-13 15l-6 -10zM727 1415l4 10l-22 2l6 -18zM446 733l21 -2l18 10l-20 2zM410 801 l2 24l-21 -16zM557 1391l8 -23l17 10zM375 444l12 -4l-10 15l-25 10zM487 1409v-25l27 23l-14 -8zM469 1286l4 21l-18 4zM371 1112l-15 4l-6 17l-4 -23zM532 1260l9 12l-33 -10zM356 403l23 -18l-6 16zM557 1368l-10 -27l10 2v25zM465 1421l-8 -16l16 2zM352 1239l-4 10 l-18 -12zM209 1362v-14l14 14h-14zM346 1288l-22 25l12 -23zM319 1386l-12 3l12 -19v16zM371 805h-17l17 -10v10zM346 379l-6 6v-6h6z" />
<glyph unicode="U" horiz-adv-x="937" d="M848 1014l-4 -4l-2 -70l4 -55l-17 -15l13 -4l4 -24l-2 -31l2 -59v-64l-2 -63l4 -58l-4 -28v-47l4 -27l-2 -25l-2 -67l4 -58l-6 -22l2 -23l-8 -24l-17 -60l-33 -59l-38 -49l-50 -43l-65 -35l-17 -2l-49 -14l-57 -9l-51 -2l-60 2l-30 9l-60 14l-57 27l-25 18l-45 43l-39 45 l-12 25l-20 49l-9 41l-8 51l-4 80l4 14l-4 66l4 57l-4 29l4 41l-4 57l2 53v105l-2 86l4 51l-4 37v125l2 67v64l-2 67l4 21l-4 29l4 45l-2 55l17 31l49 4l67 -2h64l57 -4l16 -21l3 -27v-116l2 -62l-5 -14l5 -16l-5 -33l3 -60v-59l-3 -66v-137l5 -65l-5 -47l3 -33v-127l-5 -62 l5 -32v-129l2 -64l12 -35l22 -37l27 -10h72l30 6l25 25l14 33l11 63l-2 74v68l2 65l-5 25l3 26v56l8 47l-6 26v156l-2 63v72l-3 66l7 28l-7 52l5 34l-2 54l-3 57l11 57l-8 27v35l6 30l37 13h69l64 -8l30 6l35 -2l23 -15v-45l6 -24l-4 -25l2 -65l-4 -74l4 -31l-4 -37l4 -14 l-8 -53l6 -17zM770 1239h-6l-8 6l-4 35l-25 -6l23 -29l-19 -35v-18l8 18l31 19h14zM741 1096l4 -21l-6 -12l-12 -8l-18 14l-19 -39l15 12l16 2l18 -4l-4 11l10 24l17 2zM719 649v19l-17 12l9 16l-19 -18l2 -21zM713 1247l8 19l-25 -2l9 -27l22 -2zM684 1079l-10 11l-8 -17 l24 2l-2 19l-18 16v-10zM795 1151l4 20l-25 3v-19zM729 850l4 -16l10 -27h7l-15 22l13 21l-9 16zM782 905l-2 21l-14 12l-6 -16zM659 1026l-12 2l23 -10l-6 -17l16 33l-21 8v-16zM702 883h15l-25 6l6 26l-18 -20l6 -14zM643 799l-8 -17h37zM750 1372l-21 -6h16l11 -10l4 22 l-15 11zM772 1190l-20 12l12 -22l29 2zM694 987l23 17h-35zM756 1151l-11 -14l-16 -13l21 -2zM215 745l25 -18l-7 23zM674 1376l-2 -45l4 29h18zM717 1010l10 16l16 -2l-26 12v-26zM604 498l10 18l-20 -6zM694 1231l-18 -4l18 -13v17zM768 770l10 31l-6 10zM719 1167l16 23 l-12 -14l-16 16zM692 1118l6 12l-16 5zM725 1143l20 20l-12 -6zM743 1296l-6 7v-17zM662 803l12 -4l2 6zM672 565l-6 6v-6h6z" />
<glyph unicode="V" horiz-adv-x="860" d="M459 668l8 14v16l-10 15l10 55l8 61l14 56l5 55l18 84l2 31l8 51l13 72l12 67v31l8 24l8 62l10 65l11 35l28 17h142l57 4l27 -15l4 -34l-8 -31l-5 -31l-12 -24l6 -17l-12 -45l-4 -37l-12 -30v-37l-9 -19v-24l-10 -60l-8 -26l-10 -62l-13 -28l-2 -25l-8 -49l-24 -119 l-11 -49l-10 -47l-2 -27l-6 -41l-14 -49l-2 -29l-15 -51l-12 -65l-8 -60l-10 -51l-15 -43v-18l-6 -45l-12 -62l-15 -59l-4 -41l-20 -31l-62 -6h-114l-70 8l-12 21l-15 57l-2 35l-14 57l-14 76l-13 65l-12 60l-8 57l-10 31l-13 65l5 27l-15 29l-10 53l10 10l-12 12l-14 54 l-2 32l-15 64l-10 55l-14 64l-2 37l-13 28l-4 31l-10 70l-14 65l-15 74l-14 61v25l-10 24l6 15l-14 31l-9 67l23 21l33 2l49 2h61l66 -2l37 -19l6 -22v-21l10 -26l2 -27l8 -51l8 -56l11 -53l10 -69l6 -50h-14l20 -32l6 -39l13 -66v-30l10 -35l10 -68l14 -70l3 -32l8 -60 l-2 -30l20 -27l12 41zM489 240l11 -21l12 8l-27 29h-39l3 -14l-29 -19l22 -4l35 31zM279 803l-11 -17l21 -14l14 -4l-6 39zM481 193l8 22l-20 -12l-14 -23l12 -12zM319 256l-4 -14l15 -15l18 15l-10 10zM281 520l20 -14v33l-12 8zM461 137l-17 31l-22 -4zM369 238h24v18h-16 zM180 885l23 -6l-4 28l-19 -6l15 -8zM588 930l-8 -10l14 -19l10 8zM319 502l3 -19l14 9l4 14zM295 569h29l-19 19zM578 584l24 4l-6 16zM250 1012l-33 -17l21 -2zM248 553h24l-16 16zM428 281l-25 -2l19 -15zM518 375l27 24l-23 2l6 -14zM430 385l4 -20l15 -3l-7 13z M213 801l25 4l-39 8zM623 772l20 2l-10 17zM207 940l-12 -20l16 8l-4 30v-18zM356 440h-18l12 -16zM287 479l4 -20l8 30zM424 352l-29 4l17 -12zM268 1042l-8 19l-8 -14zM242 766l2 -14l18 -13zM539 903l4 -14l12 14h-16zM541 449l4 12h-19zM573 864l11 -22l12 -8zM594 750 l20 -9l-24 13l-10 -15zM602 625l4 4l-16 16zM262 532l4 -6l15 9zM338 537l-14 8v-8h14zM532 162l-2 14l-10 17zM588 866l-6 6v-6h6zM516 532l-2 -6v-12z" />
<glyph unicode="W" horiz-adv-x="1265" d="M1233 1479l14 -31l-6 -37l-8 -55l-10 -68l-15 -82l-10 -63l-8 -23v-24l-10 -64l-9 -16l3 -33l-13 -43l-6 -47l-8 -51l-6 -43l-11 -35l-2 -27l-14 -69l4 -17l-6 -20l-10 -70l-17 -29l7 -26l-5 -17l-8 -61l-8 -22l-2 -46l-10 -38l-12 -76l-13 -72l-8 -61l-14 -78l-17 -33 l-51 -4h-57l-56 -4l-57 18l-10 25l-12 72l-11 47l-12 84l-8 63l-10 72l-13 55l-8 47l-12 68l-6 51l14 6l-20 23l-9 67l-8 27l-4 39l-16 24l-17 -53l-8 -63l-10 -72l-8 -53l-13 -62l-14 -78l-8 -61l-6 -55l-8 -29l-9 -55l-10 -58l-12 -71l-8 -49l-23 -23l-29 -4h-143l-27 4 l-18 16l-8 62l-10 24l-2 29l-11 59l-10 62l-10 55v27l-8 22l-2 23l-13 51l-8 68l-4 49l-8 16l-8 64l-9 47l-8 67l-12 56l-12 65l-9 56l-6 45l-8 32l-6 60l-16 57l-4 57l-9 23l-2 39l-12 67l-10 66l-13 61v33l19 19l33 6h30l66 -4l35 4l45 -2l28 -27l9 -29v-18l10 -68l8 -61 l8 -64l8 -61l11 -63l8 -62l6 -74l8 -28l6 -56l9 -53l8 -57l4 -68l24 -22l-2 18l7 25l4 51l8 27l8 53l8 28l-2 25l15 68l6 55l8 27l8 51l-2 24l6 23l17 72l-3 18l5 27l6 45l6 18l4 47l10 62l21 39l69 8h62l59 -4l17 -15l8 -28l12 -84l4 -70l12 -23l9 -47l6 -63l12 -64l6 -57 l8 -55l13 -76l8 -27v-24l8 -60l12 -71l13 -35l12 18l6 58l14 30l-8 11l10 39l5 40l4 60l8 61l8 56l12 65l4 70l13 47v39l8 57l10 62l10 63l15 21l30 6l70 2l72 -2zM319 637l-8 -4l-4 16l-39 -10h-16l8 -16l16 -5l17 -12l26 -4l-8 14zM909 231l-12 21l-10 16l-6 -20l4 -17 l-35 33l-8 -26l18 -17l-12 27l37 -23l-19 -12h27zM279 467l-11 -12l25 2l31 20l8 15l-10 6l-33 2l12 -17l-22 9v-25zM346 272l19 2l-19 25l-14 -8l-10 8l2 2l-15 -14l13 8l-5 -23l7 -26zM680 1032l18 4v-18l9 -25l12 25l-4 24l-13 -2v21l-12 -17l-33 -18l17 -10zM311 416 l15 8l16 -23l8 17l-31 16l-16 19l-12 -13l16 -20l-16 -23l16 9l10 -19zM643 1124l-20 9l-19 8l-16 -13l28 -34l9 24zM356 596l-24 -6l-23 -10l-37 18l17 -14l-8 -25l41 10l-3 -12l11 21zM346 301l19 18l16 21l8 18l-4 27l-23 -25l9 -24l-15 -14zM256 543l8 -25l19 6l18 17 l-20 -9l-2 23l-23 12v-24zM614 1020l13 10l-21 2l-2 17l-18 -15v-20l14 -13zM270 389l19 10l-17 35l-18 -10l6 -21zM516 721l-27 22l3 19l-9 -29l13 -16l2 -23zM461 397l-17 15l-12 16l4 -16l-14 6l20 -37l9 12zM272 680l-8 -12l6 -4l29 8l-12 14l-8 19zM430 467l-6 -12 l33 14l4 27zM983 903l8 -29l13 -16l12 23h-15zM219 707l23 -11l22 -8l-6 21zM1004 662l-21 6l-12 -19l26 -2zM256 852l-16 -4l18 -21l33 13l-21 -6zM1024 1190v-14l14 -9l11 23h-25zM1036 799h29l-16 12l-15 18zM442 326l31 14l-35 8zM1001 623l17 -5l-21 19l-18 -8l20 -21 l-8 15h10zM766 793l-12 14l-4 -19l18 -20zM506 956l-4 -20l14 10l14 -10l15 20l-15 -10zM563 1145l8 22l-18 -4l-6 -18h16zM743 725l25 -20l-12 32zM956 571l-10 -6l21 2l-4 -18l10 14l-8 25zM672 1223v-33l16 12zM299 307l16 23l23 -6l-41 14l6 -19zM506 864l-6 -22l28 16 l-2 4l-16 -8zM371 391l-11 12l13 15l-29 -23zM629 1235l-19 14l-14 29v-23zM393 236l17 -19v23zM700 795l33 6l-12 8zM322 446l14 13l-8 16zM1022 741l-23 13l5 -17zM791 592l18 6l-39 4zM688 1055v12l19 10l-21 4zM825 188v2l4 17l-14 -2zM756 623l-6 14l-7 -10l-16 -2z M223 684l-18 18v-12zM741 1122l2 15l-16 -7zM633 1161l16 -14l-14 24zM156 1137l-13 -4l11 -13zM694 911l11 -2l-13 19zM164 981l24 6h-24v-6zM453 252l-7 16l-2 -18zM406 436l-5 6l-18 -4zM479 377l4 10l-18 -16zM328 524l14 -2l-14 10v-8zM1067 1243l-6 -2l-2 -18z M598 1192l2 -10l6 20zM659 1063l-4 -14l15 30zM924 133l-6 4v-4h6zM246 731l-6 4v-4h6zM309 1001h-4l4 -4v4zM324 303v-2l6 16zM492 764v-2l2 24z" />
<glyph unicode="X" horiz-adv-x="819" d="M817 43l-10 -39l-43 -4l-59 -4l-60 -2l-55 2l-33 12l-18 29l-4 31l-27 63l-14 68l-19 49l-4 55l-12 8l-15 37l-14 66l-18 35l-19 -19l-6 -29l-16 -43l-17 -55l-16 -49l-16 -57l-15 -15l4 -16l-24 -74l-19 -65l-20 -23l-27 -6h-92l-27 8l-18 -10h-39l-31 6l-12 29l4 28 l31 80l24 64l9 37l18 30l18 62l23 67l21 52l16 47l29 71l20 64l27 76l16 16l-6 16l4 29l-20 53l-15 45v27l-24 35l-25 76l-4 38l-18 23l-23 76l-23 65l-10 19l-24 63l-15 45l-18 54l-21 55l7 26l24 9h57l70 2h74l33 -11l22 -55l16 -63l17 -58l24 -82l17 -51l-6 -20l18 -23 l19 -55l18 18l12 23l2 20l13 50l8 16l18 59l15 62l18 59l12 45l15 45l30 21l43 -19l-12 19l27 2l55 -2l57 -2h43l21 -19l-2 -26l-10 -27l-25 -61l-18 -56l-27 -82l-19 -32v-23l-14 -37l-26 -65l-29 -74l2 -4l-10 -15l-2 -32l-17 -31l-8 -29l-20 -65l-9 -49l11 -27l20 -59 l8 -37l17 -29l-9 -27l21 -18l12 -27l19 -61l16 -59l14 -29l19 -57l12 -33l23 -68l26 -61l4 -29l25 -78zM592 475l-4 10l-4 15l-19 -15l-20 2l6 -24h27l2 -14zM260 389l29 10l10 -24l27 18l-35 17l-4 8l-25 -10zM453 600l41 -2l-11 25l-20 2l-17 -17zM557 1106l-10 12 l-15 -24l7 -23l18 10l-8 11zM362 651l11 23l30 8l-12 10l-33 -12zM381 858l-29 16l8 -16l-18 -4l-6 -16l20 4l15 16h10zM467 723l29 -2l-13 18l-22 2zM227 1278l-10 -18l6 -7l23 9l-6 12zM612 276l4 25l-24 2zM444 651l17 11l-8 10l-13 6zM252 1307l-21 20l-8 -18zM96 106 h27l-6 21zM520 586l-12 4l18 -23l4 17l-12 18zM567 1174l-4 -23l27 14zM266 322l-20 14l4 -25zM489 936l-8 -27l27 -16l-19 20v23zM322 371l8 10l-29 -16l14 -9zM289 500l-8 -19l22 4zM481 877l8 20l-22 -12zM561 203l37 4l-27 6zM561 424l10 -16l-6 38zM326 670l16 -8 l-2 18zM520 842l-12 12l4 -23zM498 567l-13 -6l29 -2zM344 731l2 -8l14 12zM252 1174l-16 20l10 -18zM586 1085l16 -4l23 -2zM131 117l4 6l-6 4zM631 1184l-8 6v-6h8zM549 547l6 2l-6 4v-6zM176 1225l10 14l-2 2zM510 682l-4 6v-6h4zM563 623l-6 4v-4h6zM485 713l-6 4v-4h6z " />
<glyph unicode="Y" d="M848 1464l-12 -57l-21 -61l-24 -72l-13 -12l2 -25l-16 -47l-16 -45l-15 -47l-20 -58l-23 -65l-28 -62l-3 -36l-14 -33l-16 -58l-21 -57l-20 -59l-19 -60l-12 -14l10 -25l-2 -57v-65l2 -58l-4 -24l4 -54l-4 -59l4 -18l-4 -19v-63l4 -78l-2 -53l-18 -21l-33 -6l-29 2 l-55 -2l-59 2l-58 2l-18 20l-2 31l-2 60v211l4 32l-4 70v53l4 64l-4 16l6 33l-8 24l-21 68l4 31l-14 -6l-18 57l-11 41l-22 57l-23 70l-26 72l-2 26l-23 53l10 21l-24 29l-13 38l-22 70l-21 51v21l-10 26l-18 50l-17 69l15 19l24 4h150l67 -6l15 -15l14 -53l21 -64l14 -61 l8 -14l6 -27l15 -51l18 -60l21 -75l18 -70l18 -12l15 26l6 31l18 70l19 67l10 37l12 51l17 56l14 59l14 35l21 65l67 11h74l16 -4l54 6l26 -4zM408 780l-27 -4l4 -33l18 17l19 8l47 16l-14 19l-21 26l-20 5v-13l18 -10l12 -27zM238 1315l-25 18l4 -18l16 -12l-6 -41l37 12 v18h-24l8 15zM197 1239l10 21l-27 -11l25 -28zM186 1190l-4 14l6 25h-20zM268 979l29 -12l-6 28l-6 -16h-17zM426 612l4 27l-16 -12zM518 979l-12 6l16 -18l15 14zM238 1196l10 -10l14 18zM231 1153l15 16h-21zM399 733l15 -28l-2 26zM254 1077h25l-17 13zM586 1077l-8 -14 l8 -21v35zM262 1233l-8 18l-25 -6l15 2zM174 1384l4 -12l15 17zM358 666l17 4v14zM498 813l12 -6l-2 18zM451 498l2 -15l10 15h-12zM344 1059l-25 -21l-4 -10zM547 827l6 19l-10 -12zM328 664l10 6h-16zM635 1018l-8 8v-8h8zM459 334l-6 4v-4h6zM203 1427l-6 5v-5h6z" />
<glyph unicode="Z" horiz-adv-x="813" d="M772 1442v-31l-2 -29l2 -57l-12 -49l-19 -51l-12 -17l-10 -45l-31 -47v-26l-8 -17l-14 -47l-19 -43l-14 -41l-41 -94l-4 -21l-21 -26l-4 -33l-41 -102l-20 -54l-23 -57l-22 -55l-19 -51l-14 18l8 -23l-6 -26l-12 -25l-25 -65l-22 -68l22 -16l37 -2h131l53 4l60 -4l67 -2 l23 -27v-37l2 -67l2 -80l-10 -21l-37 -8l-78 -4h-53l-58 2h-120l-64 -4l-27 2h-129l-47 -2l-10 4l-10 -4l-37 2l-27 18l-6 37v113l12 45l21 41l18 55l17 45l18 41l15 39l12 19l14 49l19 49l16 47l14 29l25 61l24 55l23 54l14 49l21 47l16 47l25 51l22 60l41 106l25 55l-2 21 l-23 10l-32 -2l-25 4l-64 -4h-71l-64 2l-55 -2l-27 6l-8 62l2 57l4 57l-10 25l14 24l23 13h53l66 -2l24 4l54 -2l51 -4l55 4l51 -2l62 4l49 -4l45 2h102l23 -13zM512 1417l-16 -4l8 -16l20 -11l-14 -16l-2 -16l20 -6l7 28zM422 856l29 -16l-9 14l17 14l-17 -4l15 25l18 18 l-12 17l-14 -15l6 -12l-21 -16l2 -25h-14zM543 948l20 6l-24 43l-27 -20h16l17 -6zM569 1376l2 -14l23 8l6 -24l-2 -13l25 8l4 23l-17 -18l-20 32zM526 866l-8 6l-24 2l-5 -16l21 -10zM528 1171l-18 -16l29 -16l14 10l-12 4zM215 176l-35 2l17 -35l2 27l32 -10zM633 1247 l-12 13l-11 -21l-24 14l6 -22h12zM209 106l12 -10h15l-7 8l-4 31zM455 958l-9 -16l25 2l12 19zM344 707l-16 -15l37 -6l-9 19zM512 1040l18 -18l-2 20l-24 25zM543 1104l6 8l-21 14l-10 -20zM551 1311l6 16l-18 10l-2 -24zM498 1026l12 6l-31 4l4 -22zM399 614v15l13 14 l-25 -6zM530 924l-12 -13l19 -14zM676 1327l22 -4l-4 16zM530 936l-2 10l-14 15v-15zM305 522l10 17l-24 -7zM406 741l-19 11l19 -21l14 6zM424 1290l-12 19l-9 -15zM662 1292l16 8l-19 9zM571 1241l-6 -8l25 -2zM567 1202l-37 29l17 -19zM481 1296l2 19l-14 -29zM401 565 l7 15h-11zM575 1012l-8 -13l23 19zM539 725l-7 6v-6h7zM328 506l-4 8v-8h4z" />
<glyph unicode="[" horiz-adv-x="550" d="M457 -172l2 -25l-8 -22l-25 -10l-29 2l-59 -2l-57 4l-27 -4l-66 2l-47 -2l-51 2l-39 18l-4 25v57l4 18l-2 29v64l-2 65l2 57v117l2 58v116l-2 60v59l6 72l-8 43l4 33l-2 63l-2 55l6 54l-6 45l4 28l-4 52l-2 69l6 27l-2 26l-2 56l4 55v51l-4 55l4 25l-4 41v59l4 54v53 l-2 59v76l10 33l29 6l64 4l57 -2h123l55 -2l27 4l41 -16l6 -29l-2 -63v-60l-21 -20l-59 -2l-31 4l-67 -4l-21 -15v-121l2 -53v-119l-2 -59v-59l-2 -60v-65l2 -43v-115l-2 -61l2 -68l-6 -25l6 -26l-4 -29l4 -53v-53l-4 -52l4 -24l-2 -23l4 -32l-2 -29l-2 -55l2 -72l2 -57 l-4 -54l4 -26l-6 -68l6 -29l31 -16h43l57 2l56 -8l14 -39l-6 -27l6 -18zM272 1640l-8 -6l12 -12h35l-14 12zM154 1116l8 -26l14 10zM307 -164l-14 21v-7l4 -4l-18 4l-9 -20l19 14l8 2zM162 1419h-15l-14 8l17 -22zM115 1210v-14l26 14h-26zM193 1057h-17l-16 -21zM190 1442 l15 12l-23 2zM330 -139l10 2l-14 14zM276 -141l-22 16l12 -16h10zM162 1239l8 -10l-10 -15l16 13zM272 1550l9 2l-17 13zM225 -115l17 4l-23 2zM137 932l-6 4v-4h6z" />
<glyph unicode="\" horiz-adv-x="497" d="M563 -90l-2 -41l-47 -12l-27 4l-28 -4l-31 2l-41 32l-8 23l-14 51l6 47l-15 -12l-24 86l-15 45l-8 47l-18 58l-12 38v31l-15 23l-8 28l-14 60l-15 63l-20 58l2 30l-12 23l16 -6l-23 30l7 11l-17 18l-12 55l-21 64l-10 57l-20 66l2 45l-17 2l-6 29l-14 55l-21 69l-2 25 l-12 27l-2 22l-8 19v18l-14 45l-11 21l-2 20l-14 61l-23 62v18l-8 31l-14 47l-12 47l-9 41l35 27l62 4l57 -2l27 -35l12 -35l16 -61l11 -49l16 -45l10 -52l14 -51l15 -49l16 -59l17 -58l12 -55l14 -53l15 -49l14 -54l12 -45l12 -51l17 -55l14 -51l14 -45v-19l9 -26l16 -70 l23 -80l14 -37l-2 -18l10 -15l8 -43l19 -63l14 -59l21 -66l12 -53l16 -68l29 -94l2 -27zM246 836l-29 -13l8 -14l47 14zM39 1456l16 -18l-6 14l12 18l-12 25l-14 -22zM205 891l18 8l-39 12l9 -22zM303 512l29 10l-25 15zM356 461l-18 -4l-19 4l-10 -27l10 17l19 -2zM367 203 l20 -13l-2 21zM219 907l-12 25h-21l21 -10zM367 344l-5 -10l25 -10zM446 16l-4 -12l17 -18zM135 1157v-14l19 4zM328 254l8 -2v27zM457 -49l-8 18l4 -35zM283 494l12 4v12zM248 643l22 2v2z" />
<glyph unicode="]" horiz-adv-x="550" d="M502 92l2 -29l-2 -59v-176l-8 -47l-37 -10h-37l-49 4l-52 -6l-63 2h-131l-25 10l-8 35l-4 59l4 57l19 25l34 2h123l23 16l4 35l-4 68v55l2 55v115l-4 53l4 23l-2 27l4 47l-2 53v69l-2 60l2 72v129l6 63l-4 19v51l-4 69l4 72l-4 35l6 37l-6 28l4 43l-4 23l2 49l2 59l-4 52 l2 47l-4 24l-29 15l-33 -2l-61 4l-35 -4l-33 12l-10 35l2 39v65l10 27l27 12l68 -2h172l59 4l33 -2l30 -8l13 -27v-30l2 -72l-6 -21l6 -28l-2 -62v-73l-2 -52l2 -57l2 -72l-2 -49l2 -57l-4 -64l2 -32v-113l2 -66l-2 -59l-2 -55l4 -60l-4 -65l2 -31v-68l4 -53l-6 -55l4 -51 l-2 -68v-170zM401 582l31 14l-24 20l-7 -18l-24 2zM190 1618l25 2l18 16l-10 9l-12 -15l-12 6l2 19l-13 -15zM430 1434l-18 2l-13 -9l19 -4l14 -12l10 10zM418 1282l-21 2l-18 -14l14 -2zM414 1171l-27 9l19 -25zM377 307l22 -2l23 -8l-29 20zM422 1380l-2 9l-27 -5l19 -2 l4 -16zM375 106l16 7l-8 20zM381 1276l6 12l-29 4zM414 936l-21 -2l37 -2l2 14zM356 -49l25 -8l-6 16zM387 643l4 14h-24zM362 963l-14 -19h19zM416 854l-29 -18l19 6l-9 -27zM276 1624l13 16l-25 -2l12 -8v-6zM401 1075l23 12l-4 11zM397 195l9 -15l2 21l-27 -13zM416 887 l2 22l-12 -24zM406 1196l6 33l-9 -19zM453 1380l-4 6v-6h4zM365 354l-7 4v-4h7zM360 1114l-4 4v-4h4z" />
<glyph unicode="^" horiz-adv-x="1110" d="M1010 676l6 -37l-29 -21l-39 3l-22 -5l-27 2l-47 -4l-51 4l-23 11l-16 24l-29 66l-26 76l-19 45l-20 59l-11 10l-10 31l-29 64l-26 69l-14 37l-23 35l-14 -12l-17 -33l-26 -68l-17 -47l-20 -45l-31 -72l-22 -59l-21 -55l-25 -66l-32 -59l-25 -11h-90l-53 -2l-51 5l-15 16 l19 72l18 36l33 80l20 19l4 39l27 55l23 55l30 70l17 45l14 29l25 59l24 64l33 75l14 23l19 47l16 47l19 21l24 10l27 -4l26 4l21 -6l22 4l37 -2l29 4l20 -10l15 -19l14 -33l29 -61l18 -43l-2 -19l31 -47l26 -55l21 -51l-2 -23l20 -24l7 -29l-21 -4l18 -2l17 -14l-2 -17 l16 -6l12 -37l29 -76l19 -51l-23 -2l37 -20l-10 -39l26 6l33 -78zM784 950l13 -18h20l-26 31l-29 8l8 -13v-38l18 10zM676 1065l14 -14l12 -9l19 21l-21 -2l-14 10zM711 1008l24 -15l-12 17l-23 22l-12 -16zM584 1389l20 4l-35 26l-2 -26l11 12zM625 1169l32 19l-20 -4l4 24 h-8zM606 1432l-2 -19l19 -31l-2 29zM567 1266v8l-18 14v-22h18zM336 971l-8 8v12l-11 -22zM315 920l-6 -19l15 19l-15 12zM467 1237l-8 12l-27 19zM653 987l9 4l-11 13zM809 784l4 4l-18 13zM438 1200l-6 19l-10 12zM780 985h-14l25 -4zM750 862l-7 8v-8h7z" />
<glyph unicode="_" horiz-adv-x="800" d="M829 -215v-25l-2 -43l-16 -16l-25 -4l-26 2l-55 -2l-58 2l-33 -4l-55 2h-67l-19 8l-10 -4l-14 6l-9 -10l-22 2l-25 -4l-63 2l-72 4l-59 -4h-66l-55 2l-70 -4l-24 10l-13 25v47l2 57l31 25h143l9 -23l2 23l24 4l33 -4l37 2l70 -2h61l59 4h70l39 -13l20 11l62 -2l10 -15 l4 15l45 2h60l47 -2l26 -15l6 -28zM625 -244l16 25l-20 -8l-3 22l-14 -2l12 -45zM346 -227l14 -2l-4 22l-24 -4zM481 -254v23l-20 -19zM623 -174l12 -23l10 15zM498 -225l10 12l-27 -8zM307 -223l2 10l-18 2zM389 -225l10 6l-8 10zM449 -156l18 -16l-4 10z" />
<glyph unicode="`" horiz-adv-x="327" d="M262 1659l8 -31l-4 -29l-35 -10h-98l-12 10l-25 11l-24 43l-15 12l-24 43l-27 27l-6 16l-14 10l-23 39l-33 41l-22 39l6 21l23 6l28 -4l37 6h113l37 -8l16 -25l27 -51l6 -31zM104 1774l-4 6l-20 35l4 -27zM16 1872l-6 6v-6h6z" />
<glyph unicode="a" d="M838 70l4 -25v-22l-27 -25h-20l-50 2l-26 -4l-55 2h-54l-30 16l-11 33l-2 43l-4 33l-8 24l2 21l-8 20v27l-8 47l-17 39l-57 -2h-57l-60 2l-24 -10l-11 -27v-24l-10 -58l-12 -63v-37l-10 -51l-17 -25l-26 -8h-164l-31 6l-22 19l12 71l14 74l12 82l11 45l2 27l10 55l10 49 l21 127l12 53l2 37l8 37l8 63l15 17v39l6 43l12 73l12 66l13 63l8 50l8 57l12 61l11 58l8 55l8 27v26l8 27l4 41l19 31l24 8l58 -4h59l29 4l39 -2h51l29 -8l14 -21l14 -55l6 -58l13 -63l10 -72l8 -47l14 -53l2 -35l13 -67l14 -68l10 -62l15 -65l-4 -18l10 -23l8 -72l14 -65 l6 -47l11 -47l6 -48l14 -69l6 -51l11 -56l24 -127l8 -61zM379 537h31l61 2l25 22l-7 47l-12 84l-6 47l-14 84l-4 54l-11 59l-14 27l-16 -54l2 -22l-6 -35l-11 -72l-8 -53l-10 -51l-6 -51l-11 -64zM608 485l31 7v8l-37 10l-6 -21l-12 -20h-17l-12 14l-27 -8l35 -18l23 4z M549 420l18 -12l8 -17l11 29h-37zM256 965l-6 -23l26 -18zM541 938l-13 -2l9 -27l14 15zM389 1112l14 23l-20 -7l-12 -18zM406 1225l-5 -8l23 -15l4 17zM358 379l25 8l-12 21zM375 1253l-13 7l-6 -19l35 10zM246 891l2 -19l22 35zM510 1038l-14 -16l30 2zM238 236l12 18 l-23 4zM571 1020l-8 12l-26 10l12 -12zM586 1100l-2 -19l18 -4zM254 707l-21 12l5 -19zM408 496l16 -21l-4 19zM535 354l6 21l-17 -23zM502 944l-10 19v-19h10zM332 393l6 8l-12 13zM442 1270v-8l21 10zM492 1315v-10h12zM537 535l12 -13l20 -26l-14 22zM352 1094l-18 -2 l22 -2zM410 1241l-11 2l27 -6z" />
<glyph unicode="b" horiz-adv-x="876" d="M844 375l2 -27l-4 -24l-4 -58l-13 -49l-22 -63l-17 -25l-36 -43l-52 -43l-28 -14l-54 -19l-24 -4l-60 -4l-55 -2l-51 -2l-61 -2l-70 2l-59 2l-60 -2l-53 2l-29 31l-2 32l-2 68l2 64l2 73l-4 64v65l2 68v102l2 41l-6 43l6 92l-2 58v57l-2 60l2 61l-2 63l4 33l-2 37v111 l-2 63l4 60l-4 51l2 53l25 31l39 4l24 -2l51 -2h107l27 4l63 -2l66 -2l63 -4l74 -17l35 -14l55 -33l20 -22l45 -62l23 -59l14 -60l2 -65l4 -68v-63l-6 -56l-10 -55l-20 -37l-37 -57l-37 -31l-2 -22l43 -33l33 -39l28 -57l13 -47l8 -52l2 -51l4 -47zM573 373l7 37l-2 30 l-7 64l-10 61l-12 31l-55 47l-64 4l-53 -2l-15 -27l5 -65v-68l-5 -45l3 -59v-59l2 -64l14 -22l35 -7l65 2l35 11l29 20l18 31zM367 1204l-2 -26l2 -27l-5 -35l5 -35v-116l-5 -56l7 -28l26 -11l35 -4l21 6h38l25 17l21 20l14 29l12 70l-2 30l4 29l-8 74l-8 37l-15 28l-18 21 l-25 12l-30 6l-70 4l-20 -16zM219 780l-12 21l24 14l7 16l-29 -4l-6 -30l-15 -13l23 -6zM350 723l8 20l-14 -18l-18 -14v-9l24 -6v27zM197 229l14 17l-35 10zM215 737l27 -12l4 23zM309 668l-2 2l-22 6l18 -31zM233 860l3 41l-17 -29zM240 911l-9 21l-30 -14l18 4zM283 485 h20l-22 23zM272 1343l-18 -6l22 -14zM229 203l-10 12l2 12l-14 -22zM367 731l8 -18l12 18h-20zM317 795l15 -9l10 21zM530 797l17 4l-10 12h-9zM217 653l-16 -2l8 -16zM285 168l14 20l-27 -18zM225 688v19l-14 -5zM254 1192l-10 -25l12 4zM651 680l-10 14l-2 -20zM258 725 l8 14l-14 4zM260 309l-24 4v-8zM217 502l6 14l6 19l-16 -31zM715 1167l4 -16l10 -12zM154 815l41 -2l-25 2l10 2zM297 807l-6 6v-6h6zM182 758l6 4h-6v-4zM709 829l-7 5v-5h7zM639 635l-6 4v-4h6z" />
<glyph unicode="c" horiz-adv-x="851" d="M799 418l2 -29l2 -65l-4 -48l-17 -57l-14 -49l-18 -37l-19 -18l-16 -27l-27 -29l-26 -14l-19 -16l-22 -13l-58 -22l-53 -14l-51 -3h-49l-62 5l-63 16l-54 22l-16 17l-22 8l-15 16l-16 9l-17 22l-36 43l-27 55l-25 74l-6 64l-2 59l2 59l-2 56l2 53v51l-2 64l4 61l-2 60v55 l2 53l-2 53v185l4 67l8 21l5 32l22 56l27 43l35 47l26 24l45 29l60 27l55 18h35l35 6h36l66 -6l29 -6l51 -14l47 -25l49 -35l23 -26l39 -45l14 -29l22 -64l11 -61l4 -68l4 -69l-4 -27l2 -33l-4 -30l4 -27l-19 -31l-32 -2h-66l-59 -2l-68 4l-18 15l-7 35l3 69l-3 51l5 58 l-13 57l-35 45l-24 14l-29 7h-30l-29 -11l-23 -20l-24 -51l-4 -31l-2 -59v-62l4 -59l-4 -29l2 -20v-263l2 -55l-2 -51l2 -49l-4 -64l2 -51v-55l4 -35l10 -27l31 -30l22 -11l51 -8l52 21l18 22l10 23l13 47l-5 43l3 35l2 55l-5 27l5 61l10 25l22 12l58 2h121l38 -12l13 -19 v-41l4 -51zM158 670l-11 12l13 -25l-27 -6l33 -24l6 37zM125 592l12 2v16l-14 11zM197 500l18 -2l-8 32zM188 602l-24 8v-35l10 23zM147 465l19 2l18 -2l-14 14zM90 688l29 -12l10 14l-16 -6zM188 580l27 8l-12 6zM176 422l-8 -4l16 -23zM139 543l13 -8l18 -11l-20 19h-11z M156 369l26 8l-12 4zM268 217l11 -4l10 16zM188 170l5 12l-15 -2z" />
<glyph unicode="d" horiz-adv-x="901" d="M850 512l2 -23l-2 -24l-2 -64v-43l-8 -55l-11 -57l-20 -60l-25 -45l-16 -18l-10 -21l-17 11l4 -17l-26 -28l-33 -21l-27 -16l-55 -17l-65 -16l-23 2l-31 -6h-51l-53 2l-57 2l-60 -2l-59 2l-60 -4l-30 4l-19 16l-4 31l-2 61l4 39l-2 60l2 53v53l-2 58l4 57l-4 53l4 25 l-2 24v310l-2 53v51l4 55l-4 33v70l-2 67l6 60l-6 51l4 29l-2 28l4 56v71l41 17l56 4l59 -2h63l56 2l55 -2l66 -2l61 -9h29l59 -20l64 -37l36 -27l17 -18l28 -41l29 -57l23 -68l6 -39l-2 -26l8 -70l-2 -59v-52l4 -53l-6 -92l4 -63v-107l-4 -25l4 -49v-55zM575 975l3 31 l24 12l-22 6l-7 23l5 59l-15 72l-16 28l-31 23l-31 8l-57 6h-41l-20 -16l-5 -29l3 -57l-3 -60v-114l5 -58l-7 -24l7 -27l-5 -53l3 -72v-61l-5 -54l5 -22l-3 -35l5 -69l-9 -46l9 -94l-7 -61l9 -45l20 -15l27 -4l59 6l55 23l19 18l12 23l6 25l8 51v127l3 59l-5 66l5 39l-5 75 l2 60v59l3 60zM301 1315l-16 -2l8 -37l14 16l19 4zM268 1149l15 -16l22 2l-22 10l-9 18zM182 977l11 -8l14 -13v19zM201 1276l-19 4v-20zM233 1055l11 -4l2 14l-21 -2zM180 1204l15 -2l-2 23zM182 1243l13 -16l6 16h-19zM182 1370l-12 -18l12 8l15 2zM178 248l17 4l-23 10z M188 502l-2 18l-12 -14zM164 901l-8 -12l16 -4zM225 670l4 -11l19 -2zM260 1257h-41l17 -4zM385 1411l-4 -6l10 -16zM170 1196l-4 2l-8 -20zM705 662l-7 4l-4 -7zM197 817l-2 -16l6 24zM764 805l-4 4v-4h4z" />
<glyph unicode="e" horiz-adv-x="802" d="M760 184l2 -41l-4 -55l4 -55l-12 -27l-29 -8h-152l-59 2l-43 -4h-72l-57 2l-55 -2l-56 2h-110l-23 14l-2 41l-2 64v125l-2 65v64l2 63v51l2 58l-2 53v201l2 84l-4 57l2 53v107l2 57l-4 6l2 51l27 -16l-25 21l19 10l-2 18l-17 4v86l-2 56l4 41l10 36l11 7l41 8l67 -2l53 2 h60l26 -13l17 13l53 -2h64l61 -2l43 4l57 -2l58 -8l14 4l14 -47v-152l-20 -35l-25 -6l-26 4l-62 2l-63 -6l-64 2h-96l-22 -14l-5 -33l2 -35v-139l-10 -19l10 -12l-2 -29v-59l31 -18l39 2h76l18 -17v17l35 -2l37 4l33 -8l16 -41l-4 -19l4 -43l-2 -57l-4 -51l-18 -19h-213 l-43 -10l-5 -35v-129l-12 -24l12 -9v-55l2 -53l-2 -66l19 -20l49 -4l88 2l43 -2l66 2l67 2l33 -4l31 -13zM250 1210l-25 2l-24 -6l-15 2l41 -12l4 -12zM219 1286l-20 -16l26 -10l11 16zM160 748h8l22 12l-20 8zM276 1319l-22 4l-27 -4l21 -8zM203 557l26 14l-26 23l12 -25z M123 1225l6 22l10 13l-28 4l14 -15zM193 1223l-5 24l-10 -4l-14 -16l16 8zM272 1116l25 4l-10 19zM287 1298l-11 13l-14 -11l2 -8zM184 1014l-20 -2l12 -21zM205 668l-4 12v16l-15 -16zM254 801l31 12l-17 6zM217 1061l16 24h-22l10 -8zM373 852l-8 -10h22l14 -13l-10 13z M207 340l-4 10l-23 -12zM184 1053l2 8l-24 31zM211 1245l10 -14l6 16zM188 852l-10 -12h21zM311 1049v20l-12 -37zM199 1026l24 10l-18 2zM215 973l8 8l-16 8zM256 1130l16 5l-16 6v-11zM145 819v10l-16 -10h16zM197 639l6 -14l-6 -11l8 11zM240 297l6 2l-6 4v-6zM291 1284 l6 4h-6v-4z" />
<glyph unicode="f" horiz-adv-x="813" d="M758 1350l-4 -33v-37l-11 -29l-26 -10h-316l-26 -6l-8 -25l-2 -34l2 -74l2 -49l-2 -66v-84l20 -26h35l82 -3h55l66 3l32 -21v-96l5 -49l-19 -43l2 -23l-43 -8l-61 2l-62 -4l-33 4l-63 -4l-16 -25v-67l2 -66v-57l-2 -55v-107l-5 -53l5 -27v-72l2 -61l-9 -29l-18 -16 l-68 -2l-65 -2l-94 4l-17 14l-2 23l-4 51l2 23l2 53l-4 55l4 29l-4 31l2 59l2 55l-6 25l4 35l-2 67l2 70l-2 72l2 55v55l-4 49l8 17l-4 30l2 54l-2 59l-2 55l4 58l-4 49l4 127l-4 76l2 30l-4 31l4 18l-2 23l23 31l45 2l47 2h182l57 -4l50 6l67 -4l27 2l51 -4l49 6l53 -12 l13 -23l-4 -33l4 -20zM203 653l35 -14l-21 27zM231 1241l-14 -29l31 21zM299 1350l-18 -4l14 -5l20 11l-8 18zM236 1376l12 -22l14 20zM276 1225v18l-20 -12zM614 739l-26 17l6 -17h20zM246 819l-21 21l6 -21h15zM651 811l-20 -4l12 -8zM215 434l4 10l-18 -2zM152 1217 l22 -13l-22 19v-6zM225 784l-8 2l-8 -12zM233 1081l-8 9v-9h8zM283 909l6 2l-6 4v-6zM180 1163l-6 4v-4h6z" />
<glyph unicode="g" horiz-adv-x="899" d="M805 66l2 -29l-16 -31l-37 -8l-62 -2l-22 14l-21 37l-20 23l-15 -15l-63 -47l-59 -22l-70 -11h-57l-58 9l-57 16l-51 27l-49 43l-41 55l-31 63l-15 45l-10 50v36l-6 23l4 33l-2 28l2 52l-4 24l4 27v57l-4 53l4 25l-2 27l4 28l-4 62v63l2 58l2 61l-4 33l4 35l-6 32l6 33 l-2 35v68l12 69l21 58l27 51l39 47l32 24l11 15l18 8l59 33l60 16l51 8l25 -2h53l53 -6l53 -14l60 -29l53 -37l22 -24l33 -47l25 -48l18 -45l8 -53l7 -57v-74l4 -25v-61l-17 -33l-71 -8l-70 4l-27 -4l-28 4l-27 -2l-20 17l-7 26v27l-2 49l-4 61l-6 62l-12 28l-41 37l-31 6 h-31l-28 -12l-23 -18l-14 -25l-12 -57v-111l-2 -47v-63l2 -62l2 -59l-4 -27l2 -26l2 -54v-57l-2 -57v-64l-2 -65v-70l2 -57l6 -33l14 -29l23 -24l41 -17l45 4l43 9l32 36l11 33l6 55l22 9l-22 6l-4 22l4 21l-2 63l-4 51l-23 9h-35l-67 6l-15 20v115l2 55l19 21l22 2h107 l49 2h51l51 -2l35 4l53 -4l15 -43l2 -25l-4 -59l4 -53v-113l-2 -66v-51l6 -26l-6 -60l-2 -55l4 -64v-79zM236 1098l-13 -2v-37l17 -4l-4 39l28 -15l-8 21zM205 965l24 -2l-8 22l-26 4zM211 1171l37 -36l-19 47zM139 776l21 2l8 25l-14 -6zM702 274l13 17l-23 -10l-4 -19 l6 -6zM629 559l-11 -16l25 16l-14 16v-16zM305 1325l19 4l-29 19zM123 1094l-27 10l17 -21zM305 147l-18 17l-4 12l-11 -10zM559 190l4 7l-16 4zM207 1116l-21 -4l39 6zM176 1180l-4 6v-6h4zM229 891l-6 4v-4h6zM156 1001l-6 5v-5h6z" />
<glyph unicode="h" horiz-adv-x="952" d="M862 289l-4 -39v-182l-10 -60l-57 -12l-23 4l-23 -4l-38 4l-33 -2l-64 2l-16 14l-6 25l2 33l-4 32l2 29l-2 45l4 51l-2 64l2 61v52l-4 49l4 51v49l-6 63l-72 7h-119l-26 -27l-2 -25v-49l-5 -49l5 -53v-53l-5 -33v-60l2 -61l-2 -53l5 -25l-3 -55l-2 -57l-12 -23l-26 -6 l-60 2l-53 2l-68 -2l-32 6l-15 16l-4 29l2 68v41l4 26l-6 31l4 31l-4 57l4 37l-2 61l2 64l-2 65v80h27l-25 4v39l-2 21v131l2 61l-4 27v53l2 68v114l-2 70l2 68v120l-2 58l23 35l34 4l58 -2h61l27 4l33 -2l26 -8l13 -39v-107l-3 -55l3 -72l-5 -59l7 -49l-5 -25v-108l5 -74 l26 -17h148l34 4l13 21v88l2 74v59l-4 27l2 31v112l2 68l-4 65l4 33l14 25l29 4h65l76 2l74 -4l10 -41l2 -43l-2 -66l2 -72v-61l-2 -49v-60l-2 -67l4 -68v-112l-4 -66l6 -16l-4 -56l-2 -57l4 -57l2 -62l-4 -67l2 -68l-2 -65zM264 715l-22 18l-15 -4l-8 -18l25 -2zM764 662 l-8 16l4 14l-27 2l6 -24zM791 618l-3 19l-18 14l-18 -8zM680 821l-21 4v-8h11l12 -24l16 2zM193 752l8 18l-8 27h-11zM754 723l14 -14v24l-16 15zM729 713l19 -17l-7 27l-28 2zM707 625h20l-10 10l-23 8l8 -25zM311 766l8 14l-28 23zM182 836h-22l20 -13l21 27zM725 401 l-14 21l-11 -19zM276 614l21 2l-25 27l9 -20zM750 823h30l-16 15zM721 791l16 -11l-18 19l-19 -15zM637 455l-2 16l-17 -10zM655 686l31 4l-31 4v-8zM774 770l-2 -12l19 -4zM188 494l19 4l-19 6l-4 20zM772 799v-13l19 17zM260 1044v-8l23 11zM444 756l11 4l-6 14zM717 692 v8l-19 2zM348 745l17 15l-25 -15h8zM612 762l2 -10h9zM606 696l8 19l-2 4zM700 512l13 27l-23 -47zM635 485l-4 4v-4h4zM186 242l-4 4v-4h4zM221 817l-4 4v-4h4z" />
<glyph unicode="i" horiz-adv-x="448" d="M356 180l6 -28l-2 -64l-4 -70l-28 -20h-47l-52 2l-57 -2l-59 -2l-21 16l-4 60l2 59l-2 64v208l-2 58l4 28l-2 60l-2 61l2 60v61l2 62l-4 49l4 47v229l-2 62l2 59l-4 55l6 23l-4 67l2 56l8 26l25 13h123l59 4l33 -6l18 -15l4 -24v-52l2 -53l-4 -30l2 -31l2 -64l-4 -61 l-12 -37l14 -2l-4 -27l6 -26l-4 -17l2 -61l-2 -70l2 -63l-2 -64l-2 -61l4 -127l-2 -62v-57l-2 -70l4 -61l2 -57l-2 -56zM276 1212l21 9l-39 8zM223 420l23 -12v18zM219 1225l-4 -15l21 -10zM197 383l12 8v2zM160 954l-6 4v-4h6zM166 1165l16 -6l13 -4z" />
<glyph unicode="j" horiz-adv-x="856" d="M764 403l-2 -26l4 -33l-4 -72l-12 -55l-11 -27l-28 -55l-39 -51l-21 -14l-22 -27l-27 -20l-24 -11l-62 -28l-33 -9h-34l-56 -2l-76 7l-34 10l-52 22l-43 31l2 12l-20 4l-8 11l-45 45l-25 47l-24 53l-11 47l-6 47l2 62l4 57l-4 59l-2 72l2 51l21 29l37 2l75 -2l68 4l35 -6 l20 -21l4 -67l-4 -39l4 -35l-4 -33l2 -65v-60l17 -57l16 -18l25 -17l24 -6l33 4l31 13l18 24l12 29l7 33l4 63l-4 53l2 31v125l-2 72l8 39l-10 34l10 25l-4 24l-6 52l12 65l-8 17v53l8 16l-8 33l20 16l-18 7l-2 55l2 72l-6 59l6 27l-2 34v119l8 23l-2 28l24 17l29 -2l31 6 l30 -4h127l15 -19l8 -22l-2 -56l2 -59l-2 -55l-2 -62l4 -26l-4 -17l2 -69l-2 -66l2 -59v-176l-12 -33l10 -8l6 -33l-4 -62l-16 -10l16 -12l-2 -82l2 -53v-64l-10 -14zM567 870l-20 -12l47 -27l-6 -22l18 6l-6 -22l14 4l4 14l-4 8l4 12l-18 -8l6 15l-22 12zM559 768l12 25 l7 -23l6 23l-17 10l-18 -2l-6 -27l6 -16l16 -6zM625 713l-7 -45l21 12l8 35zM598 1012l-25 10l-8 -14l13 -13zM575 526h35l-18 27l-2 -16zM645 580l8 -7l17 2l18 -10l-24 35l2 -18zM680 406l16 -7l-10 23l-16 4zM686 1018l4 22l-26 -8zM674 741l28 -2l-6 19zM723 629 l-16 -23l26 10zM582 965l12 16l-16 12zM621 1178l6 -17l12 25zM674 1087l-19 -4l15 -14zM688 776l17 8l-25 7zM594 604l8 -18v-19l2 39zM616 500l15 10l2 14zM582 1198l8 -14v-6l6 12zM727 563l2 8l-16 4zM670 866l-11 -4l-16 -16zM659 1030l-6 6v-6h6zM532 469l-6 4v-4h6z " />
<glyph unicode="k" horiz-adv-x="888" d="M870 33l-4 -23l-26 -14h-47l-56 2h-51l-20 4l-29 -4l-23 4l-20 16l-6 25l-23 70l-12 51l-14 51l-13 47l-16 51l-14 52l-11 41l-20 67l-16 55l-21 56l-16 -11l-25 -53l-25 -49l-4 -65v-60l7 -53l-3 -27l-2 -55v-180l-10 -23l-26 -12l-60 4h-63l-56 -4l-28 4l-27 25v38 l-2 72l4 51l-4 43l4 84l-4 45l12 21l4 18l-10 -12l2 35l-4 29v47l-4 63v68l2 63l2 66v63l-2 62v112l2 80v55l-4 123v56l4 57l-4 25l4 22l-6 31l8 24l25 15l28 2h127l64 -2l18 -15l4 -20l-2 -27l2 -45v-117l-2 -57l4 -24l-2 -46v-131l7 -26l24 26l12 35l27 66l6 24l23 50 l20 49l23 49l20 51l21 53l26 58l9 30l12 15l39 6l26 -2l52 2h53l53 -2l31 -19l-6 -37l-17 -47l-14 -20l-8 -25l-33 -78l-29 -63l-24 -61l-31 -70l-29 -59l-20 -60l-15 -24l-12 -39l15 -54l18 -65l25 -60l16 -57l16 -53l15 -53l16 -50l21 -51l4 -28l18 -60l21 -67l24 -68 l16 -59l15 -50l18 -47zM313 596l29 25l4 16l-10 14l-23 -14l11 -16l-15 8l8 -21zM397 772l2 16l-20 5l-12 -13l-2 -14l6 -18l4 24h22zM471 809l10 -10l-4 18l-31 -4l-10 -27zM299 901l-29 12l9 -32zM211 756l14 14l-28 25zM217 250v16h-14l-13 -20zM227 639l6 6l5 27 l-23 -19zM158 494l10 38l-18 -22zM211 838l-10 22l-17 -10zM301 760l-25 -10l19 -11zM301 782l10 -16l17 16h-27zM205 547l4 -29l14 6zM258 614l6 -20l12 20h-18zM299 872l23 19l-17 2zM240 651l18 -14v14h-18zM168 817v14h-18zM223 481l-18 2l8 -14zM154 690l14 -18l2 14z M141 987l13 -10l12 8zM330 133l12 2l-16 15zM299 1272l-2 -12l14 -3zM193 965l20 -4l-20 10v-6zM537 764l16 -4l-16 10v-6zM291 174l-8 8v-8h8zM451 655l-7 7v-7h7z" />
<glyph unicode="l" horiz-adv-x="757" d="M719 109l6 -21l-4 -65l-29 -25l-24 2l-33 -4l-111 4h-110l-62 2l-123 -4h-59l-61 4l-19 25l-2 49v67l2 58v59l-2 53l4 25l-4 37v131l2 63v62l-6 61l4 53v62l-2 61l4 23l-4 41l2 61v62l2 53l-2 51v137l2 50l-2 51l4 71l27 15l57 -2h152l20 -11l12 -34l-2 -66v-55l2 -51 v-121l-4 -25l6 -26l-4 -62l4 -31l-4 -22l-8 -8l8 -41l4 -51l-4 -33l-4 -53l6 -56v-110l-4 -60l4 -65l-2 -29v-133l2 -66l21 -30h98l74 -2l51 2l29 -4l53 6l35 -19l4 -59zM201 408l-6 22l-21 -14zM158 1004l10 2l-14 8zM248 1018l-2 -17v-12zM328 961l2 4h-4z" />
<glyph unicode="m" horiz-adv-x="1206" d="M1108 735l2 -28l2 -62l-2 -59l-4 -39l4 -49v-109l-2 -72l2 -67v-121l-2 -55v-49l-33 -27l-67 -2h-60l-67 6l-19 21l-2 22v74l4 41l-2 35l-2 47l4 16l-2 23l15 26l-15 12l-4 33l4 35v70l-6 30l6 37l-2 68l-2 65l4 33l-4 35l4 31l-4 45l12 16l-16 39l-12 -20l-4 -23 l-11 -59l-12 -54l-10 -65l-17 -53l5 -17l-11 -10l4 -25l-10 -30l-2 -35l-14 -10l8 -4l-16 -86l-19 -78l-4 -62l-8 -20l-8 -33l-4 -49l-17 -72l-12 -47l-55 -10l-27 4l-61 -2l-23 16l-22 84l-11 58l-14 69l-8 51l-13 66l-10 53l-12 58l-10 69l-8 43l-11 68l-10 61l-12 60 l-11 51l-16 47l-10 -29l6 -69l-6 -70l6 -35l-6 -39l2 -28l2 -56l-2 -53v-57l2 -62v-63l2 -60l-6 -57l6 -68l-4 -28l-2 -49l-37 -29h-33l-65 -2l-68 -2l-27 14l-12 62v49l2 49v61l2 74l-4 29l2 67l-4 43l4 31l2 62l-4 34l4 52l-4 32l2 76v51l-2 78l4 33l-6 16l6 54l-4 55 l2 76v118l-2 62l4 71l-4 68l4 39l21 27l69 4h54l65 -4l47 6l68 -6l22 -17l11 -24l2 -25l12 -49l10 -70l21 -75v-25l10 -57l8 -48l17 -69l4 -53l8 -58l10 -18l12 -60l13 -61l8 -57l14 -27l23 66l2 26l12 47v27l8 27l13 61l8 51l12 51l4 39l12 58l11 69l16 54l4 34l6 54l10 22 v25l9 22l-2 21l22 35l35 4l57 4h64l65 -2l56 2l43 -6l12 -21l2 -63l2 -70v-72l-2 -59v-62l4 -65l-6 -49l6 -25l-6 -22l4 -35l-2 -35v-162zM209 1251l-6 -12l8 -6l10 -27v17l15 -25l6 21l12 4l-25 12zM948 1249l4 -10v-20l25 26zM164 926l31 22l-33 -2zM494 489l22 -6l-6 17 l-14 6zM987 1139l-2 16l-14 12l4 -14l-21 8zM459 1030l-8 -12l28 -14zM240 573l18 19h-22zM162 764l-25 -25l25 9v16zM205 1122l-27 6l6 -14zM264 1257l6 -22l11 16zM918 1395l-25 16l8 -18zM362 1110l3 16l-19 7zM997 1167l23 17l-2 12zM903 1274l17 2l-15 29l6 -15z M608 387l-6 -10l21 -10zM725 885l8 -15l12 11zM303 1081l-18 -18l14 2zM1001 1290v-10l19 8zM838 1174l10 4l-21 10zM225 1094l4 16l-10 -2zM684 623l-6 -11l18 6zM967 819l-13 -6l19 -2zM178 1163h-12l12 -10v10zM381 1128l-4 17l-6 -2zM1083 795l7 2l-19 8zM186 786l13 9 l-19 -9h6zM997 1098l-6 4v-4h6zM936 791l-4 4v-2z" />
<glyph unicode="n" horiz-adv-x="956" d="M862 90l2 -29v-30l-12 -25l-59 -10l-21 4l-33 -2h-67l-39 20l-2 15l-13 20l-26 78l-27 66l-16 55l-27 63l-20 62l-23 57l-18 62l-2 30l-13 11l-22 47l-18 75h-7l-20 50l-23 59l-20 -25l6 -16v-61l2 -62l-4 -49l4 -45l-2 -70v-131l2 -63v-66l-2 -53v-59l-6 -58l-31 -10 l-33 -2l-69 4l-19 -6l-18 2l-47 4l-21 16l-6 25l2 59l-2 56v57l2 61l-4 29l6 25v32l-4 62v162l4 32l-4 31l4 56l-4 57l-2 63l4 31l2 39l-2 72v63l-4 57l4 27l-2 19l2 45v51l-2 57l4 33l-2 67v60l6 24l41 13l64 -2l55 2h49l29 -8l20 -45l29 -78l21 -62l20 -55l14 -45l-6 -23 l25 -26l8 -23l23 -57l16 -53l20 -54l17 -55l33 -90l18 -39l18 -18l4 57l-4 53l2 56l-2 53l4 59v51l-2 66l2 57l-2 49v70l5 53l-7 49l4 25l17 27l35 6h86l69 -2l29 -8l8 -23v-53l2 -54v-77l-4 -72l4 -45l-4 -39l2 -27l2 -53v-162l-4 -59l4 -27l2 -51l-4 -55l-2 -60l4 -110 v-55l-2 -56l4 -57l-2 -72l-2 -49l4 -24v-50zM305 877l-2 22l-35 -27l21 -10zM270 1139l-2 -31l11 6l10 16l16 -14l4 19zM330 1253l-6 -18l6 -21l-21 -26l33 10l-8 23zM287 1221l-11 -2l-14 -15l2 -18l-14 -19l35 27l-9 6zM201 999l30 -4l-14 33zM170 938l20 -6l9 26l-25 -8z M258 1260l-22 10l-19 -10h23l-4 -23zM328 1006l-21 -31h25zM188 1085l-18 -2l10 -36zM352 1010l4 10l-22 14l20 13l-26 -15l6 -12zM334 1108l-19 -16l33 -7zM674 895l-15 25l-12 -23zM647 260l-6 -14l14 12l2 23l-10 6v-27zM770 877l-10 -21l24 -6zM227 1155h-12l-16 -8 l12 -12zM616 233l11 27l-21 -4zM315 1167l15 21l-31 -12zM201 635l12 18l-12 17v-35zM354 1057l8 18l-22 -8zM289 1024l-2 -18l18 2zM664 1421l-15 -14h23zM305 1151l-26 14l8 -16zM799 176l12 10l-23 7zM225 897l-6 21l-12 -9zM209 768l20 16l-10 21l2 -21zM735 301l-4 -18 l17 4zM213 1096l10 -9l15 17zM471 700l33 5l-4 8zM207 975l10 -12l6 20zM748 518v-14l18 -10zM170 1176v-19l14 -18zM725 467l14 -4l-8 20zM428 981l8 6l-20 -10l14 -12zM236 1206l-9 -16l17 2zM705 373l-7 12l-12 -14zM698 285l13 4l-19 8zM743 883h-26l39 -6zM606 315 l10 4l-16 9zM709 279l-2 -7l14 -8zM362 1124l11 6l-21 -6h10zM281 819l-7 8v-8h7zM258 780l6 -10l10 -12zM748 260l-7 4v-4h7zM309 541l-4 6v-6h4z" />
<glyph unicode="o" horiz-adv-x="864" d="M813 563v-24l-2 -56v-166l-6 -63l-21 -61l-16 -11l-2 -26l-18 -33l-41 -45l-52 -43l-53 -29l-24 -8l-50 -12l-65 -9h-64l-61 9l-55 12l-47 20l-21 17l-22 10l-15 18l-33 29l-43 51l-12 27l-18 39l-4 24l-11 70l-4 103l-2 65v55l4 41l-2 60v75l-2 62l-2 59l6 60l-2 26 l-2 60l4 49l-4 67l4 29l-4 55l6 29v27l15 49l37 74l30 41l51 47l50 30l45 19l63 12l14 8h107l66 -8l53 -12l24 -15l27 -8l68 -55l43 -51l26 -41l23 -68l12 -63v-68l4 -18l-4 -45v-125l2 -56l-2 -57v-131l2 -47l-4 -51zM543 641l-2 41l2 29l-4 65v55l2 56l-4 26l2 54v178 l-9 55l-12 25l-26 22l-33 13l-35 2l-47 -13l-25 -18l-18 -27l-10 -49v-74l4 -63l-2 -68v-69l2 -50l-2 -59l-4 -57l4 -33v-244l-2 -59l8 -70l20 -53l23 -20l37 -11h47l53 27l16 31l15 63l-6 70l4 73l-2 74zM117 1096l-6 -25l26 -37l25 17l2 8l-19 -4l-20 6v24l4 33zM651 422 l-24 12l-11 -39l19 11zM709 674l14 -23l-6 25l-25 22l-2 -10zM231 956l-28 -20h28v20zM248 762l-10 16l-13 -26zM262 1083l-10 -24h12l6 -6zM672 512l12 -18l12 12zM641 360l12 23l-22 -12zM197 612l-11 19l-10 -13zM197 354l-2 11l-19 -7zM156 987l-9 23v-23h9zM733 856 l-6 10l-14 13zM633 891l-6 6v-6h6zM645 496l-6 4v-4h6z" />
<glyph unicode="p" horiz-adv-x="899" d="M854 1057l4 -27l-6 -55l4 -29l-6 -26l2 -29l-4 -33l-12 -57l-23 -51l-29 -43l-6 -17l-22 -20l-15 4v-19l-22 -16l-51 -25h-21l-14 -12l-53 -12l-76 -6l-58 -2h-61l-23 -35v-31l3 -65l-5 -64l2 -31v-57l5 -55l-5 -47l-2 -54l5 -53l-5 -27l2 -26l-6 -27l-28 -12h-191l-28 6 l-17 33l-6 24l4 25l2 49l-4 53l4 48l-4 22l4 31v203l2 51l-6 43l4 61l-2 62l2 61l-2 61l2 66l2 68l-2 59v131l-2 59l4 27l-2 29l-2 55v111l8 28l19 19l22 -2l29 4l68 -2l45 -4l61 4l55 -4l64 2h63l56 -6l47 -11l67 -30l47 -33l19 -19l35 -43l26 -49l15 -55l10 -49l4 -68z M588 1001v39l-4 43l-11 66l-8 14l-2 25l-18 29l-19 18l-26 8l-66 8l-39 -2l-28 -18v-37l-2 -55l-5 -58l2 -57l3 -61l-3 -70l3 -68l24 -18h39l47 2l66 18l20 23l14 33l11 71zM299 623l23 -2l-3 14l-16 12zM205 616l16 -18l17 8l-9 8zM154 977l22 16l10 -18l-2 33zM301 754 l-2 -19l25 -10zM182 1251l-4 -12h21zM217 977l-18 -4l2 -31v21zM283 586v18l-13 2zM739 1126l9 -12l-15 29zM211 1200l4 -4l-10 21zM309 913l-6 5l4 -5h2z" />
<glyph unicode="q" horiz-adv-x="864" d="M815 537l-4 -25l4 -39l-4 -20v-154l-14 -66v-18l-31 -68l-31 -43l-41 -47l-51 -34l-63 -29l-19 -14l4 -27l19 -19l22 -14l45 -10l25 2l55 -16l8 -43l-2 -29l2 -55l-4 -70l-20 -14l-53 -4l-54 2l-47 10l-80 24l-30 17l-9 16l-49 31l-16 18l-41 56l-23 55l-6 59l-26 25 l-27 12l-51 29l-51 41l-41 49l-17 29l-22 53l-17 67l-2 43v52l-4 69l4 56l-6 24l2 29v104l6 23l-6 22v33l2 66l-4 61l4 18l2 54l-2 51v125l2 59l8 68l9 10v16l32 80l19 23l45 53l51 37l66 31l71 16l56 4l55 2l57 -6l60 -16l55 -23l47 -35l43 -41l41 -55l27 -65l12 -70l4 -59 v-60l-2 -55l4 -53v-109l-2 -51l2 -53v-66l-4 -27l2 -28v-64zM535 1182l12 4h-17l-10 26l-16 25l-41 16l-39 4l-33 -8l-29 -16l-22 -25l-8 -26l-8 -58l2 -57v-51l-4 -23l4 -24v-58l-2 -55l2 -61l4 -70l-6 -27l2 -30l2 -56l-2 -57v-51l-2 -84l2 -58l2 -59l8 -27l14 -24l21 -21 l67 -14l39 10l29 15l24 37l7 30l2 66l2 55l-4 39l2 25v114l4 49l-4 72l2 53l-4 49l4 27l-2 23l4 34l-2 31l-2 60v122zM119 881l8 -9l14 -12l-10 -12l23 10l-23 27l-2 33l23 4l-15 6l-16 24l8 -22zM709 1128h-13l-6 -32l21 16zM172 1018l8 -8l-10 24l-16 -2l2 -20zM242 705 l6 6l-15 16l-8 -14zM178 1042l21 17l-25 4zM664 1253l-41 9l10 -29l4 22zM399 6l21 -10l-17 16l5 19l-13 -11zM195 762l-23 29l2 -21zM662 1032l14 15l-12 14zM287 713l10 -19l10 19h-20zM487 31l9 18l-21 -2zM655 1059l-18 12l2 -20zM246 975l4 16l-23 -8zM418 104l-19 13 l2 -19zM383 31l8 14h-20zM655 653l2 23h-12zM236 872l4 21l-15 -10zM147 1300l5 -16l10 16h-15zM182 1159l-8 -12v-14zM422 117l-6 6v-6h6zM160 625l-4 4v-4h4zM139 1184l-10 -8l25 18z" />
<glyph unicode="r" horiz-adv-x="901" d="M848 35l-6 -25l-27 -12l-29 -2l-55 2h-115l-26 12l-17 39l-14 55l-16 68l-19 57l-16 50l-2 22l-14 47l-13 49l-16 54l-2 28l-17 37l-2 27l-28 55l-27 4l-18 -12l-4 -33v-203l-3 -55v-113l5 -110l-5 -53l-20 -23l-63 -2h-113l-60 4l-12 31l-2 63l4 58l-4 20l4 59l-2 68 l2 57l-8 58l6 76l-2 38l4 60l-4 49l4 61l-4 62l4 63l-2 68v68l-2 61l2 55l-2 68l4 61l-4 66v129l2 57l17 19l43 8l71 -6l74 6l27 -4h59l59 -2l56 2h51l20 -8l21 -3l16 -8l45 -12l56 -29l22 -20l35 -43l29 -49l24 -56l6 -47l11 -78l4 -55l-4 -24l4 -66l-2 -61l-11 -45v-25 l-6 -23l-16 -51l-21 -37l-43 -49l-63 -49l-2 -35l24 -80l17 -55l14 -51l12 -31l15 -63l20 -62l19 -59l32 -115zM453 827l32 2l33 13l27 20l14 29l10 65l2 84l-4 68l-12 76l-35 51l-67 14h-60l-26 -10l-2 -51l-5 -68l2 -41l3 -57l-5 -31l2 -26l3 -54v-57l16 -25l43 -6z M324 1321l22 6l-16 19zM242 733l-23 -24l23 6v18zM565 594l-8 -8l18 2v20zM209 627l-8 -17l14 6l-4 27zM223 621l25 -35l-6 20zM510 684l-4 12l-19 11l9 -13zM248 840l12 8l-27 4zM193 274l10 29l-8 -2zM193 410l14 -9l-14 19v-10zM162 666l-6 4v-4h6zM690 860l-4 4v-4h4z " />
<glyph unicode="s" horiz-adv-x="843" d="M807 379l4 -31l-4 -69l-12 -58l-15 -33l-32 -57l-43 -53l-54 -41l-59 -35l-62 -14l-71 -8l-19 4l-22 -4l-66 6l-57 16l-66 25l-47 36l-45 48l-28 45l-31 69l-12 58l2 30l-9 76v53l4 56l17 22l29 8l28 -4h70l67 2l27 -6l12 -28l2 -35l2 -72l5 -59l20 -58l20 -26l29 -19 l35 -6l53 8l45 33l15 25l4 28l2 54l-15 57l-22 51l-37 55l-29 29l-39 43l-43 41l-45 41l-43 41l-39 45l-45 55l-36 49l-23 43l-33 68l-6 25l-10 43l2 20l-10 45l2 49l6 66l12 53l27 51l37 58l20 20l45 39l25 12l49 19l72 20l51 2h67l64 -12l61 -23l29 -22l33 -18l43 -50 l28 -41l25 -53l14 -47l4 -65l2 -72l5 -70l-11 -31l-30 -14h-31l-59 2l-33 -4l-56 4l-28 12l-8 25v31l2 47l-4 65l-7 27l-12 25l-16 18l-21 14l-28 11h-27l-29 -9l-24 -14l-25 -35l-6 -24l-2 -54l14 -59l29 -53l37 -51l49 -50l41 -38l41 -43l43 -43l45 -43l35 -43l37 -41 l8 -19l20 -27l31 -63l23 -55l12 -47l8 -52zM502 627l30 8l-30 6v-14zM508 688v-6l16 6h-16zM463 700l-4 5v-5h4z" />
<glyph unicode="t" horiz-adv-x="800" d="M788 1335v-30l3 -27l-7 -27l-26 -16l-37 2h-66l-49 4l-55 -4l-14 -27l2 -61l-4 -68l2 -59l-2 -51l4 -58l-4 -49l2 -57v-51l2 -58l-4 -61l4 -57v-60l-2 -57l-2 -60l4 -55l-4 -22l2 -29v-188l-2 -72l-15 -33l-26 -8h-158l-47 2l-23 27v28l-4 53l6 31l-2 27v59l-2 60l4 26 l-2 51l2 66l-4 66l4 53l-2 28v111l-2 57v115l2 59l-2 74v49l4 52l-4 65v57l-16 21l-29 4l-29 -2h-129l-32 6l-15 25l-6 69l2 58l8 77l23 11h27l67 4l53 -4l54 -2l57 4h53l39 -4l62 4l41 -4l71 4l66 2l61 -6l66 4l26 -15l7 -28l-5 -54l5 -24zM422 1415l-2 -16l33 -13l-21 19 l10 10h-20zM571 1370h19l-15 21l-16 -13zM416 1341l14 19l-27 -19l-10 -12zM356 1331v-18l19 10zM383 1294l-14 2v-16zM428 651l-22 4l16 -14zM444 1182v-8l27 10zM432 442l8 -14l-4 29zM344 1260l-10 -3l-8 -18zM360 459l5 6l-5 4v-10z" />
<glyph unicode="u" horiz-adv-x="937" d="M852 440v-34l-4 -70l-2 -53l-12 -52l-17 -53l-26 -49l-33 -43l-37 -39l-21 -10l-45 -25l-32 -10l-62 -18l-69 -9h-48l-47 2l-24 9l-56 14l-57 25l-47 32l-20 21l-35 43l-27 47l-22 57l-13 64l-4 67l6 50l-6 49l4 43l-2 51v313l2 56l-4 49l4 24v58l-2 61v61l4 27l-4 25 l2 28l-2 47v58l4 35v71l23 19l37 2l59 -4l111 4l26 -10l13 -23v-102l2 -58l-4 -47l4 -26l-2 -35l4 -72l-4 -31l2 -65l-4 -35l4 -25l-2 -22v-113l4 -43l-9 -16l5 -41v-238l2 -65l-2 -64l10 -67l12 -29l23 -20l30 -13h58l26 10l27 21l18 31l7 34l4 54l-2 59v238l4 51l-4 70 v102l2 68v61l-2 59l2 54l-4 51l4 49l2 53l-2 53v125l20 13l23 4h104l55 -2l47 -4l17 -39l4 -47l-4 -21v-82l2 -84l-4 -26l2 -31l-12 -10l16 -27l-4 -29l2 -53l-4 -39l4 -71v-70l-2 -68l2 -57l-4 -51l4 -56l2 -63l-6 -31zM166 1210h-14l10 -28zM649 741l8 -24l11 14z M236 1104l30 4l-18 8zM238 1071l-9 23l4 -33l15 6zM662 821l-21 19l8 -19l25 -4zM223 256l25 4l6 8zM664 926l12 18l-10 -2zM279 856v12l-13 -14zM594 907l8 -16v16h-8zM682 543l6 4l-12 12z" />
<glyph unicode="v" horiz-adv-x="860" d="M819 1481l23 -19v-35l-13 -61l-16 -70l-10 -71l-17 -70l-10 -51l-12 -66l-16 -73l-3 -27l-8 -27l-10 -59l-12 -59l-10 -64l-23 -72l4 -22l-10 -55l-8 -19v-24l-9 -39l-16 -72l-10 -59l-15 -70l-12 -51l-4 -58l-10 -20v-21l-8 -28l-13 -80l-20 -35l-62 -8l-34 4l-111 -4 l-39 8l-24 62l-2 26l-11 58l-14 67l-16 59l-5 41l-8 52l-12 49l-8 61l-17 64l-6 47l-14 61l-10 49l-6 54l-17 71l-10 62l-12 55l-13 59l-14 62v20l-12 56l-8 49l-13 53l-10 59l-12 74l-11 29l-4 29l2 28l15 17l28 4h62l61 2l58 -4l37 -13l12 -30l4 -35l8 -21l-2 -22l12 -66 l4 -41l11 -47l4 -49l10 -29l2 -32l6 -50l8 -22l9 -49l4 -60l10 -30l4 -33l6 -68l8 -18l2 -23l5 -47l10 -30l12 -66l16 37l5 24l14 11l-8 35l8 20v31l6 26l8 52l10 51l7 51l10 61l10 64l10 55l11 60l10 53l4 49l10 51l8 57l13 62l12 25l29 8h63l66 2zM475 279l17 2l10 22 l-4 6l-19 -16l-20 8l-15 -6l13 -16h18zM358 227l21 6l-21 15l2 24l-18 -16zM418 178l18 4l-18 13v-17zM354 205l11 10l-25 -2zM461 238l-4 10l-8 -6zM229 1194l4 6l-6 4zM172 1012l-6 6v-6h6z" />
<glyph unicode="w" horiz-adv-x="1265" d="M1245 1462v-45l-10 -41l-2 -30l-8 -31v-25l-17 -61l2 -25l-12 -51l-12 -59l-6 -64l-13 -57l-8 -45v-29l-16 -70v-30l-15 -68l-12 -69l-6 -52l-8 -71l-17 -60l-8 -59l-10 -66l-10 -63l-10 -62l-9 -14v-29l-8 -61l-10 -49l-10 -51l-25 -25l-33 -4h-39l-49 4h-67l-25 18 l-8 25l-2 25l-12 51l-7 47l-10 51l-10 68l-8 47l-8 51l-9 47l-6 47l-8 51l-20 115l-7 49l-10 58l-18 30l-15 -59l-8 -55l-8 -60l-10 -53l-8 -45l-9 -53l-12 -70l-10 -45l-4 -55l-13 -56l-10 -71l-14 -68l-8 -59l-27 -31l-18 -4l-45 2l-56 -2l-63 2l-25 14l-12 27l-12 70 l-11 63l-8 59l-10 60l-12 59l-8 51l-9 48l-12 71l2 27l-14 61l-10 49l-9 48v20l-12 59l-12 62l-8 61l-9 60l-12 59l-6 53l-10 51l-9 56l-12 55l-10 62l-10 71l-11 64l5 32l22 13l31 2l47 -4h115l24 -6l15 -19l6 -31l6 -45l8 -53l8 -55l4 -53l8 -56l11 -59l8 -49l2 -41l6 -49 l10 -50l9 -75l12 -60v-37l6 -43l18 -22l11 61l14 78l8 66l12 67l13 78l10 72l12 61l2 43l6 23l9 49l12 70l8 59l10 51l15 21l57 4h113l35 -13l14 -63l6 -53l12 -70l17 -98l12 -80l10 -80l10 -66l-2 -12l15 -57l8 -55l8 -58l8 -67l13 -31l14 37l10 51l6 68l9 59l10 49l2 53 l4 43l10 47l8 68l6 55l9 23v35l8 55l10 57l8 74l19 27l26 4h39l51 -2l52 2l30 -4zM397 262l6 4l21 -39l-14 52l2 18h-45v-21zM961 143l18 -12l-10 19l-21 43l17 6h-29l-12 6l10 -35zM344 506l-14 -10l18 -31l17 -21l8 13l-17 39zM322 412l-3 -19l-18 -22l25 2l18 -4l-8 16 l10 18zM342 272h6l-6 9l-20 -23l-9 -20l33 -11l-4 21l-12 -12l-11 16zM592 1192l29 -4l14 12l-45 4zM553 1042l-23 -6l11 -18l12 -4v28zM612 1006l17 32l-25 -2l10 -12l-6 -8v-41zM676 1075l31 -18l-5 18l-24 10zM276 397l9 35l32 -2l-38 4l-3 -20l-26 4zM641 1155l-33 2 l8 -18l17 12l22 -8zM444 332l2 -15l15 9l-12 30zM897 162l14 10l-14 8l-16 -10zM516 616l23 7l-27 16zM408 369l-29 2h-8l16 -15zM559 844l-2 12v25h-14zM635 1108l18 -10l-2 22zM375 399h-27l25 -8l22 12zM233 539l21 8l-18 24l8 -16zM633 1239l-23 -8l21 -8zM762 672 l-19 -6l15 -15zM813 352l-12 17l-13 -13zM913 131l-12 -18l14 -7zM494 821l22 -10l-2 14zM670 1128l8 -36l2 26zM967 197l26 -2l-16 12zM563 788l6 11l-18 12zM446 266l11 10h-25zM375 158l2 -15l14 7zM592 954l-14 2l14 -16v14zM492 586l-27 -19l14 4zM303 328v-9l19 -2z M997 244l-10 -8l19 8h-9zM606 872l-8 9l-12 4zM283 494l-4 4v-4h4zM344 549l-4 4v-4h4z" />
<glyph unicode="x" horiz-adv-x="819" d="M815 43l-8 -37l-25 -8h-207l-22 14l-14 23l-4 22l-27 74l-2 27l-8 26l-17 56l-18 53l-21 72l-16 59l-16 29l-21 -21l-20 -74l-23 -75l-14 -58l-19 -45l-18 -57l-19 -68l-16 -24l-6 -23l-27 -10h-94l-72 -4l-30 4l-19 8l-12 17l12 49l23 63l26 74l19 43l16 51l25 23 l-15 10l11 29l22 55l33 98l10 14l2 25l19 39l20 61l19 48l14 55l-12 31l-15 53l-24 71l-21 54l-22 63l-25 68l-14 53l-27 64l-16 51l-23 73l-14 23l-8 25l-21 53l4 26l35 15l53 -4l72 2h76l31 -15l22 -55v-22l23 -64l20 -76l23 -82l8 -16v-12l8 -19l17 -55l16 4l10 31l19 65 l12 27l16 76l23 59l6 31l27 86l20 31l39 10l41 -2l29 -8l36 8l64 -2l29 -6l10 -21l-10 -39l-31 -80l-19 -16l7 -21l-5 -22l-26 -66l-19 -53l-41 -115l-16 -47l-20 -61l-27 -53l2 -21l-18 -31l-5 -32l-2 -58l25 -63l16 -55l17 -48l20 -63l17 -49l24 -55l19 -62l20 -61l23 -62 l20 -65l17 -50zM588 344v16l-17 -8l4 13l-22 -9l12 -22zM352 676l-4 20h21l6 17l-31 -4l-6 -25zM315 541l13 8l-11 18l-22 -14zM295 659h10l6 -16l25 21zM485 911l-14 -12l18 -18zM281 1040l-9 -20l23 2zM504 518l8 -12l16 26zM549 1120l-14 23l-9 14l2 -22zM260 512l4 -8 l27 35zM289 977l6 31l-14 -19zM465 874l-25 11l23 -23zM301 756l21 -2l-5 14zM475 711l-8 -6l14 -21zM215 1100l6 16l-16 -4zM551 518l20 -4l-12 10zM532 637l7 6l-17 8zM561 377l-6 4v-4h6z" />
<glyph unicode="y" horiz-adv-x="864" d="M809 1485l27 -6l14 -21l-19 -67l-22 -58l-4 -24l-27 -72l-14 -45l-21 -59l-16 -48l-18 -53l-21 -55l-18 -57l-15 -54l-32 -90l-15 -47l-10 -18l-6 -33l-23 -62l-6 -59v-176l4 -55l-2 -31l-2 -66l2 -53l-4 -18l4 -29l-2 -27l4 -24l-6 -27l2 -26l-18 -21l-47 -6h-58l-61 2 h-55l-27 18l-6 31v121l2 68l-4 53l2 57v60l4 57l-2 45l-2 53l-2 49l-8 29l-21 57l-12 39l-17 43l-6 31l-22 74l-21 59l-16 45l-12 41l-21 66l-20 61l-21 55l-14 50l-15 47l-12 32l-26 68l-9 35l7 29l43 12l22 -2h115l53 2l33 -15l8 -30l16 -56l15 -61l18 -59l16 -60l17 -49 l14 -57l17 -56l18 -57l12 -8l13 22l16 68l16 57l17 60l16 63l19 70l16 63l14 27l4 31l15 32l12 -10l10 8l-8 11l37 4h123zM498 819l-27 10l-6 -8l33 -6l12 14l-18 15zM350 727l8 -18l31 6zM203 1098l14 4l-20 6l-11 -21zM356 909l6 6l-10 17l-6 -10zM512 993l-10 -28l16 12z M477 283l-14 -27l14 4v23zM356 395l-20 -10l16 -6zM494 537l12 -5l-2 23zM408 430l-19 25l2 -17zM485 725l15 12l-27 -6zM387 301h10l-2 21zM395 385l6 -12l2 24zM352 293l4 10l-18 -6zM403 840l-8 24l2 -24h6zM616 967l2 8l-18 -2z" />
<glyph unicode="z" horiz-adv-x="813" d="M770 1333l-8 -55l-10 -21l-21 -51l-10 -45l-10 -14l-6 -27l-15 -22l-20 -49l-23 -72l-18 -41l-19 -51l-24 -43l-2 -23l-11 -24l-38 -93l-29 -69l-21 -60l-24 -57l-23 -63l-24 -56l-19 -53l-24 -55l-6 -29l18 -18l66 2h55l47 -4l55 4l27 -6l24 4l50 4l20 -4l31 -21l4 -24 l-2 -29l4 -35l-4 -37v-76l-21 -20l-59 -2l-76 -2l-63 2h-119l-64 -2l-28 8l-25 -6l-59 6l-6 6l-13 -14h-59l-64 2l-43 10l-10 21l-2 24l2 58l-2 51l8 26l21 45l4 23l31 68l20 59l14 41l27 61l37 93l18 51l37 90l23 53l20 62l19 40l24 68l19 31l8 26l20 56l33 75l4 21l27 57 l-4 25l-35 8h-70l-30 -4l-62 6l-16 -6h-41l-31 4l-51 -2l-29 25l4 47l-6 22v125l17 19l22 6l23 -4l20 2h236l55 -2h53l55 2h56l53 -2l49 2l25 -6l14 -25v-117zM174 176l-10 -20l2 -27l24 6l-18 12l21 15zM500 1065l14 12l-10 25l-25 -6zM336 549l-4 -27l20 19zM469 819l20 6 l-4 21zM598 1149l-18 16v-18zM371 119l-6 20l-21 15zM223 281l21 10l-8 2l-21 -4zM283 332l-7 -10l25 -9zM362 565h-18l6 -16zM238 219l18 -6l-6 16zM524 1323l-2 -8l27 -23zM494 25l20 4l-20 4v-8zM522 106l-10 -16h8zM190 82l-4 6v-6h4zM227 49l-4 4v-4h4z" />
<glyph unicode="{" horiz-adv-x="573" d="M481 -127l2 -29l2 -32l-8 -27l-26 -14l-39 -2l-33 4l-55 8l-50 8l-67 35l-47 41l-21 26l-26 48l-7 22l-12 21l-10 69l4 72l8 67l13 56l8 57l12 29l-4 20l10 29l10 61l13 62l8 57l-12 43l-15 25l-49 28l-27 2l-61 5l-27 41l-4 71l6 33l25 14l64 2l55 15l10 12l12 6l15 29 l8 33l-4 32l-10 74l-17 74l-12 59l-17 70l-10 65l-8 70l-2 72l12 75l29 66l20 29l13 8l10 16l53 39l47 25l74 14l57 4l41 -2l37 -12l6 -27l-2 -55v-53l-12 -19l-20 -10l-33 4l-53 -12l-23 -15l-23 -28l-14 -33l-10 -59l8 -52l4 -51l10 -47l2 -35l9 -26l6 -47l10 -52l8 -59 l6 -64l-6 -59l-18 -57l-31 -54l-33 -22l-8 -35l29 -20l8 -17l20 -14l25 -53l10 -56l4 -57l-4 -27l-8 -65l-8 -43l-6 -41l-10 -45l-9 -55l-6 -54l-6 -55l-2 -72l6 -28l12 -29l21 -23l27 -16l22 -6l62 -4l28 -17l8 -28zM184 190l41 5l-6 18l-24 -4l16 6l10 18l-31 -12z M180 289l10 -15l17 2v25zM236 369l-29 20l14 -22zM266 467l4 22l-10 9zM217 1419l10 13h-16zM254 547l-16 6l-15 -6h31z" />
<glyph unicode="|" horiz-adv-x="405" d="M299 29v-35l-2 -33l-8 -27l-25 -14l-41 10l-10 -14l-16 14l-15 -8h-53l-20 21l-3 34l7 66l-9 63l5 39v60l-3 63l3 51l12 15l-15 8l3 33l-3 63l3 70l-5 51l5 23l-3 59l5 64v59l-2 70l-3 57l5 57l-5 76v111l3 75l-5 27l9 41l-4 18l-3 70l3 57l-7 29l7 25v47l-3 53l3 59 l12 39l20 4h47l60 2l39 -10l10 -63v-52l2 -51v-55l-4 -23l4 -24l-4 -41l4 -21l-4 -22l4 -27l-2 -20l2 -45l-4 -21l4 -65v-45l-4 -25l2 -61l2 -64l-2 -55v-51l-10 -33l12 -10l-8 -23l6 -24v-115l2 -57l-4 -56l2 -63v-60l-4 -71l2 -35l4 -57l-4 -56l4 -35l-4 -61zM170 94 l43 -4l-16 41l-15 -14zM201 412l-2 26l-13 8l-8 -14zM219 1047l6 -27l-22 8l-6 19l2 -31h34zM225 659l11 17l16 -8l-12 18l-15 -14h-24zM236 442h14l-23 25l-8 -18zM195 723l24 12l-22 10l-17 -6l15 -2v-14zM184 305v-22l25 43zM203 1415l22 -2l-8 23zM152 188l14 -16l6 25z M207 211l10 12l-20 10zM233 1116l-12 -4l-12 -8l16 -21l-8 17zM193 899l-11 -6l21 4l4 25zM236 1251l-13 17l8 -35zM195 258h-15l23 -16zM201 1153l-15 -10l17 -4zM215 475l-12 21l6 -15l-2 -22zM274 760l-2 10l-14 -20zM201 862l-13 10h-16zM217 745l12 -10l-12 23v-13z M197 510l-15 2l19 -12zM188 588l11 12l-29 -12l20 8zM127 748h10l-10 6v-6zM203 1001l-6 7v-7h6zM174 295l-4 4v-4h4z" />
<glyph unicode="}" horiz-adv-x="573" d="M604 756l-2 -31l4 -31l-12 -26l-62 -13l-18 2v17l-16 -19l-17 4l-47 -38l-12 -23l-8 -33l-2 -35l8 -32l14 -72l15 -70l12 -69l14 -60l14 -73l-4 -17l7 -57l-7 -53l-10 -58l-24 -57l-37 -51l-49 -45l-41 -19l-48 -16l-59 -8l-57 -2l-56 6l-14 39v59l2 47l35 25l18 -2l50 6 l28 12l21 17l16 26l10 33l11 65l-7 31l-8 64l-8 53l-6 59l-19 74l-12 88v49l-2 47l10 54l19 39l43 53l31 20l-46 53l-16 13l-24 45l-15 55l-4 64l10 36l-4 23l13 86l10 25v24l12 74l6 47l17 86v41l-15 59l-22 31l-27 25l-33 10l-61 4l-25 10l-8 33v33l-2 61l10 25l41 12 l58 -2l82 -8l53 -21l45 -26l43 -39l16 -23l27 -47l18 -74l4 -47l4 -57l-6 -27l-6 -71l-4 -11l-20 -40l8 -13l-6 -47l-23 -82l2 -22l-18 -15l8 -18l-8 -27v-32l-4 -54l10 -35l24 -36l19 2l43 -13l55 -2l27 -6zM344 1298l-8 15l8 -25l18 -18l31 18l13 31l-25 -8l-16 -19z M365 1475l16 12l-29 22l-22 -4l18 -12zM344 1563l-18 8l-2 -12l12 -15l29 8zM422 1372l-12 10l-13 -16l19 -10zM317 852l25 -2l-25 8l-16 16l-6 -16zM387 1548l-6 -20l22 -10zM389 1427l4 33l-14 -16zM473 1300l-2 27l-14 2zM356 1247l17 -16l4 12zM326 1231v14l-19 -4z M313 1530l-12 -8h31zM307 512l-6 -10l29 8zM342 575l-8 -6h-15l23 -8v14zM309 963l-16 -7l16 -6v13zM291 549l6 -10l12 6zM352 1233l15 -19l4 9h-4zM375 1376l18 2l-6 4z" />
<glyph unicode="~" horiz-adv-x="1161" d="M1030 782l17 -22l10 -23l-4 -26l-23 -23l-33 -18l-4 -21l-41 -20l-26 2l-6 -31l-37 -12l-66 -13l2 11l-18 -13l-62 5l-59 8l-55 16l-43 23l-45 16l-13 14l-55 19l-78 22l-31 -4l-57 -12l-29 -14l-18 -17l-45 -39l-21 8l-45 54l-34 49l-9 27l17 24l31 33l45 37l63 35 l61 16l58 2l45 2l27 -6l26 2l25 -8l12 -11h18l37 -12l11 -14h22l27 -17l47 -20l65 -27l76 -6l37 10l31 15l30 28l17 9l20 18l23 -6l22 -21zM872 655l13 19l-2 35l-15 -13v-22l-32 33l2 -21l-19 6l10 -26h35zM936 696l-8 11l6 20l-29 -12zM631 684l22 16l-20 15zM725 743 l-20 -4l22 -18zM793 711l-29 -2l20 -4l4 -17zM770 680l-20 27l-17 8zM907 733l-16 4l6 -16zM694 709l31 -2l-16 8zM500 739l12 -4l-2 19zM393 784l4 23l-12 -31zM893 705l2 -9h16z" />
<glyph unicode="&#xa1;" horiz-adv-x="497" d="M381 76v-64l-23 -10l-67 -4l-64 -2h-53l-39 4l-22 29l6 39l-4 16l8 63l-2 31l6 72l-2 29l6 61l-2 29l8 67v53l2 76l4 60l4 71l5 78l2 62l6 18l-6 31l6 73l4 66l14 25l37 4l76 2l35 -11l10 -38l-2 -23l4 -16l2 -43v-50l6 -67l-2 -57l4 -25l-8 -43l16 -55l-4 -41l8 -56v-53 l5 -43v-57l6 -49v-54l4 -51l-4 -49l4 -29zM129 1288l2 55v60l-2 59l21 15l59 2l63 4l64 -2l29 -19l4 -32l-4 -35l6 -33l-4 -29l4 -26l-4 -76l-13 -19l-32 -8l-56 2l-57 -2h-59l-21 25v59zM264 492l-18 6l-15 -13h-14l-6 -14l29 -14l16 16zM254 616v-18l-18 2l12 -6l18 2z " />
<glyph unicode="&#xa2;" horiz-adv-x="753" d="M645 451l17 -21l4 -29l-4 -59v-66l-5 -67l-14 -62l-14 -28l-27 -43l-14 -10l-37 -31l-76 -39l-4 -45v-51l-2 -52l-29 -30h-34l-70 2l-43 10l-8 23l2 55l-2 76l-13 22l-51 23l-45 34l-41 39l-8 25l-23 47l-4 25l-8 98v113l2 55l-4 57l4 19l-4 47l2 49v84l2 78l-2 61l6 53 l17 54l18 34l43 58l21 16l61 31l23 18l4 37l-2 64l4 55l16 18l27 5l55 2l72 -11l14 -24l2 -35l-4 -29l2 -71l10 -25l21 -4l55 -29l25 -20l47 -60l24 -69l2 -35l9 -25v-53l-23 -35l4 -10h17l4 -57l-15 -29l-30 -10h-107l-37 4l-22 16l-4 31v129l-21 49l-24 19l-31 4l-33 -11 l-18 -28l-11 -33l-4 -63l2 -35l-4 -39l2 -29l4 -59l-8 -49l6 -27l-4 -39v-70l4 -59l-4 -41l6 -33l-10 -30l12 -35l19 -33l31 -16l30 -2l25 12l18 20l11 29l2 55l2 54v63l16 23l63 4l23 -9l20 9l29 2zM201 799v20l22 -2l-10 49l-16 19l14 4l6 10l27 2l-17 37l4 -33l-36 -8 l-15 -14h-16v-31l-6 -16l12 12l8 -17l2 -16zM565 805l-20 -2l2 -25l14 -4l21 6l12 23l-16 -6l-9 -9zM408 995l4 25l-23 -4l2 20l-18 -10l8 -22zM547 827l-10 21l-23 -33l18 -6zM485 1008l-26 -2l-33 -7l12 -22l11 16zM530 244l33 12l-18 6h-25l8 -22l17 -19zM260 954l6 4 l-4 17l-18 24v-30zM227 223l13 21h-35l8 -15zM313 1001l-4 -16l17 6l12 19zM365 991l2 41l-15 -28zM377 1120h-27l23 -2l4 -20l14 16zM442 1034l-18 -4l8 -22l8 22zM317 1184l9 -13l22 15zM170 260l4 23l-22 -9v-8l16 8zM188 719l2 -19l17 27zM205 627h24l-24 14v-14z M195 842l6 -23l-17 4zM545 391l-15 -2l9 -22zM190 850l-14 2l35 12zM199 655l-23 -22l23 16l12 17zM168 899l14 -2l-14 10v-8zM403 1139l-4 -15h7zM106 618l-6 9v-9h6zM592 311l-4 6v-6h4zM186 211l-4 6v-6h4z" />
<glyph unicode="&#xa3;" horiz-adv-x="944" d="M852 297v-35l-10 -72l-27 -81l-24 -39l-43 -47l-21 -11l-55 -22l-58 -13l-51 3l-69 8l-54 24l-26 6l-52 19l-51 8l-59 -6l-68 -23l-75 -32l-25 6l-10 24l-4 35l4 68v73l14 29l57 39l45 39l43 53l21 60l18 71l2 64l-6 59l-8 23l-18 14h-88l-58 -4l-24 8l-19 35v65l4 23 l2 49l37 19h72l16 18l-16 72l-14 51l-13 49l-2 41l-8 47l4 27l2 57l17 59l14 43l16 39l25 37l31 41l22 17l47 30l58 27l53 12l88 4l27 -6h26l64 -20l55 -33l31 -27l37 -43l10 -32l20 -21l21 -59l8 -60v-59l6 -72l-8 -33l-29 -24l-26 -2l-27 4h-111l-24 12l-8 29v65l-5 66 l-10 25l-20 24l-21 16l-28 7h-27l-33 -11l-24 -22l-17 -29l-6 -26v-27l-2 -47l6 -25l8 -49l15 -59l16 -54l17 -59l10 -18l78 -4h118l25 -13l10 -26v-62l-4 -63l-16 -27l-45 -2h-78l-35 -4l-12 -27l2 -47l4 -53l-6 -53l-8 -51l-13 -37l-18 -58l-29 -39l-2 -24l25 -17l63 -14 h47l23 8l18 17l17 34l12 66l-4 59l8 52l35 12l57 -2l57 2l46 -8l16 -17l2 -24l-2 -60zM297 846l16 -6l13 22l-31 25l-16 -6l26 -21zM223 756l-2 12l-22 4l2 -16l-6 -19l18 2zM264 1120l23 4l8 35l-16 -10zM328 1278l-31 20l12 -30zM279 1348l22 -37l6 18zM309 1364l-6 -12 l53 14zM227 1124h21l-15 25zM721 1206l-25 -30l27 14zM252 1006l24 2l3 18zM242 1180l-6 -23l20 6zM479 1380l2 -14l-16 -18l33 26zM186 1120l2 -18l21 10zM520 1372h-12l12 -24v24zM285 981l-11 -8l23 -6zM262 920l14 -11l-8 23zM221 152l4 -13l8 25zM252 1210l-10 -14 l10 8l18 -16zM559 754l-20 -4l30 -2zM262 1026l-6 14l12 13l-18 -13zM311 1020l8 -8v8h-8zM346 410l-6 4v-4h6z" />
<glyph unicode="&#xa4;" horiz-adv-x="944" d="M858 1016l-20 -19l-31 -45l-2 -37l6 -34l-2 -64l4 -63l-4 -72l4 -82l-8 -63l20 -35l49 -51l25 -31l-2 -35l-41 -49l-20 -6l-17 -21l-37 8l-57 58l-25 14l-32 -12l-70 -21l-74 -6l-71 -4l-97 12l-47 11l-14 12l-72 -4l-22 -17l-39 -41l-33 -10l-39 27l-10 18l-14 8l-25 39 l4 17l14 22l66 66l12 20l-2 54l-4 67l2 60l-4 28l2 53v56l6 24l-4 23l2 24v50l-18 22l-58 55l-18 31l12 33l45 47l25 16h27l20 -14l47 -49l29 -10l59 16l68 12l63 9l64 2l41 -5l51 -8l51 -10l51 -14l29 6l16 16l39 37l27 14l33 -12l53 -53l16 -33l-20 -33zM616 741l9 41 l-9 27v59l13 9l-13 14l-12 37l-14 12l-64 12l-63 4l-57 -4l-54 -10l-18 -24l-4 -19v-59l-6 -49l-15 -9l19 -10l-2 -20l6 -21l-6 -24l6 -21l-4 -35l2 -67l12 -29l20 -16l27 -11l29 -4l26 2l52 -4l75 13l27 14l14 24l2 31l2 84v53zM520 420l-18 16l10 27l-29 -14l13 -46l12 17 l10 -21zM684 745l12 7l23 -29l2 39l-14 -2zM287 442l6 27l-21 14l15 -28h-13zM262 504l12 -8l-8 24h-22zM698 883l-4 -11l25 -32zM707 492l14 2l-14 12l-13 -10zM242 469l20 2l-10 8l-10 8v-18zM836 397l-9 -14l25 4zM528 1079l-14 -14l16 -4zM465 436l4 23l-14 -17l-23 11z M705 598l18 -14v14h-18zM256 692l-4 -10l20 -6zM231 696l11 2l-15 17zM727 471l-8 10l-4 -10h12zM748 760l-7 4v-4h7z" />
<glyph unicode="&#xa5;" horiz-adv-x="946" d="M852 629l16 -21l6 -26l-2 -66l-6 -61l-24 -19l-33 -2l-18 19l12 -15l-23 -4l-26 2h-64l-53 -2l-51 6l-2 -24l-4 -68l6 -84l-2 -71l-2 -54v-119l-25 -20l-33 -4l-67 2l-54 -2l-26 4l-23 25v38l-2 76v62l-2 71v123l-8 31l-33 8l-63 2l-19 6l-32 -8l-33 2l-62 -2l-24 29 l-6 49l4 43l4 63l22 13l50 2h126l48 4l10 18l-6 25l-31 82l-25 12l-32 2l-27 -4h-82l-43 6l-16 41l-2 66l10 71l22 13l29 2h76l18 18l-4 27l-22 55l-17 51l-18 47l-4 29l-17 43l-16 51l-18 54l-17 47l-16 49v22l30 17h148l57 -4l17 -21l10 -24l16 -50l13 -53l16 -63l23 -68 l6 -37l22 -84l12 -28l21 -66l16 -6l19 63l18 66l33 115l18 63l11 51l12 31l14 61l17 43l20 9l31 2l47 2l29 -4l28 2l58 -2l24 -11l4 -26l-14 -43l-31 -82l-6 -29l-18 -53l-17 -51l-18 -56l-25 -61l-6 -35l-14 -33l10 -26l45 -10l8 8l68 -4l22 -19l4 -55l-14 -8l10 -13v-75 l-22 -21l-57 -4h-121l-27 -8l-16 -27l-21 -67v-25l25 -12h31l55 -2h47l59 4zM483 711l-12 -11l-10 -20l6 -25l22 15h-18l2 20h27l-13 19l11 18l14 39l43 16l-37 -4l-33 4l7 -16l-3 -18zM397 596l15 -31l-21 -4l25 -6l26 6l-16 12l-2 17zM504 596l14 22l-24 -24l-2 14l-23 2 l8 -30l6 20l6 -14l-2 -19l17 11v18zM348 887l-2 -13l35 -10l4 -14l21 22l-39 5zM322 979h22l-12 12l-2 15l-19 -7l-6 -16zM352 930l-8 -6l18 -6l19 -25l-2 22l6 15h-33zM571 504l15 4l-4 16l-19 4l-12 -16zM195 891l24 -14l-6 18l-25 12zM438 483l11 6l10 -18l16 6l-20 19z M575 561l11 -24l20 -17l-18 31zM731 561l23 -24l-4 24h-19zM430 700l-4 -32l14 6zM469 506l25 -12l-5 18zM403 948l-10 -18l21 -2zM395 911l2 -20l19 2zM532 858l-10 -6l13 -25zM401 770l-16 -2l8 -18zM625 938l-4 -16l20 6zM240 530l14 17l-16 2zM408 764l10 -25v25h-10z M422 375l8 18l-14 2zM725 889l-12 -10l20 -5zM436 621l-10 -15l14 -4zM360 535v16l-14 -39zM606 1008v-11l23 17zM551 432l-16 -8l18 -4zM625 1063l-7 -12l23 16zM588 1098l-8 -19h8v19zM557 901l-6 -2l2 -16zM575 418l-6 8l-8 -6zM459 588l-6 4v-4h6zM717 838l-4 4v-4h4z " />
<glyph unicode="&#xa6;" horiz-adv-x="405" d="M113 1012l-7 18l7 25l-4 59l6 21l-6 22l2 29l-2 61l2 62l-2 73v70l4 59l-4 66l4 72l14 22l33 8l24 -4l27 4l45 -2l35 -14l6 -23v-71l-2 -68l4 -61l-2 -62v-51l-2 -70l2 -67l2 -62l-6 -30l2 -51l6 -23l-4 -37l2 -35l-16 -20l-25 -8h-106l-33 8l-10 35zM299 426l-2 -29 l2 -28v-113l-2 -57v-160l-14 -8l12 -21l-16 -28h20l-4 -35l-14 -25l-45 -4l-21 4l-37 -4l-43 2l-20 14l-9 60l7 57l-4 27l4 35l-4 24l2 60l-2 57v78l6 43l-6 20l6 23l-9 69l5 35v70l10 22l-10 13l8 30l31 9l63 2l59 -2l21 -15l4 -39l-10 -28l12 -15l-2 -51l2 -51v-41z M182 1010l6 14l31 23l-12 10v20l-21 -8l-8 -43zM205 475v27l-31 24l10 -28l13 -35h22zM199 539l-4 34l-23 9l16 -25l-16 8l10 -16zM188 248l17 8l8 -10l-6 14l-19 16l-18 -10l16 2zM205 182l18 29l-28 -8zM203 1006l-6 -21l34 14zM221 1034l-14 -16l29 -8zM225 371l23 -6 l-21 26zM199 1161l-4 25h-21l16 -15zM195 1210l-11 15l6 -25l33 12zM186 451l4 -17l-12 -10l12 -10l5 22zM219 1180l-16 12l6 -25zM125 410l16 4l-18 12zM184 4l17 -2l-6 10zM168 225l-14 11v-7zM176 47l6 -6l6 2zM231 1378l-4 4v-4h4z" />
<glyph unicode="&#xa7;" horiz-adv-x="897" d="M801 545l4 -21l-4 -49l-8 -22l-11 -50l-14 -26l-31 -55l-24 -27l-29 -19l18 -40l23 -27l18 -31l21 -49l18 -55l9 -64l-5 -43l-8 -53l-18 -55l-35 -58l-37 -43l-14 4l-2 -16l-47 -29l-56 -22l-61 -10l-59 -4l-52 2l-55 14l-59 20l-41 27l-43 41l-39 45l-23 49l-16 58 l-8 57v59l6 60l14 20l31 6h26l52 -2l65 2l35 -12l14 -72l-2 -55l13 -47l12 -21l22 -16l25 -10l27 -2l28 4l23 12l35 33l4 24l8 17l-10 49l-27 47l-43 51l-29 21l-59 49l-49 41l-45 43l-27 18l-24 27l-43 43l-17 25l-26 30l-19 45l-22 27l-9 35l-14 59l2 23l-4 32l10 72 l23 64l31 53l38 43l15 27l-13 22l-30 43l-33 59l-16 50l-9 51l2 49l11 82l26 65l31 47l41 41l51 33l72 29l22 4l56 6h59l27 -6l53 -8l22 -8l60 -33l43 -35l39 -45l26 -41l21 -51l12 -53v-62l2 -65l-6 -33l-27 -21l-47 4h-57l-59 -2l-31 7l-12 20l-2 29l2 65l10 19l-23 32 l-6 23l-14 18l-21 13l-34 10l-35 -4l-33 -15l-18 -18l-13 -22l-4 -25l2 -51l25 -51l18 -21l45 -41l8 -27l17 3l33 -25l18 -8l35 -37l63 -55l54 -56l18 -12l10 -16l19 -17l37 -55l26 -47l19 -62zM530 410l23 12l16 31l13 55l-4 31l-11 30l-16 27l-94 98l-23 15l-20 20l-56 41 l-30 -33l-17 -49l4 -57l27 -49l37 -43l45 -39l45 -41l39 -37zM215 645l-6 -12l-4 2l-2 -19l14 11l21 2l4 22zM406 403l-25 7l-2 -23l18 -6l9 -8v30zM639 1135l23 10l-23 12l2 17l-14 -13zM182 559l31 6l-10 25l-10 -23l-9 13zM256 8l18 -14l-10 29l-31 4zM590 784l-29 4 l17 -30l-7 -15zM610 717l-2 8l-18 -8l28 -31zM616 745l11 -6l-2 -20l12 20l-6 17zM700 535l15 2l-19 26zM688 1124l-24 6l-2 -16zM307 387l15 -8l-9 31zM668 629l-17 24l13 -30h20zM524 797l8 -15l13 15h-21zM510 229l10 -4l15 21zM498 276l12 -12l6 15zM532 723l11 -16 l6 14zM166 610l12 -12l-4 23zM182 721h-10l6 -16zM408 229l4 9l-19 2zM580 717h10l-10 10v-10zM758 553l-4 6v-6h4zM557 1360l-4 4v-4h4z" />
<glyph unicode="&#xa8;" horiz-adv-x="434" d="M467 1724l2 -30l-2 -70l-10 -27l-27 -6h-27l-59 -4l-68 4l-18 11l-8 22l-2 23l2 51l6 18l-8 23l4 51l10 31l27 8l33 2l122 -4l19 -17l4 -28v-58zM184 1784v-29l-2 -31l4 -38l-6 -72l-16 -21l-31 -6h-33l-30 6l-45 -6l-27 4l-23 13l-6 26v176l15 21l45 4l22 -6l55 8l60 -4 l14 -21zM399 1716l-10 13l-18 10l6 -19zM88 1716l18 -16l7 20l-15 -6zM332 1737l14 -2l4 16zM88 1716l-10 2l4 -14z" />
<glyph unicode="&#xa9;" horiz-adv-x="1474" d="M1436 784l2 -26l-6 -51l-9 -64l-12 -33l-4 -28l-12 -27l-17 -55l-14 -27l-27 -45l-16 -14l-12 -29l-47 -57l-41 -43l-41 -37l-50 -37l-57 -35l-35 -10l-39 -25l-69 -24l-25 -2l-20 -11h-23l-63 -10l-58 -4l-39 8l-16 -4l-86 12h-25l-22 9l-47 12l-70 29l-59 30l-39 27 l-43 33l-41 35l-12 18l-27 20l-39 46l-33 49l-32 57l-25 61l-10 17l-4 29l-13 28l-2 29l-10 31l-8 65l2 53l-4 19l2 22l12 11l-12 18l8 72l10 57l11 31l20 16l-12 4l10 33l31 63l26 50l33 45l35 47l41 41l12 -6l2 16l41 37l47 33l62 37l67 26l52 23l47 10l71 4l25 6l57 4 l66 -4l61 -8l56 -8l20 -8l39 -27l22 4l58 -22l49 -29l39 -31l43 -27l24 -28l27 -21l23 -24l32 -41l37 -51l4 -15l23 -30l20 -52l23 -45l8 -30l14 -58l2 -30l9 -29l-9 -27l11 -43v-35zM1300 774l-2 27l-6 47l2 18l-8 56l-8 26l-16 56l-23 53l-29 53l-24 41l-23 31l-16 10 l-19 22l-43 37l-41 33l-55 29l-41 18l-22 6l-64 21l-57 8l-66 8l-55 -6l-51 -8l-47 -6l-47 -17l-62 -26l-41 -25l-35 -24l-14 -5l-16 -18l-54 -47l-18 -29l-37 -51l-26 -51l-33 -80l-8 -39l-13 -33l-6 -61l2 -25l-2 -67l6 -13l-2 -24l4 -37l11 -37l12 -49l24 -68l17 -16 l28 -49l39 -53l47 -52l29 -16l21 -20l55 -31l61 -31l66 -18l68 -15h30l49 -6l31 4l64 6l32 9l72 20l61 25l29 20l33 14l29 27l12 -4l8 23l25 14l18 29l43 51l33 57l22 51l19 54l14 43l6 71zM987 1042l6 -32l2 -35l-4 -33l4 -29l-8 -26l-20 -17l-29 -4l-55 4l-17 9l-14 28 l2 35l-6 53l-10 25l-17 14l-24 2l-25 -4l-47 2l-61 10l-7 -12l-18 -12l-10 -21l-4 -24l2 -57l-2 -48v-61l2 -61v-52l-4 -26l2 -70l18 -31l39 -10l33 2h55l18 -4l37 6l19 17l8 24l-2 27l6 26l-6 29l4 27l20 20l50 4l53 -6l16 -22l-2 -58l2 -57l-8 -43l-18 -47l-33 -37 l-74 -33l-47 -6l-43 -2l-16 4l-49 -4l-91 10l-55 19l-39 37l-33 61l-6 45l-4 68l4 47l-4 53l4 47l-4 64l4 51v88l15 51l28 45l43 31l43 20l25 2l55 2l60 2l24 -4l55 2l48 -12l30 -10l33 -25l21 -22l16 -27zM559 864l14 15l-22 -11l-23 2l27 -18l-23 -25l19 13zM567 811 l-2 25l-18 -17zM1188 1241l22 6l-10 8zM63 799l11 -4l-19 22zM846 481h-12l-5 -10zM532 688l-6 4v-4h6zM532 815v12l-2 -2z" />
<glyph unicode="&#xaa;" horiz-adv-x="753" d="M727 442l2 -32l-12 -29l-43 -10l-53 4l-58 8l-49 31l-45 41l-33 -21l-28 -26l-29 -13l-57 -16l-62 -6l-53 6l-60 18l-53 41l-31 45l-8 35l-12 14l-14 60l2 31l-4 34l8 39v31l14 57l17 23l4 22l12 29l14 21l43 55l23 18l22 2v17l58 37l18 6l49 26l70 33l51 23l10 24l2 56 l-6 55l-10 26l-18 23l-23 12l-27 2l-34 -10l-17 -10h-12l2 -10l-6 -23l-4 -65l-8 -31l-21 -12h-57l-64 -5l-53 2l-27 29l-2 68l13 57l16 49l22 45l46 56l28 16l45 27l39 14l82 14h47l53 -4l31 -18l17 6l20 -19l16 5l33 -19l25 -20l43 -52l28 -57l13 -53v-39l4 -57l2 -68 l2 -66l-4 -26l4 -31l-4 -35l2 -39v-116l-2 -62v-119l4 -51l22 -12l17 -18l10 -29l-8 -14zM403 604l33 58l4 30l-2 58l2 57l2 49l-4 25l-20 10l-27 -14l-49 -35l-29 -29l-34 -59l-13 -49l-2 -58l6 -24l13 -25l24 -14l47 -6zM190 838l-2 -21l-28 10l-4 -4l12 -20l-12 -6l12 -9 l16 25l15 8l-13 27l-26 -21zM528 905l31 -24l4 30l-10 -10l6 19zM514 725l16 -4l5 22l-13 11l-10 2zM592 555l10 12l-8 15l-19 -19zM555 784l35 -16l-23 18l-8 31zM123 569l-12 25l-11 -21zM588 629l-23 -2l19 -19zM526 965l35 14l-18 4zM170 760l25 14l-19 4zM555 477l-4 6 v-6h4zM221 1462l-6 4v-4h6zM164 557l-4 4v-4h4z" />
<glyph unicode="&#xab;" horiz-adv-x="888" d="M459 471l8 -39l10 -24l4 -27l-14 -23l-35 -2l-67 2l-29 15l-19 26l-18 50l-14 12l-11 16l-32 51l-15 15l-34 43l-33 39l-15 10l-12 18l-33 29l-10 27l4 73l27 27l29 31l36 45l58 67l22 37l47 78l29 43l43 10l53 -2l37 -8l4 -37l-8 -22l-16 -47l-15 -48l-49 -98l-33 -61 l-28 -45l8 -37l8 -15l23 -41l28 -47l11 -26l24 -54zM780 991l-6 -33l-14 -20l-19 -47l-32 -66l-41 -59l-11 -31l37 -67v-21l19 -12l26 -43l29 -66l18 -47l21 -69l2 -33l-23 -19l-81 -2l-33 15l-19 20l-12 27l-31 51l-32 49l-37 49l-39 45l-41 43l-21 15l-10 20l-6 41l14 27 l-14 4l12 37l33 26l14 21l23 20l39 49l61 86l27 46l37 57l28 14l31 -4l31 4l35 -2l18 -22l-14 -74zM354 973l-6 -15l25 23z" />
<glyph unicode="&#xac;" horiz-adv-x="1064" d="M1008 514l-2 -57l-9 -21l-26 -10h-29l-59 -2l-58 2l-20 10l-8 23l-2 30l12 27l-6 21l2 12l-8 33l2 41l-2 63l10 23l-8 24v55l-6 29l-19 8l-35 4l-67 -4h-56l-6 15l-39 -15l-28 2h-54l-53 4l-28 -4l-87 4l-26 -6l-53 9l-27 -9l-27 2h-104l-23 9l-8 30l2 35v62l8 71l23 13 h149l66 -5l47 5l66 -5l75 5l43 2l43 -7l45 2l50 3l63 -3l57 3h185l24 -11l11 -26l-4 -23l4 -49l-4 -57l2 -45l-19 -25l19 -27l2 -49l-11 -65l11 -33v-123zM702 940l11 29l-27 28l-2 -28zM487 958v19l-8 20l-18 -16l6 -25zM612 969l9 18l-17 -18l-16 -11l18 -16h-16l22 -22 v49zM403 948l-6 23l15 6l-27 -2l-2 -45zM905 786l-16 -20l16 -14l17 20zM922 520l-4 21h-19l-8 -33l12 14zM897 612l8 -20l21 10l-11 21zM530 936l15 29l-29 -4zM424 934l18 12l-18 -4l-8 35l-4 -16l6 -17l-10 -14zM311 922l6 4l-30 -2l6 -25zM805 948l20 27l-26 -2z M211 934l14 2l-12 18l-16 -24zM918 885h-29l-19 -17zM879 528l12 29l-17 -2zM866 825l15 4l-17 25zM922 930l-17 -12l10 -15zM905 844l-2 18l-14 -16zM918 686l16 2l-2 17zM338 926l8 -11l2 29zM446 893l15 4l-10 12zM866 666l-4 -11l15 -10zM721 913l29 -18l-13 14z M889 465l4 16h-8zM905 932l-6 -2l6 -4v6z" />
<glyph unicode="&#xad;" horiz-adv-x="653" d="M563 774l-2 -29v-55l-8 -31l-31 -16h-71l-33 4l-33 -2h-74l-35 10l-28 -8l-115 -4l-27 6l-16 29v31l2 49l-4 26l2 23l19 16l26 11h64l55 -5l78 2l65 3h111l35 -7zM209 713l4 18l-29 2z" />
<glyph unicode="&#xae;" horiz-adv-x="1474" d="M1427 885l7 -27l4 -43l-6 -61v-49l-9 -35l-8 -17l2 -18l-6 -37l-29 -74l-41 -86l-28 -45l-31 -43l-51 -49l-41 -49l-41 -29l-57 -39l-45 -18l-21 -14l-45 -17l-51 -14l-49 -17l-50 -4l-61 -4l-59 -2l-58 2l-57 10l-53 17h-21l-30 10l-58 27l-57 28l-53 35l-50 39l-45 43 l-41 47l-34 45l-23 43l-16 21l-23 53l-22 70l-23 75l-8 56l2 28l-6 21v27l12 16l10 29l-14 -25l-4 53l6 68l12 47l17 53l24 62l25 30l-2 23l14 12l8 23l15 16l6 21l31 32l49 52l43 43l20 12l64 49l22 6l13 12l40 19l74 29l62 18l18 -12l23 16l26 4l56 4h55l67 -4l54 -10 l73 -25l39 -8l47 -18l41 -31l11 2l63 -41l27 -22l65 -56l27 -37l16 -34l15 -2l24 -39l31 -54l31 -69l22 -70v-20l8 -19zM1264 602l10 29l10 26v31l8 31v35l8 34l-8 72l-6 53l-12 60l-12 26l-17 48l-24 47l-27 39l-18 43l-15 4l-18 18l-51 49l-54 39l-53 29l-57 26l-35 9 l-78 18h-27l-57 6l-20 -4l-54 -2l-90 -20l-55 -17l-41 -22l-55 -33l-51 -39l-39 -41l-47 -59l-37 -58l-15 -32l-22 -62l-17 -49l-8 -72l-8 -78l4 -26l6 -49l11 -58l12 -51l18 -45l21 -43l30 -49l37 -47l47 -53l48 -37l43 -31l51 -21l53 -24l49 -12l70 -15l57 -2h57l23 6 l61 13l56 14l55 25l45 22l55 33l56 55l39 41l16 27l31 47l20 43zM946 805l8 -19l-32 -30l-7 -23l15 -45v-24l12 -15l-12 -8l16 -12l-8 -17l23 -24l-5 -29l23 -39l4 -69l-29 -9h-75l-33 29l-8 33l-15 63l-16 51v21l-10 18l-9 37l-18 39l-22 -10l-58 6l-28 -4l-39 -14l-5 -29 v-80l3 -53l2 -60l-7 -28l-22 -19l-27 -2l-57 2l-29 15l-6 35l4 40l-2 33v62l-2 63v123l2 55l4 68l-6 14l4 45l-4 35l2 31l4 78l25 18h123l73 -2l50 4l24 -4l25 4l22 -6l58 -6l30 -14l27 -21l18 -22l23 -50l-8 -14l14 -6v-33l6 -67l-4 -37l-14 -64l-15 -28zM813 850l21 12 l10 23l2 37l-6 73l-19 29l-26 6l-56 2h-53l-55 -4l-8 -39l-2 -63l6 -72l37 -12l45 6l12 -12l35 10l35 -10zM899 807l23 -14l16 10l-20 18zM547 971l-17 -6l19 -31l8 10zM543 801l-15 -6l37 -19zM766 1098l-8 -11l26 3zM1358 938l2 -14h16zM547 528h12l-20 13zM655 811l11 2 l-17 8zM127 1028l-4 -2l16 2h-12zM1077 303l-6 4v-4h6z" />
<glyph unicode="&#xaf;" horiz-adv-x="473" d="M508 1683l-2 -43l-6 -36l-21 -15h-53l-55 -2h-123l-25 12l-12 -12l-33 6l-41 -8l-31 4l-59 -2l-67 8l-13 43l-2 66l10 29l21 12l76 4l61 -2l84 2l49 -4l17 4l24 -2l76 -2l33 4l65 -2l23 -27zM289 1657l22 10l-2 16l-18 -14l-19 4z" />
<glyph unicode="&#xb0;" horiz-adv-x="735" d="M616 1358l13 -25l10 -26l4 -60l-4 -57l-12 -55l-23 -45l-41 -52l-20 -8l-15 -18l-34 -23l-64 -22l-68 -2l-55 2l-49 16l-55 29l-39 39l-39 55l-27 65l-2 27l-6 57l12 23l-2 31l13 32l39 68l14 8l10 19l33 24l55 29l68 16l61 2l68 -10l28 -16l19 -4l18 -15l6 -12l31 -18 l25 -31zM381 1102l33 8l28 20l25 25l14 29l8 61l-4 33l-8 25l-35 43l-55 20h-59l-47 -33l-17 -22l-20 -54v-26l8 -33l24 -51l43 -33zM231 1282l9 25l-31 -13zM494 1081l2 11h-25z" />
<glyph unicode="&#xb1;" horiz-adv-x="1142" d="M96 604l-4 25l2 53v68l6 38l41 13l25 -2l33 4l24 -4l49 4l25 -4l27 4l61 -2l74 8l6 18l2 29l-4 25l4 18v64l10 8l-12 2l2 28l-4 25l2 27l8 24l21 17l26 -2l29 6l33 -4h65l27 -29l4 -29l-4 -32v-68l-2 -55l14 -78l25 -2h174l67 -2l31 4l37 -2l22 -17l5 -28l2 -58l-5 -34 l5 -48l-17 -28l-35 -8l-32 4l-23 -4l-24 2l-52 -2l-49 2l-69 -2l-62 -7l-10 -34v-76l-4 -68l6 -30v-41l-10 -27l-37 -10l-25 2l-55 -6l-39 2l-43 18l-4 29l6 39l-6 26l4 66l-4 29v47l10 14l-12 22l-80 9l-47 -4l-60 -2l-24 6l-53 -2h-68zM1044 131l5 -31v-67l-17 -29l-65 -6 l-62 2l-59 -4l-47 10l-41 -6h-66l-65 -2h-127l-56 2l-59 -4l-29 4l-20 -2h-143l-56 -2l-26 8l-13 23l-6 73l4 35l-4 39l10 33l33 12l41 -2l31 4l51 -2h127l35 -14l24 10l33 2l55 2l33 -8l39 8l70 2l22 -4l29 4l53 -6l49 4l23 -4l49 4l59 -4l58 2l20 -10l11 -23l2 -26z M510 721l-29 -16l41 -15l-2 -26l-6 -9l14 4l39 -10l6 21l15 26l-21 -12l-10 -22l-10 12l-31 47l31 49l2 -18l20 -21h-24l30 -20h31l4 10l-12 18l14 31l-20 -18l-4 -21l-17 27l-22 20l39 8l-4 31l-37 4l8 -20l-27 -33v-14l-20 -9zM588 78l-2 20l-13 11l9 14l-4 8l6 12 l-39 -14l-19 27l-18 -11l14 -12l-10 -16l8 -17h23l8 -14l18 14l-10 -10zM537 621l-7 -25h33l35 -8l14 -17l-16 27l-31 20l-12 19zM682 688l-16 21l-19 -17l-2 23l-31 -39l17 -6l10 10l16 -8l13 12l18 -4v25zM387 686l6 -24l17 12l34 -17l13 15l-15 18l-14 10l-6 15l4 -27z M334 707l-6 -29l14 -12l8 16l21 -6l10 20l-25 -6l6 21zM465 127l14 -23l21 9l-4 10l-15 -17l-6 23l-24 4l-17 -27l21 -12l4 10l10 -6zM551 420l10 -12l4 12l23 16l4 27l-12 -25l-17 -6l6 12l-6 27l-26 -8l8 -14l4 14l14 -43h-12zM555 379l10 -25l29 -4l-21 56v-27h-18z M455 731l-11 -16l45 -43l-14 18v31zM643 70l4 14l-12 16l-19 -12l-22 4l14 -12l21 -2zM598 651l-25 -12l7 -18l24 -9l-8 17zM217 113l16 -17l3 15l20 20l-49 -14l8 -11zM549 977l-19 6l13 -31l22 11zM193 141l-3 -12l27 6v27zM709 674v-35l8 18l8 5l6 18zM553 903l10 25 l-26 6zM592 1006l-19 -15l-6 -12l17 -2zM723 88l10 10l12 15l-34 2l16 -4zM322 119l22 4l-29 18zM768 707l-18 -21l20 -18l-8 22zM553 131l14 -4l-37 -16zM481 78l21 -6v18zM256 78l20 6l15 20zM369 141l22 2v15zM868 678l-18 8l31 -29zM573 1018v18l-14 -28zM698 721l-14 8 l4 -20zM195 664l-7 12l-18 -4zM645 1001l-14 -10l16 -4zM643 123l-6 18v-14l-14 -10zM424 188v-10h20zM664 756l-11 -17l-2 -20zM307 639l6 27l-8 -9zM297 731l2 -10l16 -4zM786 770l-4 -8l15 -2zM610 973l-2 -8l8 -23zM580 559l-7 6l-18 8zM629 750l-4 4v-4h4zM809 137l4 4 h-4v-4z" />
<glyph unicode="&#xb2;" horiz-adv-x="602" d="M569 756v-19l2 -24l-4 -25l2 -24v-54l-18 -18l-51 -8l-41 4h-45l-64 -2l-33 6l-36 -4h-60l-55 -4l-25 6h-90l-20 18l-4 31l4 29l2 49l8 24l25 60l40 63l41 56l82 94l41 53l47 57l19 43l18 60l-2 30l-18 31l-35 12l-39 -10l-14 -18l-6 -23l-2 -41l-13 -47l-28 -6h-62 l-59 -2l-25 6l-14 23l-4 57l10 72l-2 20l8 15l21 40l41 48l41 34l51 21l61 14h43l62 -6l69 -16l39 -27l45 -39l33 -59l10 -47l6 -68l-4 -47l-8 -49l-12 -33l-17 -25l-22 -49l-25 -34l-32 -43l-43 -54l-48 -55l-38 -51l14 -15l65 -2l60 2h55l27 -4zM133 672l25 14l-23 16z M268 1399l11 8l-19 4zM248 657l10 7h-10v-7zM481 1288l-6 4v-4h6zM432 721l6 4h-6v-4z" />
<glyph unicode="&#xb3;" horiz-adv-x="600" d="M569 842l-2 -25l-2 -61l-24 -19l16 -6l-16 -49l-33 -47l-57 -41l-68 -29l-39 -6l-63 -4l-58 8l-59 17l-55 32l-23 23l-35 51l-16 43l-6 55l2 76l26 29h19l67 4l45 -4l29 -12l14 -13l-2 -41l4 -28l23 -47l33 -11h26l31 23l14 28l5 72l-5 37l-10 29l-22 18l-27 4l-10 19 l-17 -13l11 21l-21 -6l-2 -15l-22 11l-11 22l4 29l-6 63l13 29h41l20 6l37 27l12 20l17 17l-11 12v63l-8 25l-24 18l-31 9l-29 -19l-22 -22l-4 -19l-11 -74l-30 -12h-37l-56 -2l-47 4l-18 23l-8 55l10 86l12 31l37 53l55 49l27 15l45 20l53 8l6 -16l-2 16l29 4l55 -4l68 -16 l39 -25l39 -26l26 -50l15 -18l12 -35l-6 -35l12 -24l-4 -64l2 -57l-6 -29l-18 -35l-23 -24l-2 -33l14 -12l29 -45l12 -60l-2 -30zM481 1243l-24 10l-13 7l-14 -7l8 -30l19 20h24zM377 1040l-10 29l-33 -6l6 -16l18 10l-16 2l18 2zM446 1204l-30 2l6 -26zM401 1065l-6 -16 l33 -15l-14 23zM422 1368l-4 -27l4 17l16 -17l6 -22v24zM328 1053l2 10l-21 12l2 -16zM78 1284l10 -20l14 14zM401 743l19 -4l-4 25zM422 729l27 -16v14zM346 1008l25 14l-23 2zM477 915l17 -10l-7 27zM444 1223l7 -21l14 8zM406 1370l-17 -18l19 2zM465 958l16 -2l-16 19 l-2 -17h2zM109 1229l4 16l-19 -2zM451 1143l12 8l-23 6zM469 866l-8 23l-2 -15l-4 -2zM473 1163l-16 25l6 -21zM406 1257l16 5h-16v-5z" />
<glyph unicode="&#xb4;" horiz-adv-x="329" d="M416 1898l-6 -34l-35 -54l-35 -45l-35 -51l-35 -47l-16 -14l-8 -27l-29 -24l-27 -15l-45 2h-51l-33 10l-6 23l8 25l27 65l21 49l22 54l25 61l18 22l35 11l29 -2l57 -2l98 4z" />
<glyph unicode="&#xb5;" horiz-adv-x="829" d="M741 193l-2 -27l-2 -74v-63l-24 -33l-23 -4l-67 -2h-72l-25 14l-14 21l4 41l-8 26l-4 -26l-33 -21l-16 -20l-37 -29l-70 -21l-14 -20l2 -25l-2 -57l2 -61l-2 -58l-4 -51l-25 -14l-57 -6l-15 6l-40 -4l-25 14l-8 -12l-27 -2l-24 6l-17 37l2 53l-2 47l-2 76l2 51l6 49 l-6 29v57l2 64v69l-2 47l2 64l-4 69l8 27l-6 29v76l8 18l-8 39v31l-2 59l2 70l-2 63l2 62l2 59l-4 27l2 28v70l21 24l47 5l16 -5l27 2h51l61 -4l17 -26l4 -64l-4 -59l-6 18l-7 -22v-21l13 17l4 -29l-23 -29v-18l21 -8v-160l2 -61l-4 -29l4 -55l-2 -76v-129l4 -31l-4 -33 l2 -30l10 -29l19 -21l26 -6l51 13l27 28l35 51l-8 31v31l2 70v69l-2 60v71l2 66l2 55l-4 47l12 12l14 -2l-24 7l-4 34l2 54v53l2 69v56l12 20l29 8l65 2l70 -2l12 -8l14 8l33 -14l8 -53l-2 -57l-4 -74l4 -25l-4 -31l4 -36l-4 -27l2 -59l-6 -23l6 -33l2 -63l-2 -41v-301z M162 694l-2 -10l14 -16l-4 -21l18 -18l23 10l-33 51l4 17zM184 528l6 -41l23 -16l4 33l-20 -2zM250 477v31l-17 14v-37zM551 807h-8l16 -10l6 -25l10 16l-10 31zM170 872l-16 2l18 -20l21 -2l-11 10l-6 25zM186 340l19 -8h26l-14 18zM205 -2l4 20l-27 -2l8 -14zM188 451 l5 -33l16 14zM281 840l16 14l-27 6zM219 610l-29 -2l52 -12zM156 578l18 10l-10 18zM199 -145l20 -2v20zM162 549l22 33l-18 -9zM223 367l-6 -17l29 10zM262 227l12 19l-12 12v-31zM162 618l20 9l-14 12zM180 178l-20 2l6 -16zM236 631l-19 -10h29zM209 954l-10 -12l22 4z M274 903l-12 6v-18zM266 584l-8 12l-6 -14zM635 821l-14 -6l38 4zM152 975l6 -8l14 4zM651 506l4 4l-4 4l-4 -4zM393 -2l-6 6v-6h6zM221 -106l-6 4v-4h6zM246 -20l-6 4v-4h6zM586 252l-6 4v-4h6zM156 137l2 4h-4z" />
<glyph unicode="&#xb6;" horiz-adv-x="1042" d="M944 6l-8 -20l12 -29l-2 -27l2 -59l-2 -74l-12 -22l-41 -6h-41l-57 -5l-17 13l-12 51l4 27l-2 26l2 53l-4 58l2 59l-4 29l4 80l-2 67v49l2 62l-2 47l2 76l2 86l-4 24l4 45l-2 37v103l6 24l-8 80v72l2 59l6 27l-8 12l2 25l12 41l-12 12l2 25l-4 28l14 60l-22 59l-78 8 l-25 -14l-4 -29v-135l2 -51l-4 -55l2 -23l-8 -25l8 -18l-6 -25l8 -28l-4 -29l2 -27l2 -51l-20 -22l14 -4l6 -50l-8 -49l4 -61l4 -60l-2 -59v-135l2 -72l-4 -51l2 -65l-4 -31l4 -15l2 -71l-4 -70l2 -63v-74l-4 -43l-33 -14l-63 -2l-29 12h-41l-10 22l4 25l-2 24l2 74l17 -8 l-15 12l-6 23h12l-8 16l-2 19l-4 55l4 22v74l10 13l-8 20l-4 72l4 24l-2 43l6 19l-8 34l4 56l4 35l-8 24v33l-27 16h-51l-61 11l-33 8l-55 22l-21 19l-28 14l-13 12l-6 17l-61 57l-17 27l-4 18l-12 17l22 12l-16 37l-2 -27l-31 47l2 31l-16 26l-6 37l8 31l-10 29l2 49v53 l4 37l10 49l25 84l24 51l15 15l8 20l45 55l45 37l31 15l69 32l51 11l50 6l71 -8l52 8l28 -4l29 4l51 -4l19 4h163l23 -6l70 2l22 -8l10 -31l-2 -66v-69l2 -52l-4 -51l2 -55l-12 -8l12 -19v-49l-4 -14l6 -31v-33l-8 -32l4 -29l-2 -27l4 -24l-4 -33l4 -37v-49l-8 -16l8 -31 l2 -33l-4 -76l2 -80v-55l-2 -72l-8 -10l12 -45l-4 -61l2 -54v-67l-12 -21l12 -12v-31l2 -51zM383 1188l-18 -10v18l-17 12l-20 -18l-21 -10l23 -4l6 14l18 -16l45 -19l13 8zM223 1073v21l-24 -15l14 -8l-29 -12l15 -33l-4 -18l24 20l-16 16l14 11zM344 1280l-14 -4l12 -4 l18 -15l-26 -2l14 -14l8 -2l13 -18l10 36l-23 13l6 20zM170 1122l2 -12l23 2l8 21l20 10l-14 16l-19 -26l-20 2l-16 8zM481 1198l-26 -18l-19 -9l4 -16l49 27l-6 16h-2zM131 1079l-16 -6l12 -22l18 -4l19 10l-19 -4v20zM358 600l25 -6l23 2l-23 27zM375 1135l18 -5l-20 11 l-19 16l-16 -6l20 -27zM461 1298l-12 15l-19 -2l2 -54l4 25l13 21l4 -21zM549 985l-8 19l-23 -11l2 -20l15 -17l-3 21l-10 8h27zM172 1208l-27 -6l41 -37l-2 21l-14 4zM319 1147l-26 -8l2 -17l16 6l19 21l-17 12zM393 674h27l-31 37zM205 1235h-21l25 -31l8 19l-2 12 l-18 -10zM92 948l19 23l-2 20l-17 -10v-33zM315 1057l43 16l-2 25l-18 -23zM379 850l24 2l15 -16l-6 28l-27 -2zM362 1368l-24 -12l-4 -21l22 -4l-12 8l18 9l-14 4zM485 942l-24 19l2 -21l-6 -18zM551 1147l-21 8l-6 -16h15l8 -15zM422 1395l-10 -27l24 8l-6 15l10 4h-18z M524 776l19 15l6 24l-17 -12zM358 1040l43 -4l-10 17zM383 1454l-4 -16l24 4l-10 12l-2 14zM367 948l6 31l-19 14zM508 1102l-8 -29l26 14zM291 1341h-10l10 -12l8 -26l8 10zM467 1278l4 -10l12 -13l4 25zM881 39l-25 4l-2 -23zM289 739l18 -22l6 22h-24zM535 1221l-35 4 l22 -19zM532 1063l9 12l-21 -8l10 -33zM420 969l10 26l-22 -10zM305 874l33 -6l-19 19zM399 1358l9 -6l-9 20l-24 10zM45 1053h16l-14 26zM420 653l18 -2l-10 25zM522 139l-8 -16l21 10l6 12zM315 1241l-10 -14l17 -19zM311 1460l-2 -22l21 22h-19zM160 985l-6 -27l10 11 l4 32zM219 831l23 5l-19 14zM795 905v27l-15 -19zM244 731l39 19h-21zM131 965l-8 -21l27 21h-19zM551 1190l-8 -6l8 -13l12 -4zM473 870l23 9l-21 2l-18 -19zM842 1020l-15 -6l21 -17zM385 991l12 25l-22 -17zM426 1016l-25 10l11 -18zM494 924l-11 -17l19 -4zM555 43 l4 -16l16 18zM582 1112h-17l15 -20zM420 793h8l-6 12l-19 2zM522 1108l19 10l-21 6zM510 -125l-4 -12l24 -4zM504 227l12 -10l6 21zM139 995l19 27l-19 -10v-17zM797 950l-4 23l-11 -15zM145 870h-12l4 -22zM899 1165l4 19l-16 -8zM342 1110h-18l4 -14zM549 1110v-18l14 18 h-14zM463 1247l2 17l-16 -2zM287 1110l16 -18h14zM426 1208l-6 -14l16 -4zM158 739l4 11l-25 -2zM465 543l6 16l-22 -20zM197 836l-13 -7l13 -12v19zM319 1393l-24 2l12 -11zM272 702l4 -24l9 4zM348 831h19l-2 35v-26zM272 1249l29 -6l-29 12v-6zM543 225v-8l20 4zM487 782 l21 6l-21 3v-9zM252 688l-6 8v-22l-6 -17zM592 692l-12 15l12 -27v12zM268 770l13 27l-7 -2zM383 651v-16h8zM406 1094l-17 22l10 -20zM424 1415l-10 4l12 -14zM596 336l4 -2l12 16zM403 1245l-8 2l17 -14zM188 1147l-16 16l-10 6zM92 907l-6 8v-8h6zM518 1184l-4 -4l18 8z M252 1378l-6 4v-4h6zM264 1307l-6 4v-4h6zM834 152l-5 4v-4h5z" />
<glyph unicode="&#xb7;" horiz-adv-x="479" d="M391 743l-4 -20v-16l-10 -31l-19 -29l-22 -24l-27 -21l-47 -12l-51 2l-37 12l-22 14l-37 35l-17 33l-8 55l6 47l10 13l13 28l18 19l43 33l17 2l67 4l29 -19l14 6l12 -18h19l16 -20l35 -62zM221 659l12 19l-18 37l-25 -6l9 -15l-4 -18l10 16l2 -20zM274 684l19 12l-47 13 l22 -15zM287 801l-4 4v-4h4z" />
<glyph unicode="&#xb8;" horiz-adv-x="436" d="M410 -274v-31l-9 -33l-26 -55l-23 -27l-67 -47l-29 -8l-59 -8l-60 4l-63 16l-29 21v41l6 43l31 18l65 -10h25l27 6l30 20l9 37l-9 39l-10 23l-31 -2l-45 -2l-24 -9h-27l-24 9l-29 22l-6 35l14 22l35 41l35 52l37 51l30 14l64 2l24 -14l-6 -35l-24 -27l-15 -32l15 -17 l57 -6l35 -14l35 -33l34 -53z" />
<glyph unicode="&#xb9;" horiz-adv-x="512" d="M430 893l-2 -33v-39l2 -67l-4 -62l2 -67l-18 -19l-52 -4h-57l-55 2l-25 10l-10 27v31l-2 61l4 29l-6 24l6 45l-4 29v58l-2 59l4 53v62l-2 47l-33 6l-67 -35l-27 -6l-23 14l-6 27l2 26v54l-2 59l13 31l20 18l53 29l70 47l27 12l10 19l71 43l21 -4l18 6l68 -19l-4 -34 l8 -46v-55l2 -63l-2 -58v-55l2 -59v-56l-4 -57l6 -16l-4 -27l4 -25zM274 1333l-6 -14l8 -4zM309 1292l-4 4v-4h4z" />
<glyph unicode="&#xba;" horiz-adv-x="747" d="M694 762l4 -25l-6 -22v-64l-10 -51l-8 -16l-17 -56l-51 -67l-14 -8l-10 -17l-39 -24l-58 -25l-59 -14h-109l-34 8l-47 16h20l-16 9l-7 -9l-22 15l6 14l-22 -8l-35 26l-39 39l-29 45l-10 27l-19 59l-8 52l-4 63v193l2 73l-6 62l6 69l-2 48l4 47l13 41l2 24l10 27l31 61 l49 58l63 41l15 4l16 -4l4 16l70 12h34l58 2l51 -10l21 -12h20l31 -21l28 -10l43 -45l13 -29l16 -10l33 -82l16 -65l2 -66v-80l4 -55l-6 -66l4 -71v-70zM436 608l23 31l6 41l-6 68l2 30l2 62l-4 71l4 33l-2 70v160l-12 73l-23 35l-39 12h-33l-26 -14l-21 -25l-12 -30l-6 -68 v-70l-2 -65l4 -68l-4 -41l2 -39v-161l-8 -27h6l16 -63l19 -21l22 -16l23 -4l53 10zM586 999l20 5l-8 24l4 -20l-29 6l-6 20v-16l-16 -27zM158 672l10 16l12 14l-16 25l-21 -22l23 -7zM537 606l18 25l12 18l-20 -8l-4 -18l-8 22l-7 -22zM643 676l4 14l-14 10l-12 -16z M522 944l17 4l18 19l-27 -6zM199 1069l2 -20l12 12l-2 22zM270 1368l11 14l-13 7l-10 -19zM125 1174l-12 -19l18 2v25zM166 1128l-21 -18h15l8 -8zM96 1018h25l-17 18zM195 899l-19 19l-2 -21zM547 885l10 18l-25 -4zM184 807l13 24l-23 -18h6l8 -22zM201 569l16 2l10 17z M152 1208l-2 -12l20 8zM575 948l3 10l-19 -2zM223 813l-24 -31l28 31h-4zM471 389l-6 6v-6h6zM633 897l-6 4v-4h6zM283 860l-7 4v-4h7z" />
<glyph unicode="&#xbb;" horiz-adv-x="888" d="M817 743l2 -28l-8 -25l-18 -26l-37 -31l-37 -49l-39 -47l-33 -48l-37 -57l-45 -70l-41 -10h-55l-37 23l4 43l21 41v24l14 19l2 24l16 29l19 35l29 61l30 45l8 19l3 39l-27 45l-31 47l-14 39l-14 22l-9 27l-26 59l-23 74l-2 35l21 14l28 2l72 -4l27 -18l26 -43l6 -39 l35 -31l23 -33l2 -16l20 -12l17 -23l28 -39l13 -6l49 -55l12 -25l-2 -10zM465 664l-27 -23l-22 -27l-29 -24l-22 -31l-33 -39l-15 -22l-18 -19l-10 -4l-6 -43l-31 -53l-51 -23l-51 2l-44 15l-8 4l8 51l19 45l16 49l23 51l12 19l10 29l31 34l6 19l27 61l-6 25l-47 71l-25 56 l-27 55l-20 55l-23 64l-2 37l21 18l67 4l39 -8l27 -25l27 -51l30 -55l39 -47l10 -31l23 -10l23 -31l53 -51l24 -31l4 -24l-6 -66zM545 395l18 11l17 18l-25 10l-14 17l10 -13l2 -24zM276 881l-8 -19l15 6l4 17l10 12l-35 -2zM401 678h13l-15 14l-6 -18l17 -12zM600 844l18 8 l-20 10zM627 909l-21 -4l15 -12zM360 795l-4 -17l15 -8zM553 1042l-8 21v-33zM250 944l24 -8l5 16l-11 -12zM176 371l-6 6v-6h6z" />
<glyph unicode="&#xbc;" horiz-adv-x="1404" d="M1360 289v-31l2 -33l-4 -28l-25 -19l-65 -6l-4 -66l4 -65l-6 -33l-23 -22l-25 -2l-55 2l-31 -6l-57 10l-14 22l2 25l-6 53l4 27l-2 47l-29 14l-37 -2l-49 -2l-25 6l-28 -4l-53 4h-39l-25 19l-4 34l2 33l-2 60l12 43l21 41l30 65l27 62l27 55l16 20l14 35l21 45l10 31 l27 55l33 60l16 18l27 8h69l29 -4l29 2h65l21 -18l4 -29v-135l4 -68l-2 -28v-70l-9 -31l9 -59l-6 -55l34 -9l43 -2l19 -16zM805 741l-14 -22l-11 -25l-30 -57l-41 -59l-17 -41l-14 -21l-23 -47l-26 -47l-25 -47l-35 -60l-45 -86l-30 -55l-27 -47l-23 -39l-30 -53l-27 -25 l-43 -4l-72 -2l-32 6l-13 31l27 53l12 17l27 57l41 74l28 51l31 41l13 35l12 20l18 39l21 29l10 22l27 43l26 56l29 49l8 24l14 19l43 80l15 10l6 24l16 35l29 47l45 90l35 58l35 63l20 29l10 29l29 32l-4 13l43 73l16 39l35 58l37 69l16 13l19 45l28 12l37 -2l78 4l33 -35 l-8 -26l-35 -58l-14 -29l-31 -55l-25 -51l-30 -47l-15 -29l-33 -59l-24 -43l-21 -41l-32 -60l-37 -65l-29 -51l-27 -51zM248 1141l-25 14l-37 -16l-67 -27l-31 4l-10 29l2 49l-4 61l8 29l-4 8l4 21l20 22l31 13l31 6l6 18l23 12l45 27l55 39l51 33l66 8l34 -4l25 -21l4 -34 l-4 -35l2 -33l-2 -66v-137l2 -65l2 -62l-2 -67v-340l-22 -17l-27 -4l-29 4l-57 -2l-59 -2l-23 12l-8 35l2 37v178l-6 84l6 52l-2 61v76zM1049 365l10 22l-2 27l4 57l-4 33l-13 14l-22 -39l-25 -49l-20 -55l24 -15l23 -2zM344 848l14 16l-26 10zM360 909l37 -4l-28 23l6 -13z M1075 170l19 -14l4 16zM1157 334h19l-23 8l-6 -23zM248 1296v-12l18 -6zM952 1260l-4 -3l19 3l8 12z" />
<glyph unicode="&#xbd;" horiz-adv-x="1449" d="M866 608l2 17l11 43l-5 22l9 33l10 33l25 12l-13 6l21 31l53 47l65 31l64 10h66l34 -14l33 4l64 -31l16 -16l41 -35l16 -25l17 -43l12 -82v-55l-10 -59l-29 -56l-29 -63l-18 -19l-12 -24l-33 -33l-12 -23l-21 -14l-51 -67l-35 -52l14 -10l60 -2h49l41 4l16 -4l21 2 l39 -12l10 -21v-59l-2 -72l-12 -26l-29 -9h-68l-67 -2h-66l-69 2l-47 3l-68 -5h-61l-35 7l-17 24v31l4 67l7 17v16l14 33l43 74l33 37l10 22l27 29l45 53l55 64l47 69l31 57l8 64l-12 31l-29 22l-33 2l-16 -12l-19 -23l-10 -49l2 -28l-10 -31l-39 -8l-29 6l-26 -4l-29 2 l-29 -4l-28 8l-13 20l-4 25v12zM889 946l-4 -24l-31 -48l-23 -49l-28 -43l-15 -30l-28 -56l-21 -16l-4 -25l-18 -14l2 -20l-39 -60l-8 -22l-27 -54l-24 -36h-15l8 -15l-28 -53l-31 -53l-27 -58l-22 -30l-25 -41l-32 -68l-35 -59l-27 -54l-22 -12l-31 -6h-62l-61 4l-6 31 l20 47l19 24l8 21l24 43l37 66l31 61l31 53l26 47l21 6l-4 29l37 64l39 73l30 54l21 30l12 33l33 57l18 21l10 35l13 14l20 41l21 39l16 12l4 19l27 55l29 51l20 21l-4 12l49 86l29 51l16 29l35 69l18 9l9 32l20 43l23 48l43 49l26 4l29 -2l72 2l36 -17l-18 -59l-16 -23 l-31 -61l-33 -57l-33 -56l-12 -32l-12 -19l-31 -51l-29 -55l-30 -58zM227 1135l-14 16l-53 -16l-6 -11l-25 -14l-29 -8l-24 18l-6 39l2 35v57l8 56l16 18l58 31l55 39l27 8l8 14l57 49l47 17h72l24 -19l2 -57v-59l5 -68l-7 -43l5 -27l-5 -36l5 -19l-5 -16l2 -47l3 -58v-225 l-5 -25l7 -53l-5 -22l3 -56l-15 -43l-55 -6l-62 -2h-61l-23 16l-6 29l4 31l-4 41l2 49l-4 76l6 24l2 62l-6 26l9 56l-9 18v105zM1303 731l-21 19l-25 12l5 -17l26 -14l2 -18l-16 -29l-2 -12l37 22zM367 901l6 -16l-25 2l-2 -39l-16 -39l18 10l14 39l21 29zM326 702l-15 37 l-24 -26l14 -8zM1245 805l-14 -19l-4 -16h22l11 14zM328 854l-25 -10l6 -17l19 7v20zM1081 236l-6 22l-24 -39zM1042 770l23 25l-18 -7l-19 5zM430 1358l-18 -4l10 -31zM1290 614l27 -6l-19 27zM1284 520l4 15l-20 -7l-6 -16zM1229 440l22 31l-20 -2zM354 688l15 14l-27 11z M967 635l-9 10l-8 17l-12 -15zM999 721l11 -10l20 28zM977 641l18 21h-22zM1333 651l-10 -16l35 12zM1106 760l16 -29l2 23zM641 653l18 9l-20 10zM1223 655l22 -10l-4 17zM995 178l-8 37l-4 -18zM420 1186l-17 -10l-2 -19zM901 1182l23 -29l-6 18zM373 844l12 -4v18z M623 737l-5 -10l23 4zM823 856l-6 6v-6h6zM801 877l-6 4v-4h6zM334 872l-6 5v-5h6zM1217 414l-5 4v-4h5z" />
<glyph unicode="&#xbe;" horiz-adv-x="1421" d="M307 569l-41 2l-61 13l-47 18l-56 39l-39 51l-22 58l-4 65l6 74l20 16l25 -2h51l56 4l24 -6l21 -37l-2 -20l8 -45l14 -23l25 -18l30 -6l29 10l25 33l2 22l14 51h-12l6 13l-12 53l-15 14l-22 13l-43 6l-43 14l-8 72l8 59l30 18l37 9l35 14l19 23l10 22l-4 37l-11 47 l-18 49l-27 -14l-28 -2l-27 -25l-14 -26l-4 -66l-6 -10l-46 -19l-36 2l-74 3l-29 10l-8 28l-2 39l6 60l14 55l15 27l16 18l31 39l20 14l52 33l26 10l76 15l33 -4l69 -9l23 -18l16 4l31 -16l55 -47l19 -31l22 -53l2 -35v-66l-6 -16l12 -10l-4 -25l-6 -57l-14 -29l-19 -25 l-12 -34l39 -50l8 -53l13 -24l-9 -29l11 -31l-5 -47v-43l-6 -26l-16 -48l-16 -24l-41 -49l-27 -15l-57 -26l-64 -15zM1378 250l-2 -33l-4 -24l-20 -17l-56 -8l-14 -25v-112l-6 -31l-23 -18l-36 -2l-74 2l-51 2l-17 28l-2 33v49l-2 58l-16 20l-29 4l-29 -2l-75 2l-17 -6 l-18 4h-60l-30 6l-15 31l6 49l-6 66l17 51l28 53l25 57l25 5l-23 2l12 24l39 51l-2 25l33 61l29 70l36 74l21 2l-12 16l16 25l29 18l32 -8l21 10h78l61 -4l27 -12l10 -23v-28l-4 -66l4 -37l-4 -33l2 -38v-54l-2 -55l2 -55v-70l10 -25l62 -8l20 -20l4 -27v-57zM827 696 l-16 -28l-31 -54l-26 -51l-25 -47l-29 -49l-32 -61l-29 -48l-27 -49l-22 -45l-21 -10l17 4l-21 -37l-53 -98l-20 -21l-5 -22l-41 -66l-32 2l-8 -10l-25 -6l-16 10l-27 -8h-35l-31 16l4 33l19 35l29 51l14 19l24 53l33 51l19 39l32 45l17 51l16 25l33 61l39 70l39 72l39 65 l22 43l25 45l22 45l27 47l14 11l6 22l25 49l23 6l-13 7l25 49l35 61l20 23l14 45l17 33l41 67l18 41l19 29l30 59l35 64l31 41l20 10l74 -2l55 4l23 -10l-2 -29l-23 -47l-26 -47l-31 -54l-29 -63l-26 -39l-29 -57l-31 -51l-26 -52l-27 -49l-24 -43l-23 -43l-35 -45l-12 -27 l-25 -57zM1044 356l29 27l4 23l-4 24l2 62l-12 24l-14 -20l-9 -25l-18 -31l-27 -55v-23l25 -6h24zM1112 780l10 -12l-28 2l14 -20l4 -31l6 -12l23 16l-2 31l-11 30zM844 930l-17 -10h17l6 -21l-25 6l9 -20l-11 -8l15 -11l30 15l-12 14v16zM995 651l11 -10l-7 -18l15 -7l30 7 l5 -7l-11 29l-4 -2zM479 752l17 14l-19 10l-14 -24v-39l14 22zM518 877l-18 -3l-19 -14l4 -16l15 -13v-16l2 19l-17 22l23 4l24 -2l-16 4zM375 1032l16 17l-2 20l-18 -8zM803 862l-15 -8l-8 -14l-4 -35zM414 678l12 10l-12 19l-17 -27zM666 440l-19 13l-2 -33zM1198 618 l4 21l-20 -4l-4 -8zM1118 743l-8 11l20 4l5 -25zM1092 688l6 10l-15 2l-14 -28zM471 1186l-8 -6l2 -23l12 8zM891 971l-29 2l17 -19zM479 948l-12 -12l16 -23zM477 1018l-18 6l2 -25zM961 530l26 27l-20 -6zM942 520l-14 -18l30 14zM420 1063l-14 -16h20zM1071 752h-16 l18 -21zM426 723l-2 -25l12 21l-20 14zM1186 764l-17 -12l23 -2zM334 1389l12 16h-18zM410 1081l-13 23l9 -39zM471 813l16 -6l-20 14l-14 -14zM311 1047l15 20l-17 -4zM1071 788l-16 -20l16 6v14zM1163 571l31 4h-23l-6 13zM1034 799l-2 -11l21 -2zM295 1425l2 11l-18 2z M557 399h-10l2 -16zM317 635l11 12l-11 4v-16zM1145 776l4 -10l12 6zM379 963l4 -9l12 9h-16zM1176 528l-2 7l-15 -21zM1059 616l18 13l-18 -6v-7zM936 971l-6 4v-4h6zM1036 643h-2l-16 -10z" />
<glyph unicode="&#xbf;" horiz-adv-x="702" d="M672 307v-24l-10 -68l-5 -2l-6 -37l-28 -59l-19 -23l-12 -26l-68 -54l-67 -28l-41 -11l-49 -4l-19 2l-74 4l-51 17l-61 33l-35 26l-18 23l-35 41l-11 28l-16 54l-14 53l2 24l-4 31l8 64l16 57l2 27l21 43l22 47l33 59l31 43l43 70l37 63l18 54l21 63l10 66l2 65l8 25 l29 12l28 2l50 -4l57 2l22 -6l11 -41l-2 -70l-9 -53l3 -27l-11 -22v-27l-8 -20l-4 -39l-25 -62l-24 -59l-31 -57l-31 -50l-18 -49l-23 -53l-18 -45l-12 -63v-35l6 -35l14 -27l25 -20l30 -6l33 10l23 20l24 62l4 33v65l5 37l20 23l92 4h64l32 -11l9 -30v-43zM283 1360l-4 78 l8 6v22l28 11l31 4l74 -2h72l20 -13l6 -16l2 -29l-2 -71l2 -80l-4 -37l-27 -21l-22 11l-4 -15l-55 2h-54l-53 2l-18 43v105zM274 694l13 -22l14 -19l2 23l12 -23l25 15l-39 10l12 18l-12 25l-18 -21zM326 913l4 -16l14 25zM551 338l-19 -4l13 -15zM553 199l6 16l-18 -6z M383 879l-6 -21l12 2z" />
<glyph unicode="&#xc0;" d="M838 57l2 -24v-23l-15 -10l-37 -4l-57 2l-29 16l-14 -16h-86l-22 14l-11 25l-6 47l-2 45l-8 21l-4 38l2 19l-4 14l-8 47l-17 33l-39 -4l-75 4l-62 -4l-24 -12l-9 -56l-10 -49l-8 -55l-4 -49l-12 -51l-13 -19l-28 -8h-129l-54 -2l-22 12l-8 43l8 21l2 32l12 62l12 67l9 54 l12 57l2 33l10 53l12 47l9 74l8 35l8 57l8 21v18l6 47l23 21l-19 2l9 39l12 38l-2 27l6 27l10 59l11 62l10 51l4 22l8 37l2 25l14 67l9 56l10 69l10 58l10 28l-4 13l6 20l21 14l8 17l37 -2l59 2l52 -8l12 14l39 -6l35 2l34 -4l21 -23l14 -63l8 -60l11 -63l10 -51l8 -66 l16 -47l5 -49l8 -47l-11 -21l13 -16l-2 -12l12 -15l4 -33l-8 -8l14 -14l2 -33l11 -31l6 -43l-21 -14l27 -10l4 -41l14 -70l8 -55l11 -74l12 -47v-24l14 -48l6 -53l13 -78l14 -75l8 -58l10 -61zM436 535h31l27 14l2 26l-7 56l-12 53l-8 57l-10 50l-8 63v33l-11 39l-14 35 l-25 -89l5 -20l-5 -27l-8 -65l-10 -55l-10 -64l-6 -61l6 -41l30 -7zM522 961l17 4l14 -15l8 15l-14 14l-27 6l17 16l16 -12l18 6l17 15l-33 14l-20 -8l-19 28l14 -28l-24 -2l12 -10l-2 -25zM600 555l25 2l16 -16l-6 20h-23l13 12l-4 37h-39l12 -4l6 -26v-25zM530 1122l-12 6 l4 -28l15 4l14 -4l-2 22h-19zM291 928l16 -4l8 30l-36 -16zM586 995l-15 -2l9 -24l22 -2zM276 627l27 16l-20 8l-17 -24l21 -13zM141 473l2 6l-2 21l-12 -64l-20 4l12 -16l16 20zM504 406l-6 14l-25 4l21 -27zM561 795l33 10l-19 16zM623 311l12 -2l4 25l-29 -15zM319 997 l-18 -24h27zM582 848l16 -14h6l-4 22zM352 1272l-16 10l-12 -22zM276 741l29 9l4 12l-4 6l-10 -14zM608 692v-20l13 14l-21 29zM612 891l-20 -8l14 -17zM549 930l4 -12l16 2l-2 12zM309 733l17 10l-15 17zM645 625l-24 -13l18 -8zM162 403l18 5l-10 20zM604 913l-8 15l8 18 l-20 -26zM299 1124l4 21l-20 -8zM553 1243v21l-18 -19zM352 1325l-10 -10l25 -12zM637 520l20 -14v18zM397 1210l-4 -14l31 16zM567 1090l-14 -19l10 -12zM248 629l4 14l29 21l-27 -9zM668 219l-4 25l-15 6zM301 588v14l-20 -12zM334 1028l22 -6l-20 18zM604 813l-4 -18 l16 8zM276 698l17 -12l2 14zM244 588l30 -4l-30 12v-8zM545 838l4 20l-14 -27zM602 477l10 -14l6 8zM279 815l6 -8l12 8h-18zM623 459l12 -2v12zM557 854l8 14l6 29zM670 293l-6 8v-8h6zM227 690l-6 4v-4h6zM324 1102l-7 4v-4h7zM342 889l-6 4v-4h6zM244 391l-4 4v-4h4z M604 436l4 4h-4v-4zM555 1659l8 -31l-4 -29l-35 -10h-98l-12 10l-25 11l-24 43l-15 12l-24 43l-27 27l-6 16l-14 10l-23 39l-33 41l-22 39l6 21l22 6l29 -4l37 6h113l36 -8l17 -25l26 -51l7 -31zM397 1774l-4 6l-20 35l4 -27zM309 1872l-6 6v-6h6z" />
<glyph unicode="&#xc1;" d="M838 57l2 -24v-23l-15 -10l-37 -4l-57 2l-29 16l-14 -16h-86l-22 14l-11 25l-6 47l-2 45l-8 21l-4 38l2 19l-4 14l-8 47l-17 33l-39 -4l-75 4l-62 -4l-24 -12l-9 -56l-10 -49l-8 -55l-4 -49l-12 -51l-13 -19l-28 -8h-129l-54 -2l-22 12l-8 43l8 21l2 32l12 62l12 67l9 54 l12 57l2 33l10 53l12 47l9 74l8 35l8 57l8 21v18l6 47l23 21l-19 2l9 39l12 38l-2 27l6 27l10 59l11 62l10 51l4 22l8 37l2 25l14 67l9 56l10 69l10 58l10 28l-4 13l6 20l21 14l8 17l37 -2l59 2l52 -8l12 14l39 -6l35 2l34 -4l21 -23l14 -63l8 -60l11 -63l10 -51l8 -66 l16 -47l5 -49l8 -47l-11 -21l13 -16l-2 -12l12 -15l4 -33l-8 -8l14 -14l2 -33l11 -31l6 -43l-21 -14l27 -10l4 -41l14 -70l8 -55l11 -74l12 -47v-24l14 -48l6 -53l13 -78l14 -75l8 -58l10 -61zM436 535h31l27 14l2 26l-7 56l-12 53l-8 57l-10 50l-8 63v33l-11 39l-14 35 l-25 -89l5 -20l-5 -27l-8 -65l-10 -55l-10 -64l-6 -61l6 -41l30 -7zM522 961l17 4l14 -15l8 15l-14 14l-27 6l17 16l16 -12l18 6l17 15l-33 14l-20 -8l-19 28l14 -28l-24 -2l12 -10l-2 -25zM600 555l25 2l16 -16l-6 20h-23l13 12l-4 37h-39l12 -4l6 -26v-25zM530 1122l-12 6 l4 -28l15 4l14 -4l-2 22h-19zM291 928l16 -4l8 30l-36 -16zM586 995l-15 -2l9 -24l22 -2zM276 627l27 16l-20 8l-17 -24l21 -13zM141 473l2 6l-2 21l-12 -64l-20 4l12 -16l16 20zM504 406l-6 14l-25 4l21 -27zM561 795l33 10l-19 16zM623 311l12 -2l4 25l-29 -15zM319 997 l-18 -24h27zM582 848l16 -14h6l-4 22zM352 1272l-16 10l-12 -22zM276 741l29 9l4 12l-4 6l-10 -14zM608 692v-20l13 14l-21 29zM612 891l-20 -8l14 -17zM549 930l4 -12l16 2l-2 12zM309 733l17 10l-15 17zM645 625l-24 -13l18 -8zM162 403l18 5l-10 20zM604 913l-8 15l8 18 l-20 -26zM299 1124l4 21l-20 -8zM553 1243v21l-18 -19zM352 1325l-10 -10l25 -12zM637 520l20 -14v18zM397 1210l-4 -14l31 16zM567 1090l-14 -19l10 -12zM248 629l4 14l29 21l-27 -9zM668 219l-4 25l-15 6zM301 588v14l-20 -12zM334 1028l22 -6l-20 18zM604 813l-4 -18 l16 8zM276 698l17 -12l2 14zM244 588l30 -4l-30 12v-8zM545 838l4 20l-14 -27zM602 477l10 -14l6 8zM279 815l6 -8l12 8h-18zM623 459l12 -2v12zM557 854l8 14l6 29zM670 293l-6 8v-8h6zM227 690l-6 4v-4h6zM324 1102l-7 4v-4h7zM342 889l-6 4v-4h6zM244 391l-4 4v-4h4z M604 436l4 4h-4v-4zM662 1898l-6 -34l-35 -54l-35 -45l-35 -51l-35 -47l-16 -14l-8 -27l-29 -24l-27 -15l-45 2h-51l-33 10l-6 23l8 25l27 65l21 49l22 54l25 61l18 22l35 11l29 -2l57 -2l98 4z" />
<glyph unicode="&#xc2;" d="M838 57l2 -24v-23l-15 -10l-37 -4l-57 2l-29 16l-14 -16h-86l-22 14l-11 25l-6 47l-2 45l-8 21l-4 38l2 19l-4 14l-8 47l-17 33l-39 -4l-75 4l-62 -4l-24 -12l-9 -56l-10 -49l-8 -55l-4 -49l-12 -51l-13 -19l-28 -8h-129l-54 -2l-22 12l-8 43l8 21l2 32l12 62l12 67l9 54 l12 57l2 33l10 53l12 47l9 74l8 35l8 57l8 21v18l6 47l23 21l-19 2l9 39l12 38l-2 27l6 27l10 59l11 62l10 51l4 22l8 37l2 25l14 67l9 56l10 69l10 58l10 28l-4 13l6 20l21 14l8 17l37 -2l59 2l52 -8l12 14l39 -6l35 2l34 -4l21 -23l14 -63l8 -60l11 -63l10 -51l8 -66 l16 -47l5 -49l8 -47l-11 -21l13 -16l-2 -12l12 -15l4 -33l-8 -8l14 -14l2 -33l11 -31l6 -43l-21 -14l27 -10l4 -41l14 -70l8 -55l11 -74l12 -47v-24l14 -48l6 -53l13 -78l14 -75l8 -58l10 -61zM436 535h31l27 14l2 26l-7 56l-12 53l-8 57l-10 50l-8 63v33l-11 39l-14 35 l-25 -89l5 -20l-5 -27l-8 -65l-10 -55l-10 -64l-6 -61l6 -41l30 -7zM522 961l17 4l14 -15l8 15l-14 14l-27 6l17 16l16 -12l18 6l17 15l-33 14l-20 -8l-19 28l14 -28l-24 -2l12 -10l-2 -25zM600 555l25 2l16 -16l-6 20h-23l13 12l-4 37h-39l12 -4l6 -26v-25zM530 1122l-12 6 l4 -28l15 4l14 -4l-2 22h-19zM291 928l16 -4l8 30l-36 -16zM586 995l-15 -2l9 -24l22 -2zM276 627l27 16l-20 8l-17 -24l21 -13zM141 473l2 6l-2 21l-12 -64l-20 4l12 -16l16 20zM504 406l-6 14l-25 4l21 -27zM561 795l33 10l-19 16zM623 311l12 -2l4 25l-29 -15zM319 997 l-18 -24h27zM582 848l16 -14h6l-4 22zM352 1272l-16 10l-12 -22zM276 741l29 9l4 12l-4 6l-10 -14zM608 692v-20l13 14l-21 29zM612 891l-20 -8l14 -17zM549 930l4 -12l16 2l-2 12zM309 733l17 10l-15 17zM645 625l-24 -13l18 -8zM162 403l18 5l-10 20zM604 913l-8 15l8 18 l-20 -26zM299 1124l4 21l-20 -8zM553 1243v21l-18 -19zM352 1325l-10 -10l25 -12zM637 520l20 -14v18zM397 1210l-4 -14l31 16zM567 1090l-14 -19l10 -12zM248 629l4 14l29 21l-27 -9zM668 219l-4 25l-15 6zM301 588v14l-20 -12zM334 1028l22 -6l-20 18zM604 813l-4 -18 l16 8zM276 698l17 -12l2 14zM244 588l30 -4l-30 12v-8zM545 838l4 20l-14 -27zM602 477l10 -14l6 8zM279 815l6 -8l12 8h-18zM623 459l12 -2v12zM557 854l8 14l6 29zM670 293l-6 8v-8h6zM227 690l-6 4v-4h6zM324 1102l-7 4v-4h7zM342 889l-6 4v-4h6zM244 391l-4 4v-4h4z M604 436l4 4h-4v-4zM674 1749l26 -4l13 -27l4 -32v-56l-6 -26l-25 -9l-27 4l-49 15l-49 22l-51 31l-29 25l-28 12l-52 6l-2 -8l-26 -21l-15 7v-11l-20 -20l-49 -29l-41 -10l-17 -10l-45 -13l-32 15l-9 37l7 75l18 23l25 14l51 35l86 86v-20l18 47l23 28l22 13l70 -4l33 -15 l2 -18h8l20 -21l37 -47l23 -20l35 -37l30 -14zM557 1745v-12l18 4zM403 1784l11 -6l2 16z" />
<glyph unicode="&#xc3;" d="M838 57l2 -24v-23l-15 -10l-37 -4l-57 2l-29 16l-14 -16h-86l-22 14l-11 25l-6 47l-2 45l-8 21l-4 38l2 19l-4 14l-8 47l-17 33l-39 -4l-75 4l-62 -4l-24 -12l-9 -56l-10 -49l-8 -55l-4 -49l-12 -51l-13 -19l-28 -8h-129l-54 -2l-22 12l-8 43l8 21l2 32l12 62l12 67l9 54 l12 57l2 33l10 53l12 47l9 74l8 35l8 57l8 21v18l6 47l23 21l-19 2l9 39l12 38l-2 27l6 27l10 59l11 62l10 51l4 22l8 37l2 25l14 67l9 56l10 69l10 58l10 28l-4 13l6 20l21 14l8 17l37 -2l59 2l52 -8l12 14l39 -6l35 2l34 -4l21 -23l14 -63l8 -60l11 -63l10 -51l8 -66 l16 -47l5 -49l8 -47l-11 -21l13 -16l-2 -12l12 -15l4 -33l-8 -8l14 -14l2 -33l11 -31l6 -43l-21 -14l27 -10l4 -41l14 -70l8 -55l11 -74l12 -47v-24l14 -48l6 -53l13 -78l14 -75l8 -58l10 -61zM436 535h31l27 14l2 26l-7 56l-12 53l-8 57l-10 50l-8 63v33l-11 39l-14 35 l-25 -89l5 -20l-5 -27l-8 -65l-10 -55l-10 -64l-6 -61l6 -41l30 -7zM522 961l17 4l14 -15l8 15l-14 14l-27 6l17 16l16 -12l18 6l17 15l-33 14l-20 -8l-19 28l14 -28l-24 -2l12 -10l-2 -25zM600 555l25 2l16 -16l-6 20h-23l13 12l-4 37h-39l12 -4l6 -26v-25zM530 1122l-12 6 l4 -28l15 4l14 -4l-2 22h-19zM291 928l16 -4l8 30l-36 -16zM586 995l-15 -2l9 -24l22 -2zM276 627l27 16l-20 8l-17 -24l21 -13zM141 473l2 6l-2 21l-12 -64l-20 4l12 -16l16 20zM504 406l-6 14l-25 4l21 -27zM561 795l33 10l-19 16zM623 311l12 -2l4 25l-29 -15zM319 997 l-18 -24h27zM582 848l16 -14h6l-4 22zM352 1272l-16 10l-12 -22zM276 741l29 9l4 12l-4 6l-10 -14zM608 692v-20l13 14l-21 29zM612 891l-20 -8l14 -17zM549 930l4 -12l16 2l-2 12zM309 733l17 10l-15 17zM645 625l-24 -13l18 -8zM162 403l18 5l-10 20zM604 913l-8 15l8 18 l-20 -26zM299 1124l4 21l-20 -8zM553 1243v21l-18 -19zM352 1325l-10 -10l25 -12zM637 520l20 -14v18zM397 1210l-4 -14l31 16zM567 1090l-14 -19l10 -12zM248 629l4 14l29 21l-27 -9zM668 219l-4 25l-15 6zM301 588v14l-20 -12zM334 1028l22 -6l-20 18zM604 813l-4 -18 l16 8zM276 698l17 -12l2 14zM244 588l30 -4l-30 12v-8zM545 838l4 20l-14 -27zM602 477l10 -14l6 8zM279 815l6 -8l12 8h-18zM623 459l12 -2v12zM557 854l8 14l6 29zM670 293l-6 8v-8h6zM227 690l-6 4v-4h6zM324 1102l-7 4v-4h7zM342 889l-6 4v-4h6zM244 391l-4 4v-4h4z M604 436l4 4h-4v-4zM711 1858l14 -25l4 -33l-2 -33l-8 -26l-19 -55l-63 -60l-33 -16l-41 -11l-26 3l-50 2l-18 8l-68 26l-55 27l-29 6l-32 -16l-11 -35l-12 -23l-29 -10l-26 -2l-37 4l-25 23l-6 35l13 65l18 45l33 41l61 39l72 12l59 -10l49 -18l54 -27l57 -14l29 8l12 27 l6 30l25 15l49 4zM571 1677l2 21l-28 -2zM381 1729l10 12l-22 14l-4 -2z" />
<glyph unicode="&#xc4;" d="M838 57l2 -24v-23l-15 -10l-37 -4l-57 2l-29 16l-14 -16h-86l-22 14l-11 25l-6 47l-2 45l-8 21l-4 38l2 19l-4 14l-8 47l-17 33l-39 -4l-75 4l-62 -4l-24 -12l-9 -56l-10 -49l-8 -55l-4 -49l-12 -51l-13 -19l-28 -8h-129l-54 -2l-22 12l-8 43l8 21l2 32l12 62l12 67l9 54 l12 57l2 33l10 53l12 47l9 74l8 35l8 57l8 21v18l6 47l23 21l-19 2l9 39l12 38l-2 27l6 27l10 59l11 62l10 51l4 22l8 37l2 25l14 67l9 56l10 69l10 58l10 28l-4 13l6 20l21 14l8 17l37 -2l59 2l52 -8l12 14l39 -6l35 2l34 -4l21 -23l14 -63l8 -60l11 -63l10 -51l8 -66 l16 -47l5 -49l8 -47l-11 -21l13 -16l-2 -12l12 -15l4 -33l-8 -8l14 -14l2 -33l11 -31l6 -43l-21 -14l27 -10l4 -41l14 -70l8 -55l11 -74l12 -47v-24l14 -48l6 -53l13 -78l14 -75l8 -58l10 -61zM436 535h31l27 14l2 26l-7 56l-12 53l-8 57l-10 50l-8 63v33l-11 39l-14 35 l-25 -89l5 -20l-5 -27l-8 -65l-10 -55l-10 -64l-6 -61l6 -41l30 -7zM522 961l17 4l14 -15l8 15l-14 14l-27 6l17 16l16 -12l18 6l17 15l-33 14l-20 -8l-19 28l14 -28l-24 -2l12 -10l-2 -25zM600 555l25 2l16 -16l-6 20h-23l13 12l-4 37h-39l12 -4l6 -26v-25zM530 1122l-12 6 l4 -28l15 4l14 -4l-2 22h-19zM291 928l16 -4l8 30l-36 -16zM586 995l-15 -2l9 -24l22 -2zM276 627l27 16l-20 8l-17 -24l21 -13zM141 473l2 6l-2 21l-12 -64l-20 4l12 -16l16 20zM504 406l-6 14l-25 4l21 -27zM561 795l33 10l-19 16zM623 311l12 -2l4 25l-29 -15zM319 997 l-18 -24h27zM582 848l16 -14h6l-4 22zM352 1272l-16 10l-12 -22zM276 741l29 9l4 12l-4 6l-10 -14zM608 692v-20l13 14l-21 29zM612 891l-20 -8l14 -17zM549 930l4 -12l16 2l-2 12zM309 733l17 10l-15 17zM645 625l-24 -13l18 -8zM162 403l18 5l-10 20zM604 913l-8 15l8 18 l-20 -26zM299 1124l4 21l-20 -8zM553 1243v21l-18 -19zM352 1325l-10 -10l25 -12zM637 520l20 -14v18zM397 1210l-4 -14l31 16zM567 1090l-14 -19l10 -12zM248 629l4 14l29 21l-27 -9zM668 219l-4 25l-15 6zM301 588v14l-20 -12zM334 1028l22 -6l-20 18zM604 813l-4 -18 l16 8zM276 698l17 -12l2 14zM244 588l30 -4l-30 12v-8zM545 838l4 20l-14 -27zM602 477l10 -14l6 8zM279 815l6 -8l12 8h-18zM623 459l12 -2v12zM557 854l8 14l6 29zM670 293l-6 8v-8h6zM227 690l-6 4v-4h6zM324 1102l-7 4v-4h7zM342 889l-6 4v-4h6zM244 391l-4 4v-4h4z M604 436l4 4h-4v-4zM682 1724l2 -30l-2 -70l-10 -27l-27 -6h-27l-59 -4l-68 4l-18 11l-8 22l-2 23l2 51l6 18l-8 23l4 51l10 31l27 8l33 2l122 -4l19 -17l4 -28v-58zM399 1784v-29l-2 -31l4 -38l-6 -72l-16 -21l-31 -6h-33l-30 6l-45 -6l-27 4l-23 13l-6 26v176l15 21l45 4 l22 -6l55 8l60 -4l14 -21zM614 1716l-10 13l-18 10l6 -19zM303 1716l18 -16l7 20l-15 -6zM547 1737l14 -2l4 16zM303 1716l-10 2l4 -14z" />
<glyph unicode="&#xc5;" d="M838 57l2 -24v-23l-15 -10l-37 -4l-57 2l-29 16l-14 -16h-86l-22 14l-11 25l-6 47l-2 45l-8 21l-4 38l2 19l-4 14l-8 47l-17 33l-39 -4l-75 4l-62 -4l-24 -12l-9 -56l-10 -49l-8 -55l-4 -49l-12 -51l-13 -19l-28 -8h-129l-54 -2l-22 12l-8 43l8 21l2 32l12 62l12 67l9 54 l12 57l2 33l10 53l12 47l9 74l8 35l8 57l8 21v18l6 47l23 21l-19 2l9 39l12 38l-2 27l6 27l10 59l11 62l10 51l4 22l8 37l2 25l14 67l9 56l10 69l10 58l10 28l-4 13l6 20l21 14l8 17l37 -2l59 2l52 -8l12 14l39 -6l35 2l34 -4l21 -23l14 -63l8 -60l11 -63l10 -51l8 -66 l16 -47l5 -49l8 -47l-11 -21l13 -16l-2 -12l12 -15l4 -33l-8 -8l14 -14l2 -33l11 -31l6 -43l-21 -14l27 -10l4 -41l14 -70l8 -55l11 -74l12 -47v-24l14 -48l6 -53l13 -78l14 -75l8 -58l10 -61zM436 535h31l27 14l2 26l-7 56l-12 53l-8 57l-10 50l-8 63v33l-11 39l-14 35 l-25 -89l5 -20l-5 -27l-8 -65l-10 -55l-10 -64l-6 -61l6 -41l30 -7zM522 961l17 4l14 -15l8 15l-14 14l-27 6l17 16l16 -12l18 6l17 15l-33 14l-20 -8l-19 28l14 -28l-24 -2l12 -10l-2 -25zM600 555l25 2l16 -16l-6 20h-23l13 12l-4 37h-39l12 -4l6 -26v-25zM530 1122l-12 6 l4 -28l15 4l14 -4l-2 22h-19zM291 928l16 -4l8 30l-36 -16zM586 995l-15 -2l9 -24l22 -2zM276 627l27 16l-20 8l-17 -24l21 -13zM141 473l2 6l-2 21l-12 -64l-20 4l12 -16l16 20zM504 406l-6 14l-25 4l21 -27zM561 795l33 10l-19 16zM623 311l12 -2l4 25l-29 -15zM319 997 l-18 -24h27zM582 848l16 -14h6l-4 22zM352 1272l-16 10l-12 -22zM276 741l29 9l4 12l-4 6l-10 -14zM608 692v-20l13 14l-21 29zM612 891l-20 -8l14 -17zM549 930l4 -12l16 2l-2 12zM309 733l17 10l-15 17zM645 625l-24 -13l18 -8zM162 403l18 5l-10 20zM604 913l-8 15l8 18 l-20 -26zM299 1124l4 21l-20 -8zM553 1243v21l-18 -19zM352 1325l-10 -10l25 -12zM637 520l20 -14v18zM397 1210l-4 -14l31 16zM567 1090l-14 -19l10 -12zM248 629l4 14l29 21l-27 -9zM668 219l-4 25l-15 6zM301 588v14l-20 -12zM334 1028l22 -6l-20 18zM604 813l-4 -18 l16 8zM276 698l17 -12l2 14zM244 588l30 -4l-30 12v-8zM545 838l4 20l-14 -27zM602 477l10 -14l6 8zM279 815l6 -8l12 8h-18zM623 459l12 -2v12zM557 854l8 14l6 29zM670 293l-6 8v-8h6zM227 690l-6 4v-4h6zM324 1102l-7 4v-4h7zM342 889l-6 4v-4h6zM244 391l-4 4v-4h4z M604 436l4 4h-4v-4zM622 1817l-2 -37l-4 -37l-10 -37l-27 -49l-28 -25l-64 -39l-61 -6l-58 8l-55 31l-27 25l-18 28l-21 45l-8 41v33l13 60l24 49l49 47l60 22l55 9l29 -5l61 -24l61 -60l21 -41zM497 1753l13 16l-9 41l-14 25l-41 27l-57 -2l-15 -23l-14 -57l6 -27l15 -24 l24 -19l33 -6l24 10l21 17z" />
<glyph unicode="&#xc6;" horiz-adv-x="1294" d="M1247 115l4 -74l-8 -31h-24l-13 -10l-28 -4l-21 4l-53 -4l-25 6l-26 -6l-29 2h-113l-53 2l-22 -4l-29 4l-29 -2l-51 -4l-29 6l-59 -4l-33 2l-24 16l-7 33v117l5 47l-2 25l-3 53l-20 18l-27 2h-100l-57 -4l-23 -31l-4 -26l-14 -55l-17 -50l-14 -45v-18l-8 -12l-12 -43 l-25 -25l-35 -2h-63l-70 -2l-51 4l-21 12l-2 27l19 63l16 62l10 16l4 25l13 49l30 92l11 39l16 61l16 58l19 59l16 58l19 65l18 55l14 52l17 53l20 67l17 66l20 57l15 54l16 55l37 129l14 49l12 43l15 49l24 53l29 13l78 2l45 -4l20 4h50l51 -8l16 6h148l55 -2h53l55 6 l31 -2h115l35 -10l14 -29l2 -31l-4 -47l6 -49l-4 -23l2 -18l-14 -29l-31 -8l-31 2l-63 -2h-62l-32 -4l-70 2h-60l-22 -10l-4 -31l2 -33l-4 -28l4 -60l-2 -63l-10 -19l10 -41l2 -57l43 -14l18 4l41 -2l88 4l58 -6l35 -21l2 -26l-2 -56l2 -51v-53l-25 -23h-37l-4 21l-10 -25 l-39 15l-12 -15h-62l-53 2l-27 -6l-14 6l-2 -51l2 -55l-4 -58l2 -57v-111l-6 -67l33 -8l55 2l63 -4l74 4h76l80 -2l22 -25l4 -35zM438 586l4 -31l27 -8l68 -4l22 8l16 20l5 39l-7 39l5 33l-5 59l2 58l5 53v59l-5 33v72l-10 12l-22 -63l-19 -74l-18 -62l-12 -51l-19 -57 l-10 -51l-14 -52zM698 1038l-12 -22l21 8l16 23l39 4l-23 8v28l-4 -20l-26 -20v34l24 29l-10 10l-21 -18l-12 -21l-18 -8l-8 21l16 8h-23l-14 -25l21 -8l14 -22v20h22zM569 1331l-39 -41l7 2l14 19l24 -23l-18 -16l-10 12l16 -31l31 19l-19 16l15 6l-23 29h29l47 18l-12 5 l4 16l-21 18l-6 -4l-6 -18l14 8l-22 -35h-25zM672 893l-27 -12l19 -13l45 2l10 -20l10 -8l16 10l-12 -18l19 -19l22 12l-12 25l-14 8l-9 14l-22 -10v17h-12l-15 -9l-2 35zM760 1399l-12 -21l6 -16l12 -10l16 -56l21 4l-15 7l-2 30l2 13zM811 715l-23 8l11 16l-17 19l-14 -19 l-6 15l-6 -19l-15 10l7 -16l18 4l-2 -24l35 -2l-15 -13l25 13zM678 1346l-10 2v-37l22 12l-12 14l16 13l4 -15l7 33l10 12l-23 11l-2 -33zM446 954l-36 25v22l-13 -20l2 -18l-14 -13l25 4l16 -8zM446 1012l9 -15l22 7l-6 20l-18 -6l-23 20l-2 -20l-14 -14zM893 743l-4 -14 l22 -8l15 4l-11 14l13 39l-13 15l5 -21l-15 -16l6 -15zM750 514l32 16v9l-10 36zM711 707l34 -7l-6 19l-20 -4l-14 16l-17 -35zM641 821l23 8l24 2l-10 15l-31 4zM399 899l25 -4l-18 4l8 29l-25 14l-4 -22zM651 1034l-8 -16l25 -2l2 28l-29 9zM764 1176l-10 6l-4 -13l-9 13 l-6 -23l25 -16zM758 965l14 -11l8 9l-12 18l-14 2l-25 -10zM657 938l-22 -6l20 -4l19 -15l12 25h-29zM641 510l6 -18l29 -7l-12 27zM758 602l16 19l-8 22l-18 -22zM766 1014l-8 22l-31 -4l18 -14l-4 -6zM733 586l21 -15v19l-37 8l10 -29zM717 324l10 16l-18 6h-29zM725 426 l4 12l8 8l-10 13l-22 -15zM524 1255v-24l19 -17l-2 31zM690 821l31 -20l4 24l-10 6h-10l6 -20zM289 492l24 -3l-22 21l-12 -12v-17zM598 1030l23 12l-23 19v-31zM623 963l28 -5l6 9l15 6h-27zM700 1286l-4 19l-30 -27zM453 1065l-21 -10l12 -15l13 9zM420 1135l-12 -15l20 2 l-4 -14l16 12zM840 709l18 -11l8 15l-8 30l4 -26zM737 303l27 2l-12 19zM713 770l28 -12l11 12h-39zM477 1083l2 -18l10 22l-24 11zM633 1266l-4 -25l12 -29zM698 1278l-4 -27l21 31zM911 76h21l-12 20zM760 422l-10 6l-9 -35zM811 1081l-12 17l-6 -25zM920 59l41 7l-25 6z M549 1350l-12 4l-5 -31zM690 530l4 -18l19 12zM586 1399l20 -2l-2 18zM666 1133l-17 -9l8 -18zM592 1309l20 -4l4 16zM649 756l17 14l-13 8zM557 1378l-10 -10l4 2l37 4zM676 1202l-4 -16l16 -4zM500 414l-17 30v-16zM727 1389l21 -5l-21 17v-12zM709 580l-23 10l16 -19z M801 1286l18 4l-14 10zM436 979l13 4l-23 12zM782 131l9 -10l14 10h-23zM694 559l-6 -14l14 -4zM698 1243l-16 -8l4 -10zM807 115l31 20h-11zM692 750h13l-17 16zM776 664l-6 14l12 14l-18 -12zM360 856l35 -29l-14 17zM721 1135l-19 -13l7 -4zM727 172l18 -6l-20 12z M461 1147l-10 -6l16 6v8zM885 698l4 7l-6 4zM696 930l-6 4v-4h6zM590 604l-6 4v-4h6zM735 410l-6 4v-4h6z" />
<glyph unicode="&#xc7;" horiz-adv-x="851" d="M651 -274v-31l-8 -33l-27 -55l-22 -27l-68 -47l-28 -8l-60 -8l-59 4l-64 16l-28 21v41l6 43l31 18l65 -10h25l26 6l31 20l8 37l-8 39l-10 23l-31 -2l-45 -2l-25 -9h-26l-25 9l-28 22l-7 35l33 43l35 51l39 55l-37 7l-68 14l-30 12l-23 19l-22 10l-41 35l-31 32l-10 41 l-10 5l-23 24l-2 37l-27 43l-2 51l2 55l-6 25l-2 66l4 30l-4 35l4 35l-2 27v204l8 23l-10 24l12 29h-6l-4 39v164l2 55l-4 21l12 39l-4 28l25 86l33 64l28 33l50 45l18 8l29 22l53 19l55 14l43 2l23 6l53 -2l53 -4l51 -12l56 -27l53 -39l51 -51l23 -31l6 -28l12 -27l21 -61 l6 -66v-67l6 -41l-6 -60l4 -43l-21 -37h-30l-60 -2l-61 -2l-60 2l-30 21l-2 53l-4 53v66l-3 63l-24 58l-23 30l-39 9h-28l2 22l-4 21l-17 2l11 -45l-48 -25l-26 -35l-10 -33l2 -26l-4 -23l2 -45v-51l4 -43l-4 -16l2 -35l-2 -62l2 -59v-47l-2 -55v-246l-4 -51l4 -29l4 -55 l8 -52l16 -20l21 -16l22 -11l62 -8l49 29l14 30l13 48l-3 43l5 45l-5 49l5 18l-2 21v47l16 37l27 6h84l59 2l24 -6l19 2l27 -13l4 -12l4 -76l2 -57v-121l-4 -28l-11 -52l-16 -51l-18 -47l-37 -41l-41 -41l-51 -35l-64 -26l-45 -8l-6 -19l-25 -27l-14 -32l14 -17l58 -6 l34 -14l35 -33l35 -53zM131 991l-10 -18l2 -15l10 13l19 -15l-7 21l19 8l8 21l-29 30l21 15l-19 28l7 -16l-17 -14l2 -48l8 21l23 -21l-14 -8zM225 907l-18 4l14 -8l6 -12l-12 -14l21 -31l14 10l20 6l-30 23l10 26zM158 774l14 -4l-4 21l14 2l-18 28l18 27l-30 -19l10 -14 l-17 -27l23 3zM223 598h21l-13 14l-24 15l-19 -2l11 -11l6 -22zM150 459l14 -21l18 17l-12 26l-23 -16l-20 6zM184 1065l-12 -29l21 -22l6 47zM256 209l14 6l4 -6l13 35l-17 -17l-26 21zM211 211l14 6l-8 -27l29 5l-25 43zM119 844l-19 14l-12 -22l6 -23zM96 326l10 -9 l11 -26l10 10l-21 39l-26 -12zM266 1235l4 20l-22 13l-6 -27zM135 256l45 10l-2 15l-16 2zM199 162h8l-10 10l10 14l-35 -10l18 -4l-10 -18zM336 156l2 -17l29 -22l-11 24zM150 940l-39 -14l47 8l20 -6l-10 14zM215 1260l16 6l-8 12l-22 -16l2 -13zM385 102l2 -8l23 -2l4 17 zM150 631l26 16l-12 4l-21 -12zM221 279l15 22h-21l-12 10l14 -16zM158 1118l24 -2l-24 23v-21zM209 983l-43 -8l18 -8zM139 885l17 14l-21 12zM100 967l-10 -17l27 21l-13 12zM160 922l16 -19h25zM168 412l6 -17l23 8zM139 426l-22 6l14 -22zM225 106l17 9l-19 14zM223 465 l13 6l-35 -8l16 -10zM559 975l-12 -21l24 11zM246 340l24 -21l-6 19zM326 98l-21 31l10 -31h11zM256 1124l-16 -2l22 -6l12 10zM553 215l-6 -16h18zM641 1098l21 -11l-9 19zM201 365l18 8l-12 10zM186 385l-2 -20l-2 -35l6 26zM147 287l-20 14v-12zM377 70l-15 -21l-4 -22z M127 578l12 -9l4 -16l11 8zM129 1163l-2 -12l14 -10zM457 1278h10l-21 18zM420 141l-4 -10l12 -12zM643 1292l-6 -2l14 -20zM233 442l21 -8l-14 8h-7zM215 831l10 -2l-35 11zM698 387l4 2l-4 4v-6zM129 242l-4 4v-4h4z" />
<glyph unicode="&#xc8;" horiz-adv-x="802" d="M760 84v-43l-4 -25l-17 -16l-61 -4l-29 4h-55l-45 -4l-45 6l-31 -6l-24 2l-56 -2l-65 4l-58 -2l-45 2h-100l-23 10l-10 37l-2 27l2 71l-4 29l2 59l-2 62l4 47v57l-4 64v57l4 53l-6 17l4 69v121l4 39l-6 31l4 47l-4 64l4 53l-2 57l-4 45l4 23l-4 24l4 27l-2 24l2 52v118 l4 46l-4 24l14 21l54 10l14 -6l27 4l22 -4l35 4h238l55 -2l76 -2l75 4l13 -13l18 5l14 -39l-4 -23l7 -16l-3 -33l-2 -53l-6 -56l-28 -16l-37 2l-56 2l-18 -4l-35 6l-12 -4h-76l-57 4l-33 -4l-18 -10l-9 -27l4 -59l-4 -17l2 -18l-4 -23l4 -24v-57l2 -54l-4 -39l17 -28l24 -4 l27 2l61 4l23 -4l51 -2l53 2l21 -13l8 -26l-4 -27l6 -26l-2 -60l-2 -55l-12 -21l-29 -8l-33 2l-75 -4l-37 6l-80 -6l-15 -37v-51l-12 -4l14 -16l-4 -29l4 -29l-2 -26l2 -54l-6 -43l4 -47l9 -59l28 -8h129l17 4l16 -2l53 -2l54 4l49 -4l39 -13l4 -20l4 -66zM295 813l-19 -2 l-8 16l19 -2l-27 4l-14 -14h14l14 -16l21 -13l14 -2l-6 19l19 -2l6 18l-31 10zM324 1288l-2 23l-17 -8l-2 -17l-20 -6l6 -16l16 10l2 -14l19 -5l-15 15zM225 684l15 -12l-7 -19h19l-4 23l4 24zM160 1153l-10 -20l12 -29l26 2l-28 22v25zM152 1020l4 -6l20 28l-14 -8l4 21 l-25 -17zM203 618l12 5v20l-18 12l-4 -12zM317 702l13 21l-17 20l2 -12l-6 -16h-16zM299 662l10 12l-28 -15l-2 19l-17 -12l27 -13l4 -12zM268 961l-4 -13l19 -16l4 33zM217 1182l19 -13l14 9l-10 10l-4 10zM207 1096l4 -23l33 23h-37zM217 901l-4 -27l14 5l13 12l2 10 l-11 -8zM283 1036l-29 31l-8 -25l16 2zM160 846l-4 -15l26 9l-4 16zM199 313l16 23l-25 6zM279 1325l-11 6l23 -18l14 16l-16 -2l-8 19zM141 803l21 -12v30zM354 190l-16 15l-27 2l11 -10zM313 117l-4 12l6 14l-8 11l-8 -27zM184 535l-16 -19l14 -18zM213 1274l-10 12 l12 -31l-8 -14l22 31zM178 1061l4 20l-18 13zM147 731l-20 10l6 -22zM248 221l10 -16l12 18zM199 1010l-6 20l-11 10l2 -18zM678 78l14 -2l-14 28v-26zM174 684l-4 -25l16 7zM399 811l9 -25l10 15zM272 698l17 15l-17 8v-23zM240 1260l-7 -13l17 -24zM197 825l12 -26l-4 22 l8 15zM274 512l13 6l-21 6l-2 -10zM217 508l27 -6l-13 12zM266 182l6 13l-18 4zM270 1243l9 17l-15 2zM248 1292l-6 -10l18 -6zM444 764l15 -10l10 22l-14 -18zM244 1004l-13 -5l-8 -12zM291 1055h-10l16 -8zM467 678l-6 6v-6h6zM725 1348l-6 6v-6h6zM156 1063l-6 4v-4h6z M510 1659l8 -31l-4 -29l-35 -10h-98l-12 10l-25 11l-24 43l-15 12l-24 43l-27 27l-6 16l-14 10l-23 39l-33 41l-22 39l6 21l23 6l28 -4l37 6h113l37 -8l16 -25l27 -51l6 -31zM352 1774l-4 6l-20 35l4 -27zM264 1872l-6 6v-6h6z" />
<glyph unicode="&#xc9;" horiz-adv-x="802" d="M760 84v-43l-4 -25l-17 -16l-61 -4l-29 4h-55l-45 -4l-45 6l-31 -6l-24 2l-56 -2l-65 4l-58 -2l-45 2h-100l-23 10l-10 37l-2 27l2 71l-4 29l2 59l-2 62l4 47v57l-4 64v57l4 53l-6 17l4 69v121l4 39l-6 31l4 47l-4 64l4 53l-2 57l-4 45l4 23l-4 24l4 27l-2 24l2 52v118 l4 46l-4 24l14 21l54 10l14 -6l27 4l22 -4l35 4h238l55 -2l76 -2l75 4l13 -13l18 5l14 -39l-4 -23l7 -16l-3 -33l-2 -53l-6 -56l-28 -16l-37 2l-56 2l-18 -4l-35 6l-12 -4h-76l-57 4l-33 -4l-18 -10l-9 -27l4 -59l-4 -17l2 -18l-4 -23l4 -24v-57l2 -54l-4 -39l17 -28l24 -4 l27 2l61 4l23 -4l51 -2l53 2l21 -13l8 -26l-4 -27l6 -26l-2 -60l-2 -55l-12 -21l-29 -8l-33 2l-75 -4l-37 6l-80 -6l-15 -37v-51l-12 -4l14 -16l-4 -29l4 -29l-2 -26l2 -54l-6 -43l4 -47l9 -59l28 -8h129l17 4l16 -2l53 -2l54 4l49 -4l39 -13l4 -20l4 -66zM295 813l-19 -2 l-8 16l19 -2l-27 4l-14 -14h14l14 -16l21 -13l14 -2l-6 19l19 -2l6 18l-31 10zM324 1288l-2 23l-17 -8l-2 -17l-20 -6l6 -16l16 10l2 -14l19 -5l-15 15zM225 684l15 -12l-7 -19h19l-4 23l4 24zM160 1153l-10 -20l12 -29l26 2l-28 22v25zM152 1020l4 -6l20 28l-14 -8l4 21 l-25 -17zM203 618l12 5v20l-18 12l-4 -12zM317 702l13 21l-17 20l2 -12l-6 -16h-16zM299 662l10 12l-28 -15l-2 19l-17 -12l27 -13l4 -12zM268 961l-4 -13l19 -16l4 33zM217 1182l19 -13l14 9l-10 10l-4 10zM207 1096l4 -23l33 23h-37zM217 901l-4 -27l14 5l13 12l2 10 l-11 -8zM283 1036l-29 31l-8 -25l16 2zM160 846l-4 -15l26 9l-4 16zM199 313l16 23l-25 6zM279 1325l-11 6l23 -18l14 16l-16 -2l-8 19zM141 803l21 -12v30zM354 190l-16 15l-27 2l11 -10zM313 117l-4 12l6 14l-8 11l-8 -27zM184 535l-16 -19l14 -18zM213 1274l-10 12 l12 -31l-8 -14l22 31zM178 1061l4 20l-18 13zM147 731l-20 10l6 -22zM248 221l10 -16l12 18zM199 1010l-6 20l-11 10l2 -18zM678 78l14 -2l-14 28v-26zM174 684l-4 -25l16 7zM399 811l9 -25l10 15zM272 698l17 15l-17 8v-23zM240 1260l-7 -13l17 -24zM197 825l12 -26l-4 22 l8 15zM274 512l13 6l-21 6l-2 -10zM217 508l27 -6l-13 12zM266 182l6 13l-18 4zM270 1243l9 17l-15 2zM248 1292l-6 -10l18 -6zM444 764l15 -10l10 22l-14 -18zM244 1004l-13 -5l-8 -12zM291 1055h-10l16 -8zM467 678l-6 6v-6h6zM725 1348l-6 6v-6h6zM156 1063l-6 4v-4h6z M692 1898l-6 -34l-35 -54l-35 -45l-35 -51l-35 -47l-16 -14l-8 -27l-29 -24l-27 -15l-45 2h-51l-33 10l-6 23l8 25l27 65l21 49l22 54l25 61l18 22l35 11l29 -2l57 -2l98 4z" />
</font>
</defs>
</svg>
