<svg id="Layer_1" data-name="Layer 1" xmlns="http://www.w3.org/2000/svg" viewBox="0 0 1403.08 1403.08"><defs><style>.cls-1,.cls-2,.cls-3{fill:#009fe3;}.cls-1{opacity:0.1;}.cls-2{opacity:0.2;}.cls-4{fill:none;}.cls-5{fill:#0d0802;}</style></defs><title>diamond</title><path class="cls-1" d="M701.54,0,0,701.54l701.54,701.54,701.54-701.54Zm0,1202.64-501.1-501.1,501.1-501.1,501.1,501.1Z"/><path class="cls-1" d="M701.54,200.44l-501.1,501.1,501.1,501.1,501.1-501.1Zm0,901.54L300.66,701.1,701.54,300.22,1102.42,701.1Z"/><path class="cls-2" d="M701.54,200.44l-501.1,501.1,501.1,501.1,501.1-501.1Zm0,901.54L300.66,701.1,701.54,300.22,1102.42,701.1Z"/><path class="cls-3" d="M701.54,300.22,300.66,701.1,701.54,1102,1102.42,701.1ZM441,700.53,701.54,440,962.11,700.53,701.54,961.1Z"/><path class="cls-4" d="M701.54,440,441,700.53,701.54,961.1,962.11,700.53Zm0,462L501.1,701.54,701.54,501.1,902,701.54Z"/><path class="cls-5" d="M701.54,501.1,501.1,701.54,701.54,902,902,701.54Zm0,300.22L601.32,701.1,701.54,600.88,801.76,701.1Z"/><rect class="cls-4" x="630.67" y="630.23" width="141.73" height="141.73" transform="translate(-290.28 701.41) rotate(-45)"/></svg>